%TF.GenerationSoftware,KiCad,Pcbnew,(5.1.9)-1*%
%TF.CreationDate,2021-07-30T23:28:39+09:30*%
%TF.ProjectId,tyre_temp_sense,74797265-5f74-4656-9d70-5f73656e7365,rev?*%
%TF.SameCoordinates,Original*%
%TF.FileFunction,Legend,Top*%
%TF.FilePolarity,Positive*%
%FSLAX46Y46*%
G04 Gerber Fmt 4.6, Leading zero omitted, Abs format (unit mm)*
G04 Created by KiCad (PCBNEW (5.1.9)-1) date 2021-07-30 23:28:39*
%MOMM*%
%LPD*%
G01*
G04 APERTURE LIST*
%ADD10C,0.300000*%
%ADD11C,0.120000*%
%ADD12C,0.100000*%
%ADD13C,0.110000*%
%ADD14C,0.150000*%
G04 APERTURE END LIST*
D10*
X84688571Y-79468571D02*
X85760000Y-79468571D01*
X85974285Y-79540000D01*
X86117142Y-79682857D01*
X86188571Y-79897142D01*
X86188571Y-80040000D01*
X86188571Y-78040000D02*
X86188571Y-78754285D01*
X84688571Y-78754285D01*
X86045714Y-76682857D02*
X86117142Y-76754285D01*
X86188571Y-76968571D01*
X86188571Y-77111428D01*
X86117142Y-77325714D01*
X85974285Y-77468571D01*
X85831428Y-77540000D01*
X85545714Y-77611428D01*
X85331428Y-77611428D01*
X85045714Y-77540000D01*
X84902857Y-77468571D01*
X84760000Y-77325714D01*
X84688571Y-77111428D01*
X84688571Y-76968571D01*
X84760000Y-76754285D01*
X84831428Y-76682857D01*
X84688571Y-75611428D02*
X85760000Y-75611428D01*
X85974285Y-75682857D01*
X86117142Y-75825714D01*
X86188571Y-76040000D01*
X86188571Y-76182857D01*
X86188571Y-74182857D02*
X86188571Y-74897142D01*
X84688571Y-74897142D01*
X86045714Y-72825714D02*
X86117142Y-72897142D01*
X86188571Y-73111428D01*
X86188571Y-73254285D01*
X86117142Y-73468571D01*
X85974285Y-73611428D01*
X85831428Y-73682857D01*
X85545714Y-73754285D01*
X85331428Y-73754285D01*
X85045714Y-73682857D01*
X84902857Y-73611428D01*
X84760000Y-73468571D01*
X84688571Y-73254285D01*
X84688571Y-73111428D01*
X84760000Y-72897142D01*
X84831428Y-72825714D01*
X84688571Y-71754285D02*
X85760000Y-71754285D01*
X85974285Y-71825714D01*
X86117142Y-71968571D01*
X86188571Y-72182857D01*
X86188571Y-72325714D01*
X86188571Y-70325714D02*
X86188571Y-71040000D01*
X84688571Y-71040000D01*
X86045714Y-68968571D02*
X86117142Y-69040000D01*
X86188571Y-69254285D01*
X86188571Y-69397142D01*
X86117142Y-69611428D01*
X85974285Y-69754285D01*
X85831428Y-69825714D01*
X85545714Y-69897142D01*
X85331428Y-69897142D01*
X85045714Y-69825714D01*
X84902857Y-69754285D01*
X84760000Y-69611428D01*
X84688571Y-69397142D01*
X84688571Y-69254285D01*
X84760000Y-69040000D01*
X84831428Y-68968571D01*
X84688571Y-67897142D02*
X85760000Y-67897142D01*
X85974285Y-67968571D01*
X86117142Y-68111428D01*
X86188571Y-68325714D01*
X86188571Y-68468571D01*
X86188571Y-66468571D02*
X86188571Y-67182857D01*
X84688571Y-67182857D01*
X86045714Y-65111428D02*
X86117142Y-65182857D01*
X86188571Y-65397142D01*
X86188571Y-65540000D01*
X86117142Y-65754285D01*
X85974285Y-65897142D01*
X85831428Y-65968571D01*
X85545714Y-66040000D01*
X85331428Y-66040000D01*
X85045714Y-65968571D01*
X84902857Y-65897142D01*
X84760000Y-65754285D01*
X84688571Y-65540000D01*
X84688571Y-65397142D01*
X84760000Y-65182857D01*
X84831428Y-65111428D01*
D11*
X97955610Y-72800000D02*
G75*
G03*
X97955610Y-72800000I-225610J0D01*
G01*
X95424605Y-53940000D02*
G75*
G03*
X95424605Y-53940000I-284605J0D01*
G01*
X94684722Y-44820000D02*
G75*
G03*
X94684722Y-44820000I-224722J0D01*
G01*
D12*
X98513761Y-88276190D02*
X98347095Y-88038095D01*
X98228047Y-88276190D02*
X98228047Y-87776190D01*
X98418523Y-87776190D01*
X98466142Y-87800000D01*
X98489952Y-87823809D01*
X98513761Y-87871428D01*
X98513761Y-87942857D01*
X98489952Y-87990476D01*
X98466142Y-88014285D01*
X98418523Y-88038095D01*
X98228047Y-88038095D01*
X98942333Y-88276190D02*
X98942333Y-88014285D01*
X98918523Y-87966666D01*
X98870904Y-87942857D01*
X98775666Y-87942857D01*
X98728047Y-87966666D01*
X98942333Y-88252380D02*
X98894714Y-88276190D01*
X98775666Y-88276190D01*
X98728047Y-88252380D01*
X98704238Y-88204761D01*
X98704238Y-88157142D01*
X98728047Y-88109523D01*
X98775666Y-88085714D01*
X98894714Y-88085714D01*
X98942333Y-88061904D01*
X99180428Y-88276190D02*
X99180428Y-87942857D01*
X99180428Y-87776190D02*
X99156619Y-87800000D01*
X99180428Y-87823809D01*
X99204238Y-87800000D01*
X99180428Y-87776190D01*
X99180428Y-87823809D01*
X99418523Y-87942857D02*
X99418523Y-88276190D01*
X99418523Y-87990476D02*
X99442333Y-87966666D01*
X99489952Y-87942857D01*
X99561380Y-87942857D01*
X99609000Y-87966666D01*
X99632809Y-88014285D01*
X99632809Y-88276190D01*
X99870904Y-88276190D02*
X99870904Y-87942857D01*
X99870904Y-87776190D02*
X99847095Y-87800000D01*
X99870904Y-87823809D01*
X99894714Y-87800000D01*
X99870904Y-87776190D01*
X99870904Y-87823809D01*
X100109000Y-87942857D02*
X100109000Y-88276190D01*
X100109000Y-87990476D02*
X100132809Y-87966666D01*
X100180428Y-87942857D01*
X100251857Y-87942857D01*
X100299476Y-87966666D01*
X100323285Y-88014285D01*
X100323285Y-88276190D01*
X100775666Y-87942857D02*
X100775666Y-88347619D01*
X100751857Y-88395238D01*
X100728047Y-88419047D01*
X100680428Y-88442857D01*
X100609000Y-88442857D01*
X100561380Y-88419047D01*
X100775666Y-88252380D02*
X100728047Y-88276190D01*
X100632809Y-88276190D01*
X100585190Y-88252380D01*
X100561380Y-88228571D01*
X100537571Y-88180952D01*
X100537571Y-88038095D01*
X100561380Y-87990476D01*
X100585190Y-87966666D01*
X100632809Y-87942857D01*
X100728047Y-87942857D01*
X100775666Y-87966666D01*
X98228047Y-89126190D02*
X98228047Y-88626190D01*
X98513761Y-89126190D01*
X98513761Y-88626190D01*
X98823285Y-89126190D02*
X98775666Y-89102380D01*
X98751857Y-89078571D01*
X98728047Y-89030952D01*
X98728047Y-88888095D01*
X98751857Y-88840476D01*
X98775666Y-88816666D01*
X98823285Y-88792857D01*
X98894714Y-88792857D01*
X98942333Y-88816666D01*
X98966142Y-88840476D01*
X98989952Y-88888095D01*
X98989952Y-89030952D01*
X98966142Y-89078571D01*
X98942333Y-89102380D01*
X98894714Y-89126190D01*
X98823285Y-89126190D01*
X99132809Y-88792857D02*
X99323285Y-88792857D01*
X99204238Y-88626190D02*
X99204238Y-89054761D01*
X99228047Y-89102380D01*
X99275666Y-89126190D01*
X99323285Y-89126190D01*
X99870904Y-89126190D02*
X99870904Y-88792857D01*
X99870904Y-88888095D02*
X99894714Y-88840476D01*
X99918523Y-88816666D01*
X99966142Y-88792857D01*
X100013761Y-88792857D01*
X100394714Y-89126190D02*
X100394714Y-88864285D01*
X100370904Y-88816666D01*
X100323285Y-88792857D01*
X100228047Y-88792857D01*
X100180428Y-88816666D01*
X100394714Y-89102380D02*
X100347095Y-89126190D01*
X100228047Y-89126190D01*
X100180428Y-89102380D01*
X100156619Y-89054761D01*
X100156619Y-89007142D01*
X100180428Y-88959523D01*
X100228047Y-88935714D01*
X100347095Y-88935714D01*
X100394714Y-88911904D01*
X100632809Y-89126190D02*
X100632809Y-88792857D01*
X100632809Y-88626190D02*
X100609000Y-88650000D01*
X100632809Y-88673809D01*
X100656619Y-88650000D01*
X100632809Y-88626190D01*
X100632809Y-88673809D01*
X100870904Y-88792857D02*
X100870904Y-89126190D01*
X100870904Y-88840476D02*
X100894714Y-88816666D01*
X100942333Y-88792857D01*
X101013761Y-88792857D01*
X101061380Y-88816666D01*
X101085190Y-88864285D01*
X101085190Y-89126190D01*
X101323285Y-89126190D02*
X101323285Y-88792857D01*
X101323285Y-88626190D02*
X101299476Y-88650000D01*
X101323285Y-88673809D01*
X101347095Y-88650000D01*
X101323285Y-88626190D01*
X101323285Y-88673809D01*
X101561380Y-88792857D02*
X101561380Y-89126190D01*
X101561380Y-88840476D02*
X101585190Y-88816666D01*
X101632809Y-88792857D01*
X101704238Y-88792857D01*
X101751857Y-88816666D01*
X101775666Y-88864285D01*
X101775666Y-89126190D01*
X102228047Y-88792857D02*
X102228047Y-89197619D01*
X102204238Y-89245238D01*
X102180428Y-89269047D01*
X102132809Y-89292857D01*
X102061380Y-89292857D01*
X102013761Y-89269047D01*
X102228047Y-89102380D02*
X102180428Y-89126190D01*
X102085190Y-89126190D01*
X102037571Y-89102380D01*
X102013761Y-89078571D01*
X101989952Y-89030952D01*
X101989952Y-88888095D01*
X102013761Y-88840476D01*
X102037571Y-88816666D01*
X102085190Y-88792857D01*
X102180428Y-88792857D01*
X102228047Y-88816666D01*
X98204238Y-89833333D02*
X98442333Y-89833333D01*
X98156619Y-89976190D02*
X98323285Y-89476190D01*
X98489952Y-89976190D01*
X98870904Y-89642857D02*
X98870904Y-89976190D01*
X98656619Y-89642857D02*
X98656619Y-89904761D01*
X98680428Y-89952380D01*
X98728047Y-89976190D01*
X98799476Y-89976190D01*
X98847095Y-89952380D01*
X98870904Y-89928571D01*
X99085190Y-89952380D02*
X99132809Y-89976190D01*
X99228047Y-89976190D01*
X99275666Y-89952380D01*
X99299476Y-89904761D01*
X99299476Y-89880952D01*
X99275666Y-89833333D01*
X99228047Y-89809523D01*
X99156619Y-89809523D01*
X99109000Y-89785714D01*
X99085190Y-89738095D01*
X99085190Y-89714285D01*
X99109000Y-89666666D01*
X99156619Y-89642857D01*
X99228047Y-89642857D01*
X99275666Y-89666666D01*
X99442333Y-89642857D02*
X99632809Y-89642857D01*
X99513761Y-89476190D02*
X99513761Y-89904761D01*
X99537571Y-89952380D01*
X99585190Y-89976190D01*
X99632809Y-89976190D01*
X99799476Y-89976190D02*
X99799476Y-89642857D01*
X99799476Y-89738095D02*
X99823285Y-89690476D01*
X99847095Y-89666666D01*
X99894714Y-89642857D01*
X99942333Y-89642857D01*
X100323285Y-89976190D02*
X100323285Y-89714285D01*
X100299476Y-89666666D01*
X100251857Y-89642857D01*
X100156619Y-89642857D01*
X100109000Y-89666666D01*
X100323285Y-89952380D02*
X100275666Y-89976190D01*
X100156619Y-89976190D01*
X100109000Y-89952380D01*
X100085190Y-89904761D01*
X100085190Y-89857142D01*
X100109000Y-89809523D01*
X100156619Y-89785714D01*
X100275666Y-89785714D01*
X100323285Y-89761904D01*
X100632809Y-89976190D02*
X100585190Y-89952380D01*
X100561380Y-89904761D01*
X100561380Y-89476190D01*
X100823285Y-89976190D02*
X100823285Y-89642857D01*
X100823285Y-89476190D02*
X100799476Y-89500000D01*
X100823285Y-89523809D01*
X100847095Y-89500000D01*
X100823285Y-89476190D01*
X100823285Y-89523809D01*
X101275666Y-89976190D02*
X101275666Y-89714285D01*
X101251857Y-89666666D01*
X101204238Y-89642857D01*
X101109000Y-89642857D01*
X101061380Y-89666666D01*
X101275666Y-89952380D02*
X101228047Y-89976190D01*
X101109000Y-89976190D01*
X101061380Y-89952380D01*
X101037571Y-89904761D01*
X101037571Y-89857142D01*
X101061380Y-89809523D01*
X101109000Y-89785714D01*
X101228047Y-89785714D01*
X101275666Y-89761904D01*
X91600238Y-88133333D02*
X91838333Y-88133333D01*
X91552619Y-88276190D02*
X91719285Y-87776190D01*
X91885952Y-88276190D01*
X92052619Y-88276190D02*
X92052619Y-87942857D01*
X92052619Y-88038095D02*
X92076428Y-87990476D01*
X92100238Y-87966666D01*
X92147857Y-87942857D01*
X92195476Y-87942857D01*
X92576428Y-88276190D02*
X92576428Y-87776190D01*
X92576428Y-88252380D02*
X92528809Y-88276190D01*
X92433571Y-88276190D01*
X92385952Y-88252380D01*
X92362142Y-88228571D01*
X92338333Y-88180952D01*
X92338333Y-88038095D01*
X92362142Y-87990476D01*
X92385952Y-87966666D01*
X92433571Y-87942857D01*
X92528809Y-87942857D01*
X92576428Y-87966666D01*
X93028809Y-87942857D02*
X93028809Y-88276190D01*
X92814523Y-87942857D02*
X92814523Y-88204761D01*
X92838333Y-88252380D01*
X92885952Y-88276190D01*
X92957380Y-88276190D01*
X93005000Y-88252380D01*
X93028809Y-88228571D01*
X93266904Y-88276190D02*
X93266904Y-87942857D01*
X93266904Y-87776190D02*
X93243095Y-87800000D01*
X93266904Y-87823809D01*
X93290714Y-87800000D01*
X93266904Y-87776190D01*
X93266904Y-87823809D01*
X93505000Y-87942857D02*
X93505000Y-88276190D01*
X93505000Y-87990476D02*
X93528809Y-87966666D01*
X93576428Y-87942857D01*
X93647857Y-87942857D01*
X93695476Y-87966666D01*
X93719285Y-88014285D01*
X93719285Y-88276190D01*
X94028809Y-88276190D02*
X93981190Y-88252380D01*
X93957380Y-88228571D01*
X93933571Y-88180952D01*
X93933571Y-88038095D01*
X93957380Y-87990476D01*
X93981190Y-87966666D01*
X94028809Y-87942857D01*
X94100238Y-87942857D01*
X94147857Y-87966666D01*
X94171666Y-87990476D01*
X94195476Y-88038095D01*
X94195476Y-88180952D01*
X94171666Y-88228571D01*
X94147857Y-88252380D01*
X94100238Y-88276190D01*
X94028809Y-88276190D01*
X94790714Y-88276190D02*
X94790714Y-87942857D01*
X94790714Y-87776190D02*
X94766904Y-87800000D01*
X94790714Y-87823809D01*
X94814523Y-87800000D01*
X94790714Y-87776190D01*
X94790714Y-87823809D01*
X95005000Y-88252380D02*
X95052619Y-88276190D01*
X95147857Y-88276190D01*
X95195476Y-88252380D01*
X95219285Y-88204761D01*
X95219285Y-88180952D01*
X95195476Y-88133333D01*
X95147857Y-88109523D01*
X95076428Y-88109523D01*
X95028809Y-88085714D01*
X95005000Y-88038095D01*
X95005000Y-88014285D01*
X95028809Y-87966666D01*
X95076428Y-87942857D01*
X95147857Y-87942857D01*
X95195476Y-87966666D01*
X95766904Y-87942857D02*
X95862142Y-88276190D01*
X95957380Y-88038095D01*
X96052619Y-88276190D01*
X96147857Y-87942857D01*
X96528809Y-88252380D02*
X96481190Y-88276190D01*
X96385952Y-88276190D01*
X96338333Y-88252380D01*
X96314523Y-88204761D01*
X96314523Y-88014285D01*
X96338333Y-87966666D01*
X96385952Y-87942857D01*
X96481190Y-87942857D01*
X96528809Y-87966666D01*
X96552619Y-88014285D01*
X96552619Y-88061904D01*
X96314523Y-88109523D01*
X96695476Y-87942857D02*
X96885952Y-87942857D01*
X96766904Y-87776190D02*
X96766904Y-88204761D01*
X96790714Y-88252380D01*
X96838333Y-88276190D01*
X96885952Y-88276190D01*
X91600238Y-88983333D02*
X91838333Y-88983333D01*
X91552619Y-89126190D02*
X91719285Y-88626190D01*
X91885952Y-89126190D01*
X92052619Y-89126190D02*
X92052619Y-88792857D01*
X92052619Y-88888095D02*
X92076428Y-88840476D01*
X92100238Y-88816666D01*
X92147857Y-88792857D01*
X92195476Y-88792857D01*
X92576428Y-89126190D02*
X92576428Y-88626190D01*
X92576428Y-89102380D02*
X92528809Y-89126190D01*
X92433571Y-89126190D01*
X92385952Y-89102380D01*
X92362142Y-89078571D01*
X92338333Y-89030952D01*
X92338333Y-88888095D01*
X92362142Y-88840476D01*
X92385952Y-88816666D01*
X92433571Y-88792857D01*
X92528809Y-88792857D01*
X92576428Y-88816666D01*
X93028809Y-88792857D02*
X93028809Y-89126190D01*
X92814523Y-88792857D02*
X92814523Y-89054761D01*
X92838333Y-89102380D01*
X92885952Y-89126190D01*
X92957380Y-89126190D01*
X93005000Y-89102380D01*
X93028809Y-89078571D01*
X93266904Y-89126190D02*
X93266904Y-88792857D01*
X93266904Y-88626190D02*
X93243095Y-88650000D01*
X93266904Y-88673809D01*
X93290714Y-88650000D01*
X93266904Y-88626190D01*
X93266904Y-88673809D01*
X93505000Y-88792857D02*
X93505000Y-89126190D01*
X93505000Y-88840476D02*
X93528809Y-88816666D01*
X93576428Y-88792857D01*
X93647857Y-88792857D01*
X93695476Y-88816666D01*
X93719285Y-88864285D01*
X93719285Y-89126190D01*
X94028809Y-89126190D02*
X93981190Y-89102380D01*
X93957380Y-89078571D01*
X93933571Y-89030952D01*
X93933571Y-88888095D01*
X93957380Y-88840476D01*
X93981190Y-88816666D01*
X94028809Y-88792857D01*
X94100238Y-88792857D01*
X94147857Y-88816666D01*
X94171666Y-88840476D01*
X94195476Y-88888095D01*
X94195476Y-89030952D01*
X94171666Y-89078571D01*
X94147857Y-89102380D01*
X94100238Y-89126190D01*
X94028809Y-89126190D01*
X94790714Y-89126190D02*
X94790714Y-88792857D01*
X94790714Y-88626190D02*
X94766904Y-88650000D01*
X94790714Y-88673809D01*
X94814523Y-88650000D01*
X94790714Y-88626190D01*
X94790714Y-88673809D01*
X95005000Y-89102380D02*
X95052619Y-89126190D01*
X95147857Y-89126190D01*
X95195476Y-89102380D01*
X95219285Y-89054761D01*
X95219285Y-89030952D01*
X95195476Y-88983333D01*
X95147857Y-88959523D01*
X95076428Y-88959523D01*
X95028809Y-88935714D01*
X95005000Y-88888095D01*
X95005000Y-88864285D01*
X95028809Y-88816666D01*
X95076428Y-88792857D01*
X95147857Y-88792857D01*
X95195476Y-88816666D01*
X96028809Y-89126190D02*
X96028809Y-88626190D01*
X96028809Y-89102380D02*
X95981190Y-89126190D01*
X95885952Y-89126190D01*
X95838333Y-89102380D01*
X95814523Y-89078571D01*
X95790714Y-89030952D01*
X95790714Y-88888095D01*
X95814523Y-88840476D01*
X95838333Y-88816666D01*
X95885952Y-88792857D01*
X95981190Y-88792857D01*
X96028809Y-88816666D01*
X96266904Y-89126190D02*
X96266904Y-88792857D01*
X96266904Y-88888095D02*
X96290714Y-88840476D01*
X96314523Y-88816666D01*
X96362142Y-88792857D01*
X96409761Y-88792857D01*
X96528809Y-88792857D02*
X96647857Y-89126190D01*
X96766904Y-88792857D02*
X96647857Y-89126190D01*
X96600238Y-89245238D01*
X96576428Y-89269047D01*
X96528809Y-89292857D01*
X91600238Y-89833333D02*
X91838333Y-89833333D01*
X91552619Y-89976190D02*
X91719285Y-89476190D01*
X91885952Y-89976190D01*
X92052619Y-89976190D02*
X92052619Y-89642857D01*
X92052619Y-89738095D02*
X92076428Y-89690476D01*
X92100238Y-89666666D01*
X92147857Y-89642857D01*
X92195476Y-89642857D01*
X92576428Y-89976190D02*
X92576428Y-89476190D01*
X92576428Y-89952380D02*
X92528809Y-89976190D01*
X92433571Y-89976190D01*
X92385952Y-89952380D01*
X92362142Y-89928571D01*
X92338333Y-89880952D01*
X92338333Y-89738095D01*
X92362142Y-89690476D01*
X92385952Y-89666666D01*
X92433571Y-89642857D01*
X92528809Y-89642857D01*
X92576428Y-89666666D01*
X93028809Y-89642857D02*
X93028809Y-89976190D01*
X92814523Y-89642857D02*
X92814523Y-89904761D01*
X92838333Y-89952380D01*
X92885952Y-89976190D01*
X92957380Y-89976190D01*
X93005000Y-89952380D01*
X93028809Y-89928571D01*
X93266904Y-89976190D02*
X93266904Y-89642857D01*
X93266904Y-89476190D02*
X93243095Y-89500000D01*
X93266904Y-89523809D01*
X93290714Y-89500000D01*
X93266904Y-89476190D01*
X93266904Y-89523809D01*
X93505000Y-89642857D02*
X93505000Y-89976190D01*
X93505000Y-89690476D02*
X93528809Y-89666666D01*
X93576428Y-89642857D01*
X93647857Y-89642857D01*
X93695476Y-89666666D01*
X93719285Y-89714285D01*
X93719285Y-89976190D01*
X94028809Y-89976190D02*
X93981190Y-89952380D01*
X93957380Y-89928571D01*
X93933571Y-89880952D01*
X93933571Y-89738095D01*
X93957380Y-89690476D01*
X93981190Y-89666666D01*
X94028809Y-89642857D01*
X94100238Y-89642857D01*
X94147857Y-89666666D01*
X94171666Y-89690476D01*
X94195476Y-89738095D01*
X94195476Y-89880952D01*
X94171666Y-89928571D01*
X94147857Y-89952380D01*
X94100238Y-89976190D01*
X94028809Y-89976190D01*
X94790714Y-89976190D02*
X94790714Y-89642857D01*
X94790714Y-89476190D02*
X94766904Y-89500000D01*
X94790714Y-89523809D01*
X94814523Y-89500000D01*
X94790714Y-89476190D01*
X94790714Y-89523809D01*
X95005000Y-89952380D02*
X95052619Y-89976190D01*
X95147857Y-89976190D01*
X95195476Y-89952380D01*
X95219285Y-89904761D01*
X95219285Y-89880952D01*
X95195476Y-89833333D01*
X95147857Y-89809523D01*
X95076428Y-89809523D01*
X95028809Y-89785714D01*
X95005000Y-89738095D01*
X95005000Y-89714285D01*
X95028809Y-89666666D01*
X95076428Y-89642857D01*
X95147857Y-89642857D01*
X95195476Y-89666666D01*
X95766904Y-89642857D02*
X95862142Y-89976190D01*
X95957380Y-89738095D01*
X96052619Y-89976190D01*
X96147857Y-89642857D01*
X96552619Y-89976190D02*
X96552619Y-89714285D01*
X96528809Y-89666666D01*
X96481190Y-89642857D01*
X96385952Y-89642857D01*
X96338333Y-89666666D01*
X96552619Y-89952380D02*
X96505000Y-89976190D01*
X96385952Y-89976190D01*
X96338333Y-89952380D01*
X96314523Y-89904761D01*
X96314523Y-89857142D01*
X96338333Y-89809523D01*
X96385952Y-89785714D01*
X96505000Y-89785714D01*
X96552619Y-89761904D01*
X96790714Y-89976190D02*
X96790714Y-89642857D01*
X96790714Y-89738095D02*
X96814523Y-89690476D01*
X96838333Y-89666666D01*
X96885952Y-89642857D01*
X96933571Y-89642857D01*
X97100238Y-89976190D02*
X97100238Y-89642857D01*
X97100238Y-89690476D02*
X97124047Y-89666666D01*
X97171666Y-89642857D01*
X97243095Y-89642857D01*
X97290714Y-89666666D01*
X97314523Y-89714285D01*
X97314523Y-89976190D01*
X97314523Y-89714285D02*
X97338333Y-89666666D01*
X97385952Y-89642857D01*
X97457380Y-89642857D01*
X97505000Y-89666666D01*
X97528809Y-89714285D01*
X97528809Y-89976190D01*
D13*
X91400357Y-86380428D02*
X91400357Y-85780428D01*
X91543214Y-85780428D01*
X91628928Y-85809000D01*
X91686071Y-85866142D01*
X91714642Y-85923285D01*
X91743214Y-86037571D01*
X91743214Y-86123285D01*
X91714642Y-86237571D01*
X91686071Y-86294714D01*
X91628928Y-86351857D01*
X91543214Y-86380428D01*
X91400357Y-86380428D01*
X92228928Y-86351857D02*
X92171785Y-86380428D01*
X92057500Y-86380428D01*
X92000357Y-86351857D01*
X91971785Y-86294714D01*
X91971785Y-86066142D01*
X92000357Y-86009000D01*
X92057500Y-85980428D01*
X92171785Y-85980428D01*
X92228928Y-86009000D01*
X92257500Y-86066142D01*
X92257500Y-86123285D01*
X91971785Y-86180428D01*
X92514642Y-86380428D02*
X92514642Y-85780428D01*
X92514642Y-86009000D02*
X92571785Y-85980428D01*
X92686071Y-85980428D01*
X92743214Y-86009000D01*
X92771785Y-86037571D01*
X92800357Y-86094714D01*
X92800357Y-86266142D01*
X92771785Y-86323285D01*
X92743214Y-86351857D01*
X92686071Y-86380428D01*
X92571785Y-86380428D01*
X92514642Y-86351857D01*
X93314642Y-85980428D02*
X93314642Y-86380428D01*
X93057500Y-85980428D02*
X93057500Y-86294714D01*
X93086071Y-86351857D01*
X93143214Y-86380428D01*
X93228928Y-86380428D01*
X93286071Y-86351857D01*
X93314642Y-86323285D01*
X93857500Y-85980428D02*
X93857500Y-86466142D01*
X93828928Y-86523285D01*
X93800357Y-86551857D01*
X93743214Y-86580428D01*
X93657500Y-86580428D01*
X93600357Y-86551857D01*
X93857500Y-86351857D02*
X93800357Y-86380428D01*
X93686071Y-86380428D01*
X93628928Y-86351857D01*
X93600357Y-86323285D01*
X93571785Y-86266142D01*
X93571785Y-86094714D01*
X93600357Y-86037571D01*
X93628928Y-86009000D01*
X93686071Y-85980428D01*
X93800357Y-85980428D01*
X93857500Y-86009000D01*
X94514642Y-85780428D02*
X94857500Y-85780428D01*
X94686071Y-86380428D02*
X94686071Y-85780428D01*
X95314642Y-86380428D02*
X95314642Y-86066142D01*
X95286071Y-86009000D01*
X95228928Y-85980428D01*
X95114642Y-85980428D01*
X95057500Y-86009000D01*
X95314642Y-86351857D02*
X95257500Y-86380428D01*
X95114642Y-86380428D01*
X95057500Y-86351857D01*
X95028928Y-86294714D01*
X95028928Y-86237571D01*
X95057500Y-86180428D01*
X95114642Y-86151857D01*
X95257500Y-86151857D01*
X95314642Y-86123285D01*
X95600357Y-86380428D02*
X95600357Y-85780428D01*
X95600357Y-86009000D02*
X95657500Y-85980428D01*
X95771785Y-85980428D01*
X95828928Y-86009000D01*
X95857500Y-86037571D01*
X95886071Y-86094714D01*
X95886071Y-86266142D01*
X95857500Y-86323285D01*
X95828928Y-86351857D01*
X95771785Y-86380428D01*
X95657500Y-86380428D01*
X95600357Y-86351857D01*
X96228928Y-86380428D02*
X96171785Y-86351857D01*
X96143214Y-86294714D01*
X96143214Y-85780428D01*
X96686071Y-86351857D02*
X96628928Y-86380428D01*
X96514642Y-86380428D01*
X96457500Y-86351857D01*
X96428928Y-86294714D01*
X96428928Y-86066142D01*
X96457500Y-86009000D01*
X96514642Y-85980428D01*
X96628928Y-85980428D01*
X96686071Y-86009000D01*
X96714642Y-86066142D01*
X96714642Y-86123285D01*
X96428928Y-86180428D01*
X91743214Y-87333285D02*
X91714642Y-87361857D01*
X91628928Y-87390428D01*
X91571785Y-87390428D01*
X91486071Y-87361857D01*
X91428928Y-87304714D01*
X91400357Y-87247571D01*
X91371785Y-87133285D01*
X91371785Y-87047571D01*
X91400357Y-86933285D01*
X91428928Y-86876142D01*
X91486071Y-86819000D01*
X91571785Y-86790428D01*
X91628928Y-86790428D01*
X91714642Y-86819000D01*
X91743214Y-86847571D01*
X92086071Y-87390428D02*
X92028928Y-87361857D01*
X92000357Y-87333285D01*
X91971785Y-87276142D01*
X91971785Y-87104714D01*
X92000357Y-87047571D01*
X92028928Y-87019000D01*
X92086071Y-86990428D01*
X92171785Y-86990428D01*
X92228928Y-87019000D01*
X92257500Y-87047571D01*
X92286071Y-87104714D01*
X92286071Y-87276142D01*
X92257500Y-87333285D01*
X92228928Y-87361857D01*
X92171785Y-87390428D01*
X92086071Y-87390428D01*
X92543214Y-86990428D02*
X92543214Y-87390428D01*
X92543214Y-87047571D02*
X92571785Y-87019000D01*
X92628928Y-86990428D01*
X92714642Y-86990428D01*
X92771785Y-87019000D01*
X92800357Y-87076142D01*
X92800357Y-87390428D01*
X93343214Y-87390428D02*
X93343214Y-86790428D01*
X93343214Y-87361857D02*
X93286071Y-87390428D01*
X93171785Y-87390428D01*
X93114642Y-87361857D01*
X93086071Y-87333285D01*
X93057500Y-87276142D01*
X93057500Y-87104714D01*
X93086071Y-87047571D01*
X93114642Y-87019000D01*
X93171785Y-86990428D01*
X93286071Y-86990428D01*
X93343214Y-87019000D01*
X93628928Y-87390428D02*
X93628928Y-86990428D01*
X93628928Y-86790428D02*
X93600357Y-86819000D01*
X93628928Y-86847571D01*
X93657500Y-86819000D01*
X93628928Y-86790428D01*
X93628928Y-86847571D01*
X93828928Y-86990428D02*
X94057500Y-86990428D01*
X93914642Y-86790428D02*
X93914642Y-87304714D01*
X93943214Y-87361857D01*
X94000357Y-87390428D01*
X94057500Y-87390428D01*
X94257500Y-87390428D02*
X94257500Y-86990428D01*
X94257500Y-86790428D02*
X94228928Y-86819000D01*
X94257500Y-86847571D01*
X94286071Y-86819000D01*
X94257500Y-86790428D01*
X94257500Y-86847571D01*
X94628928Y-87390428D02*
X94571785Y-87361857D01*
X94543214Y-87333285D01*
X94514642Y-87276142D01*
X94514642Y-87104714D01*
X94543214Y-87047571D01*
X94571785Y-87019000D01*
X94628928Y-86990428D01*
X94714642Y-86990428D01*
X94771785Y-87019000D01*
X94800357Y-87047571D01*
X94828928Y-87104714D01*
X94828928Y-87276142D01*
X94800357Y-87333285D01*
X94771785Y-87361857D01*
X94714642Y-87390428D01*
X94628928Y-87390428D01*
X95086071Y-86990428D02*
X95086071Y-87390428D01*
X95086071Y-87047571D02*
X95114642Y-87019000D01*
X95171785Y-86990428D01*
X95257500Y-86990428D01*
X95314642Y-87019000D01*
X95343214Y-87076142D01*
X95343214Y-87390428D01*
X97914642Y-87390428D02*
X97914642Y-86790428D01*
X98171785Y-87361857D02*
X98228928Y-87390428D01*
X98343214Y-87390428D01*
X98400357Y-87361857D01*
X98428928Y-87304714D01*
X98428928Y-87276142D01*
X98400357Y-87219000D01*
X98343214Y-87190428D01*
X98257500Y-87190428D01*
X98200357Y-87161857D01*
X98171785Y-87104714D01*
X98171785Y-87076142D01*
X98200357Y-87019000D01*
X98257500Y-86990428D01*
X98343214Y-86990428D01*
X98400357Y-87019000D01*
X98657500Y-87361857D02*
X98714642Y-87390428D01*
X98828928Y-87390428D01*
X98886071Y-87361857D01*
X98914642Y-87304714D01*
X98914642Y-87276142D01*
X98886071Y-87219000D01*
X98828928Y-87190428D01*
X98743214Y-87190428D01*
X98686071Y-87161857D01*
X98657500Y-87104714D01*
X98657500Y-87076142D01*
X98686071Y-87019000D01*
X98743214Y-86990428D01*
X98828928Y-86990428D01*
X98886071Y-87019000D01*
X99428928Y-86990428D02*
X99428928Y-87390428D01*
X99171785Y-86990428D02*
X99171785Y-87304714D01*
X99200357Y-87361857D01*
X99257500Y-87390428D01*
X99343214Y-87390428D01*
X99400357Y-87361857D01*
X99428928Y-87333285D01*
X99943214Y-87361857D02*
X99886071Y-87390428D01*
X99771785Y-87390428D01*
X99714642Y-87361857D01*
X99686071Y-87304714D01*
X99686071Y-87076142D01*
X99714642Y-87019000D01*
X99771785Y-86990428D01*
X99886071Y-86990428D01*
X99943214Y-87019000D01*
X99971785Y-87076142D01*
X99971785Y-87133285D01*
X99686071Y-87190428D01*
D14*
X103919976Y-100878666D02*
X104396166Y-100878666D01*
X103824738Y-101164380D02*
X104158071Y-100164380D01*
X104491404Y-101164380D01*
X104824738Y-100164380D02*
X104824738Y-100973904D01*
X104872357Y-101069142D01*
X104919976Y-101116761D01*
X105015214Y-101164380D01*
X105205690Y-101164380D01*
X105300928Y-101116761D01*
X105348547Y-101069142D01*
X105396166Y-100973904D01*
X105396166Y-100164380D01*
X105872357Y-101164380D02*
X105872357Y-100164380D01*
X106205690Y-100878666D01*
X106539023Y-100164380D01*
X106539023Y-101164380D01*
X106872357Y-100164380D02*
X107443785Y-100164380D01*
X107158071Y-101164380D02*
X107158071Y-100164380D01*
X108491404Y-100259619D02*
X108539023Y-100212000D01*
X108634261Y-100164380D01*
X108872357Y-100164380D01*
X108967595Y-100212000D01*
X109015214Y-100259619D01*
X109062833Y-100354857D01*
X109062833Y-100450095D01*
X109015214Y-100592952D01*
X108443785Y-101164380D01*
X109062833Y-101164380D01*
X109681880Y-100164380D02*
X109777119Y-100164380D01*
X109872357Y-100212000D01*
X109919976Y-100259619D01*
X109967595Y-100354857D01*
X110015214Y-100545333D01*
X110015214Y-100783428D01*
X109967595Y-100973904D01*
X109919976Y-101069142D01*
X109872357Y-101116761D01*
X109777119Y-101164380D01*
X109681880Y-101164380D01*
X109586642Y-101116761D01*
X109539023Y-101069142D01*
X109491404Y-100973904D01*
X109443785Y-100783428D01*
X109443785Y-100545333D01*
X109491404Y-100354857D01*
X109539023Y-100259619D01*
X109586642Y-100212000D01*
X109681880Y-100164380D01*
X110396166Y-100259619D02*
X110443785Y-100212000D01*
X110539023Y-100164380D01*
X110777119Y-100164380D01*
X110872357Y-100212000D01*
X110919976Y-100259619D01*
X110967595Y-100354857D01*
X110967595Y-100450095D01*
X110919976Y-100592952D01*
X110348547Y-101164380D01*
X110967595Y-101164380D01*
X111919976Y-101164380D02*
X111348547Y-101164380D01*
X111634261Y-101164380D02*
X111634261Y-100164380D01*
X111539023Y-100307238D01*
X111443785Y-100402476D01*
X111348547Y-100450095D01*
X103824738Y-101814380D02*
X104396166Y-101814380D01*
X104110452Y-102814380D02*
X104110452Y-101814380D01*
X104634261Y-102147714D02*
X104872357Y-102814380D01*
X105110452Y-102147714D02*
X104872357Y-102814380D01*
X104777119Y-103052476D01*
X104729500Y-103100095D01*
X104634261Y-103147714D01*
X105491404Y-102814380D02*
X105491404Y-102147714D01*
X105491404Y-102338190D02*
X105539023Y-102242952D01*
X105586642Y-102195333D01*
X105681880Y-102147714D01*
X105777119Y-102147714D01*
X106491404Y-102766761D02*
X106396166Y-102814380D01*
X106205690Y-102814380D01*
X106110452Y-102766761D01*
X106062833Y-102671523D01*
X106062833Y-102290571D01*
X106110452Y-102195333D01*
X106205690Y-102147714D01*
X106396166Y-102147714D01*
X106491404Y-102195333D01*
X106539023Y-102290571D01*
X106539023Y-102385809D01*
X106062833Y-102481047D01*
X107586642Y-101814380D02*
X108158071Y-101814380D01*
X107872357Y-102814380D02*
X107872357Y-101814380D01*
X108872357Y-102766761D02*
X108777119Y-102814380D01*
X108586642Y-102814380D01*
X108491404Y-102766761D01*
X108443785Y-102671523D01*
X108443785Y-102290571D01*
X108491404Y-102195333D01*
X108586642Y-102147714D01*
X108777119Y-102147714D01*
X108872357Y-102195333D01*
X108919976Y-102290571D01*
X108919976Y-102385809D01*
X108443785Y-102481047D01*
X109348547Y-102814380D02*
X109348547Y-102147714D01*
X109348547Y-102242952D02*
X109396166Y-102195333D01*
X109491404Y-102147714D01*
X109634261Y-102147714D01*
X109729500Y-102195333D01*
X109777119Y-102290571D01*
X109777119Y-102814380D01*
X109777119Y-102290571D02*
X109824738Y-102195333D01*
X109919976Y-102147714D01*
X110062833Y-102147714D01*
X110158071Y-102195333D01*
X110205690Y-102290571D01*
X110205690Y-102814380D01*
X110681880Y-102147714D02*
X110681880Y-103147714D01*
X110681880Y-102195333D02*
X110777119Y-102147714D01*
X110967595Y-102147714D01*
X111062833Y-102195333D01*
X111110452Y-102242952D01*
X111158071Y-102338190D01*
X111158071Y-102623904D01*
X111110452Y-102719142D01*
X111062833Y-102766761D01*
X110967595Y-102814380D01*
X110777119Y-102814380D01*
X110681880Y-102766761D01*
X104300928Y-103940571D02*
X104443785Y-103988190D01*
X104491404Y-104035809D01*
X104539023Y-104131047D01*
X104539023Y-104273904D01*
X104491404Y-104369142D01*
X104443785Y-104416761D01*
X104348547Y-104464380D01*
X103967595Y-104464380D01*
X103967595Y-103464380D01*
X104300928Y-103464380D01*
X104396166Y-103512000D01*
X104443785Y-103559619D01*
X104491404Y-103654857D01*
X104491404Y-103750095D01*
X104443785Y-103845333D01*
X104396166Y-103892952D01*
X104300928Y-103940571D01*
X103967595Y-103940571D01*
X104967595Y-104464380D02*
X104967595Y-103797714D01*
X104967595Y-103988190D02*
X105015214Y-103892952D01*
X105062833Y-103845333D01*
X105158071Y-103797714D01*
X105253309Y-103797714D01*
X105491404Y-103797714D02*
X105729500Y-104464380D01*
X105967595Y-103797714D02*
X105729500Y-104464380D01*
X105634261Y-104702476D01*
X105586642Y-104750095D01*
X105491404Y-104797714D01*
X106777119Y-104416761D02*
X106681880Y-104464380D01*
X106491404Y-104464380D01*
X106396166Y-104416761D01*
X106348547Y-104369142D01*
X106300928Y-104273904D01*
X106300928Y-103988190D01*
X106348547Y-103892952D01*
X106396166Y-103845333D01*
X106491404Y-103797714D01*
X106681880Y-103797714D01*
X106777119Y-103845333D01*
X107586642Y-104416761D02*
X107491404Y-104464380D01*
X107300928Y-104464380D01*
X107205690Y-104416761D01*
X107158071Y-104321523D01*
X107158071Y-103940571D01*
X107205690Y-103845333D01*
X107300928Y-103797714D01*
X107491404Y-103797714D01*
X107586642Y-103845333D01*
X107634261Y-103940571D01*
X107634261Y-104035809D01*
X107158071Y-104131047D01*
X109396166Y-104369142D02*
X109348547Y-104416761D01*
X109205690Y-104464380D01*
X109110452Y-104464380D01*
X108967595Y-104416761D01*
X108872357Y-104321523D01*
X108824738Y-104226285D01*
X108777119Y-104035809D01*
X108777119Y-103892952D01*
X108824738Y-103702476D01*
X108872357Y-103607238D01*
X108967595Y-103512000D01*
X109110452Y-103464380D01*
X109205690Y-103464380D01*
X109348547Y-103512000D01*
X109396166Y-103559619D01*
X109824738Y-104464380D02*
X109824738Y-103464380D01*
X110253309Y-104464380D02*
X110253309Y-103940571D01*
X110205690Y-103845333D01*
X110110452Y-103797714D01*
X109967595Y-103797714D01*
X109872357Y-103845333D01*
X109824738Y-103892952D01*
X111158071Y-103797714D02*
X111158071Y-104464380D01*
X110729500Y-103797714D02*
X110729500Y-104321523D01*
X110777119Y-104416761D01*
X110872357Y-104464380D01*
X111015214Y-104464380D01*
X111110452Y-104416761D01*
X111158071Y-104369142D01*
X111634261Y-103797714D02*
X111634261Y-104464380D01*
X111634261Y-103892952D02*
X111681880Y-103845333D01*
X111777119Y-103797714D01*
X111919976Y-103797714D01*
X112015214Y-103845333D01*
X112062833Y-103940571D01*
X112062833Y-104464380D01*
X112967595Y-103797714D02*
X112967595Y-104607238D01*
X112919976Y-104702476D01*
X112872357Y-104750095D01*
X112777119Y-104797714D01*
X112634261Y-104797714D01*
X112539023Y-104750095D01*
X112967595Y-104416761D02*
X112872357Y-104464380D01*
X112681880Y-104464380D01*
X112586642Y-104416761D01*
X112539023Y-104369142D01*
X112491404Y-104273904D01*
X112491404Y-103988190D01*
X112539023Y-103892952D01*
X112586642Y-103845333D01*
X112681880Y-103797714D01*
X112872357Y-103797714D01*
X112967595Y-103845333D01*
X75351452Y-47241380D02*
X75922880Y-47241380D01*
X75637166Y-48241380D02*
X75637166Y-47241380D01*
X76160976Y-47241380D02*
X76827642Y-48241380D01*
X76827642Y-47241380D02*
X76160976Y-48241380D01*
X78367642Y-48241380D02*
X78034309Y-47765190D01*
X77796214Y-48241380D02*
X77796214Y-47241380D01*
X78177166Y-47241380D01*
X78272404Y-47289000D01*
X78320023Y-47336619D01*
X78367642Y-47431857D01*
X78367642Y-47574714D01*
X78320023Y-47669952D01*
X78272404Y-47717571D01*
X78177166Y-47765190D01*
X77796214Y-47765190D01*
X78700976Y-47241380D02*
X79367642Y-48241380D01*
X79367642Y-47241380D02*
X78700976Y-48241380D01*
X85669142Y-102554500D02*
X85716761Y-102602119D01*
X85764380Y-102744976D01*
X85764380Y-102840214D01*
X85716761Y-102983071D01*
X85621523Y-103078309D01*
X85526285Y-103125928D01*
X85335809Y-103173547D01*
X85192952Y-103173547D01*
X85002476Y-103125928D01*
X84907238Y-103078309D01*
X84812000Y-102983071D01*
X84764380Y-102840214D01*
X84764380Y-102744976D01*
X84812000Y-102602119D01*
X84859619Y-102554500D01*
X85764380Y-101649738D02*
X85764380Y-102125928D01*
X84764380Y-102125928D01*
X85764380Y-101316404D02*
X84764380Y-101316404D01*
X85764380Y-100744976D02*
X85192952Y-101173547D01*
X84764380Y-100744976D02*
X85335809Y-101316404D01*
X83224380Y-103935452D02*
X82224380Y-103935452D01*
X82938666Y-103602119D01*
X82224380Y-103268785D01*
X83224380Y-103268785D01*
X83224380Y-102792595D02*
X82224380Y-102792595D01*
X83176761Y-102364023D02*
X83224380Y-102221166D01*
X83224380Y-101983071D01*
X83176761Y-101887833D01*
X83129142Y-101840214D01*
X83033904Y-101792595D01*
X82938666Y-101792595D01*
X82843428Y-101840214D01*
X82795809Y-101887833D01*
X82748190Y-101983071D01*
X82700571Y-102173547D01*
X82652952Y-102268785D01*
X82605333Y-102316404D01*
X82510095Y-102364023D01*
X82414857Y-102364023D01*
X82319619Y-102316404D01*
X82272000Y-102268785D01*
X82224380Y-102173547D01*
X82224380Y-101935452D01*
X82272000Y-101792595D01*
X82224380Y-101173547D02*
X82224380Y-100983071D01*
X82272000Y-100887833D01*
X82367238Y-100792595D01*
X82557714Y-100744976D01*
X82891047Y-100744976D01*
X83081523Y-100792595D01*
X83176761Y-100887833D01*
X83224380Y-100983071D01*
X83224380Y-101173547D01*
X83176761Y-101268785D01*
X83081523Y-101364023D01*
X82891047Y-101411642D01*
X82557714Y-101411642D01*
X82367238Y-101364023D01*
X82272000Y-101268785D01*
X82224380Y-101173547D01*
X80684380Y-103935452D02*
X79684380Y-103935452D01*
X80398666Y-103602119D01*
X79684380Y-103268785D01*
X80684380Y-103268785D01*
X79684380Y-102602119D02*
X79684380Y-102411642D01*
X79732000Y-102316404D01*
X79827238Y-102221166D01*
X80017714Y-102173547D01*
X80351047Y-102173547D01*
X80541523Y-102221166D01*
X80636761Y-102316404D01*
X80684380Y-102411642D01*
X80684380Y-102602119D01*
X80636761Y-102697357D01*
X80541523Y-102792595D01*
X80351047Y-102840214D01*
X80017714Y-102840214D01*
X79827238Y-102792595D01*
X79732000Y-102697357D01*
X79684380Y-102602119D01*
X80636761Y-101792595D02*
X80684380Y-101649738D01*
X80684380Y-101411642D01*
X80636761Y-101316404D01*
X80589142Y-101268785D01*
X80493904Y-101221166D01*
X80398666Y-101221166D01*
X80303428Y-101268785D01*
X80255809Y-101316404D01*
X80208190Y-101411642D01*
X80160571Y-101602119D01*
X80112952Y-101697357D01*
X80065333Y-101744976D01*
X79970095Y-101792595D01*
X79874857Y-101792595D01*
X79779619Y-101744976D01*
X79732000Y-101697357D01*
X79684380Y-101602119D01*
X79684380Y-101364023D01*
X79732000Y-101221166D01*
X80684380Y-100792595D02*
X79684380Y-100792595D01*
D11*
X113030000Y-99314000D02*
X107188000Y-99314000D01*
X113030000Y-99314000D02*
X118364000Y-93980000D01*
D12*
X105182095Y-90277904D02*
X105182095Y-89477904D01*
X105372571Y-89477904D01*
X105486857Y-89516000D01*
X105563047Y-89592190D01*
X105601142Y-89668380D01*
X105639238Y-89820761D01*
X105639238Y-89935047D01*
X105601142Y-90087428D01*
X105563047Y-90163619D01*
X105486857Y-90239809D01*
X105372571Y-90277904D01*
X105182095Y-90277904D01*
X105944000Y-90049333D02*
X106324952Y-90049333D01*
X105867809Y-90277904D02*
X106134476Y-89477904D01*
X106401142Y-90277904D01*
X106553523Y-89477904D02*
X107010666Y-89477904D01*
X106782095Y-90277904D02*
X106782095Y-89477904D01*
X107239238Y-90049333D02*
X107620190Y-90049333D01*
X107163047Y-90277904D02*
X107429714Y-89477904D01*
X107696380Y-90277904D01*
X109029714Y-90201714D02*
X108991619Y-90239809D01*
X108877333Y-90277904D01*
X108801142Y-90277904D01*
X108686857Y-90239809D01*
X108610666Y-90163619D01*
X108572571Y-90087428D01*
X108534476Y-89935047D01*
X108534476Y-89820761D01*
X108572571Y-89668380D01*
X108610666Y-89592190D01*
X108686857Y-89516000D01*
X108801142Y-89477904D01*
X108877333Y-89477904D01*
X108991619Y-89516000D01*
X109029714Y-89554095D01*
X109753523Y-90277904D02*
X109372571Y-90277904D01*
X109372571Y-89477904D01*
X110020190Y-90277904D02*
X110020190Y-89477904D01*
X110477333Y-90277904D02*
X110134476Y-89820761D01*
X110477333Y-89477904D02*
X110020190Y-89935047D01*
X111353523Y-89477904D02*
X111848761Y-89477904D01*
X111582095Y-89782666D01*
X111696380Y-89782666D01*
X111772571Y-89820761D01*
X111810666Y-89858857D01*
X111848761Y-89935047D01*
X111848761Y-90125523D01*
X111810666Y-90201714D01*
X111772571Y-90239809D01*
X111696380Y-90277904D01*
X111467809Y-90277904D01*
X111391619Y-90239809D01*
X111353523Y-90201714D01*
X112077333Y-89477904D02*
X112344000Y-90277904D01*
X112610666Y-89477904D01*
X112801142Y-89477904D02*
X113296380Y-89477904D01*
X113029714Y-89782666D01*
X113144000Y-89782666D01*
X113220190Y-89820761D01*
X113258285Y-89858857D01*
X113296380Y-89935047D01*
X113296380Y-90125523D01*
X113258285Y-90201714D01*
X113220190Y-90239809D01*
X113144000Y-90277904D01*
X112915428Y-90277904D01*
X112839238Y-90239809D01*
X112801142Y-90201714D01*
X114667809Y-89516000D02*
X114591619Y-89477904D01*
X114477333Y-89477904D01*
X114363047Y-89516000D01*
X114286857Y-89592190D01*
X114248761Y-89668380D01*
X114210666Y-89820761D01*
X114210666Y-89935047D01*
X114248761Y-90087428D01*
X114286857Y-90163619D01*
X114363047Y-90239809D01*
X114477333Y-90277904D01*
X114553523Y-90277904D01*
X114667809Y-90239809D01*
X114705904Y-90201714D01*
X114705904Y-89935047D01*
X114553523Y-89935047D01*
X115048761Y-90277904D02*
X115048761Y-89477904D01*
X115505904Y-90277904D01*
X115505904Y-89477904D01*
X115886857Y-90277904D02*
X115886857Y-89477904D01*
X116077333Y-89477904D01*
X116191619Y-89516000D01*
X116267809Y-89592190D01*
X116305904Y-89668380D01*
X116344000Y-89820761D01*
X116344000Y-89935047D01*
X116305904Y-90087428D01*
X116267809Y-90163619D01*
X116191619Y-90239809D01*
X116077333Y-90277904D01*
X115886857Y-90277904D01*
X105182095Y-80625904D02*
X105182095Y-79825904D01*
X105372571Y-79825904D01*
X105486857Y-79864000D01*
X105563047Y-79940190D01*
X105601142Y-80016380D01*
X105639238Y-80168761D01*
X105639238Y-80283047D01*
X105601142Y-80435428D01*
X105563047Y-80511619D01*
X105486857Y-80587809D01*
X105372571Y-80625904D01*
X105182095Y-80625904D01*
X105944000Y-80397333D02*
X106324952Y-80397333D01*
X105867809Y-80625904D02*
X106134476Y-79825904D01*
X106401142Y-80625904D01*
X106553523Y-79825904D02*
X107010666Y-79825904D01*
X106782095Y-80625904D02*
X106782095Y-79825904D01*
X107239238Y-80397333D02*
X107620190Y-80397333D01*
X107163047Y-80625904D02*
X107429714Y-79825904D01*
X107696380Y-80625904D01*
X109029714Y-80549714D02*
X108991619Y-80587809D01*
X108877333Y-80625904D01*
X108801142Y-80625904D01*
X108686857Y-80587809D01*
X108610666Y-80511619D01*
X108572571Y-80435428D01*
X108534476Y-80283047D01*
X108534476Y-80168761D01*
X108572571Y-80016380D01*
X108610666Y-79940190D01*
X108686857Y-79864000D01*
X108801142Y-79825904D01*
X108877333Y-79825904D01*
X108991619Y-79864000D01*
X109029714Y-79902095D01*
X109753523Y-80625904D02*
X109372571Y-80625904D01*
X109372571Y-79825904D01*
X110020190Y-80625904D02*
X110020190Y-79825904D01*
X110477333Y-80625904D02*
X110134476Y-80168761D01*
X110477333Y-79825904D02*
X110020190Y-80283047D01*
X111353523Y-79825904D02*
X111848761Y-79825904D01*
X111582095Y-80130666D01*
X111696380Y-80130666D01*
X111772571Y-80168761D01*
X111810666Y-80206857D01*
X111848761Y-80283047D01*
X111848761Y-80473523D01*
X111810666Y-80549714D01*
X111772571Y-80587809D01*
X111696380Y-80625904D01*
X111467809Y-80625904D01*
X111391619Y-80587809D01*
X111353523Y-80549714D01*
X112077333Y-79825904D02*
X112344000Y-80625904D01*
X112610666Y-79825904D01*
X112801142Y-79825904D02*
X113296380Y-79825904D01*
X113029714Y-80130666D01*
X113144000Y-80130666D01*
X113220190Y-80168761D01*
X113258285Y-80206857D01*
X113296380Y-80283047D01*
X113296380Y-80473523D01*
X113258285Y-80549714D01*
X113220190Y-80587809D01*
X113144000Y-80625904D01*
X112915428Y-80625904D01*
X112839238Y-80587809D01*
X112801142Y-80549714D01*
X114667809Y-79864000D02*
X114591619Y-79825904D01*
X114477333Y-79825904D01*
X114363047Y-79864000D01*
X114286857Y-79940190D01*
X114248761Y-80016380D01*
X114210666Y-80168761D01*
X114210666Y-80283047D01*
X114248761Y-80435428D01*
X114286857Y-80511619D01*
X114363047Y-80587809D01*
X114477333Y-80625904D01*
X114553523Y-80625904D01*
X114667809Y-80587809D01*
X114705904Y-80549714D01*
X114705904Y-80283047D01*
X114553523Y-80283047D01*
X115048761Y-80625904D02*
X115048761Y-79825904D01*
X115505904Y-80625904D01*
X115505904Y-79825904D01*
X115886857Y-80625904D02*
X115886857Y-79825904D01*
X116077333Y-79825904D01*
X116191619Y-79864000D01*
X116267809Y-79940190D01*
X116305904Y-80016380D01*
X116344000Y-80168761D01*
X116344000Y-80283047D01*
X116305904Y-80435428D01*
X116267809Y-80511619D01*
X116191619Y-80587809D01*
X116077333Y-80625904D01*
X115886857Y-80625904D01*
X105182095Y-70973904D02*
X105182095Y-70173904D01*
X105372571Y-70173904D01*
X105486857Y-70212000D01*
X105563047Y-70288190D01*
X105601142Y-70364380D01*
X105639238Y-70516761D01*
X105639238Y-70631047D01*
X105601142Y-70783428D01*
X105563047Y-70859619D01*
X105486857Y-70935809D01*
X105372571Y-70973904D01*
X105182095Y-70973904D01*
X105944000Y-70745333D02*
X106324952Y-70745333D01*
X105867809Y-70973904D02*
X106134476Y-70173904D01*
X106401142Y-70973904D01*
X106553523Y-70173904D02*
X107010666Y-70173904D01*
X106782095Y-70973904D02*
X106782095Y-70173904D01*
X107239238Y-70745333D02*
X107620190Y-70745333D01*
X107163047Y-70973904D02*
X107429714Y-70173904D01*
X107696380Y-70973904D01*
X109029714Y-70897714D02*
X108991619Y-70935809D01*
X108877333Y-70973904D01*
X108801142Y-70973904D01*
X108686857Y-70935809D01*
X108610666Y-70859619D01*
X108572571Y-70783428D01*
X108534476Y-70631047D01*
X108534476Y-70516761D01*
X108572571Y-70364380D01*
X108610666Y-70288190D01*
X108686857Y-70212000D01*
X108801142Y-70173904D01*
X108877333Y-70173904D01*
X108991619Y-70212000D01*
X109029714Y-70250095D01*
X109753523Y-70973904D02*
X109372571Y-70973904D01*
X109372571Y-70173904D01*
X110020190Y-70973904D02*
X110020190Y-70173904D01*
X110477333Y-70973904D02*
X110134476Y-70516761D01*
X110477333Y-70173904D02*
X110020190Y-70631047D01*
X111353523Y-70173904D02*
X111848761Y-70173904D01*
X111582095Y-70478666D01*
X111696380Y-70478666D01*
X111772571Y-70516761D01*
X111810666Y-70554857D01*
X111848761Y-70631047D01*
X111848761Y-70821523D01*
X111810666Y-70897714D01*
X111772571Y-70935809D01*
X111696380Y-70973904D01*
X111467809Y-70973904D01*
X111391619Y-70935809D01*
X111353523Y-70897714D01*
X112077333Y-70173904D02*
X112344000Y-70973904D01*
X112610666Y-70173904D01*
X112801142Y-70173904D02*
X113296380Y-70173904D01*
X113029714Y-70478666D01*
X113144000Y-70478666D01*
X113220190Y-70516761D01*
X113258285Y-70554857D01*
X113296380Y-70631047D01*
X113296380Y-70821523D01*
X113258285Y-70897714D01*
X113220190Y-70935809D01*
X113144000Y-70973904D01*
X112915428Y-70973904D01*
X112839238Y-70935809D01*
X112801142Y-70897714D01*
X114667809Y-70212000D02*
X114591619Y-70173904D01*
X114477333Y-70173904D01*
X114363047Y-70212000D01*
X114286857Y-70288190D01*
X114248761Y-70364380D01*
X114210666Y-70516761D01*
X114210666Y-70631047D01*
X114248761Y-70783428D01*
X114286857Y-70859619D01*
X114363047Y-70935809D01*
X114477333Y-70973904D01*
X114553523Y-70973904D01*
X114667809Y-70935809D01*
X114705904Y-70897714D01*
X114705904Y-70631047D01*
X114553523Y-70631047D01*
X115048761Y-70973904D02*
X115048761Y-70173904D01*
X115505904Y-70973904D01*
X115505904Y-70173904D01*
X115886857Y-70973904D02*
X115886857Y-70173904D01*
X116077333Y-70173904D01*
X116191619Y-70212000D01*
X116267809Y-70288190D01*
X116305904Y-70364380D01*
X116344000Y-70516761D01*
X116344000Y-70631047D01*
X116305904Y-70783428D01*
X116267809Y-70859619D01*
X116191619Y-70935809D01*
X116077333Y-70973904D01*
X115886857Y-70973904D01*
X104674095Y-61321904D02*
X104674095Y-60521904D01*
X104864571Y-60521904D01*
X104978857Y-60560000D01*
X105055047Y-60636190D01*
X105093142Y-60712380D01*
X105131238Y-60864761D01*
X105131238Y-60979047D01*
X105093142Y-61131428D01*
X105055047Y-61207619D01*
X104978857Y-61283809D01*
X104864571Y-61321904D01*
X104674095Y-61321904D01*
X105436000Y-61093333D02*
X105816952Y-61093333D01*
X105359809Y-61321904D02*
X105626476Y-60521904D01*
X105893142Y-61321904D01*
X106045523Y-60521904D02*
X106502666Y-60521904D01*
X106274095Y-61321904D02*
X106274095Y-60521904D01*
X106731238Y-61093333D02*
X107112190Y-61093333D01*
X106655047Y-61321904D02*
X106921714Y-60521904D01*
X107188380Y-61321904D01*
X108521714Y-61245714D02*
X108483619Y-61283809D01*
X108369333Y-61321904D01*
X108293142Y-61321904D01*
X108178857Y-61283809D01*
X108102666Y-61207619D01*
X108064571Y-61131428D01*
X108026476Y-60979047D01*
X108026476Y-60864761D01*
X108064571Y-60712380D01*
X108102666Y-60636190D01*
X108178857Y-60560000D01*
X108293142Y-60521904D01*
X108369333Y-60521904D01*
X108483619Y-60560000D01*
X108521714Y-60598095D01*
X109245523Y-61321904D02*
X108864571Y-61321904D01*
X108864571Y-60521904D01*
X109512190Y-61321904D02*
X109512190Y-60521904D01*
X109969333Y-61321904D02*
X109626476Y-60864761D01*
X109969333Y-60521904D02*
X109512190Y-60979047D01*
X110845523Y-60521904D02*
X111340761Y-60521904D01*
X111074095Y-60826666D01*
X111188380Y-60826666D01*
X111264571Y-60864761D01*
X111302666Y-60902857D01*
X111340761Y-60979047D01*
X111340761Y-61169523D01*
X111302666Y-61245714D01*
X111264571Y-61283809D01*
X111188380Y-61321904D01*
X110959809Y-61321904D01*
X110883619Y-61283809D01*
X110845523Y-61245714D01*
X111569333Y-60521904D02*
X111836000Y-61321904D01*
X112102666Y-60521904D01*
X112293142Y-60521904D02*
X112788380Y-60521904D01*
X112521714Y-60826666D01*
X112636000Y-60826666D01*
X112712190Y-60864761D01*
X112750285Y-60902857D01*
X112788380Y-60979047D01*
X112788380Y-61169523D01*
X112750285Y-61245714D01*
X112712190Y-61283809D01*
X112636000Y-61321904D01*
X112407428Y-61321904D01*
X112331238Y-61283809D01*
X112293142Y-61245714D01*
X114159809Y-60560000D02*
X114083619Y-60521904D01*
X113969333Y-60521904D01*
X113855047Y-60560000D01*
X113778857Y-60636190D01*
X113740761Y-60712380D01*
X113702666Y-60864761D01*
X113702666Y-60979047D01*
X113740761Y-61131428D01*
X113778857Y-61207619D01*
X113855047Y-61283809D01*
X113969333Y-61321904D01*
X114045523Y-61321904D01*
X114159809Y-61283809D01*
X114197904Y-61245714D01*
X114197904Y-60979047D01*
X114045523Y-60979047D01*
X114540761Y-61321904D02*
X114540761Y-60521904D01*
X114997904Y-61321904D01*
X114997904Y-60521904D01*
X115378857Y-61321904D02*
X115378857Y-60521904D01*
X115569333Y-60521904D01*
X115683619Y-60560000D01*
X115759809Y-60636190D01*
X115797904Y-60712380D01*
X115836000Y-60864761D01*
X115836000Y-60979047D01*
X115797904Y-61131428D01*
X115759809Y-61207619D01*
X115683619Y-61283809D01*
X115569333Y-61321904D01*
X115378857Y-61321904D01*
D14*
X112045904Y-59888380D02*
X111474476Y-59888380D01*
X111760190Y-59888380D02*
X111760190Y-58888380D01*
X111664952Y-59031238D01*
X111569714Y-59126476D01*
X111474476Y-59174095D01*
X112426857Y-58983619D02*
X112474476Y-58936000D01*
X112569714Y-58888380D01*
X112807809Y-58888380D01*
X112903047Y-58936000D01*
X112950666Y-58983619D01*
X112998285Y-59078857D01*
X112998285Y-59174095D01*
X112950666Y-59316952D01*
X112379238Y-59888380D01*
X112998285Y-59888380D01*
X113617333Y-58888380D02*
X113712571Y-58888380D01*
X113807809Y-58936000D01*
X113855428Y-58983619D01*
X113903047Y-59078857D01*
X113950666Y-59269333D01*
X113950666Y-59507428D01*
X113903047Y-59697904D01*
X113855428Y-59793142D01*
X113807809Y-59840761D01*
X113712571Y-59888380D01*
X113617333Y-59888380D01*
X113522095Y-59840761D01*
X113474476Y-59793142D01*
X113426857Y-59697904D01*
X113379238Y-59507428D01*
X113379238Y-59269333D01*
X113426857Y-59078857D01*
X113474476Y-58983619D01*
X113522095Y-58936000D01*
X113617333Y-58888380D01*
X114331619Y-59888380D02*
X114569714Y-59888380D01*
X114569714Y-59697904D01*
X114474476Y-59650285D01*
X114379238Y-59555047D01*
X114331619Y-59412190D01*
X114331619Y-59174095D01*
X114379238Y-59031238D01*
X114474476Y-58936000D01*
X114617333Y-58888380D01*
X114807809Y-58888380D01*
X114950666Y-58936000D01*
X115045904Y-59031238D01*
X115093523Y-59174095D01*
X115093523Y-59412190D01*
X115045904Y-59555047D01*
X114950666Y-59650285D01*
X114855428Y-59697904D01*
X114855428Y-59888380D01*
X115093523Y-59888380D01*
X100774523Y-90892380D02*
X100298333Y-90892380D01*
X100250714Y-91368571D01*
X100298333Y-91320952D01*
X100393571Y-91273333D01*
X100631666Y-91273333D01*
X100726904Y-91320952D01*
X100774523Y-91368571D01*
X100822142Y-91463809D01*
X100822142Y-91701904D01*
X100774523Y-91797142D01*
X100726904Y-91844761D01*
X100631666Y-91892380D01*
X100393571Y-91892380D01*
X100298333Y-91844761D01*
X100250714Y-91797142D01*
X101107857Y-90892380D02*
X101441190Y-91892380D01*
X101774523Y-90892380D01*
X96393095Y-90940000D02*
X96297857Y-90892380D01*
X96155000Y-90892380D01*
X96012142Y-90940000D01*
X95916904Y-91035238D01*
X95869285Y-91130476D01*
X95821666Y-91320952D01*
X95821666Y-91463809D01*
X95869285Y-91654285D01*
X95916904Y-91749523D01*
X96012142Y-91844761D01*
X96155000Y-91892380D01*
X96250238Y-91892380D01*
X96393095Y-91844761D01*
X96440714Y-91797142D01*
X96440714Y-91463809D01*
X96250238Y-91463809D01*
X96869285Y-91892380D02*
X96869285Y-90892380D01*
X97440714Y-91892380D01*
X97440714Y-90892380D01*
X97916904Y-91892380D02*
X97916904Y-90892380D01*
X98155000Y-90892380D01*
X98297857Y-90940000D01*
X98393095Y-91035238D01*
X98440714Y-91130476D01*
X98488333Y-91320952D01*
X98488333Y-91463809D01*
X98440714Y-91654285D01*
X98393095Y-91749523D01*
X98297857Y-91844761D01*
X98155000Y-91892380D01*
X97916904Y-91892380D01*
X90287976Y-94166666D02*
X90764166Y-94166666D01*
X90192738Y-94452380D02*
X90526071Y-93452380D01*
X90859404Y-94452380D01*
X91383214Y-93452380D02*
X91478452Y-93452380D01*
X91573690Y-93500000D01*
X91621309Y-93547619D01*
X91668928Y-93642857D01*
X91716547Y-93833333D01*
X91716547Y-94071428D01*
X91668928Y-94261904D01*
X91621309Y-94357142D01*
X91573690Y-94404761D01*
X91478452Y-94452380D01*
X91383214Y-94452380D01*
X91287976Y-94404761D01*
X91240357Y-94357142D01*
X91192738Y-94261904D01*
X91145119Y-94071428D01*
X91145119Y-93833333D01*
X91192738Y-93642857D01*
X91240357Y-93547619D01*
X91287976Y-93500000D01*
X91383214Y-93452380D01*
X90287976Y-96686666D02*
X90764166Y-96686666D01*
X90192738Y-96972380D02*
X90526071Y-95972380D01*
X90859404Y-96972380D01*
X91716547Y-96972380D02*
X91145119Y-96972380D01*
X91430833Y-96972380D02*
X91430833Y-95972380D01*
X91335595Y-96115238D01*
X91240357Y-96210476D01*
X91145119Y-96258095D01*
X90285714Y-101766666D02*
X90761904Y-101766666D01*
X90190476Y-102052380D02*
X90523809Y-101052380D01*
X90857142Y-102052380D01*
X91095238Y-101052380D02*
X91714285Y-101052380D01*
X91380952Y-101433333D01*
X91523809Y-101433333D01*
X91619047Y-101480952D01*
X91666666Y-101528571D01*
X91714285Y-101623809D01*
X91714285Y-101861904D01*
X91666666Y-101957142D01*
X91619047Y-102004761D01*
X91523809Y-102052380D01*
X91238095Y-102052380D01*
X91142857Y-102004761D01*
X91095238Y-101957142D01*
X90287976Y-99226666D02*
X90764166Y-99226666D01*
X90192738Y-99512380D02*
X90526071Y-98512380D01*
X90859404Y-99512380D01*
X91145119Y-98607619D02*
X91192738Y-98560000D01*
X91287976Y-98512380D01*
X91526071Y-98512380D01*
X91621309Y-98560000D01*
X91668928Y-98607619D01*
X91716547Y-98702857D01*
X91716547Y-98798095D01*
X91668928Y-98940952D01*
X91097500Y-99512380D01*
X91716547Y-99512380D01*
X108592824Y-45597900D02*
X108525481Y-45597900D01*
X108390794Y-45530557D01*
X108323450Y-45463213D01*
X108256107Y-45328526D01*
X108256107Y-45193839D01*
X108289778Y-45092824D01*
X108390794Y-44924465D01*
X108491809Y-44823450D01*
X108660168Y-44722435D01*
X108761183Y-44688763D01*
X108895870Y-44688763D01*
X109030557Y-44756107D01*
X109097900Y-44823450D01*
X109165244Y-44958137D01*
X109165244Y-45025481D01*
X108996885Y-45732587D02*
X109333603Y-46069305D01*
X108727511Y-45867274D02*
X109670320Y-45395870D01*
X109198916Y-46338679D01*
X109434618Y-46574381D02*
X110141725Y-45867274D01*
X109838679Y-46978442D01*
X110545786Y-46271335D01*
X110512114Y-47651877D02*
X110175396Y-47315160D01*
X110882503Y-46608053D01*
X111132824Y-45597900D02*
X111065481Y-45597900D01*
X110930794Y-45530557D01*
X110863450Y-45463213D01*
X110796107Y-45328526D01*
X110796107Y-45193839D01*
X110829778Y-45092824D01*
X110930794Y-44924465D01*
X111031809Y-44823450D01*
X111200168Y-44722435D01*
X111301183Y-44688763D01*
X111435870Y-44688763D01*
X111570557Y-44756107D01*
X111637900Y-44823450D01*
X111705244Y-44958137D01*
X111705244Y-45025481D01*
X111536885Y-45732587D02*
X111873603Y-46069305D01*
X111267511Y-45867274D02*
X112210320Y-45395870D01*
X111738916Y-46338679D01*
X111974618Y-46574381D02*
X112681725Y-45867274D01*
X112378679Y-46978442D01*
X113085786Y-46271335D01*
X112715396Y-47315160D02*
X113422503Y-46608053D01*
X113085786Y-46944770D02*
X113489847Y-47348831D01*
X113119457Y-47719221D02*
X113826564Y-47012114D01*
X106625244Y-44890794D02*
X106288526Y-44554076D01*
X105918137Y-44857122D01*
X105985481Y-44857122D01*
X106086496Y-44890794D01*
X106254855Y-45059152D01*
X106288526Y-45160168D01*
X106288526Y-45227511D01*
X106254855Y-45328526D01*
X106086496Y-45496885D01*
X105985481Y-45530557D01*
X105918137Y-45530557D01*
X105817122Y-45496885D01*
X105648763Y-45328526D01*
X105615091Y-45227511D01*
X105615091Y-45160168D01*
X106860946Y-45126496D02*
X106389542Y-46069305D01*
X107332351Y-45597900D01*
X104085244Y-44958137D02*
X104051572Y-44857122D01*
X103950557Y-44756107D01*
X103815870Y-44688763D01*
X103681183Y-44688763D01*
X103580168Y-44722435D01*
X103411809Y-44823450D01*
X103310794Y-44924465D01*
X103209778Y-45092824D01*
X103176107Y-45193839D01*
X103176107Y-45328526D01*
X103243450Y-45463213D01*
X103310794Y-45530557D01*
X103445481Y-45597900D01*
X103512824Y-45597900D01*
X103748526Y-45362198D01*
X103613839Y-45227511D01*
X103748526Y-45968290D02*
X104455633Y-45261183D01*
X104152587Y-46372351D01*
X104859694Y-45665244D01*
X104489305Y-46709068D02*
X105196412Y-46001961D01*
X105364770Y-46170320D01*
X105432114Y-46305007D01*
X105432114Y-46439694D01*
X105398442Y-46540709D01*
X105297427Y-46709068D01*
X105196412Y-46810083D01*
X105028053Y-46911099D01*
X104927038Y-46944770D01*
X104792351Y-46944770D01*
X104657664Y-46877427D01*
X104489305Y-46709068D01*
D11*
%TO.C,A1*%
X74422000Y-56388000D02*
X74422000Y-53848000D01*
X74422000Y-53848000D02*
X71752000Y-53848000D01*
X71752000Y-56388000D02*
X71752000Y-94618000D01*
X71752000Y-51178000D02*
X71752000Y-53848000D01*
X87122000Y-53848000D02*
X89792000Y-53848000D01*
X87122000Y-53848000D02*
X87122000Y-91948000D01*
X87122000Y-91948000D02*
X89792000Y-91948000D01*
X74422000Y-56388000D02*
X71752000Y-56388000D01*
X74422000Y-56388000D02*
X74422000Y-91948000D01*
X74422000Y-91948000D02*
X71752000Y-91948000D01*
X71752000Y-94618000D02*
X89792000Y-94618000D01*
X89792000Y-94618000D02*
X89792000Y-51178000D01*
X89792000Y-51178000D02*
X71752000Y-51178000D01*
%TO.C,TP6*%
X81182000Y-99000000D02*
G75*
G03*
X81182000Y-99000000I-950000J0D01*
G01*
%TO.C,TP3*%
X109154000Y-43180000D02*
G75*
G03*
X109154000Y-43180000I-950000J0D01*
G01*
%TO.C,TP4*%
X106614000Y-43180000D02*
G75*
G03*
X106614000Y-43180000I-950000J0D01*
G01*
%TO.C,TP1*%
X111694000Y-43180000D02*
G75*
G03*
X111694000Y-43180000I-950000J0D01*
G01*
%TO.C,J9*%
X95825000Y-92650000D02*
X97155000Y-92650000D01*
X95825000Y-93980000D02*
X95825000Y-92650000D01*
X95825000Y-95250000D02*
X98485000Y-95250000D01*
X98485000Y-95250000D02*
X98485000Y-102930000D01*
X95825000Y-95250000D02*
X95825000Y-102930000D01*
X95825000Y-102930000D02*
X98485000Y-102930000D01*
%TO.C,J3*%
X92015000Y-92650000D02*
X93345000Y-92650000D01*
X92015000Y-93980000D02*
X92015000Y-92650000D01*
X92015000Y-95250000D02*
X94675000Y-95250000D01*
X94675000Y-95250000D02*
X94675000Y-102930000D01*
X92015000Y-95250000D02*
X92015000Y-102930000D01*
X92015000Y-102930000D02*
X94675000Y-102930000D01*
%TO.C,J2*%
X99635000Y-92650000D02*
X100965000Y-92650000D01*
X99635000Y-93980000D02*
X99635000Y-92650000D01*
X99635000Y-95250000D02*
X102295000Y-95250000D01*
X102295000Y-95250000D02*
X102295000Y-102930000D01*
X99635000Y-95250000D02*
X99635000Y-102930000D01*
X99635000Y-102930000D02*
X102295000Y-102930000D01*
%TO.C,Y1*%
X83672000Y-47636000D02*
X89422000Y-47636000D01*
X83672000Y-44036000D02*
X83672000Y-47636000D01*
X89422000Y-44036000D02*
X83672000Y-44036000D01*
%TO.C,C2*%
X89082000Y-42545580D02*
X89082000Y-42264420D01*
X88062000Y-42545580D02*
X88062000Y-42264420D01*
%TO.C,U3*%
X96000000Y-58440000D02*
X97950000Y-58440000D01*
X96000000Y-58440000D02*
X94050000Y-58440000D01*
X96000000Y-53320000D02*
X97950000Y-53320000D01*
X96000000Y-53320000D02*
X92550000Y-53320000D01*
%TO.C,U2*%
X96012000Y-44367000D02*
X92412000Y-44367000D01*
X96012000Y-44367000D02*
X98212000Y-44367000D01*
X96012000Y-51137000D02*
X93812000Y-51137000D01*
X96012000Y-51137000D02*
X98212000Y-51137000D01*
%TO.C,U1*%
X96000000Y-65184000D02*
X93800000Y-65184000D01*
X96000000Y-65184000D02*
X98200000Y-65184000D01*
X96000000Y-73254000D02*
X93800000Y-73254000D01*
X96000000Y-73254000D02*
X99600000Y-73254000D01*
%TO.C,TP9*%
X77150000Y-49784000D02*
G75*
G03*
X77150000Y-49784000I-950000J0D01*
G01*
%TO.C,TP8*%
X79690000Y-49784000D02*
G75*
G03*
X79690000Y-49784000I-950000J0D01*
G01*
%TO.C,TP7*%
X86262000Y-99000000D02*
G75*
G03*
X86262000Y-99000000I-950000J0D01*
G01*
%TO.C,TP5*%
X83722000Y-99000000D02*
G75*
G03*
X83722000Y-99000000I-950000J0D01*
G01*
%TO.C,TP2*%
X104074000Y-43180000D02*
G75*
G03*
X104074000Y-43180000I-950000J0D01*
G01*
%TO.C,R14*%
X108951500Y-56816258D02*
X108951500Y-56341742D01*
X109996500Y-56816258D02*
X109996500Y-56341742D01*
%TO.C,R13*%
X100569500Y-53069258D02*
X100569500Y-52594742D01*
X101614500Y-53069258D02*
X101614500Y-52594742D01*
%TO.C,R12*%
X95010500Y-42307742D02*
X95010500Y-42782258D01*
X93965500Y-42307742D02*
X93965500Y-42782258D01*
%TO.C,R11*%
X108632258Y-69102500D02*
X108157742Y-69102500D01*
X108632258Y-68057500D02*
X108157742Y-68057500D01*
%TO.C,R10*%
X111522742Y-68057500D02*
X111997258Y-68057500D01*
X111522742Y-69102500D02*
X111997258Y-69102500D01*
%TO.C,R9*%
X108632258Y-78754500D02*
X108157742Y-78754500D01*
X108632258Y-77709500D02*
X108157742Y-77709500D01*
%TO.C,R8*%
X111522742Y-77709500D02*
X111997258Y-77709500D01*
X111522742Y-78754500D02*
X111997258Y-78754500D01*
%TO.C,R7*%
X108632258Y-88406500D02*
X108157742Y-88406500D01*
X108632258Y-87361500D02*
X108157742Y-87361500D01*
%TO.C,R6*%
X111522742Y-87361500D02*
X111997258Y-87361500D01*
X111522742Y-88406500D02*
X111997258Y-88406500D01*
%TO.C,R5*%
X108632258Y-98058500D02*
X108157742Y-98058500D01*
X108632258Y-97013500D02*
X108157742Y-97013500D01*
%TO.C,R4*%
X111331742Y-97013500D02*
X111806258Y-97013500D01*
X111331742Y-98058500D02*
X111806258Y-98058500D01*
%TO.C,R3*%
X94219500Y-75738258D02*
X94219500Y-75263742D01*
X95264500Y-75738258D02*
X95264500Y-75263742D01*
%TO.C,R2*%
X96124500Y-75738258D02*
X96124500Y-75263742D01*
X97169500Y-75738258D02*
X97169500Y-75263742D01*
%TO.C,R1*%
X98029500Y-75738258D02*
X98029500Y-75263742D01*
X99074500Y-75738258D02*
X99074500Y-75263742D01*
%TO.C,J8*%
X116138000Y-58226000D02*
X116138000Y-55566000D01*
X113538000Y-58226000D02*
X116138000Y-58226000D01*
X113538000Y-55566000D02*
X116138000Y-55566000D01*
X113538000Y-58226000D02*
X113538000Y-55566000D01*
X112268000Y-58226000D02*
X110938000Y-58226000D01*
X110938000Y-58226000D02*
X110938000Y-56896000D01*
%TO.C,J7*%
X104070000Y-61790000D02*
X104070000Y-65810000D01*
X104070000Y-65810000D02*
X116790000Y-65810000D01*
X116790000Y-65810000D02*
X116790000Y-61790000D01*
X116790000Y-61790000D02*
X104070000Y-61790000D01*
X104070000Y-63500000D02*
X104570000Y-63500000D01*
X104570000Y-63500000D02*
X104570000Y-62290000D01*
X104570000Y-62290000D02*
X116290000Y-62290000D01*
X116290000Y-62290000D02*
X116290000Y-63500000D01*
X116290000Y-63500000D02*
X116790000Y-63500000D01*
X104070000Y-64310000D02*
X105070000Y-64310000D01*
X105070000Y-64310000D02*
X105070000Y-65810000D01*
X116790000Y-64310000D02*
X115790000Y-64310000D01*
X115790000Y-64310000D02*
X115790000Y-65810000D01*
X103770000Y-63610000D02*
X103770000Y-66110000D01*
X103770000Y-66110000D02*
X106270000Y-66110000D01*
%TO.C,J6*%
X104070000Y-71442000D02*
X104070000Y-75462000D01*
X104070000Y-75462000D02*
X116790000Y-75462000D01*
X116790000Y-75462000D02*
X116790000Y-71442000D01*
X116790000Y-71442000D02*
X104070000Y-71442000D01*
X104070000Y-73152000D02*
X104570000Y-73152000D01*
X104570000Y-73152000D02*
X104570000Y-71942000D01*
X104570000Y-71942000D02*
X116290000Y-71942000D01*
X116290000Y-71942000D02*
X116290000Y-73152000D01*
X116290000Y-73152000D02*
X116790000Y-73152000D01*
X104070000Y-73962000D02*
X105070000Y-73962000D01*
X105070000Y-73962000D02*
X105070000Y-75462000D01*
X116790000Y-73962000D02*
X115790000Y-73962000D01*
X115790000Y-73962000D02*
X115790000Y-75462000D01*
X103770000Y-73262000D02*
X103770000Y-75762000D01*
X103770000Y-75762000D02*
X106270000Y-75762000D01*
%TO.C,J5*%
X104070000Y-81094000D02*
X104070000Y-85114000D01*
X104070000Y-85114000D02*
X116790000Y-85114000D01*
X116790000Y-85114000D02*
X116790000Y-81094000D01*
X116790000Y-81094000D02*
X104070000Y-81094000D01*
X104070000Y-82804000D02*
X104570000Y-82804000D01*
X104570000Y-82804000D02*
X104570000Y-81594000D01*
X104570000Y-81594000D02*
X116290000Y-81594000D01*
X116290000Y-81594000D02*
X116290000Y-82804000D01*
X116290000Y-82804000D02*
X116790000Y-82804000D01*
X104070000Y-83614000D02*
X105070000Y-83614000D01*
X105070000Y-83614000D02*
X105070000Y-85114000D01*
X116790000Y-83614000D02*
X115790000Y-83614000D01*
X115790000Y-83614000D02*
X115790000Y-85114000D01*
X103770000Y-82914000D02*
X103770000Y-85414000D01*
X103770000Y-85414000D02*
X106270000Y-85414000D01*
%TO.C,J4*%
X104070000Y-90746000D02*
X104070000Y-94766000D01*
X104070000Y-94766000D02*
X116790000Y-94766000D01*
X116790000Y-94766000D02*
X116790000Y-90746000D01*
X116790000Y-90746000D02*
X104070000Y-90746000D01*
X104070000Y-92456000D02*
X104570000Y-92456000D01*
X104570000Y-92456000D02*
X104570000Y-91246000D01*
X104570000Y-91246000D02*
X116290000Y-91246000D01*
X116290000Y-91246000D02*
X116290000Y-92456000D01*
X116290000Y-92456000D02*
X116790000Y-92456000D01*
X104070000Y-93266000D02*
X105070000Y-93266000D01*
X105070000Y-93266000D02*
X105070000Y-94766000D01*
X116790000Y-93266000D02*
X115790000Y-93266000D01*
X115790000Y-93266000D02*
X115790000Y-94766000D01*
X103770000Y-92566000D02*
X103770000Y-95066000D01*
X103770000Y-95066000D02*
X106270000Y-95066000D01*
%TO.C,J1*%
X104070000Y-49090000D02*
X104070000Y-53110000D01*
X104070000Y-53110000D02*
X116790000Y-53110000D01*
X116790000Y-53110000D02*
X116790000Y-49090000D01*
X116790000Y-49090000D02*
X104070000Y-49090000D01*
X104070000Y-50800000D02*
X104570000Y-50800000D01*
X104570000Y-50800000D02*
X104570000Y-49590000D01*
X104570000Y-49590000D02*
X116290000Y-49590000D01*
X116290000Y-49590000D02*
X116290000Y-50800000D01*
X116290000Y-50800000D02*
X116790000Y-50800000D01*
X104070000Y-51610000D02*
X105070000Y-51610000D01*
X105070000Y-51610000D02*
X105070000Y-53110000D01*
X116790000Y-51610000D02*
X115790000Y-51610000D01*
X115790000Y-51610000D02*
X115790000Y-53110000D01*
X103770000Y-50910000D02*
X103770000Y-53410000D01*
X103770000Y-53410000D02*
X106270000Y-53410000D01*
%TO.C,C4*%
X96518000Y-42685580D02*
X96518000Y-42404420D01*
X97538000Y-42685580D02*
X97538000Y-42404420D01*
%TO.C,C3*%
X84326000Y-42545580D02*
X84326000Y-42264420D01*
X85346000Y-42545580D02*
X85346000Y-42264420D01*
%TO.C,C1*%
X92327000Y-75591580D02*
X92327000Y-75310420D01*
X93347000Y-75591580D02*
X93347000Y-75310420D01*
%TO.C,*%
D14*
%TO.C,Y1*%
X90548190Y-46312190D02*
X91024380Y-46312190D01*
X90024380Y-46645523D02*
X90548190Y-46312190D01*
X90024380Y-45978857D01*
X91024380Y-45121714D02*
X91024380Y-45693142D01*
X91024380Y-45407428D02*
X90024380Y-45407428D01*
X90167238Y-45502666D01*
X90262476Y-45597904D01*
X90310095Y-45693142D01*
%TO.C,C2*%
X87499142Y-42571666D02*
X87546761Y-42619285D01*
X87594380Y-42762142D01*
X87594380Y-42857380D01*
X87546761Y-43000238D01*
X87451523Y-43095476D01*
X87356285Y-43143095D01*
X87165809Y-43190714D01*
X87022952Y-43190714D01*
X86832476Y-43143095D01*
X86737238Y-43095476D01*
X86642000Y-43000238D01*
X86594380Y-42857380D01*
X86594380Y-42762142D01*
X86642000Y-42619285D01*
X86689619Y-42571666D01*
X86689619Y-42190714D02*
X86642000Y-42143095D01*
X86594380Y-42047857D01*
X86594380Y-41809761D01*
X86642000Y-41714523D01*
X86689619Y-41666904D01*
X86784857Y-41619285D01*
X86880095Y-41619285D01*
X87022952Y-41666904D01*
X87594380Y-42238333D01*
X87594380Y-41619285D01*
%TO.C,U3*%
X92202095Y-51776380D02*
X92202095Y-52585904D01*
X92249714Y-52681142D01*
X92297333Y-52728761D01*
X92392571Y-52776380D01*
X92583047Y-52776380D01*
X92678285Y-52728761D01*
X92725904Y-52681142D01*
X92773523Y-52585904D01*
X92773523Y-51776380D01*
X93154476Y-51776380D02*
X93773523Y-51776380D01*
X93440190Y-52157333D01*
X93583047Y-52157333D01*
X93678285Y-52204952D01*
X93725904Y-52252571D01*
X93773523Y-52347809D01*
X93773523Y-52585904D01*
X93725904Y-52681142D01*
X93678285Y-52728761D01*
X93583047Y-52776380D01*
X93297333Y-52776380D01*
X93202095Y-52728761D01*
X93154476Y-52681142D01*
%TO.C,U2*%
X91694095Y-42632380D02*
X91694095Y-43441904D01*
X91741714Y-43537142D01*
X91789333Y-43584761D01*
X91884571Y-43632380D01*
X92075047Y-43632380D01*
X92170285Y-43584761D01*
X92217904Y-43537142D01*
X92265523Y-43441904D01*
X92265523Y-42632380D01*
X92694095Y-42727619D02*
X92741714Y-42680000D01*
X92836952Y-42632380D01*
X93075047Y-42632380D01*
X93170285Y-42680000D01*
X93217904Y-42727619D01*
X93265523Y-42822857D01*
X93265523Y-42918095D01*
X93217904Y-43060952D01*
X92646476Y-43632380D01*
X93265523Y-43632380D01*
%TO.C,U1*%
X92202095Y-63714380D02*
X92202095Y-64523904D01*
X92249714Y-64619142D01*
X92297333Y-64666761D01*
X92392571Y-64714380D01*
X92583047Y-64714380D01*
X92678285Y-64666761D01*
X92725904Y-64619142D01*
X92773523Y-64523904D01*
X92773523Y-63714380D01*
X93773523Y-64714380D02*
X93202095Y-64714380D01*
X93487809Y-64714380D02*
X93487809Y-63714380D01*
X93392571Y-63857238D01*
X93297333Y-63952476D01*
X93202095Y-64000095D01*
%TO.C,R14*%
X106545142Y-57348380D02*
X106211809Y-56872190D01*
X105973714Y-57348380D02*
X105973714Y-56348380D01*
X106354666Y-56348380D01*
X106449904Y-56396000D01*
X106497523Y-56443619D01*
X106545142Y-56538857D01*
X106545142Y-56681714D01*
X106497523Y-56776952D01*
X106449904Y-56824571D01*
X106354666Y-56872190D01*
X105973714Y-56872190D01*
X107497523Y-57348380D02*
X106926095Y-57348380D01*
X107211809Y-57348380D02*
X107211809Y-56348380D01*
X107116571Y-56491238D01*
X107021333Y-56586476D01*
X106926095Y-56634095D01*
X108354666Y-56681714D02*
X108354666Y-57348380D01*
X108116571Y-56300761D02*
X107878476Y-57015047D01*
X108497523Y-57015047D01*
%TO.C,R13*%
X100957142Y-55824380D02*
X100623809Y-55348190D01*
X100385714Y-55824380D02*
X100385714Y-54824380D01*
X100766666Y-54824380D01*
X100861904Y-54872000D01*
X100909523Y-54919619D01*
X100957142Y-55014857D01*
X100957142Y-55157714D01*
X100909523Y-55252952D01*
X100861904Y-55300571D01*
X100766666Y-55348190D01*
X100385714Y-55348190D01*
X101909523Y-55824380D02*
X101338095Y-55824380D01*
X101623809Y-55824380D02*
X101623809Y-54824380D01*
X101528571Y-54967238D01*
X101433333Y-55062476D01*
X101338095Y-55110095D01*
X102242857Y-54824380D02*
X102861904Y-54824380D01*
X102528571Y-55205333D01*
X102671428Y-55205333D01*
X102766666Y-55252952D01*
X102814285Y-55300571D01*
X102861904Y-55395809D01*
X102861904Y-55633904D01*
X102814285Y-55729142D01*
X102766666Y-55776761D01*
X102671428Y-55824380D01*
X102385714Y-55824380D01*
X102290476Y-55776761D01*
X102242857Y-55729142D01*
%TO.C,R12*%
X91305142Y-41346380D02*
X90971809Y-40870190D01*
X90733714Y-41346380D02*
X90733714Y-40346380D01*
X91114666Y-40346380D01*
X91209904Y-40394000D01*
X91257523Y-40441619D01*
X91305142Y-40536857D01*
X91305142Y-40679714D01*
X91257523Y-40774952D01*
X91209904Y-40822571D01*
X91114666Y-40870190D01*
X90733714Y-40870190D01*
X92257523Y-41346380D02*
X91686095Y-41346380D01*
X91971809Y-41346380D02*
X91971809Y-40346380D01*
X91876571Y-40489238D01*
X91781333Y-40584476D01*
X91686095Y-40632095D01*
X92638476Y-40441619D02*
X92686095Y-40394000D01*
X92781333Y-40346380D01*
X93019428Y-40346380D01*
X93114666Y-40394000D01*
X93162285Y-40441619D01*
X93209904Y-40536857D01*
X93209904Y-40632095D01*
X93162285Y-40774952D01*
X92590857Y-41346380D01*
X93209904Y-41346380D01*
%TO.C,R11*%
X104513142Y-69032380D02*
X104179809Y-68556190D01*
X103941714Y-69032380D02*
X103941714Y-68032380D01*
X104322666Y-68032380D01*
X104417904Y-68080000D01*
X104465523Y-68127619D01*
X104513142Y-68222857D01*
X104513142Y-68365714D01*
X104465523Y-68460952D01*
X104417904Y-68508571D01*
X104322666Y-68556190D01*
X103941714Y-68556190D01*
X105465523Y-69032380D02*
X104894095Y-69032380D01*
X105179809Y-69032380D02*
X105179809Y-68032380D01*
X105084571Y-68175238D01*
X104989333Y-68270476D01*
X104894095Y-68318095D01*
X106417904Y-69032380D02*
X105846476Y-69032380D01*
X106132190Y-69032380D02*
X106132190Y-68032380D01*
X106036952Y-68175238D01*
X105941714Y-68270476D01*
X105846476Y-68318095D01*
%TO.C,R10*%
X114165142Y-69032380D02*
X113831809Y-68556190D01*
X113593714Y-69032380D02*
X113593714Y-68032380D01*
X113974666Y-68032380D01*
X114069904Y-68080000D01*
X114117523Y-68127619D01*
X114165142Y-68222857D01*
X114165142Y-68365714D01*
X114117523Y-68460952D01*
X114069904Y-68508571D01*
X113974666Y-68556190D01*
X113593714Y-68556190D01*
X115117523Y-69032380D02*
X114546095Y-69032380D01*
X114831809Y-69032380D02*
X114831809Y-68032380D01*
X114736571Y-68175238D01*
X114641333Y-68270476D01*
X114546095Y-68318095D01*
X115736571Y-68032380D02*
X115831809Y-68032380D01*
X115927047Y-68080000D01*
X115974666Y-68127619D01*
X116022285Y-68222857D01*
X116069904Y-68413333D01*
X116069904Y-68651428D01*
X116022285Y-68841904D01*
X115974666Y-68937142D01*
X115927047Y-68984761D01*
X115831809Y-69032380D01*
X115736571Y-69032380D01*
X115641333Y-68984761D01*
X115593714Y-68937142D01*
X115546095Y-68841904D01*
X115498476Y-68651428D01*
X115498476Y-68413333D01*
X115546095Y-68222857D01*
X115593714Y-68127619D01*
X115641333Y-68080000D01*
X115736571Y-68032380D01*
%TO.C,R9*%
X105688333Y-78684380D02*
X105355000Y-78208190D01*
X105116904Y-78684380D02*
X105116904Y-77684380D01*
X105497857Y-77684380D01*
X105593095Y-77732000D01*
X105640714Y-77779619D01*
X105688333Y-77874857D01*
X105688333Y-78017714D01*
X105640714Y-78112952D01*
X105593095Y-78160571D01*
X105497857Y-78208190D01*
X105116904Y-78208190D01*
X106164523Y-78684380D02*
X106355000Y-78684380D01*
X106450238Y-78636761D01*
X106497857Y-78589142D01*
X106593095Y-78446285D01*
X106640714Y-78255809D01*
X106640714Y-77874857D01*
X106593095Y-77779619D01*
X106545476Y-77732000D01*
X106450238Y-77684380D01*
X106259761Y-77684380D01*
X106164523Y-77732000D01*
X106116904Y-77779619D01*
X106069285Y-77874857D01*
X106069285Y-78112952D01*
X106116904Y-78208190D01*
X106164523Y-78255809D01*
X106259761Y-78303428D01*
X106450238Y-78303428D01*
X106545476Y-78255809D01*
X106593095Y-78208190D01*
X106640714Y-78112952D01*
%TO.C,R8*%
X114324333Y-78684380D02*
X113991000Y-78208190D01*
X113752904Y-78684380D02*
X113752904Y-77684380D01*
X114133857Y-77684380D01*
X114229095Y-77732000D01*
X114276714Y-77779619D01*
X114324333Y-77874857D01*
X114324333Y-78017714D01*
X114276714Y-78112952D01*
X114229095Y-78160571D01*
X114133857Y-78208190D01*
X113752904Y-78208190D01*
X114895761Y-78112952D02*
X114800523Y-78065333D01*
X114752904Y-78017714D01*
X114705285Y-77922476D01*
X114705285Y-77874857D01*
X114752904Y-77779619D01*
X114800523Y-77732000D01*
X114895761Y-77684380D01*
X115086238Y-77684380D01*
X115181476Y-77732000D01*
X115229095Y-77779619D01*
X115276714Y-77874857D01*
X115276714Y-77922476D01*
X115229095Y-78017714D01*
X115181476Y-78065333D01*
X115086238Y-78112952D01*
X114895761Y-78112952D01*
X114800523Y-78160571D01*
X114752904Y-78208190D01*
X114705285Y-78303428D01*
X114705285Y-78493904D01*
X114752904Y-78589142D01*
X114800523Y-78636761D01*
X114895761Y-78684380D01*
X115086238Y-78684380D01*
X115181476Y-78636761D01*
X115229095Y-78589142D01*
X115276714Y-78493904D01*
X115276714Y-78303428D01*
X115229095Y-78208190D01*
X115181476Y-78160571D01*
X115086238Y-78112952D01*
%TO.C,R7*%
X105497333Y-88336380D02*
X105164000Y-87860190D01*
X104925904Y-88336380D02*
X104925904Y-87336380D01*
X105306857Y-87336380D01*
X105402095Y-87384000D01*
X105449714Y-87431619D01*
X105497333Y-87526857D01*
X105497333Y-87669714D01*
X105449714Y-87764952D01*
X105402095Y-87812571D01*
X105306857Y-87860190D01*
X104925904Y-87860190D01*
X105830666Y-87336380D02*
X106497333Y-87336380D01*
X106068761Y-88336380D01*
%TO.C,R6*%
X114133333Y-88336380D02*
X113800000Y-87860190D01*
X113561904Y-88336380D02*
X113561904Y-87336380D01*
X113942857Y-87336380D01*
X114038095Y-87384000D01*
X114085714Y-87431619D01*
X114133333Y-87526857D01*
X114133333Y-87669714D01*
X114085714Y-87764952D01*
X114038095Y-87812571D01*
X113942857Y-87860190D01*
X113561904Y-87860190D01*
X114990476Y-87336380D02*
X114800000Y-87336380D01*
X114704761Y-87384000D01*
X114657142Y-87431619D01*
X114561904Y-87574476D01*
X114514285Y-87764952D01*
X114514285Y-88145904D01*
X114561904Y-88241142D01*
X114609523Y-88288761D01*
X114704761Y-88336380D01*
X114895238Y-88336380D01*
X114990476Y-88288761D01*
X115038095Y-88241142D01*
X115085714Y-88145904D01*
X115085714Y-87907809D01*
X115038095Y-87812571D01*
X114990476Y-87764952D01*
X114895238Y-87717333D01*
X114704761Y-87717333D01*
X114609523Y-87764952D01*
X114561904Y-87812571D01*
X114514285Y-87907809D01*
%TO.C,R5*%
X105180333Y-97988380D02*
X104847000Y-97512190D01*
X104608904Y-97988380D02*
X104608904Y-96988380D01*
X104989857Y-96988380D01*
X105085095Y-97036000D01*
X105132714Y-97083619D01*
X105180333Y-97178857D01*
X105180333Y-97321714D01*
X105132714Y-97416952D01*
X105085095Y-97464571D01*
X104989857Y-97512190D01*
X104608904Y-97512190D01*
X106085095Y-96988380D02*
X105608904Y-96988380D01*
X105561285Y-97464571D01*
X105608904Y-97416952D01*
X105704142Y-97369333D01*
X105942238Y-97369333D01*
X106037476Y-97416952D01*
X106085095Y-97464571D01*
X106132714Y-97559809D01*
X106132714Y-97797904D01*
X106085095Y-97893142D01*
X106037476Y-97940761D01*
X105942238Y-97988380D01*
X105704142Y-97988380D01*
X105608904Y-97940761D01*
X105561285Y-97893142D01*
%TO.C,R4*%
X114133333Y-97988380D02*
X113800000Y-97512190D01*
X113561904Y-97988380D02*
X113561904Y-96988380D01*
X113942857Y-96988380D01*
X114038095Y-97036000D01*
X114085714Y-97083619D01*
X114133333Y-97178857D01*
X114133333Y-97321714D01*
X114085714Y-97416952D01*
X114038095Y-97464571D01*
X113942857Y-97512190D01*
X113561904Y-97512190D01*
X114990476Y-97321714D02*
X114990476Y-97988380D01*
X114752380Y-96940761D02*
X114514285Y-97655047D01*
X115133333Y-97655047D01*
%TO.C,R3*%
X94575333Y-78302380D02*
X94242000Y-77826190D01*
X94003904Y-78302380D02*
X94003904Y-77302380D01*
X94384857Y-77302380D01*
X94480095Y-77350000D01*
X94527714Y-77397619D01*
X94575333Y-77492857D01*
X94575333Y-77635714D01*
X94527714Y-77730952D01*
X94480095Y-77778571D01*
X94384857Y-77826190D01*
X94003904Y-77826190D01*
X94908666Y-77302380D02*
X95527714Y-77302380D01*
X95194380Y-77683333D01*
X95337238Y-77683333D01*
X95432476Y-77730952D01*
X95480095Y-77778571D01*
X95527714Y-77873809D01*
X95527714Y-78111904D01*
X95480095Y-78207142D01*
X95432476Y-78254761D01*
X95337238Y-78302380D01*
X95051523Y-78302380D01*
X94956285Y-78254761D01*
X94908666Y-78207142D01*
%TO.C,R2*%
X96480333Y-78302380D02*
X96147000Y-77826190D01*
X95908904Y-78302380D02*
X95908904Y-77302380D01*
X96289857Y-77302380D01*
X96385095Y-77350000D01*
X96432714Y-77397619D01*
X96480333Y-77492857D01*
X96480333Y-77635714D01*
X96432714Y-77730952D01*
X96385095Y-77778571D01*
X96289857Y-77826190D01*
X95908904Y-77826190D01*
X96861285Y-77397619D02*
X96908904Y-77350000D01*
X97004142Y-77302380D01*
X97242238Y-77302380D01*
X97337476Y-77350000D01*
X97385095Y-77397619D01*
X97432714Y-77492857D01*
X97432714Y-77588095D01*
X97385095Y-77730952D01*
X96813666Y-78302380D01*
X97432714Y-78302380D01*
%TO.C,R1*%
X98385333Y-78302380D02*
X98052000Y-77826190D01*
X97813904Y-78302380D02*
X97813904Y-77302380D01*
X98194857Y-77302380D01*
X98290095Y-77350000D01*
X98337714Y-77397619D01*
X98385333Y-77492857D01*
X98385333Y-77635714D01*
X98337714Y-77730952D01*
X98290095Y-77778571D01*
X98194857Y-77826190D01*
X97813904Y-77826190D01*
X99337714Y-78302380D02*
X98766285Y-78302380D01*
X99052000Y-78302380D02*
X99052000Y-77302380D01*
X98956761Y-77445238D01*
X98861523Y-77540476D01*
X98766285Y-77588095D01*
%TO.C,J7*%
X106310952Y-67352380D02*
X106310952Y-66352380D01*
X106644285Y-67066666D01*
X106977619Y-66352380D01*
X106977619Y-67352380D01*
X107453809Y-66352380D02*
X107453809Y-67161904D01*
X107501428Y-67257142D01*
X107549047Y-67304761D01*
X107644285Y-67352380D01*
X107834761Y-67352380D01*
X107930000Y-67304761D01*
X107977619Y-67257142D01*
X108025238Y-67161904D01*
X108025238Y-66352380D01*
X108406190Y-66352380D02*
X109072857Y-67352380D01*
X109072857Y-66352380D02*
X108406190Y-67352380D01*
X110215714Y-67352380D02*
X110215714Y-66352380D01*
X110596666Y-66352380D01*
X110691904Y-66400000D01*
X110739523Y-66447619D01*
X110787142Y-66542857D01*
X110787142Y-66685714D01*
X110739523Y-66780952D01*
X110691904Y-66828571D01*
X110596666Y-66876190D01*
X110215714Y-66876190D01*
X111358571Y-67352380D02*
X111263333Y-67304761D01*
X111215714Y-67257142D01*
X111168095Y-67161904D01*
X111168095Y-66876190D01*
X111215714Y-66780952D01*
X111263333Y-66733333D01*
X111358571Y-66685714D01*
X111501428Y-66685714D01*
X111596666Y-66733333D01*
X111644285Y-66780952D01*
X111691904Y-66876190D01*
X111691904Y-67161904D01*
X111644285Y-67257142D01*
X111596666Y-67304761D01*
X111501428Y-67352380D01*
X111358571Y-67352380D01*
X112120476Y-67352380D02*
X112120476Y-66685714D01*
X112120476Y-66876190D02*
X112168095Y-66780952D01*
X112215714Y-66733333D01*
X112310952Y-66685714D01*
X112406190Y-66685714D01*
X112596666Y-66685714D02*
X112977619Y-66685714D01*
X112739523Y-66352380D02*
X112739523Y-67209523D01*
X112787142Y-67304761D01*
X112882380Y-67352380D01*
X112977619Y-67352380D01*
X113977619Y-66352380D02*
X114596666Y-66352380D01*
X114263333Y-66733333D01*
X114406190Y-66733333D01*
X114501428Y-66780952D01*
X114549047Y-66828571D01*
X114596666Y-66923809D01*
X114596666Y-67161904D01*
X114549047Y-67257142D01*
X114501428Y-67304761D01*
X114406190Y-67352380D01*
X114120476Y-67352380D01*
X114025238Y-67304761D01*
X113977619Y-67257142D01*
%TO.C,J6*%
X106310952Y-77004380D02*
X106310952Y-76004380D01*
X106644285Y-76718666D01*
X106977619Y-76004380D01*
X106977619Y-77004380D01*
X107453809Y-76004380D02*
X107453809Y-76813904D01*
X107501428Y-76909142D01*
X107549047Y-76956761D01*
X107644285Y-77004380D01*
X107834761Y-77004380D01*
X107930000Y-76956761D01*
X107977619Y-76909142D01*
X108025238Y-76813904D01*
X108025238Y-76004380D01*
X108406190Y-76004380D02*
X109072857Y-77004380D01*
X109072857Y-76004380D02*
X108406190Y-77004380D01*
X110215714Y-77004380D02*
X110215714Y-76004380D01*
X110596666Y-76004380D01*
X110691904Y-76052000D01*
X110739523Y-76099619D01*
X110787142Y-76194857D01*
X110787142Y-76337714D01*
X110739523Y-76432952D01*
X110691904Y-76480571D01*
X110596666Y-76528190D01*
X110215714Y-76528190D01*
X111358571Y-77004380D02*
X111263333Y-76956761D01*
X111215714Y-76909142D01*
X111168095Y-76813904D01*
X111168095Y-76528190D01*
X111215714Y-76432952D01*
X111263333Y-76385333D01*
X111358571Y-76337714D01*
X111501428Y-76337714D01*
X111596666Y-76385333D01*
X111644285Y-76432952D01*
X111691904Y-76528190D01*
X111691904Y-76813904D01*
X111644285Y-76909142D01*
X111596666Y-76956761D01*
X111501428Y-77004380D01*
X111358571Y-77004380D01*
X112120476Y-77004380D02*
X112120476Y-76337714D01*
X112120476Y-76528190D02*
X112168095Y-76432952D01*
X112215714Y-76385333D01*
X112310952Y-76337714D01*
X112406190Y-76337714D01*
X112596666Y-76337714D02*
X112977619Y-76337714D01*
X112739523Y-76004380D02*
X112739523Y-76861523D01*
X112787142Y-76956761D01*
X112882380Y-77004380D01*
X112977619Y-77004380D01*
X114025238Y-76099619D02*
X114072857Y-76052000D01*
X114168095Y-76004380D01*
X114406190Y-76004380D01*
X114501428Y-76052000D01*
X114549047Y-76099619D01*
X114596666Y-76194857D01*
X114596666Y-76290095D01*
X114549047Y-76432952D01*
X113977619Y-77004380D01*
X114596666Y-77004380D01*
%TO.C,J5*%
X106310952Y-86656380D02*
X106310952Y-85656380D01*
X106644285Y-86370666D01*
X106977619Y-85656380D01*
X106977619Y-86656380D01*
X107453809Y-85656380D02*
X107453809Y-86465904D01*
X107501428Y-86561142D01*
X107549047Y-86608761D01*
X107644285Y-86656380D01*
X107834761Y-86656380D01*
X107930000Y-86608761D01*
X107977619Y-86561142D01*
X108025238Y-86465904D01*
X108025238Y-85656380D01*
X108406190Y-85656380D02*
X109072857Y-86656380D01*
X109072857Y-85656380D02*
X108406190Y-86656380D01*
X110215714Y-86656380D02*
X110215714Y-85656380D01*
X110596666Y-85656380D01*
X110691904Y-85704000D01*
X110739523Y-85751619D01*
X110787142Y-85846857D01*
X110787142Y-85989714D01*
X110739523Y-86084952D01*
X110691904Y-86132571D01*
X110596666Y-86180190D01*
X110215714Y-86180190D01*
X111358571Y-86656380D02*
X111263333Y-86608761D01*
X111215714Y-86561142D01*
X111168095Y-86465904D01*
X111168095Y-86180190D01*
X111215714Y-86084952D01*
X111263333Y-86037333D01*
X111358571Y-85989714D01*
X111501428Y-85989714D01*
X111596666Y-86037333D01*
X111644285Y-86084952D01*
X111691904Y-86180190D01*
X111691904Y-86465904D01*
X111644285Y-86561142D01*
X111596666Y-86608761D01*
X111501428Y-86656380D01*
X111358571Y-86656380D01*
X112120476Y-86656380D02*
X112120476Y-85989714D01*
X112120476Y-86180190D02*
X112168095Y-86084952D01*
X112215714Y-86037333D01*
X112310952Y-85989714D01*
X112406190Y-85989714D01*
X112596666Y-85989714D02*
X112977619Y-85989714D01*
X112739523Y-85656380D02*
X112739523Y-86513523D01*
X112787142Y-86608761D01*
X112882380Y-86656380D01*
X112977619Y-86656380D01*
X114596666Y-86656380D02*
X114025238Y-86656380D01*
X114310952Y-86656380D02*
X114310952Y-85656380D01*
X114215714Y-85799238D01*
X114120476Y-85894476D01*
X114025238Y-85942095D01*
%TO.C,J4*%
X106310952Y-96308380D02*
X106310952Y-95308380D01*
X106644285Y-96022666D01*
X106977619Y-95308380D01*
X106977619Y-96308380D01*
X107453809Y-95308380D02*
X107453809Y-96117904D01*
X107501428Y-96213142D01*
X107549047Y-96260761D01*
X107644285Y-96308380D01*
X107834761Y-96308380D01*
X107930000Y-96260761D01*
X107977619Y-96213142D01*
X108025238Y-96117904D01*
X108025238Y-95308380D01*
X108406190Y-95308380D02*
X109072857Y-96308380D01*
X109072857Y-95308380D02*
X108406190Y-96308380D01*
X110215714Y-96308380D02*
X110215714Y-95308380D01*
X110596666Y-95308380D01*
X110691904Y-95356000D01*
X110739523Y-95403619D01*
X110787142Y-95498857D01*
X110787142Y-95641714D01*
X110739523Y-95736952D01*
X110691904Y-95784571D01*
X110596666Y-95832190D01*
X110215714Y-95832190D01*
X111358571Y-96308380D02*
X111263333Y-96260761D01*
X111215714Y-96213142D01*
X111168095Y-96117904D01*
X111168095Y-95832190D01*
X111215714Y-95736952D01*
X111263333Y-95689333D01*
X111358571Y-95641714D01*
X111501428Y-95641714D01*
X111596666Y-95689333D01*
X111644285Y-95736952D01*
X111691904Y-95832190D01*
X111691904Y-96117904D01*
X111644285Y-96213142D01*
X111596666Y-96260761D01*
X111501428Y-96308380D01*
X111358571Y-96308380D01*
X112120476Y-96308380D02*
X112120476Y-95641714D01*
X112120476Y-95832190D02*
X112168095Y-95736952D01*
X112215714Y-95689333D01*
X112310952Y-95641714D01*
X112406190Y-95641714D01*
X112596666Y-95641714D02*
X112977619Y-95641714D01*
X112739523Y-95308380D02*
X112739523Y-96165523D01*
X112787142Y-96260761D01*
X112882380Y-96308380D01*
X112977619Y-96308380D01*
X114263333Y-95308380D02*
X114358571Y-95308380D01*
X114453809Y-95356000D01*
X114501428Y-95403619D01*
X114549047Y-95498857D01*
X114596666Y-95689333D01*
X114596666Y-95927428D01*
X114549047Y-96117904D01*
X114501428Y-96213142D01*
X114453809Y-96260761D01*
X114358571Y-96308380D01*
X114263333Y-96308380D01*
X114168095Y-96260761D01*
X114120476Y-96213142D01*
X114072857Y-96117904D01*
X114025238Y-95927428D01*
X114025238Y-95689333D01*
X114072857Y-95498857D01*
X114120476Y-95403619D01*
X114168095Y-95356000D01*
X114263333Y-95308380D01*
%TO.C,J1*%
X105287142Y-54652380D02*
X105287142Y-53652380D01*
X105668095Y-53652380D01*
X105763333Y-53700000D01*
X105810952Y-53747619D01*
X105858571Y-53842857D01*
X105858571Y-53985714D01*
X105810952Y-54080952D01*
X105763333Y-54128571D01*
X105668095Y-54176190D01*
X105287142Y-54176190D01*
X106477619Y-53652380D02*
X106668095Y-53652380D01*
X106763333Y-53700000D01*
X106858571Y-53795238D01*
X106906190Y-53985714D01*
X106906190Y-54319047D01*
X106858571Y-54509523D01*
X106763333Y-54604761D01*
X106668095Y-54652380D01*
X106477619Y-54652380D01*
X106382380Y-54604761D01*
X106287142Y-54509523D01*
X106239523Y-54319047D01*
X106239523Y-53985714D01*
X106287142Y-53795238D01*
X106382380Y-53700000D01*
X106477619Y-53652380D01*
X107239523Y-53652380D02*
X107477619Y-54652380D01*
X107668095Y-53938095D01*
X107858571Y-54652380D01*
X108096666Y-53652380D01*
X108477619Y-54128571D02*
X108810952Y-54128571D01*
X108953809Y-54652380D02*
X108477619Y-54652380D01*
X108477619Y-53652380D01*
X108953809Y-53652380D01*
X109953809Y-54652380D02*
X109620476Y-54176190D01*
X109382380Y-54652380D02*
X109382380Y-53652380D01*
X109763333Y-53652380D01*
X109858571Y-53700000D01*
X109906190Y-53747619D01*
X109953809Y-53842857D01*
X109953809Y-53985714D01*
X109906190Y-54080952D01*
X109858571Y-54128571D01*
X109763333Y-54176190D01*
X109382380Y-54176190D01*
X111953809Y-54652380D02*
X111906190Y-54652380D01*
X111810952Y-54604761D01*
X111668095Y-54461904D01*
X111430000Y-54176190D01*
X111334761Y-54033333D01*
X111287142Y-53890476D01*
X111287142Y-53795238D01*
X111334761Y-53700000D01*
X111430000Y-53652380D01*
X111477619Y-53652380D01*
X111572857Y-53700000D01*
X111620476Y-53795238D01*
X111620476Y-53842857D01*
X111572857Y-53938095D01*
X111525238Y-53985714D01*
X111239523Y-54176190D01*
X111191904Y-54223809D01*
X111144285Y-54319047D01*
X111144285Y-54461904D01*
X111191904Y-54557142D01*
X111239523Y-54604761D01*
X111334761Y-54652380D01*
X111477619Y-54652380D01*
X111572857Y-54604761D01*
X111620476Y-54557142D01*
X111763333Y-54366666D01*
X111810952Y-54223809D01*
X111810952Y-54128571D01*
X113715714Y-54557142D02*
X113668095Y-54604761D01*
X113525238Y-54652380D01*
X113430000Y-54652380D01*
X113287142Y-54604761D01*
X113191904Y-54509523D01*
X113144285Y-54414285D01*
X113096666Y-54223809D01*
X113096666Y-54080952D01*
X113144285Y-53890476D01*
X113191904Y-53795238D01*
X113287142Y-53700000D01*
X113430000Y-53652380D01*
X113525238Y-53652380D01*
X113668095Y-53700000D01*
X113715714Y-53747619D01*
X114096666Y-54366666D02*
X114572857Y-54366666D01*
X114001428Y-54652380D02*
X114334761Y-53652380D01*
X114668095Y-54652380D01*
X115001428Y-54652380D02*
X115001428Y-53652380D01*
X115572857Y-54652380D01*
X115572857Y-53652380D01*
%TO.C,C4*%
X98639333Y-41251142D02*
X98591714Y-41298761D01*
X98448857Y-41346380D01*
X98353619Y-41346380D01*
X98210761Y-41298761D01*
X98115523Y-41203523D01*
X98067904Y-41108285D01*
X98020285Y-40917809D01*
X98020285Y-40774952D01*
X98067904Y-40584476D01*
X98115523Y-40489238D01*
X98210761Y-40394000D01*
X98353619Y-40346380D01*
X98448857Y-40346380D01*
X98591714Y-40394000D01*
X98639333Y-40441619D01*
X99496476Y-40679714D02*
X99496476Y-41346380D01*
X99258380Y-40298761D02*
X99020285Y-41013047D01*
X99639333Y-41013047D01*
%TO.C,C3*%
X83763142Y-42571666D02*
X83810761Y-42619285D01*
X83858380Y-42762142D01*
X83858380Y-42857380D01*
X83810761Y-43000238D01*
X83715523Y-43095476D01*
X83620285Y-43143095D01*
X83429809Y-43190714D01*
X83286952Y-43190714D01*
X83096476Y-43143095D01*
X83001238Y-43095476D01*
X82906000Y-43000238D01*
X82858380Y-42857380D01*
X82858380Y-42762142D01*
X82906000Y-42619285D01*
X82953619Y-42571666D01*
X82858380Y-42238333D02*
X82858380Y-41619285D01*
X83239333Y-41952619D01*
X83239333Y-41809761D01*
X83286952Y-41714523D01*
X83334571Y-41666904D01*
X83429809Y-41619285D01*
X83667904Y-41619285D01*
X83763142Y-41666904D01*
X83810761Y-41714523D01*
X83858380Y-41809761D01*
X83858380Y-42095476D01*
X83810761Y-42190714D01*
X83763142Y-42238333D01*
%TO.C,C1*%
X92670333Y-78208142D02*
X92622714Y-78255761D01*
X92479857Y-78303380D01*
X92384619Y-78303380D01*
X92241761Y-78255761D01*
X92146523Y-78160523D01*
X92098904Y-78065285D01*
X92051285Y-77874809D01*
X92051285Y-77731952D01*
X92098904Y-77541476D01*
X92146523Y-77446238D01*
X92241761Y-77351000D01*
X92384619Y-77303380D01*
X92479857Y-77303380D01*
X92622714Y-77351000D01*
X92670333Y-77398619D01*
X93622714Y-78303380D02*
X93051285Y-78303380D01*
X93337000Y-78303380D02*
X93337000Y-77303380D01*
X93241761Y-77446238D01*
X93146523Y-77541476D01*
X93051285Y-77589095D01*
%TD*%
M02*
