%TF.GenerationSoftware,KiCad,Pcbnew,(5.1.9)-1*%
%TF.CreationDate,2021-07-30T23:28:39+09:30*%
%TF.ProjectId,tyre_temp_sense,74797265-5f74-4656-9d70-5f73656e7365,rev?*%
%TF.SameCoordinates,Original*%
%TF.FileFunction,Copper,L2,Bot*%
%TF.FilePolarity,Positive*%
%FSLAX46Y46*%
G04 Gerber Fmt 4.6, Leading zero omitted, Abs format (unit mm)*
G04 Created by KiCad (PCBNEW (5.1.9)-1) date 2021-07-30 23:28:39*
%MOMM*%
%LPD*%
G01*
G04 APERTURE LIST*
%TA.AperFunction,ComponentPad*%
%ADD10O,1.600000X1.600000*%
%TD*%
%TA.AperFunction,ComponentPad*%
%ADD11R,1.600000X1.600000*%
%TD*%
%TA.AperFunction,ComponentPad*%
%ADD12O,1.700000X1.700000*%
%TD*%
%TA.AperFunction,ComponentPad*%
%ADD13R,1.700000X1.700000*%
%TD*%
%TA.AperFunction,ComponentPad*%
%ADD14O,1.700000X1.950000*%
%TD*%
%TA.AperFunction,ViaPad*%
%ADD15C,0.800000*%
%TD*%
%TA.AperFunction,Conductor*%
%ADD16C,0.300000*%
%TD*%
%TA.AperFunction,Conductor*%
%ADD17C,1.000000*%
%TD*%
%TA.AperFunction,Conductor*%
%ADD18C,0.250000*%
%TD*%
%TA.AperFunction,Conductor*%
%ADD19C,0.254000*%
%TD*%
%TA.AperFunction,Conductor*%
%ADD20C,0.100000*%
%TD*%
G04 APERTURE END LIST*
D10*
%TO.P,A1,16*%
%TO.N,CLK_CAN*%
X88392000Y-90678000D03*
%TO.P,A1,15*%
%TO.N,MISO_CAN*%
X73152000Y-90678000D03*
%TO.P,A1,30*%
%TO.N,Net-(A1-Pad30)*%
X88392000Y-55118000D03*
%TO.P,A1,14*%
%TO.N,MOSI_CAN*%
X73152000Y-88138000D03*
%TO.P,A1,29*%
%TO.N,GND*%
X88392000Y-57658000D03*
%TO.P,A1,13*%
%TO.N,Net-(A1-Pad13)*%
X73152000Y-85598000D03*
%TO.P,A1,28*%
%TO.N,Net-(A1-Pad28)*%
X88392000Y-60198000D03*
%TO.P,A1,12*%
%TO.N,Net-(A1-Pad12)*%
X73152000Y-83058000D03*
%TO.P,A1,27*%
%TO.N,+5V*%
X88392000Y-62738000D03*
%TO.P,A1,11*%
%TO.N,Net-(A1-Pad11)*%
X73152000Y-80518000D03*
%TO.P,A1,26*%
%TO.N,Net-(A1-Pad26)*%
X88392000Y-65278000D03*
%TO.P,A1,10*%
%TO.N,Net-(A1-Pad10)*%
X73152000Y-77978000D03*
%TO.P,A1,25*%
%TO.N,Net-(A1-Pad25)*%
X88392000Y-67818000D03*
%TO.P,A1,9*%
%TO.N,D6*%
X73152000Y-75438000D03*
%TO.P,A1,24*%
%TO.N,SCL*%
X88392000Y-70358000D03*
%TO.P,A1,8*%
%TO.N,Net-(A1-Pad8)*%
X73152000Y-72898000D03*
%TO.P,A1,23*%
%TO.N,SDA*%
X88392000Y-72898000D03*
%TO.P,A1,7*%
%TO.N,Net-(A1-Pad7)*%
X73152000Y-70358000D03*
%TO.P,A1,22*%
%TO.N,A3*%
X88392000Y-75438000D03*
%TO.P,A1,6*%
%TO.N,Net-(A1-Pad6)*%
X73152000Y-67818000D03*
%TO.P,A1,21*%
%TO.N,A2*%
X88392000Y-77978000D03*
%TO.P,A1,5*%
%TO.N,D2*%
X73152000Y-65278000D03*
%TO.P,A1,20*%
%TO.N,A1*%
X88392000Y-80518000D03*
%TO.P,A1,4*%
%TO.N,GND*%
X73152000Y-62738000D03*
%TO.P,A1,19*%
%TO.N,A0*%
X88392000Y-83058000D03*
%TO.P,A1,3*%
%TO.N,Net-(A1-Pad3)*%
X73152000Y-60198000D03*
%TO.P,A1,18*%
%TO.N,Net-(A1-Pad18)*%
X88392000Y-85598000D03*
%TO.P,A1,2*%
%TO.N,Net-(A1-Pad2)*%
X73152000Y-57658000D03*
%TO.P,A1,17*%
%TO.N,+3V3*%
X88392000Y-88138000D03*
D11*
%TO.P,A1,1*%
%TO.N,Net-(A1-Pad1)*%
X73152000Y-55118000D03*
%TD*%
D12*
%TO.P,J9,4*%
%TO.N,GND*%
X97155000Y-101600000D03*
%TO.P,J9,3*%
X97155000Y-99060000D03*
%TO.P,J9,2*%
X97155000Y-96520000D03*
D13*
%TO.P,J9,1*%
X97155000Y-93980000D03*
%TD*%
D12*
%TO.P,J3,4*%
%TO.N,A0*%
X93345000Y-101600000D03*
%TO.P,J3,3*%
%TO.N,A1*%
X93345000Y-99060000D03*
%TO.P,J3,2*%
%TO.N,A2*%
X93345000Y-96520000D03*
D13*
%TO.P,J3,1*%
%TO.N,A3*%
X93345000Y-93980000D03*
%TD*%
D12*
%TO.P,J2,4*%
%TO.N,+5V*%
X100965000Y-101600000D03*
%TO.P,J2,3*%
X100965000Y-99060000D03*
%TO.P,J2,2*%
X100965000Y-96520000D03*
D13*
%TO.P,J2,1*%
X100965000Y-93980000D03*
%TD*%
D12*
%TO.P,J8,2*%
%TO.N,CAN-*%
X114808000Y-56896000D03*
D13*
%TO.P,J8,1*%
%TO.N,Net-(J8-Pad1)*%
X112268000Y-56896000D03*
%TD*%
D14*
%TO.P,J7,4*%
%TO.N,GND*%
X114180000Y-63500000D03*
%TO.P,J7,3*%
%TO.N,+3V3*%
X111680000Y-63500000D03*
%TO.P,J7,2*%
%TO.N,Net-(J7-Pad2)*%
X109180000Y-63500000D03*
%TO.P,J7,1*%
%TO.N,Net-(J7-Pad1)*%
%TA.AperFunction,ComponentPad*%
G36*
G01*
X105830000Y-64225000D02*
X105830000Y-62775000D01*
G75*
G02*
X106080000Y-62525000I250000J0D01*
G01*
X107280000Y-62525000D01*
G75*
G02*
X107530000Y-62775000I0J-250000D01*
G01*
X107530000Y-64225000D01*
G75*
G02*
X107280000Y-64475000I-250000J0D01*
G01*
X106080000Y-64475000D01*
G75*
G02*
X105830000Y-64225000I0J250000D01*
G01*
G37*
%TD.AperFunction*%
%TD*%
%TO.P,J6,4*%
%TO.N,GND*%
X114180000Y-73152000D03*
%TO.P,J6,3*%
%TO.N,+3V3*%
X111680000Y-73152000D03*
%TO.P,J6,2*%
%TO.N,Net-(J6-Pad2)*%
X109180000Y-73152000D03*
%TO.P,J6,1*%
%TO.N,Net-(J6-Pad1)*%
%TA.AperFunction,ComponentPad*%
G36*
G01*
X105830000Y-73877000D02*
X105830000Y-72427000D01*
G75*
G02*
X106080000Y-72177000I250000J0D01*
G01*
X107280000Y-72177000D01*
G75*
G02*
X107530000Y-72427000I0J-250000D01*
G01*
X107530000Y-73877000D01*
G75*
G02*
X107280000Y-74127000I-250000J0D01*
G01*
X106080000Y-74127000D01*
G75*
G02*
X105830000Y-73877000I0J250000D01*
G01*
G37*
%TD.AperFunction*%
%TD*%
%TO.P,J5,4*%
%TO.N,GND*%
X114180000Y-82804000D03*
%TO.P,J5,3*%
%TO.N,+3V3*%
X111680000Y-82804000D03*
%TO.P,J5,2*%
%TO.N,Net-(J5-Pad2)*%
X109180000Y-82804000D03*
%TO.P,J5,1*%
%TO.N,Net-(J5-Pad1)*%
%TA.AperFunction,ComponentPad*%
G36*
G01*
X105830000Y-83529000D02*
X105830000Y-82079000D01*
G75*
G02*
X106080000Y-81829000I250000J0D01*
G01*
X107280000Y-81829000D01*
G75*
G02*
X107530000Y-82079000I0J-250000D01*
G01*
X107530000Y-83529000D01*
G75*
G02*
X107280000Y-83779000I-250000J0D01*
G01*
X106080000Y-83779000D01*
G75*
G02*
X105830000Y-83529000I0J250000D01*
G01*
G37*
%TD.AperFunction*%
%TD*%
%TO.P,J4,4*%
%TO.N,GND*%
X114180000Y-92456000D03*
%TO.P,J4,3*%
%TO.N,+3V3*%
X111680000Y-92456000D03*
%TO.P,J4,2*%
%TO.N,Net-(J4-Pad2)*%
X109180000Y-92456000D03*
%TO.P,J4,1*%
%TO.N,Net-(J4-Pad1)*%
%TA.AperFunction,ComponentPad*%
G36*
G01*
X105830000Y-93181000D02*
X105830000Y-91731000D01*
G75*
G02*
X106080000Y-91481000I250000J0D01*
G01*
X107280000Y-91481000D01*
G75*
G02*
X107530000Y-91731000I0J-250000D01*
G01*
X107530000Y-93181000D01*
G75*
G02*
X107280000Y-93431000I-250000J0D01*
G01*
X106080000Y-93431000D01*
G75*
G02*
X105830000Y-93181000I0J250000D01*
G01*
G37*
%TD.AperFunction*%
%TD*%
%TO.P,J1,4*%
%TO.N,CAN-*%
X114180000Y-50800000D03*
%TO.P,J1,3*%
%TO.N,CAN+*%
X111680000Y-50800000D03*
%TO.P,J1,2*%
%TO.N,+5V*%
X109180000Y-50800000D03*
%TO.P,J1,1*%
%TO.N,GND*%
%TA.AperFunction,ComponentPad*%
G36*
G01*
X105830000Y-51525000D02*
X105830000Y-50075000D01*
G75*
G02*
X106080000Y-49825000I250000J0D01*
G01*
X107280000Y-49825000D01*
G75*
G02*
X107530000Y-50075000I0J-250000D01*
G01*
X107530000Y-51525000D01*
G75*
G02*
X107280000Y-51775000I-250000J0D01*
G01*
X106080000Y-51775000D01*
G75*
G02*
X105830000Y-51525000I0J250000D01*
G01*
G37*
%TD.AperFunction*%
%TD*%
D15*
%TO.N,CLK_CAN*%
X97262008Y-47937439D03*
%TO.N,MISO_CAN*%
X97179668Y-46736000D03*
%TO.N,MOSI_CAN*%
X100330000Y-47355003D03*
%TO.N,GND*%
X103124000Y-44704000D03*
X91694000Y-55372000D03*
X90380505Y-49542000D03*
X94488000Y-70866000D03*
X99060000Y-73406000D03*
X91948000Y-76200000D03*
X91497518Y-70560948D03*
X101854000Y-52070000D03*
X97536000Y-65532000D03*
X98806000Y-65024000D03*
X98044000Y-41656000D03*
X82804000Y-48514000D03*
X82804000Y-47244000D03*
X82804000Y-45974000D03*
X82804000Y-44704000D03*
X82804000Y-43434000D03*
X82804000Y-42164000D03*
X82804000Y-40894000D03*
X84074000Y-48514000D03*
X85344000Y-48514000D03*
X90678000Y-44704000D03*
X90678000Y-45974000D03*
X90678000Y-43434000D03*
X90678000Y-42164000D03*
X90678000Y-40894000D03*
X84074000Y-40894000D03*
X85598000Y-40894000D03*
X87884000Y-40894000D03*
X89154000Y-40894000D03*
%TO.N,+5V*%
X91806677Y-57280146D03*
X93218000Y-73660000D03*
X95250000Y-77216000D03*
X97282000Y-77216000D03*
X99060000Y-77216000D03*
%TO.N,D6*%
X100330000Y-46355000D03*
%TO.N,D2*%
X100330000Y-48895000D03*
%TO.N,CAN+*%
X110490000Y-54610000D03*
X108204000Y-46736000D03*
%TO.N,CAN-*%
X109242331Y-46713669D03*
%TD*%
D16*
%TO.N,CLK_CAN*%
X83724962Y-86010962D02*
X88392000Y-90678000D01*
X83724962Y-58083036D02*
X83724962Y-86010962D01*
X89483998Y-52324000D02*
X83724962Y-58083036D01*
X92875447Y-52324000D02*
X89483998Y-52324000D01*
X97262008Y-47937439D02*
X92875447Y-52324000D01*
%TO.N,MISO_CAN*%
X82804000Y-56896000D02*
X82804000Y-81026000D01*
X82804000Y-81026000D02*
X73152000Y-90678000D01*
X87884000Y-51816000D02*
X82804000Y-56896000D01*
X92456000Y-51816000D02*
X87884000Y-51816000D01*
X96520000Y-47395668D02*
X96520000Y-47752000D01*
X96520000Y-47752000D02*
X92456000Y-51816000D01*
X97179668Y-46736000D02*
X96520000Y-47395668D01*
%TO.N,MOSI_CAN*%
X85852000Y-51308000D02*
X80772000Y-56388000D01*
X80772000Y-56388000D02*
X80772000Y-80518000D01*
X92256880Y-51308000D02*
X85852000Y-51308000D01*
X96019990Y-47544890D02*
X92256880Y-51308000D01*
X96019990Y-46785676D02*
X96019990Y-47544890D01*
X96819667Y-45985999D02*
X96019990Y-46785676D01*
X98395311Y-45985999D02*
X96819667Y-45985999D01*
X80772000Y-80518000D02*
X73152000Y-88138000D01*
X99764315Y-47355003D02*
X98395311Y-45985999D01*
X100330000Y-47355003D02*
X99764315Y-47355003D01*
%TO.N,GND*%
X106680000Y-48260000D02*
X103124000Y-44704000D01*
X106680000Y-50800000D02*
X106680000Y-48260000D01*
D17*
%TO.N,+5V*%
X109180000Y-50800000D02*
X109180000Y-52110000D01*
X109180000Y-52110000D02*
X102870000Y-58420000D01*
D16*
X102616000Y-73660000D02*
X102870000Y-73406000D01*
X93218000Y-68326000D02*
X102870000Y-68326000D01*
X102616000Y-71882000D02*
X102870000Y-71628000D01*
D17*
X102870000Y-71628000D02*
X102870000Y-73406000D01*
X102870000Y-68326000D02*
X102870000Y-71628000D01*
D16*
X95250000Y-77216000D02*
X97282000Y-77216000D01*
X97282000Y-77216000D02*
X99060000Y-77216000D01*
D17*
X102616000Y-62738000D02*
X102870000Y-62484000D01*
X88392000Y-62738000D02*
X102616000Y-62738000D01*
X102870000Y-62484000D02*
X102870000Y-68326000D01*
X101769999Y-74506001D02*
X102870000Y-73406000D01*
X94064001Y-74506001D02*
X101769999Y-74506001D01*
X93218000Y-73660000D02*
X94064001Y-74506001D01*
X99060000Y-77216000D02*
X101769999Y-74506001D01*
X102870000Y-59436000D02*
X92456000Y-59436000D01*
X102870000Y-58420000D02*
X102870000Y-59436000D01*
X102870000Y-59436000D02*
X102870000Y-62484000D01*
X91806677Y-58786677D02*
X91806677Y-57280146D01*
X92456000Y-59436000D02*
X91806677Y-58786677D01*
D16*
%TO.N,D6*%
X100330000Y-46355000D02*
X100220001Y-46355000D01*
X78740000Y-69850000D02*
X73152000Y-75438000D01*
X83820000Y-50800000D02*
X78740000Y-55880000D01*
X91948000Y-50800000D02*
X83820000Y-50800000D01*
X95504000Y-47244000D02*
X91948000Y-50800000D01*
X95504000Y-46594546D02*
X95504000Y-47244000D01*
X78740000Y-55880000D02*
X78740000Y-69850000D01*
X96612557Y-45485989D02*
X95504000Y-46594546D01*
X99460989Y-45485989D02*
X96612557Y-45485989D01*
X100330000Y-46355000D02*
X99460989Y-45485989D01*
%TO.N,D2*%
X76708000Y-61722000D02*
X73152000Y-65278000D01*
X76708000Y-55372000D02*
X76708000Y-61722000D01*
X81788000Y-50292000D02*
X76708000Y-55372000D01*
X95003990Y-46387436D02*
X95003990Y-47036890D01*
X96405447Y-44985979D02*
X95003990Y-46387436D01*
X91748880Y-50292000D02*
X81788000Y-50292000D01*
X101080001Y-45994999D02*
X100070981Y-44985979D01*
X100070981Y-44985979D02*
X96405447Y-44985979D01*
X101080001Y-48144999D02*
X101080001Y-45994999D01*
X95003990Y-47036890D02*
X91748880Y-50292000D01*
X100330000Y-48895000D02*
X101080001Y-48144999D01*
D17*
%TO.N,+3V3*%
X111680000Y-63500000D02*
X111497045Y-63500000D01*
X111680000Y-82804000D02*
X111680000Y-73152000D01*
X111680000Y-63500000D02*
X111680000Y-73152000D01*
X111680000Y-87710000D02*
X111680000Y-82804000D01*
X111680000Y-92456000D02*
X111680000Y-87710000D01*
X111252000Y-88138000D02*
X111680000Y-87710000D01*
X88392000Y-88138000D02*
X111252000Y-88138000D01*
D18*
%TO.N,CAN+*%
X111680000Y-53420000D02*
X111680000Y-50800000D01*
X110490000Y-54610000D02*
X111680000Y-53420000D01*
D16*
X111680000Y-50800000D02*
X111680000Y-50466000D01*
X108204000Y-47324000D02*
X111680000Y-50800000D01*
X108204000Y-46736000D02*
X108204000Y-47324000D01*
%TO.N,CAN-*%
X114180000Y-50800000D02*
X114180000Y-50680000D01*
X114180000Y-50800000D02*
X113991120Y-50800000D01*
X109242331Y-46713669D02*
X109242331Y-47221669D01*
X109242331Y-47221669D02*
X111296662Y-49276000D01*
X112656000Y-49276000D02*
X114180000Y-50800000D01*
X111296662Y-49276000D02*
X112656000Y-49276000D01*
%TO.N,A0*%
X92493640Y-101600000D02*
X93345000Y-101600000D01*
%TD*%
D19*
%TO.N,GND*%
X116648126Y-40726714D02*
X117271572Y-40914943D01*
X117846579Y-41220681D01*
X118351247Y-41632279D01*
X118766362Y-42134067D01*
X119076105Y-42706924D01*
X119268682Y-43329039D01*
X119340000Y-44007584D01*
X119340001Y-100967711D01*
X119273286Y-101648126D01*
X119085057Y-102271570D01*
X118779323Y-102846573D01*
X118367721Y-103351248D01*
X117865933Y-103766362D01*
X117293077Y-104076104D01*
X116670961Y-104268682D01*
X115992417Y-104340000D01*
X74032279Y-104340000D01*
X73351874Y-104273286D01*
X72728430Y-104085057D01*
X72153427Y-103779323D01*
X71648752Y-103367721D01*
X71233638Y-102865933D01*
X70923896Y-102293077D01*
X70731318Y-101670961D01*
X70660000Y-100992417D01*
X70660000Y-100779872D01*
X71765000Y-100779872D01*
X71765000Y-101220128D01*
X71850890Y-101651925D01*
X72019369Y-102058669D01*
X72263962Y-102424729D01*
X72575271Y-102736038D01*
X72941331Y-102980631D01*
X73348075Y-103149110D01*
X73779872Y-103235000D01*
X74220128Y-103235000D01*
X74651925Y-103149110D01*
X75058669Y-102980631D01*
X75424729Y-102736038D01*
X75736038Y-102424729D01*
X75980631Y-102058669D01*
X76149110Y-101651925D01*
X76159438Y-101600000D01*
X91704842Y-101600000D01*
X91719999Y-101753887D01*
X91764886Y-101901860D01*
X91837778Y-102038233D01*
X91935876Y-102157764D01*
X91985576Y-102198553D01*
X92029010Y-102303411D01*
X92191525Y-102546632D01*
X92398368Y-102753475D01*
X92641589Y-102915990D01*
X92911842Y-103027932D01*
X93198740Y-103085000D01*
X93491260Y-103085000D01*
X93778158Y-103027932D01*
X94048411Y-102915990D01*
X94291632Y-102753475D01*
X94498475Y-102546632D01*
X94660990Y-102303411D01*
X94772932Y-102033158D01*
X94788102Y-101956890D01*
X95713524Y-101956890D01*
X95758175Y-102104099D01*
X95883359Y-102366920D01*
X96057412Y-102600269D01*
X96273645Y-102795178D01*
X96523748Y-102944157D01*
X96798109Y-103041481D01*
X97028000Y-102920814D01*
X97028000Y-101727000D01*
X97282000Y-101727000D01*
X97282000Y-102920814D01*
X97511891Y-103041481D01*
X97786252Y-102944157D01*
X98036355Y-102795178D01*
X98252588Y-102600269D01*
X98426641Y-102366920D01*
X98551825Y-102104099D01*
X98596476Y-101956890D01*
X98475155Y-101727000D01*
X97282000Y-101727000D01*
X97028000Y-101727000D01*
X95834845Y-101727000D01*
X95713524Y-101956890D01*
X94788102Y-101956890D01*
X94830000Y-101746260D01*
X94830000Y-101453740D01*
X94772932Y-101166842D01*
X94660990Y-100896589D01*
X94498475Y-100653368D01*
X94291632Y-100446525D01*
X94117240Y-100330000D01*
X94291632Y-100213475D01*
X94498475Y-100006632D01*
X94660990Y-99763411D01*
X94772932Y-99493158D01*
X94788102Y-99416890D01*
X95713524Y-99416890D01*
X95758175Y-99564099D01*
X95883359Y-99826920D01*
X96057412Y-100060269D01*
X96273645Y-100255178D01*
X96399255Y-100330000D01*
X96273645Y-100404822D01*
X96057412Y-100599731D01*
X95883359Y-100833080D01*
X95758175Y-101095901D01*
X95713524Y-101243110D01*
X95834845Y-101473000D01*
X97028000Y-101473000D01*
X97028000Y-99187000D01*
X97282000Y-99187000D01*
X97282000Y-101473000D01*
X98475155Y-101473000D01*
X98596476Y-101243110D01*
X98551825Y-101095901D01*
X98426641Y-100833080D01*
X98252588Y-100599731D01*
X98036355Y-100404822D01*
X97910745Y-100330000D01*
X98036355Y-100255178D01*
X98252588Y-100060269D01*
X98426641Y-99826920D01*
X98551825Y-99564099D01*
X98596476Y-99416890D01*
X98475155Y-99187000D01*
X97282000Y-99187000D01*
X97028000Y-99187000D01*
X95834845Y-99187000D01*
X95713524Y-99416890D01*
X94788102Y-99416890D01*
X94830000Y-99206260D01*
X94830000Y-98913740D01*
X94772932Y-98626842D01*
X94660990Y-98356589D01*
X94498475Y-98113368D01*
X94291632Y-97906525D01*
X94117240Y-97790000D01*
X94291632Y-97673475D01*
X94498475Y-97466632D01*
X94660990Y-97223411D01*
X94772932Y-96953158D01*
X94788102Y-96876890D01*
X95713524Y-96876890D01*
X95758175Y-97024099D01*
X95883359Y-97286920D01*
X96057412Y-97520269D01*
X96273645Y-97715178D01*
X96399255Y-97790000D01*
X96273645Y-97864822D01*
X96057412Y-98059731D01*
X95883359Y-98293080D01*
X95758175Y-98555901D01*
X95713524Y-98703110D01*
X95834845Y-98933000D01*
X97028000Y-98933000D01*
X97028000Y-96647000D01*
X97282000Y-96647000D01*
X97282000Y-98933000D01*
X98475155Y-98933000D01*
X98596476Y-98703110D01*
X98551825Y-98555901D01*
X98426641Y-98293080D01*
X98252588Y-98059731D01*
X98036355Y-97864822D01*
X97910745Y-97790000D01*
X98036355Y-97715178D01*
X98252588Y-97520269D01*
X98426641Y-97286920D01*
X98551825Y-97024099D01*
X98596476Y-96876890D01*
X98475155Y-96647000D01*
X97282000Y-96647000D01*
X97028000Y-96647000D01*
X95834845Y-96647000D01*
X95713524Y-96876890D01*
X94788102Y-96876890D01*
X94830000Y-96666260D01*
X94830000Y-96373740D01*
X94772932Y-96086842D01*
X94660990Y-95816589D01*
X94498475Y-95573368D01*
X94366620Y-95441513D01*
X94439180Y-95419502D01*
X94549494Y-95360537D01*
X94646185Y-95281185D01*
X94725537Y-95184494D01*
X94784502Y-95074180D01*
X94820812Y-94954482D01*
X94833072Y-94830000D01*
X95666928Y-94830000D01*
X95679188Y-94954482D01*
X95715498Y-95074180D01*
X95774463Y-95184494D01*
X95853815Y-95281185D01*
X95950506Y-95360537D01*
X96060820Y-95419502D01*
X96141466Y-95443966D01*
X96057412Y-95519731D01*
X95883359Y-95753080D01*
X95758175Y-96015901D01*
X95713524Y-96163110D01*
X95834845Y-96393000D01*
X97028000Y-96393000D01*
X97028000Y-94107000D01*
X97282000Y-94107000D01*
X97282000Y-96393000D01*
X98475155Y-96393000D01*
X98596476Y-96163110D01*
X98551825Y-96015901D01*
X98426641Y-95753080D01*
X98252588Y-95519731D01*
X98168534Y-95443966D01*
X98249180Y-95419502D01*
X98359494Y-95360537D01*
X98456185Y-95281185D01*
X98535537Y-95184494D01*
X98594502Y-95074180D01*
X98630812Y-94954482D01*
X98643072Y-94830000D01*
X98640000Y-94265750D01*
X98481250Y-94107000D01*
X97282000Y-94107000D01*
X97028000Y-94107000D01*
X95828750Y-94107000D01*
X95670000Y-94265750D01*
X95666928Y-94830000D01*
X94833072Y-94830000D01*
X94833072Y-93130000D01*
X95666928Y-93130000D01*
X95670000Y-93694250D01*
X95828750Y-93853000D01*
X97028000Y-93853000D01*
X97028000Y-92653750D01*
X97282000Y-92653750D01*
X97282000Y-93853000D01*
X98481250Y-93853000D01*
X98640000Y-93694250D01*
X98643072Y-93130000D01*
X99476928Y-93130000D01*
X99476928Y-94830000D01*
X99489188Y-94954482D01*
X99525498Y-95074180D01*
X99584463Y-95184494D01*
X99663815Y-95281185D01*
X99760506Y-95360537D01*
X99870820Y-95419502D01*
X99943380Y-95441513D01*
X99811525Y-95573368D01*
X99649010Y-95816589D01*
X99537068Y-96086842D01*
X99480000Y-96373740D01*
X99480000Y-96666260D01*
X99537068Y-96953158D01*
X99649010Y-97223411D01*
X99811525Y-97466632D01*
X100018368Y-97673475D01*
X100192760Y-97790000D01*
X100018368Y-97906525D01*
X99811525Y-98113368D01*
X99649010Y-98356589D01*
X99537068Y-98626842D01*
X99480000Y-98913740D01*
X99480000Y-99206260D01*
X99537068Y-99493158D01*
X99649010Y-99763411D01*
X99811525Y-100006632D01*
X100018368Y-100213475D01*
X100192760Y-100330000D01*
X100018368Y-100446525D01*
X99811525Y-100653368D01*
X99649010Y-100896589D01*
X99537068Y-101166842D01*
X99480000Y-101453740D01*
X99480000Y-101746260D01*
X99537068Y-102033158D01*
X99649010Y-102303411D01*
X99811525Y-102546632D01*
X100018368Y-102753475D01*
X100261589Y-102915990D01*
X100531842Y-103027932D01*
X100818740Y-103085000D01*
X101111260Y-103085000D01*
X101398158Y-103027932D01*
X101668411Y-102915990D01*
X101911632Y-102753475D01*
X102118475Y-102546632D01*
X102280990Y-102303411D01*
X102392932Y-102033158D01*
X102450000Y-101746260D01*
X102450000Y-101453740D01*
X102392932Y-101166842D01*
X102280990Y-100896589D01*
X102203003Y-100779872D01*
X113765000Y-100779872D01*
X113765000Y-101220128D01*
X113850890Y-101651925D01*
X114019369Y-102058669D01*
X114263962Y-102424729D01*
X114575271Y-102736038D01*
X114941331Y-102980631D01*
X115348075Y-103149110D01*
X115779872Y-103235000D01*
X116220128Y-103235000D01*
X116651925Y-103149110D01*
X117058669Y-102980631D01*
X117424729Y-102736038D01*
X117736038Y-102424729D01*
X117980631Y-102058669D01*
X118149110Y-101651925D01*
X118235000Y-101220128D01*
X118235000Y-100779872D01*
X118149110Y-100348075D01*
X117980631Y-99941331D01*
X117736038Y-99575271D01*
X117424729Y-99263962D01*
X117058669Y-99019369D01*
X116651925Y-98850890D01*
X116220128Y-98765000D01*
X115779872Y-98765000D01*
X115348075Y-98850890D01*
X114941331Y-99019369D01*
X114575271Y-99263962D01*
X114263962Y-99575271D01*
X114019369Y-99941331D01*
X113850890Y-100348075D01*
X113765000Y-100779872D01*
X102203003Y-100779872D01*
X102118475Y-100653368D01*
X101911632Y-100446525D01*
X101737240Y-100330000D01*
X101911632Y-100213475D01*
X102118475Y-100006632D01*
X102280990Y-99763411D01*
X102392932Y-99493158D01*
X102450000Y-99206260D01*
X102450000Y-98913740D01*
X102392932Y-98626842D01*
X102280990Y-98356589D01*
X102118475Y-98113368D01*
X101911632Y-97906525D01*
X101737240Y-97790000D01*
X101911632Y-97673475D01*
X102118475Y-97466632D01*
X102280990Y-97223411D01*
X102392932Y-96953158D01*
X102450000Y-96666260D01*
X102450000Y-96373740D01*
X102392932Y-96086842D01*
X102280990Y-95816589D01*
X102118475Y-95573368D01*
X101986620Y-95441513D01*
X102059180Y-95419502D01*
X102169494Y-95360537D01*
X102266185Y-95281185D01*
X102345537Y-95184494D01*
X102404502Y-95074180D01*
X102440812Y-94954482D01*
X102453072Y-94830000D01*
X102453072Y-93130000D01*
X102440812Y-93005518D01*
X102404502Y-92885820D01*
X102345537Y-92775506D01*
X102266185Y-92678815D01*
X102169494Y-92599463D01*
X102059180Y-92540498D01*
X101939482Y-92504188D01*
X101815000Y-92491928D01*
X100115000Y-92491928D01*
X99990518Y-92504188D01*
X99870820Y-92540498D01*
X99760506Y-92599463D01*
X99663815Y-92678815D01*
X99584463Y-92775506D01*
X99525498Y-92885820D01*
X99489188Y-93005518D01*
X99476928Y-93130000D01*
X98643072Y-93130000D01*
X98630812Y-93005518D01*
X98594502Y-92885820D01*
X98535537Y-92775506D01*
X98456185Y-92678815D01*
X98359494Y-92599463D01*
X98249180Y-92540498D01*
X98129482Y-92504188D01*
X98005000Y-92491928D01*
X97440750Y-92495000D01*
X97282000Y-92653750D01*
X97028000Y-92653750D01*
X96869250Y-92495000D01*
X96305000Y-92491928D01*
X96180518Y-92504188D01*
X96060820Y-92540498D01*
X95950506Y-92599463D01*
X95853815Y-92678815D01*
X95774463Y-92775506D01*
X95715498Y-92885820D01*
X95679188Y-93005518D01*
X95666928Y-93130000D01*
X94833072Y-93130000D01*
X94820812Y-93005518D01*
X94784502Y-92885820D01*
X94725537Y-92775506D01*
X94646185Y-92678815D01*
X94549494Y-92599463D01*
X94439180Y-92540498D01*
X94319482Y-92504188D01*
X94195000Y-92491928D01*
X92495000Y-92491928D01*
X92370518Y-92504188D01*
X92250820Y-92540498D01*
X92140506Y-92599463D01*
X92043815Y-92678815D01*
X91964463Y-92775506D01*
X91905498Y-92885820D01*
X91869188Y-93005518D01*
X91856928Y-93130000D01*
X91856928Y-94830000D01*
X91869188Y-94954482D01*
X91905498Y-95074180D01*
X91964463Y-95184494D01*
X92043815Y-95281185D01*
X92140506Y-95360537D01*
X92250820Y-95419502D01*
X92323380Y-95441513D01*
X92191525Y-95573368D01*
X92029010Y-95816589D01*
X91917068Y-96086842D01*
X91860000Y-96373740D01*
X91860000Y-96666260D01*
X91917068Y-96953158D01*
X92029010Y-97223411D01*
X92191525Y-97466632D01*
X92398368Y-97673475D01*
X92572760Y-97790000D01*
X92398368Y-97906525D01*
X92191525Y-98113368D01*
X92029010Y-98356589D01*
X91917068Y-98626842D01*
X91860000Y-98913740D01*
X91860000Y-99206260D01*
X91917068Y-99493158D01*
X92029010Y-99763411D01*
X92191525Y-100006632D01*
X92398368Y-100213475D01*
X92572760Y-100330000D01*
X92398368Y-100446525D01*
X92191525Y-100653368D01*
X92029010Y-100896589D01*
X91985576Y-101001447D01*
X91935876Y-101042236D01*
X91837778Y-101161767D01*
X91764886Y-101298140D01*
X91719999Y-101446113D01*
X91704842Y-101600000D01*
X76159438Y-101600000D01*
X76235000Y-101220128D01*
X76235000Y-100779872D01*
X76149110Y-100348075D01*
X75980631Y-99941331D01*
X75736038Y-99575271D01*
X75424729Y-99263962D01*
X75058669Y-99019369D01*
X74651925Y-98850890D01*
X74220128Y-98765000D01*
X73779872Y-98765000D01*
X73348075Y-98850890D01*
X72941331Y-99019369D01*
X72575271Y-99263962D01*
X72263962Y-99575271D01*
X72019369Y-99941331D01*
X71850890Y-100348075D01*
X71765000Y-100779872D01*
X70660000Y-100779872D01*
X70660000Y-54318000D01*
X71713928Y-54318000D01*
X71713928Y-55918000D01*
X71726188Y-56042482D01*
X71762498Y-56162180D01*
X71821463Y-56272494D01*
X71900815Y-56369185D01*
X71997506Y-56448537D01*
X72107820Y-56507502D01*
X72227518Y-56543812D01*
X72235961Y-56544643D01*
X72037363Y-56743241D01*
X71880320Y-56978273D01*
X71772147Y-57239426D01*
X71717000Y-57516665D01*
X71717000Y-57799335D01*
X71772147Y-58076574D01*
X71880320Y-58337727D01*
X72037363Y-58572759D01*
X72237241Y-58772637D01*
X72469759Y-58928000D01*
X72237241Y-59083363D01*
X72037363Y-59283241D01*
X71880320Y-59518273D01*
X71772147Y-59779426D01*
X71717000Y-60056665D01*
X71717000Y-60339335D01*
X71772147Y-60616574D01*
X71880320Y-60877727D01*
X72037363Y-61112759D01*
X72237241Y-61312637D01*
X72472273Y-61469680D01*
X72482865Y-61474067D01*
X72296869Y-61585615D01*
X72088481Y-61774586D01*
X71920963Y-62000580D01*
X71800754Y-62254913D01*
X71760096Y-62388961D01*
X71882085Y-62611000D01*
X73025000Y-62611000D01*
X73025000Y-62591000D01*
X73279000Y-62591000D01*
X73279000Y-62611000D01*
X73299000Y-62611000D01*
X73299000Y-62865000D01*
X73279000Y-62865000D01*
X73279000Y-62885000D01*
X73025000Y-62885000D01*
X73025000Y-62865000D01*
X71882085Y-62865000D01*
X71760096Y-63087039D01*
X71800754Y-63221087D01*
X71920963Y-63475420D01*
X72088481Y-63701414D01*
X72296869Y-63890385D01*
X72482865Y-64001933D01*
X72472273Y-64006320D01*
X72237241Y-64163363D01*
X72037363Y-64363241D01*
X71880320Y-64598273D01*
X71772147Y-64859426D01*
X71717000Y-65136665D01*
X71717000Y-65419335D01*
X71772147Y-65696574D01*
X71880320Y-65957727D01*
X72037363Y-66192759D01*
X72237241Y-66392637D01*
X72469759Y-66548000D01*
X72237241Y-66703363D01*
X72037363Y-66903241D01*
X71880320Y-67138273D01*
X71772147Y-67399426D01*
X71717000Y-67676665D01*
X71717000Y-67959335D01*
X71772147Y-68236574D01*
X71880320Y-68497727D01*
X72037363Y-68732759D01*
X72237241Y-68932637D01*
X72469759Y-69088000D01*
X72237241Y-69243363D01*
X72037363Y-69443241D01*
X71880320Y-69678273D01*
X71772147Y-69939426D01*
X71717000Y-70216665D01*
X71717000Y-70499335D01*
X71772147Y-70776574D01*
X71880320Y-71037727D01*
X72037363Y-71272759D01*
X72237241Y-71472637D01*
X72469759Y-71628000D01*
X72237241Y-71783363D01*
X72037363Y-71983241D01*
X71880320Y-72218273D01*
X71772147Y-72479426D01*
X71717000Y-72756665D01*
X71717000Y-73039335D01*
X71772147Y-73316574D01*
X71880320Y-73577727D01*
X72037363Y-73812759D01*
X72237241Y-74012637D01*
X72469759Y-74168000D01*
X72237241Y-74323363D01*
X72037363Y-74523241D01*
X71880320Y-74758273D01*
X71772147Y-75019426D01*
X71717000Y-75296665D01*
X71717000Y-75579335D01*
X71772147Y-75856574D01*
X71880320Y-76117727D01*
X72037363Y-76352759D01*
X72237241Y-76552637D01*
X72469759Y-76708000D01*
X72237241Y-76863363D01*
X72037363Y-77063241D01*
X71880320Y-77298273D01*
X71772147Y-77559426D01*
X71717000Y-77836665D01*
X71717000Y-78119335D01*
X71772147Y-78396574D01*
X71880320Y-78657727D01*
X72037363Y-78892759D01*
X72237241Y-79092637D01*
X72469759Y-79248000D01*
X72237241Y-79403363D01*
X72037363Y-79603241D01*
X71880320Y-79838273D01*
X71772147Y-80099426D01*
X71717000Y-80376665D01*
X71717000Y-80659335D01*
X71772147Y-80936574D01*
X71880320Y-81197727D01*
X72037363Y-81432759D01*
X72237241Y-81632637D01*
X72469759Y-81788000D01*
X72237241Y-81943363D01*
X72037363Y-82143241D01*
X71880320Y-82378273D01*
X71772147Y-82639426D01*
X71717000Y-82916665D01*
X71717000Y-83199335D01*
X71772147Y-83476574D01*
X71880320Y-83737727D01*
X72037363Y-83972759D01*
X72237241Y-84172637D01*
X72469759Y-84328000D01*
X72237241Y-84483363D01*
X72037363Y-84683241D01*
X71880320Y-84918273D01*
X71772147Y-85179426D01*
X71717000Y-85456665D01*
X71717000Y-85739335D01*
X71772147Y-86016574D01*
X71880320Y-86277727D01*
X72037363Y-86512759D01*
X72237241Y-86712637D01*
X72469759Y-86868000D01*
X72237241Y-87023363D01*
X72037363Y-87223241D01*
X71880320Y-87458273D01*
X71772147Y-87719426D01*
X71717000Y-87996665D01*
X71717000Y-88279335D01*
X71772147Y-88556574D01*
X71880320Y-88817727D01*
X72037363Y-89052759D01*
X72237241Y-89252637D01*
X72469759Y-89408000D01*
X72237241Y-89563363D01*
X72037363Y-89763241D01*
X71880320Y-89998273D01*
X71772147Y-90259426D01*
X71717000Y-90536665D01*
X71717000Y-90819335D01*
X71772147Y-91096574D01*
X71880320Y-91357727D01*
X72037363Y-91592759D01*
X72237241Y-91792637D01*
X72472273Y-91949680D01*
X72733426Y-92057853D01*
X73010665Y-92113000D01*
X73293335Y-92113000D01*
X73570574Y-92057853D01*
X73831727Y-91949680D01*
X74066759Y-91792637D01*
X74266637Y-91592759D01*
X74423680Y-91357727D01*
X74531853Y-91096574D01*
X74587000Y-90819335D01*
X74587000Y-90536665D01*
X74556554Y-90383603D01*
X82939963Y-82000195D01*
X82939963Y-85972399D01*
X82936165Y-86010962D01*
X82951321Y-86164848D01*
X82996208Y-86312821D01*
X82996209Y-86312822D01*
X83069101Y-86449195D01*
X83109652Y-86498606D01*
X83142617Y-86538774D01*
X83142621Y-86538778D01*
X83167199Y-86568726D01*
X83197147Y-86593304D01*
X86987446Y-90383604D01*
X86957000Y-90536665D01*
X86957000Y-90819335D01*
X87012147Y-91096574D01*
X87120320Y-91357727D01*
X87277363Y-91592759D01*
X87477241Y-91792637D01*
X87712273Y-91949680D01*
X87973426Y-92057853D01*
X88250665Y-92113000D01*
X88533335Y-92113000D01*
X88810574Y-92057853D01*
X89071727Y-91949680D01*
X89306759Y-91792637D01*
X89506637Y-91592759D01*
X89663680Y-91357727D01*
X89771853Y-91096574D01*
X89827000Y-90819335D01*
X89827000Y-90536665D01*
X89771853Y-90259426D01*
X89663680Y-89998273D01*
X89506637Y-89763241D01*
X89306759Y-89563363D01*
X89074241Y-89408000D01*
X89276284Y-89273000D01*
X110545001Y-89273000D01*
X110545000Y-91373183D01*
X110439294Y-91501987D01*
X110430000Y-91519374D01*
X110420706Y-91501986D01*
X110235134Y-91275866D01*
X110009013Y-91090294D01*
X109751033Y-90952401D01*
X109471110Y-90867487D01*
X109180000Y-90838815D01*
X108888889Y-90867487D01*
X108608966Y-90952401D01*
X108350986Y-91090294D01*
X108124866Y-91275866D01*
X108072777Y-91339337D01*
X108018405Y-91237614D01*
X107907962Y-91103038D01*
X107773386Y-90992595D01*
X107619850Y-90910528D01*
X107453254Y-90859992D01*
X107280000Y-90842928D01*
X106080000Y-90842928D01*
X105906746Y-90859992D01*
X105740150Y-90910528D01*
X105586614Y-90992595D01*
X105452038Y-91103038D01*
X105341595Y-91237614D01*
X105259528Y-91391150D01*
X105208992Y-91557746D01*
X105191928Y-91731000D01*
X105191928Y-93181000D01*
X105208992Y-93354254D01*
X105259528Y-93520850D01*
X105341595Y-93674386D01*
X105452038Y-93808962D01*
X105586614Y-93919405D01*
X105740150Y-94001472D01*
X105906746Y-94052008D01*
X106080000Y-94069072D01*
X107280000Y-94069072D01*
X107453254Y-94052008D01*
X107619850Y-94001472D01*
X107773386Y-93919405D01*
X107907962Y-93808962D01*
X108018405Y-93674386D01*
X108072777Y-93572663D01*
X108124866Y-93636134D01*
X108350987Y-93821706D01*
X108608967Y-93959599D01*
X108888890Y-94044513D01*
X109180000Y-94073185D01*
X109471111Y-94044513D01*
X109751034Y-93959599D01*
X110009014Y-93821706D01*
X110235134Y-93636134D01*
X110420706Y-93410014D01*
X110430000Y-93392626D01*
X110439294Y-93410014D01*
X110624866Y-93636134D01*
X110850987Y-93821706D01*
X111108967Y-93959599D01*
X111388890Y-94044513D01*
X111680000Y-94073185D01*
X111971111Y-94044513D01*
X112251034Y-93959599D01*
X112509014Y-93821706D01*
X112735134Y-93636134D01*
X112920706Y-93410014D01*
X112934462Y-93384278D01*
X113090951Y-93590429D01*
X113308807Y-93783496D01*
X113560142Y-93930352D01*
X113823110Y-94022476D01*
X114053000Y-93901155D01*
X114053000Y-92583000D01*
X114307000Y-92583000D01*
X114307000Y-93901155D01*
X114536890Y-94022476D01*
X114799858Y-93930352D01*
X115051193Y-93783496D01*
X115269049Y-93590429D01*
X115445053Y-93358570D01*
X115572442Y-93096830D01*
X115646320Y-92815267D01*
X115506165Y-92583000D01*
X114307000Y-92583000D01*
X114053000Y-92583000D01*
X114033000Y-92583000D01*
X114033000Y-92329000D01*
X114053000Y-92329000D01*
X114053000Y-91010845D01*
X114307000Y-91010845D01*
X114307000Y-92329000D01*
X115506165Y-92329000D01*
X115646320Y-92096733D01*
X115572442Y-91815170D01*
X115445053Y-91553430D01*
X115269049Y-91321571D01*
X115051193Y-91128504D01*
X114799858Y-90981648D01*
X114536890Y-90889524D01*
X114307000Y-91010845D01*
X114053000Y-91010845D01*
X113823110Y-90889524D01*
X113560142Y-90981648D01*
X113308807Y-91128504D01*
X113090951Y-91321571D01*
X112934462Y-91527722D01*
X112920706Y-91501986D01*
X112815000Y-91373183D01*
X112815000Y-87765743D01*
X112820490Y-87710001D01*
X112815000Y-87654259D01*
X112815000Y-83886817D01*
X112920706Y-83758014D01*
X112934462Y-83732278D01*
X113090951Y-83938429D01*
X113308807Y-84131496D01*
X113560142Y-84278352D01*
X113823110Y-84370476D01*
X114053000Y-84249155D01*
X114053000Y-82931000D01*
X114307000Y-82931000D01*
X114307000Y-84249155D01*
X114536890Y-84370476D01*
X114799858Y-84278352D01*
X115051193Y-84131496D01*
X115269049Y-83938429D01*
X115445053Y-83706570D01*
X115572442Y-83444830D01*
X115646320Y-83163267D01*
X115506165Y-82931000D01*
X114307000Y-82931000D01*
X114053000Y-82931000D01*
X114033000Y-82931000D01*
X114033000Y-82677000D01*
X114053000Y-82677000D01*
X114053000Y-81358845D01*
X114307000Y-81358845D01*
X114307000Y-82677000D01*
X115506165Y-82677000D01*
X115646320Y-82444733D01*
X115572442Y-82163170D01*
X115445053Y-81901430D01*
X115269049Y-81669571D01*
X115051193Y-81476504D01*
X114799858Y-81329648D01*
X114536890Y-81237524D01*
X114307000Y-81358845D01*
X114053000Y-81358845D01*
X113823110Y-81237524D01*
X113560142Y-81329648D01*
X113308807Y-81476504D01*
X113090951Y-81669571D01*
X112934462Y-81875722D01*
X112920706Y-81849986D01*
X112815000Y-81721183D01*
X112815000Y-74234817D01*
X112920706Y-74106014D01*
X112934462Y-74080278D01*
X113090951Y-74286429D01*
X113308807Y-74479496D01*
X113560142Y-74626352D01*
X113823110Y-74718476D01*
X114053000Y-74597155D01*
X114053000Y-73279000D01*
X114307000Y-73279000D01*
X114307000Y-74597155D01*
X114536890Y-74718476D01*
X114799858Y-74626352D01*
X115051193Y-74479496D01*
X115269049Y-74286429D01*
X115445053Y-74054570D01*
X115572442Y-73792830D01*
X115646320Y-73511267D01*
X115506165Y-73279000D01*
X114307000Y-73279000D01*
X114053000Y-73279000D01*
X114033000Y-73279000D01*
X114033000Y-73025000D01*
X114053000Y-73025000D01*
X114053000Y-71706845D01*
X114307000Y-71706845D01*
X114307000Y-73025000D01*
X115506165Y-73025000D01*
X115646320Y-72792733D01*
X115572442Y-72511170D01*
X115445053Y-72249430D01*
X115269049Y-72017571D01*
X115051193Y-71824504D01*
X114799858Y-71677648D01*
X114536890Y-71585524D01*
X114307000Y-71706845D01*
X114053000Y-71706845D01*
X113823110Y-71585524D01*
X113560142Y-71677648D01*
X113308807Y-71824504D01*
X113090951Y-72017571D01*
X112934462Y-72223722D01*
X112920706Y-72197986D01*
X112815000Y-72069183D01*
X112815000Y-64582817D01*
X112920706Y-64454014D01*
X112934462Y-64428278D01*
X113090951Y-64634429D01*
X113308807Y-64827496D01*
X113560142Y-64974352D01*
X113823110Y-65066476D01*
X114053000Y-64945155D01*
X114053000Y-63627000D01*
X114307000Y-63627000D01*
X114307000Y-64945155D01*
X114536890Y-65066476D01*
X114799858Y-64974352D01*
X115051193Y-64827496D01*
X115269049Y-64634429D01*
X115445053Y-64402570D01*
X115572442Y-64140830D01*
X115646320Y-63859267D01*
X115506165Y-63627000D01*
X114307000Y-63627000D01*
X114053000Y-63627000D01*
X114033000Y-63627000D01*
X114033000Y-63373000D01*
X114053000Y-63373000D01*
X114053000Y-62054845D01*
X114307000Y-62054845D01*
X114307000Y-63373000D01*
X115506165Y-63373000D01*
X115646320Y-63140733D01*
X115572442Y-62859170D01*
X115445053Y-62597430D01*
X115269049Y-62365571D01*
X115051193Y-62172504D01*
X114799858Y-62025648D01*
X114536890Y-61933524D01*
X114307000Y-62054845D01*
X114053000Y-62054845D01*
X113823110Y-61933524D01*
X113560142Y-62025648D01*
X113308807Y-62172504D01*
X113090951Y-62365571D01*
X112934462Y-62571722D01*
X112920706Y-62545986D01*
X112735134Y-62319866D01*
X112509013Y-62134294D01*
X112251033Y-61996401D01*
X111971110Y-61911487D01*
X111680000Y-61882815D01*
X111388889Y-61911487D01*
X111108966Y-61996401D01*
X110850986Y-62134294D01*
X110624866Y-62319866D01*
X110439294Y-62545987D01*
X110430000Y-62563374D01*
X110420706Y-62545986D01*
X110235134Y-62319866D01*
X110009013Y-62134294D01*
X109751033Y-61996401D01*
X109471110Y-61911487D01*
X109180000Y-61882815D01*
X108888889Y-61911487D01*
X108608966Y-61996401D01*
X108350986Y-62134294D01*
X108124866Y-62319866D01*
X108072777Y-62383337D01*
X108018405Y-62281614D01*
X107907962Y-62147038D01*
X107773386Y-62036595D01*
X107619850Y-61954528D01*
X107453254Y-61903992D01*
X107280000Y-61886928D01*
X106080000Y-61886928D01*
X105906746Y-61903992D01*
X105740150Y-61954528D01*
X105586614Y-62036595D01*
X105452038Y-62147038D01*
X105341595Y-62281614D01*
X105259528Y-62435150D01*
X105208992Y-62601746D01*
X105191928Y-62775000D01*
X105191928Y-64225000D01*
X105208992Y-64398254D01*
X105259528Y-64564850D01*
X105341595Y-64718386D01*
X105452038Y-64852962D01*
X105586614Y-64963405D01*
X105740150Y-65045472D01*
X105906746Y-65096008D01*
X106080000Y-65113072D01*
X107280000Y-65113072D01*
X107453254Y-65096008D01*
X107619850Y-65045472D01*
X107773386Y-64963405D01*
X107907962Y-64852962D01*
X108018405Y-64718386D01*
X108072777Y-64616663D01*
X108124866Y-64680134D01*
X108350987Y-64865706D01*
X108608967Y-65003599D01*
X108888890Y-65088513D01*
X109180000Y-65117185D01*
X109471111Y-65088513D01*
X109751034Y-65003599D01*
X110009014Y-64865706D01*
X110235134Y-64680134D01*
X110420706Y-64454014D01*
X110430000Y-64436626D01*
X110439294Y-64454014D01*
X110545000Y-64582817D01*
X110545001Y-72069182D01*
X110439294Y-72197987D01*
X110430000Y-72215374D01*
X110420706Y-72197986D01*
X110235134Y-71971866D01*
X110009013Y-71786294D01*
X109751033Y-71648401D01*
X109471110Y-71563487D01*
X109180000Y-71534815D01*
X108888889Y-71563487D01*
X108608966Y-71648401D01*
X108350986Y-71786294D01*
X108124866Y-71971866D01*
X108072777Y-72035337D01*
X108018405Y-71933614D01*
X107907962Y-71799038D01*
X107773386Y-71688595D01*
X107619850Y-71606528D01*
X107453254Y-71555992D01*
X107280000Y-71538928D01*
X106080000Y-71538928D01*
X105906746Y-71555992D01*
X105740150Y-71606528D01*
X105586614Y-71688595D01*
X105452038Y-71799038D01*
X105341595Y-71933614D01*
X105259528Y-72087150D01*
X105208992Y-72253746D01*
X105191928Y-72427000D01*
X105191928Y-73877000D01*
X105208992Y-74050254D01*
X105259528Y-74216850D01*
X105341595Y-74370386D01*
X105452038Y-74504962D01*
X105586614Y-74615405D01*
X105740150Y-74697472D01*
X105906746Y-74748008D01*
X106080000Y-74765072D01*
X107280000Y-74765072D01*
X107453254Y-74748008D01*
X107619850Y-74697472D01*
X107773386Y-74615405D01*
X107907962Y-74504962D01*
X108018405Y-74370386D01*
X108072777Y-74268663D01*
X108124866Y-74332134D01*
X108350987Y-74517706D01*
X108608967Y-74655599D01*
X108888890Y-74740513D01*
X109180000Y-74769185D01*
X109471111Y-74740513D01*
X109751034Y-74655599D01*
X110009014Y-74517706D01*
X110235134Y-74332134D01*
X110420706Y-74106014D01*
X110430000Y-74088626D01*
X110439294Y-74106014D01*
X110545001Y-74234818D01*
X110545000Y-81721183D01*
X110439294Y-81849987D01*
X110430000Y-81867374D01*
X110420706Y-81849986D01*
X110235134Y-81623866D01*
X110009013Y-81438294D01*
X109751033Y-81300401D01*
X109471110Y-81215487D01*
X109180000Y-81186815D01*
X108888889Y-81215487D01*
X108608966Y-81300401D01*
X108350986Y-81438294D01*
X108124866Y-81623866D01*
X108072777Y-81687337D01*
X108018405Y-81585614D01*
X107907962Y-81451038D01*
X107773386Y-81340595D01*
X107619850Y-81258528D01*
X107453254Y-81207992D01*
X107280000Y-81190928D01*
X106080000Y-81190928D01*
X105906746Y-81207992D01*
X105740150Y-81258528D01*
X105586614Y-81340595D01*
X105452038Y-81451038D01*
X105341595Y-81585614D01*
X105259528Y-81739150D01*
X105208992Y-81905746D01*
X105191928Y-82079000D01*
X105191928Y-83529000D01*
X105208992Y-83702254D01*
X105259528Y-83868850D01*
X105341595Y-84022386D01*
X105452038Y-84156962D01*
X105586614Y-84267405D01*
X105740150Y-84349472D01*
X105906746Y-84400008D01*
X106080000Y-84417072D01*
X107280000Y-84417072D01*
X107453254Y-84400008D01*
X107619850Y-84349472D01*
X107773386Y-84267405D01*
X107907962Y-84156962D01*
X108018405Y-84022386D01*
X108072777Y-83920663D01*
X108124866Y-83984134D01*
X108350987Y-84169706D01*
X108608967Y-84307599D01*
X108888890Y-84392513D01*
X109180000Y-84421185D01*
X109471111Y-84392513D01*
X109751034Y-84307599D01*
X110009014Y-84169706D01*
X110235134Y-83984134D01*
X110420706Y-83758014D01*
X110430000Y-83740626D01*
X110439294Y-83758014D01*
X110545001Y-83886818D01*
X110545000Y-87003000D01*
X89276284Y-87003000D01*
X89074241Y-86868000D01*
X89306759Y-86712637D01*
X89506637Y-86512759D01*
X89663680Y-86277727D01*
X89771853Y-86016574D01*
X89827000Y-85739335D01*
X89827000Y-85456665D01*
X89771853Y-85179426D01*
X89663680Y-84918273D01*
X89506637Y-84683241D01*
X89306759Y-84483363D01*
X89074241Y-84328000D01*
X89306759Y-84172637D01*
X89506637Y-83972759D01*
X89663680Y-83737727D01*
X89771853Y-83476574D01*
X89827000Y-83199335D01*
X89827000Y-82916665D01*
X89771853Y-82639426D01*
X89663680Y-82378273D01*
X89506637Y-82143241D01*
X89306759Y-81943363D01*
X89074241Y-81788000D01*
X89306759Y-81632637D01*
X89506637Y-81432759D01*
X89663680Y-81197727D01*
X89771853Y-80936574D01*
X89827000Y-80659335D01*
X89827000Y-80376665D01*
X89771853Y-80099426D01*
X89663680Y-79838273D01*
X89506637Y-79603241D01*
X89306759Y-79403363D01*
X89074241Y-79248000D01*
X89306759Y-79092637D01*
X89506637Y-78892759D01*
X89663680Y-78657727D01*
X89771853Y-78396574D01*
X89827000Y-78119335D01*
X89827000Y-77836665D01*
X89771853Y-77559426D01*
X89663680Y-77298273D01*
X89506637Y-77063241D01*
X89306759Y-76863363D01*
X89074241Y-76708000D01*
X89306759Y-76552637D01*
X89506637Y-76352759D01*
X89663680Y-76117727D01*
X89771853Y-75856574D01*
X89827000Y-75579335D01*
X89827000Y-75296665D01*
X89771853Y-75019426D01*
X89663680Y-74758273D01*
X89506637Y-74523241D01*
X89306759Y-74323363D01*
X89074241Y-74168000D01*
X89306759Y-74012637D01*
X89506637Y-73812759D01*
X89663680Y-73577727D01*
X89771853Y-73316574D01*
X89827000Y-73039335D01*
X89827000Y-72756665D01*
X89771853Y-72479426D01*
X89663680Y-72218273D01*
X89506637Y-71983241D01*
X89306759Y-71783363D01*
X89074241Y-71628000D01*
X89306759Y-71472637D01*
X89506637Y-71272759D01*
X89663680Y-71037727D01*
X89771853Y-70776574D01*
X89827000Y-70499335D01*
X89827000Y-70216665D01*
X89771853Y-69939426D01*
X89663680Y-69678273D01*
X89506637Y-69443241D01*
X89306759Y-69243363D01*
X89074241Y-69088000D01*
X89306759Y-68932637D01*
X89506637Y-68732759D01*
X89663680Y-68497727D01*
X89771853Y-68236574D01*
X89827000Y-67959335D01*
X89827000Y-67676665D01*
X89771853Y-67399426D01*
X89663680Y-67138273D01*
X89506637Y-66903241D01*
X89306759Y-66703363D01*
X89074241Y-66548000D01*
X89306759Y-66392637D01*
X89506637Y-66192759D01*
X89663680Y-65957727D01*
X89771853Y-65696574D01*
X89827000Y-65419335D01*
X89827000Y-65136665D01*
X89771853Y-64859426D01*
X89663680Y-64598273D01*
X89506637Y-64363241D01*
X89306759Y-64163363D01*
X89074241Y-64008000D01*
X89276284Y-63873000D01*
X101735000Y-63873000D01*
X101735001Y-67541000D01*
X93179439Y-67541000D01*
X93064113Y-67552359D01*
X92916140Y-67597246D01*
X92779767Y-67670138D01*
X92660236Y-67768236D01*
X92562138Y-67887767D01*
X92489246Y-68024140D01*
X92444359Y-68172113D01*
X92429202Y-68326000D01*
X92444359Y-68479887D01*
X92489246Y-68627860D01*
X92562138Y-68764233D01*
X92660236Y-68883764D01*
X92779767Y-68981862D01*
X92916140Y-69054754D01*
X93064113Y-69099641D01*
X93179439Y-69111000D01*
X101735000Y-69111000D01*
X101735001Y-71572239D01*
X101735000Y-71572249D01*
X101735000Y-72935868D01*
X101299868Y-73371001D01*
X94534133Y-73371001D01*
X93981143Y-72818012D01*
X93851622Y-72711717D01*
X93654446Y-72606324D01*
X93440498Y-72541423D01*
X93218000Y-72519509D01*
X92995502Y-72541423D01*
X92781554Y-72606324D01*
X92584378Y-72711717D01*
X92411552Y-72853552D01*
X92269717Y-73026378D01*
X92164324Y-73223554D01*
X92099423Y-73437502D01*
X92077509Y-73660000D01*
X92099423Y-73882498D01*
X92164324Y-74096446D01*
X92269717Y-74293622D01*
X92376012Y-74423143D01*
X93222009Y-75269141D01*
X93257552Y-75312450D01*
X93430378Y-75454285D01*
X93627554Y-75559677D01*
X93841502Y-75624578D01*
X94064000Y-75646492D01*
X94119752Y-75641001D01*
X99029868Y-75641001D01*
X98239869Y-76431000D01*
X97960711Y-76431000D01*
X97941774Y-76412063D01*
X97772256Y-76298795D01*
X97583898Y-76220774D01*
X97383939Y-76181000D01*
X97180061Y-76181000D01*
X96980102Y-76220774D01*
X96791744Y-76298795D01*
X96622226Y-76412063D01*
X96603289Y-76431000D01*
X95928711Y-76431000D01*
X95909774Y-76412063D01*
X95740256Y-76298795D01*
X95551898Y-76220774D01*
X95351939Y-76181000D01*
X95148061Y-76181000D01*
X94948102Y-76220774D01*
X94759744Y-76298795D01*
X94590226Y-76412063D01*
X94446063Y-76556226D01*
X94332795Y-76725744D01*
X94254774Y-76914102D01*
X94215000Y-77114061D01*
X94215000Y-77317939D01*
X94254774Y-77517898D01*
X94332795Y-77706256D01*
X94446063Y-77875774D01*
X94590226Y-78019937D01*
X94759744Y-78133205D01*
X94948102Y-78211226D01*
X95148061Y-78251000D01*
X95351939Y-78251000D01*
X95551898Y-78211226D01*
X95740256Y-78133205D01*
X95909774Y-78019937D01*
X95928711Y-78001000D01*
X96603289Y-78001000D01*
X96622226Y-78019937D01*
X96791744Y-78133205D01*
X96980102Y-78211226D01*
X97180061Y-78251000D01*
X97383939Y-78251000D01*
X97583898Y-78211226D01*
X97772256Y-78133205D01*
X97941774Y-78019937D01*
X97960711Y-78001000D01*
X98235950Y-78001000D01*
X98253552Y-78022448D01*
X98426378Y-78164283D01*
X98623554Y-78269676D01*
X98837502Y-78334577D01*
X99060000Y-78356491D01*
X99282498Y-78334577D01*
X99496446Y-78269676D01*
X99693622Y-78164283D01*
X99823143Y-78057988D01*
X102533140Y-75347992D01*
X102576448Y-75312450D01*
X102611995Y-75269137D01*
X103633140Y-74247992D01*
X103676449Y-74212449D01*
X103818284Y-74039623D01*
X103923676Y-73842447D01*
X103988577Y-73628499D01*
X104005000Y-73461752D01*
X104005000Y-73461743D01*
X104010490Y-73406001D01*
X104005000Y-73350259D01*
X104005000Y-62539743D01*
X104010490Y-62484001D01*
X104005000Y-62428259D01*
X104005000Y-59491752D01*
X104010491Y-59436000D01*
X104005000Y-59380248D01*
X104005000Y-58890131D01*
X106849131Y-56046000D01*
X110779928Y-56046000D01*
X110779928Y-57746000D01*
X110792188Y-57870482D01*
X110828498Y-57990180D01*
X110887463Y-58100494D01*
X110966815Y-58197185D01*
X111063506Y-58276537D01*
X111173820Y-58335502D01*
X111293518Y-58371812D01*
X111418000Y-58384072D01*
X113118000Y-58384072D01*
X113242482Y-58371812D01*
X113362180Y-58335502D01*
X113472494Y-58276537D01*
X113569185Y-58197185D01*
X113648537Y-58100494D01*
X113707502Y-57990180D01*
X113729513Y-57917620D01*
X113861368Y-58049475D01*
X114104589Y-58211990D01*
X114374842Y-58323932D01*
X114661740Y-58381000D01*
X114954260Y-58381000D01*
X115241158Y-58323932D01*
X115511411Y-58211990D01*
X115754632Y-58049475D01*
X115961475Y-57842632D01*
X116123990Y-57599411D01*
X116235932Y-57329158D01*
X116293000Y-57042260D01*
X116293000Y-56749740D01*
X116235932Y-56462842D01*
X116123990Y-56192589D01*
X115961475Y-55949368D01*
X115754632Y-55742525D01*
X115511411Y-55580010D01*
X115241158Y-55468068D01*
X114954260Y-55411000D01*
X114661740Y-55411000D01*
X114374842Y-55468068D01*
X114104589Y-55580010D01*
X113861368Y-55742525D01*
X113729513Y-55874380D01*
X113707502Y-55801820D01*
X113648537Y-55691506D01*
X113569185Y-55594815D01*
X113472494Y-55515463D01*
X113362180Y-55456498D01*
X113242482Y-55420188D01*
X113118000Y-55407928D01*
X111418000Y-55407928D01*
X111293518Y-55420188D01*
X111173820Y-55456498D01*
X111063506Y-55515463D01*
X110966815Y-55594815D01*
X110887463Y-55691506D01*
X110828498Y-55801820D01*
X110792188Y-55921518D01*
X110779928Y-56046000D01*
X106849131Y-56046000D01*
X109943146Y-52951987D01*
X109986449Y-52916449D01*
X110035894Y-52856201D01*
X110128284Y-52743623D01*
X110233676Y-52546447D01*
X110298577Y-52332499D01*
X110299414Y-52324000D01*
X110315000Y-52165752D01*
X110320491Y-52110000D01*
X110315000Y-52054248D01*
X110315000Y-51882817D01*
X110420706Y-51754014D01*
X110430000Y-51736626D01*
X110439294Y-51754014D01*
X110624866Y-51980134D01*
X110850987Y-52165706D01*
X110920000Y-52202594D01*
X110920000Y-53105198D01*
X110450199Y-53575000D01*
X110388061Y-53575000D01*
X110188102Y-53614774D01*
X109999744Y-53692795D01*
X109830226Y-53806063D01*
X109686063Y-53950226D01*
X109572795Y-54119744D01*
X109494774Y-54308102D01*
X109455000Y-54508061D01*
X109455000Y-54711939D01*
X109494774Y-54911898D01*
X109572795Y-55100256D01*
X109686063Y-55269774D01*
X109830226Y-55413937D01*
X109999744Y-55527205D01*
X110188102Y-55605226D01*
X110388061Y-55645000D01*
X110591939Y-55645000D01*
X110791898Y-55605226D01*
X110980256Y-55527205D01*
X111149774Y-55413937D01*
X111293937Y-55269774D01*
X111407205Y-55100256D01*
X111485226Y-54911898D01*
X111525000Y-54711939D01*
X111525000Y-54649801D01*
X112191004Y-53983798D01*
X112220001Y-53960001D01*
X112313297Y-53846320D01*
X112314974Y-53844277D01*
X112385546Y-53712247D01*
X112395350Y-53679928D01*
X112429003Y-53568986D01*
X112440000Y-53457333D01*
X112440000Y-53457324D01*
X112443676Y-53420001D01*
X112440000Y-53382678D01*
X112440000Y-52202595D01*
X112509014Y-52165706D01*
X112735134Y-51980134D01*
X112920706Y-51754014D01*
X112930000Y-51736626D01*
X112939294Y-51754014D01*
X113124866Y-51980134D01*
X113350987Y-52165706D01*
X113608967Y-52303599D01*
X113888890Y-52388513D01*
X114180000Y-52417185D01*
X114471111Y-52388513D01*
X114751034Y-52303599D01*
X115009014Y-52165706D01*
X115235134Y-51980134D01*
X115420706Y-51754014D01*
X115558599Y-51496033D01*
X115643513Y-51216110D01*
X115665000Y-50997949D01*
X115665000Y-50602050D01*
X115643513Y-50383889D01*
X115558599Y-50103966D01*
X115420706Y-49845986D01*
X115235134Y-49619866D01*
X115009013Y-49434294D01*
X114751033Y-49296401D01*
X114471110Y-49211487D01*
X114180000Y-49182815D01*
X113888889Y-49211487D01*
X113745225Y-49255067D01*
X113238345Y-48748188D01*
X113213764Y-48718236D01*
X113094233Y-48620138D01*
X112957860Y-48547246D01*
X112809887Y-48502359D01*
X112694561Y-48491000D01*
X112694553Y-48491000D01*
X112656000Y-48487203D01*
X112617447Y-48491000D01*
X111621819Y-48491000D01*
X110210853Y-47080034D01*
X110237557Y-47015567D01*
X110277331Y-46815608D01*
X110277331Y-46611730D01*
X110237557Y-46411771D01*
X110159536Y-46223413D01*
X110046268Y-46053895D01*
X109902105Y-45909732D01*
X109732587Y-45796464D01*
X109544229Y-45718443D01*
X109344270Y-45678669D01*
X109140392Y-45678669D01*
X108940433Y-45718443D01*
X108752075Y-45796464D01*
X108706455Y-45826946D01*
X108694256Y-45818795D01*
X108505898Y-45740774D01*
X108305939Y-45701000D01*
X108102061Y-45701000D01*
X107902102Y-45740774D01*
X107713744Y-45818795D01*
X107544226Y-45932063D01*
X107400063Y-46076226D01*
X107286795Y-46245744D01*
X107208774Y-46434102D01*
X107169000Y-46634061D01*
X107169000Y-46837939D01*
X107208774Y-47037898D01*
X107286795Y-47226256D01*
X107400063Y-47395774D01*
X107424698Y-47420409D01*
X107430359Y-47477887D01*
X107475246Y-47625860D01*
X107548139Y-47762233D01*
X107571387Y-47790560D01*
X107621655Y-47851812D01*
X107621659Y-47851816D01*
X107646237Y-47881764D01*
X107676185Y-47906342D01*
X108973041Y-49203199D01*
X108888889Y-49211487D01*
X108608966Y-49296401D01*
X108350986Y-49434294D01*
X108130055Y-49615608D01*
X108119502Y-49580820D01*
X108060537Y-49470506D01*
X107981185Y-49373815D01*
X107884494Y-49294463D01*
X107774180Y-49235498D01*
X107654482Y-49199188D01*
X107530000Y-49186928D01*
X106965750Y-49190000D01*
X106807000Y-49348750D01*
X106807000Y-50673000D01*
X106827000Y-50673000D01*
X106827000Y-50927000D01*
X106807000Y-50927000D01*
X106807000Y-52251250D01*
X106965750Y-52410000D01*
X107273194Y-52411674D01*
X102106865Y-57578004D01*
X102063551Y-57613551D01*
X101921716Y-57786377D01*
X101839647Y-57939920D01*
X101816324Y-57983554D01*
X101751423Y-58197502D01*
X101741229Y-58301000D01*
X92941677Y-58301000D01*
X92941677Y-57224394D01*
X92925254Y-57057647D01*
X92860353Y-56843699D01*
X92754961Y-56646523D01*
X92613126Y-56473697D01*
X92440300Y-56331862D01*
X92243124Y-56226470D01*
X92029176Y-56161569D01*
X91806677Y-56139655D01*
X91584179Y-56161569D01*
X91370231Y-56226470D01*
X91173055Y-56331862D01*
X91000229Y-56473697D01*
X90858394Y-56646523D01*
X90753002Y-56843699D01*
X90688100Y-57057647D01*
X90671677Y-57224394D01*
X90671677Y-58730926D01*
X90666186Y-58786677D01*
X90671677Y-58842428D01*
X90688100Y-59009175D01*
X90753001Y-59223123D01*
X90858393Y-59420300D01*
X91000228Y-59593126D01*
X91043542Y-59628673D01*
X91614004Y-60199135D01*
X91649551Y-60242449D01*
X91822377Y-60384284D01*
X92019553Y-60489676D01*
X92233501Y-60554577D01*
X92400248Y-60571000D01*
X92400257Y-60571000D01*
X92455999Y-60576490D01*
X92511741Y-60571000D01*
X101735000Y-60571000D01*
X101735001Y-61603000D01*
X89276284Y-61603000D01*
X89074241Y-61468000D01*
X89306759Y-61312637D01*
X89506637Y-61112759D01*
X89663680Y-60877727D01*
X89771853Y-60616574D01*
X89827000Y-60339335D01*
X89827000Y-60056665D01*
X89771853Y-59779426D01*
X89663680Y-59518273D01*
X89506637Y-59283241D01*
X89306759Y-59083363D01*
X89071727Y-58926320D01*
X89061135Y-58921933D01*
X89247131Y-58810385D01*
X89455519Y-58621414D01*
X89623037Y-58395420D01*
X89743246Y-58141087D01*
X89783904Y-58007039D01*
X89661915Y-57785000D01*
X88519000Y-57785000D01*
X88519000Y-57805000D01*
X88265000Y-57805000D01*
X88265000Y-57785000D01*
X87122085Y-57785000D01*
X87000096Y-58007039D01*
X87040754Y-58141087D01*
X87160963Y-58395420D01*
X87328481Y-58621414D01*
X87536869Y-58810385D01*
X87722865Y-58921933D01*
X87712273Y-58926320D01*
X87477241Y-59083363D01*
X87277363Y-59283241D01*
X87120320Y-59518273D01*
X87012147Y-59779426D01*
X86957000Y-60056665D01*
X86957000Y-60339335D01*
X87012147Y-60616574D01*
X87120320Y-60877727D01*
X87277363Y-61112759D01*
X87477241Y-61312637D01*
X87709759Y-61468000D01*
X87477241Y-61623363D01*
X87277363Y-61823241D01*
X87120320Y-62058273D01*
X87012147Y-62319426D01*
X86957000Y-62596665D01*
X86957000Y-62879335D01*
X87012147Y-63156574D01*
X87120320Y-63417727D01*
X87277363Y-63652759D01*
X87477241Y-63852637D01*
X87709759Y-64008000D01*
X87477241Y-64163363D01*
X87277363Y-64363241D01*
X87120320Y-64598273D01*
X87012147Y-64859426D01*
X86957000Y-65136665D01*
X86957000Y-65419335D01*
X87012147Y-65696574D01*
X87120320Y-65957727D01*
X87277363Y-66192759D01*
X87477241Y-66392637D01*
X87709759Y-66548000D01*
X87477241Y-66703363D01*
X87277363Y-66903241D01*
X87120320Y-67138273D01*
X87012147Y-67399426D01*
X86957000Y-67676665D01*
X86957000Y-67959335D01*
X87012147Y-68236574D01*
X87120320Y-68497727D01*
X87277363Y-68732759D01*
X87477241Y-68932637D01*
X87709759Y-69088000D01*
X87477241Y-69243363D01*
X87277363Y-69443241D01*
X87120320Y-69678273D01*
X87012147Y-69939426D01*
X86957000Y-70216665D01*
X86957000Y-70499335D01*
X87012147Y-70776574D01*
X87120320Y-71037727D01*
X87277363Y-71272759D01*
X87477241Y-71472637D01*
X87709759Y-71628000D01*
X87477241Y-71783363D01*
X87277363Y-71983241D01*
X87120320Y-72218273D01*
X87012147Y-72479426D01*
X86957000Y-72756665D01*
X86957000Y-73039335D01*
X87012147Y-73316574D01*
X87120320Y-73577727D01*
X87277363Y-73812759D01*
X87477241Y-74012637D01*
X87709759Y-74168000D01*
X87477241Y-74323363D01*
X87277363Y-74523241D01*
X87120320Y-74758273D01*
X87012147Y-75019426D01*
X86957000Y-75296665D01*
X86957000Y-75579335D01*
X87012147Y-75856574D01*
X87120320Y-76117727D01*
X87277363Y-76352759D01*
X87477241Y-76552637D01*
X87709759Y-76708000D01*
X87477241Y-76863363D01*
X87277363Y-77063241D01*
X87120320Y-77298273D01*
X87012147Y-77559426D01*
X86957000Y-77836665D01*
X86957000Y-78119335D01*
X87012147Y-78396574D01*
X87120320Y-78657727D01*
X87277363Y-78892759D01*
X87477241Y-79092637D01*
X87709759Y-79248000D01*
X87477241Y-79403363D01*
X87277363Y-79603241D01*
X87120320Y-79838273D01*
X87012147Y-80099426D01*
X86957000Y-80376665D01*
X86957000Y-80659335D01*
X87012147Y-80936574D01*
X87120320Y-81197727D01*
X87277363Y-81432759D01*
X87477241Y-81632637D01*
X87709759Y-81788000D01*
X87477241Y-81943363D01*
X87277363Y-82143241D01*
X87120320Y-82378273D01*
X87012147Y-82639426D01*
X86957000Y-82916665D01*
X86957000Y-83199335D01*
X87012147Y-83476574D01*
X87120320Y-83737727D01*
X87277363Y-83972759D01*
X87477241Y-84172637D01*
X87709759Y-84328000D01*
X87477241Y-84483363D01*
X87277363Y-84683241D01*
X87120320Y-84918273D01*
X87012147Y-85179426D01*
X86957000Y-85456665D01*
X86957000Y-85739335D01*
X87012147Y-86016574D01*
X87120320Y-86277727D01*
X87277363Y-86512759D01*
X87477241Y-86712637D01*
X87709759Y-86868000D01*
X87477241Y-87023363D01*
X87277363Y-87223241D01*
X87120320Y-87458273D01*
X87012147Y-87719426D01*
X86957000Y-87996665D01*
X86957000Y-88132842D01*
X84509962Y-85685805D01*
X84509962Y-58408193D01*
X87120363Y-55797792D01*
X87277363Y-56032759D01*
X87477241Y-56232637D01*
X87712273Y-56389680D01*
X87722865Y-56394067D01*
X87536869Y-56505615D01*
X87328481Y-56694586D01*
X87160963Y-56920580D01*
X87040754Y-57174913D01*
X87000096Y-57308961D01*
X87122085Y-57531000D01*
X88265000Y-57531000D01*
X88265000Y-57511000D01*
X88519000Y-57511000D01*
X88519000Y-57531000D01*
X89661915Y-57531000D01*
X89783904Y-57308961D01*
X89743246Y-57174913D01*
X89623037Y-56920580D01*
X89455519Y-56694586D01*
X89247131Y-56505615D01*
X89061135Y-56394067D01*
X89071727Y-56389680D01*
X89306759Y-56232637D01*
X89506637Y-56032759D01*
X89663680Y-55797727D01*
X89771853Y-55536574D01*
X89827000Y-55259335D01*
X89827000Y-54976665D01*
X89771853Y-54699426D01*
X89663680Y-54438273D01*
X89506637Y-54203241D01*
X89306759Y-54003363D01*
X89071792Y-53846363D01*
X89809155Y-53109000D01*
X92836894Y-53109000D01*
X92875447Y-53112797D01*
X92914000Y-53109000D01*
X92914008Y-53109000D01*
X93029334Y-53097641D01*
X93177307Y-53052754D01*
X93313680Y-52979862D01*
X93433211Y-52881764D01*
X93457794Y-52851810D01*
X94534604Y-51775000D01*
X105191928Y-51775000D01*
X105204188Y-51899482D01*
X105240498Y-52019180D01*
X105299463Y-52129494D01*
X105378815Y-52226185D01*
X105475506Y-52305537D01*
X105585820Y-52364502D01*
X105705518Y-52400812D01*
X105830000Y-52413072D01*
X106394250Y-52410000D01*
X106553000Y-52251250D01*
X106553000Y-50927000D01*
X105353750Y-50927000D01*
X105195000Y-51085750D01*
X105191928Y-51775000D01*
X94534604Y-51775000D01*
X97337166Y-48972439D01*
X97363947Y-48972439D01*
X97563906Y-48932665D01*
X97752264Y-48854644D01*
X97921782Y-48741376D01*
X98065945Y-48597213D01*
X98179213Y-48427695D01*
X98257234Y-48239337D01*
X98297008Y-48039378D01*
X98297008Y-47835500D01*
X98257234Y-47635541D01*
X98179213Y-47447183D01*
X98065945Y-47277665D01*
X98063893Y-47275613D01*
X98096873Y-47226256D01*
X98174894Y-47037898D01*
X98201798Y-46902643D01*
X99181973Y-47882819D01*
X99206551Y-47912767D01*
X99236499Y-47937345D01*
X99236502Y-47937348D01*
X99252434Y-47950423D01*
X99326082Y-48010865D01*
X99462455Y-48083757D01*
X99610428Y-48128644D01*
X99630653Y-48130636D01*
X99526063Y-48235226D01*
X99412795Y-48404744D01*
X99334774Y-48593102D01*
X99295000Y-48793061D01*
X99295000Y-48996939D01*
X99334774Y-49196898D01*
X99412795Y-49385256D01*
X99526063Y-49554774D01*
X99670226Y-49698937D01*
X99839744Y-49812205D01*
X100028102Y-49890226D01*
X100228061Y-49930000D01*
X100431939Y-49930000D01*
X100631898Y-49890226D01*
X100789366Y-49825000D01*
X105191928Y-49825000D01*
X105195000Y-50514250D01*
X105353750Y-50673000D01*
X106553000Y-50673000D01*
X106553000Y-49348750D01*
X106394250Y-49190000D01*
X105830000Y-49186928D01*
X105705518Y-49199188D01*
X105585820Y-49235498D01*
X105475506Y-49294463D01*
X105378815Y-49373815D01*
X105299463Y-49470506D01*
X105240498Y-49580820D01*
X105204188Y-49700518D01*
X105191928Y-49825000D01*
X100789366Y-49825000D01*
X100820256Y-49812205D01*
X100989774Y-49698937D01*
X101133937Y-49554774D01*
X101247205Y-49385256D01*
X101325226Y-49196898D01*
X101365000Y-48996939D01*
X101365000Y-48970157D01*
X101607812Y-48727345D01*
X101637765Y-48702763D01*
X101735863Y-48583232D01*
X101808755Y-48446859D01*
X101820585Y-48407862D01*
X101853643Y-48298886D01*
X101861021Y-48223973D01*
X101865001Y-48183560D01*
X101865001Y-48183555D01*
X101868798Y-48144999D01*
X101865001Y-48106443D01*
X101865001Y-46033555D01*
X101868798Y-45994999D01*
X101865001Y-45956443D01*
X101865001Y-45956438D01*
X101860401Y-45909732D01*
X101853643Y-45841112D01*
X101808755Y-45693139D01*
X101801021Y-45678669D01*
X101735863Y-45556766D01*
X101637765Y-45437235D01*
X101607811Y-45412652D01*
X100653328Y-44458169D01*
X100628745Y-44428215D01*
X100509214Y-44330117D01*
X100372841Y-44257225D01*
X100224868Y-44212338D01*
X100109542Y-44200979D01*
X100109534Y-44200979D01*
X100070981Y-44197182D01*
X100032428Y-44200979D01*
X96443999Y-44200979D01*
X96405446Y-44197182D01*
X96366893Y-44200979D01*
X96366886Y-44200979D01*
X96265937Y-44210922D01*
X96251559Y-44212338D01*
X96217119Y-44222785D01*
X96103587Y-44257225D01*
X95967214Y-44330117D01*
X95895200Y-44389218D01*
X95877634Y-44403634D01*
X95877631Y-44403637D01*
X95847683Y-44428215D01*
X95823105Y-44458163D01*
X94476180Y-45805089D01*
X94446226Y-45829672D01*
X94348128Y-45949204D01*
X94275236Y-46085577D01*
X94230349Y-46233550D01*
X94218990Y-46348876D01*
X94218990Y-46348883D01*
X94215193Y-46387436D01*
X94218990Y-46425989D01*
X94218990Y-46711733D01*
X91423723Y-49507000D01*
X81826556Y-49507000D01*
X81788000Y-49503203D01*
X81749444Y-49507000D01*
X81749439Y-49507000D01*
X81709026Y-49510980D01*
X81634113Y-49518358D01*
X81486140Y-49563246D01*
X81349767Y-49636138D01*
X81321290Y-49659509D01*
X81260187Y-49709655D01*
X81260184Y-49709658D01*
X81230236Y-49734236D01*
X81205658Y-49764184D01*
X76180190Y-54789653D01*
X76150236Y-54814236D01*
X76052138Y-54933768D01*
X75979246Y-55070141D01*
X75934359Y-55218114D01*
X75923000Y-55333440D01*
X75923000Y-55333447D01*
X75919203Y-55372000D01*
X75923000Y-55410553D01*
X75923001Y-61396841D01*
X74587000Y-62732843D01*
X74587000Y-62610998D01*
X74421916Y-62610998D01*
X74543904Y-62388961D01*
X74503246Y-62254913D01*
X74383037Y-62000580D01*
X74215519Y-61774586D01*
X74007131Y-61585615D01*
X73821135Y-61474067D01*
X73831727Y-61469680D01*
X74066759Y-61312637D01*
X74266637Y-61112759D01*
X74423680Y-60877727D01*
X74531853Y-60616574D01*
X74587000Y-60339335D01*
X74587000Y-60056665D01*
X74531853Y-59779426D01*
X74423680Y-59518273D01*
X74266637Y-59283241D01*
X74066759Y-59083363D01*
X73834241Y-58928000D01*
X74066759Y-58772637D01*
X74266637Y-58572759D01*
X74423680Y-58337727D01*
X74531853Y-58076574D01*
X74587000Y-57799335D01*
X74587000Y-57516665D01*
X74531853Y-57239426D01*
X74423680Y-56978273D01*
X74266637Y-56743241D01*
X74068039Y-56544643D01*
X74076482Y-56543812D01*
X74196180Y-56507502D01*
X74306494Y-56448537D01*
X74403185Y-56369185D01*
X74482537Y-56272494D01*
X74541502Y-56162180D01*
X74577812Y-56042482D01*
X74590072Y-55918000D01*
X74590072Y-54318000D01*
X74577812Y-54193518D01*
X74541502Y-54073820D01*
X74482537Y-53963506D01*
X74403185Y-53866815D01*
X74306494Y-53787463D01*
X74196180Y-53728498D01*
X74076482Y-53692188D01*
X73952000Y-53679928D01*
X72352000Y-53679928D01*
X72227518Y-53692188D01*
X72107820Y-53728498D01*
X71997506Y-53787463D01*
X71900815Y-53866815D01*
X71821463Y-53963506D01*
X71762498Y-54073820D01*
X71726188Y-54193518D01*
X71713928Y-54318000D01*
X70660000Y-54318000D01*
X70660000Y-44032278D01*
X70684748Y-43779872D01*
X71765000Y-43779872D01*
X71765000Y-44220128D01*
X71850890Y-44651925D01*
X72019369Y-45058669D01*
X72263962Y-45424729D01*
X72575271Y-45736038D01*
X72941331Y-45980631D01*
X73348075Y-46149110D01*
X73779872Y-46235000D01*
X74220128Y-46235000D01*
X74651925Y-46149110D01*
X75058669Y-45980631D01*
X75424729Y-45736038D01*
X75736038Y-45424729D01*
X75980631Y-45058669D01*
X76149110Y-44651925D01*
X76235000Y-44220128D01*
X76235000Y-43779872D01*
X113765000Y-43779872D01*
X113765000Y-44220128D01*
X113850890Y-44651925D01*
X114019369Y-45058669D01*
X114263962Y-45424729D01*
X114575271Y-45736038D01*
X114941331Y-45980631D01*
X115348075Y-46149110D01*
X115779872Y-46235000D01*
X116220128Y-46235000D01*
X116651925Y-46149110D01*
X117058669Y-45980631D01*
X117424729Y-45736038D01*
X117736038Y-45424729D01*
X117980631Y-45058669D01*
X118149110Y-44651925D01*
X118235000Y-44220128D01*
X118235000Y-43779872D01*
X118149110Y-43348075D01*
X117980631Y-42941331D01*
X117736038Y-42575271D01*
X117424729Y-42263962D01*
X117058669Y-42019369D01*
X116651925Y-41850890D01*
X116220128Y-41765000D01*
X115779872Y-41765000D01*
X115348075Y-41850890D01*
X114941331Y-42019369D01*
X114575271Y-42263962D01*
X114263962Y-42575271D01*
X114019369Y-42941331D01*
X113850890Y-43348075D01*
X113765000Y-43779872D01*
X76235000Y-43779872D01*
X76149110Y-43348075D01*
X75980631Y-42941331D01*
X75736038Y-42575271D01*
X75424729Y-42263962D01*
X75058669Y-42019369D01*
X74651925Y-41850890D01*
X74220128Y-41765000D01*
X73779872Y-41765000D01*
X73348075Y-41850890D01*
X72941331Y-42019369D01*
X72575271Y-42263962D01*
X72263962Y-42575271D01*
X72019369Y-42941331D01*
X71850890Y-43348075D01*
X71765000Y-43779872D01*
X70684748Y-43779872D01*
X70726714Y-43351874D01*
X70914943Y-42728428D01*
X71220681Y-42153421D01*
X71632279Y-41648753D01*
X72134067Y-41233638D01*
X72706924Y-40923895D01*
X73329039Y-40731318D01*
X74007584Y-40660000D01*
X115967722Y-40660000D01*
X116648126Y-40726714D01*
%TA.AperFunction,Conductor*%
D20*
G36*
X116648126Y-40726714D02*
G01*
X117271572Y-40914943D01*
X117846579Y-41220681D01*
X118351247Y-41632279D01*
X118766362Y-42134067D01*
X119076105Y-42706924D01*
X119268682Y-43329039D01*
X119340000Y-44007584D01*
X119340001Y-100967711D01*
X119273286Y-101648126D01*
X119085057Y-102271570D01*
X118779323Y-102846573D01*
X118367721Y-103351248D01*
X117865933Y-103766362D01*
X117293077Y-104076104D01*
X116670961Y-104268682D01*
X115992417Y-104340000D01*
X74032279Y-104340000D01*
X73351874Y-104273286D01*
X72728430Y-104085057D01*
X72153427Y-103779323D01*
X71648752Y-103367721D01*
X71233638Y-102865933D01*
X70923896Y-102293077D01*
X70731318Y-101670961D01*
X70660000Y-100992417D01*
X70660000Y-100779872D01*
X71765000Y-100779872D01*
X71765000Y-101220128D01*
X71850890Y-101651925D01*
X72019369Y-102058669D01*
X72263962Y-102424729D01*
X72575271Y-102736038D01*
X72941331Y-102980631D01*
X73348075Y-103149110D01*
X73779872Y-103235000D01*
X74220128Y-103235000D01*
X74651925Y-103149110D01*
X75058669Y-102980631D01*
X75424729Y-102736038D01*
X75736038Y-102424729D01*
X75980631Y-102058669D01*
X76149110Y-101651925D01*
X76159438Y-101600000D01*
X91704842Y-101600000D01*
X91719999Y-101753887D01*
X91764886Y-101901860D01*
X91837778Y-102038233D01*
X91935876Y-102157764D01*
X91985576Y-102198553D01*
X92029010Y-102303411D01*
X92191525Y-102546632D01*
X92398368Y-102753475D01*
X92641589Y-102915990D01*
X92911842Y-103027932D01*
X93198740Y-103085000D01*
X93491260Y-103085000D01*
X93778158Y-103027932D01*
X94048411Y-102915990D01*
X94291632Y-102753475D01*
X94498475Y-102546632D01*
X94660990Y-102303411D01*
X94772932Y-102033158D01*
X94788102Y-101956890D01*
X95713524Y-101956890D01*
X95758175Y-102104099D01*
X95883359Y-102366920D01*
X96057412Y-102600269D01*
X96273645Y-102795178D01*
X96523748Y-102944157D01*
X96798109Y-103041481D01*
X97028000Y-102920814D01*
X97028000Y-101727000D01*
X97282000Y-101727000D01*
X97282000Y-102920814D01*
X97511891Y-103041481D01*
X97786252Y-102944157D01*
X98036355Y-102795178D01*
X98252588Y-102600269D01*
X98426641Y-102366920D01*
X98551825Y-102104099D01*
X98596476Y-101956890D01*
X98475155Y-101727000D01*
X97282000Y-101727000D01*
X97028000Y-101727000D01*
X95834845Y-101727000D01*
X95713524Y-101956890D01*
X94788102Y-101956890D01*
X94830000Y-101746260D01*
X94830000Y-101453740D01*
X94772932Y-101166842D01*
X94660990Y-100896589D01*
X94498475Y-100653368D01*
X94291632Y-100446525D01*
X94117240Y-100330000D01*
X94291632Y-100213475D01*
X94498475Y-100006632D01*
X94660990Y-99763411D01*
X94772932Y-99493158D01*
X94788102Y-99416890D01*
X95713524Y-99416890D01*
X95758175Y-99564099D01*
X95883359Y-99826920D01*
X96057412Y-100060269D01*
X96273645Y-100255178D01*
X96399255Y-100330000D01*
X96273645Y-100404822D01*
X96057412Y-100599731D01*
X95883359Y-100833080D01*
X95758175Y-101095901D01*
X95713524Y-101243110D01*
X95834845Y-101473000D01*
X97028000Y-101473000D01*
X97028000Y-99187000D01*
X97282000Y-99187000D01*
X97282000Y-101473000D01*
X98475155Y-101473000D01*
X98596476Y-101243110D01*
X98551825Y-101095901D01*
X98426641Y-100833080D01*
X98252588Y-100599731D01*
X98036355Y-100404822D01*
X97910745Y-100330000D01*
X98036355Y-100255178D01*
X98252588Y-100060269D01*
X98426641Y-99826920D01*
X98551825Y-99564099D01*
X98596476Y-99416890D01*
X98475155Y-99187000D01*
X97282000Y-99187000D01*
X97028000Y-99187000D01*
X95834845Y-99187000D01*
X95713524Y-99416890D01*
X94788102Y-99416890D01*
X94830000Y-99206260D01*
X94830000Y-98913740D01*
X94772932Y-98626842D01*
X94660990Y-98356589D01*
X94498475Y-98113368D01*
X94291632Y-97906525D01*
X94117240Y-97790000D01*
X94291632Y-97673475D01*
X94498475Y-97466632D01*
X94660990Y-97223411D01*
X94772932Y-96953158D01*
X94788102Y-96876890D01*
X95713524Y-96876890D01*
X95758175Y-97024099D01*
X95883359Y-97286920D01*
X96057412Y-97520269D01*
X96273645Y-97715178D01*
X96399255Y-97790000D01*
X96273645Y-97864822D01*
X96057412Y-98059731D01*
X95883359Y-98293080D01*
X95758175Y-98555901D01*
X95713524Y-98703110D01*
X95834845Y-98933000D01*
X97028000Y-98933000D01*
X97028000Y-96647000D01*
X97282000Y-96647000D01*
X97282000Y-98933000D01*
X98475155Y-98933000D01*
X98596476Y-98703110D01*
X98551825Y-98555901D01*
X98426641Y-98293080D01*
X98252588Y-98059731D01*
X98036355Y-97864822D01*
X97910745Y-97790000D01*
X98036355Y-97715178D01*
X98252588Y-97520269D01*
X98426641Y-97286920D01*
X98551825Y-97024099D01*
X98596476Y-96876890D01*
X98475155Y-96647000D01*
X97282000Y-96647000D01*
X97028000Y-96647000D01*
X95834845Y-96647000D01*
X95713524Y-96876890D01*
X94788102Y-96876890D01*
X94830000Y-96666260D01*
X94830000Y-96373740D01*
X94772932Y-96086842D01*
X94660990Y-95816589D01*
X94498475Y-95573368D01*
X94366620Y-95441513D01*
X94439180Y-95419502D01*
X94549494Y-95360537D01*
X94646185Y-95281185D01*
X94725537Y-95184494D01*
X94784502Y-95074180D01*
X94820812Y-94954482D01*
X94833072Y-94830000D01*
X95666928Y-94830000D01*
X95679188Y-94954482D01*
X95715498Y-95074180D01*
X95774463Y-95184494D01*
X95853815Y-95281185D01*
X95950506Y-95360537D01*
X96060820Y-95419502D01*
X96141466Y-95443966D01*
X96057412Y-95519731D01*
X95883359Y-95753080D01*
X95758175Y-96015901D01*
X95713524Y-96163110D01*
X95834845Y-96393000D01*
X97028000Y-96393000D01*
X97028000Y-94107000D01*
X97282000Y-94107000D01*
X97282000Y-96393000D01*
X98475155Y-96393000D01*
X98596476Y-96163110D01*
X98551825Y-96015901D01*
X98426641Y-95753080D01*
X98252588Y-95519731D01*
X98168534Y-95443966D01*
X98249180Y-95419502D01*
X98359494Y-95360537D01*
X98456185Y-95281185D01*
X98535537Y-95184494D01*
X98594502Y-95074180D01*
X98630812Y-94954482D01*
X98643072Y-94830000D01*
X98640000Y-94265750D01*
X98481250Y-94107000D01*
X97282000Y-94107000D01*
X97028000Y-94107000D01*
X95828750Y-94107000D01*
X95670000Y-94265750D01*
X95666928Y-94830000D01*
X94833072Y-94830000D01*
X94833072Y-93130000D01*
X95666928Y-93130000D01*
X95670000Y-93694250D01*
X95828750Y-93853000D01*
X97028000Y-93853000D01*
X97028000Y-92653750D01*
X97282000Y-92653750D01*
X97282000Y-93853000D01*
X98481250Y-93853000D01*
X98640000Y-93694250D01*
X98643072Y-93130000D01*
X99476928Y-93130000D01*
X99476928Y-94830000D01*
X99489188Y-94954482D01*
X99525498Y-95074180D01*
X99584463Y-95184494D01*
X99663815Y-95281185D01*
X99760506Y-95360537D01*
X99870820Y-95419502D01*
X99943380Y-95441513D01*
X99811525Y-95573368D01*
X99649010Y-95816589D01*
X99537068Y-96086842D01*
X99480000Y-96373740D01*
X99480000Y-96666260D01*
X99537068Y-96953158D01*
X99649010Y-97223411D01*
X99811525Y-97466632D01*
X100018368Y-97673475D01*
X100192760Y-97790000D01*
X100018368Y-97906525D01*
X99811525Y-98113368D01*
X99649010Y-98356589D01*
X99537068Y-98626842D01*
X99480000Y-98913740D01*
X99480000Y-99206260D01*
X99537068Y-99493158D01*
X99649010Y-99763411D01*
X99811525Y-100006632D01*
X100018368Y-100213475D01*
X100192760Y-100330000D01*
X100018368Y-100446525D01*
X99811525Y-100653368D01*
X99649010Y-100896589D01*
X99537068Y-101166842D01*
X99480000Y-101453740D01*
X99480000Y-101746260D01*
X99537068Y-102033158D01*
X99649010Y-102303411D01*
X99811525Y-102546632D01*
X100018368Y-102753475D01*
X100261589Y-102915990D01*
X100531842Y-103027932D01*
X100818740Y-103085000D01*
X101111260Y-103085000D01*
X101398158Y-103027932D01*
X101668411Y-102915990D01*
X101911632Y-102753475D01*
X102118475Y-102546632D01*
X102280990Y-102303411D01*
X102392932Y-102033158D01*
X102450000Y-101746260D01*
X102450000Y-101453740D01*
X102392932Y-101166842D01*
X102280990Y-100896589D01*
X102203003Y-100779872D01*
X113765000Y-100779872D01*
X113765000Y-101220128D01*
X113850890Y-101651925D01*
X114019369Y-102058669D01*
X114263962Y-102424729D01*
X114575271Y-102736038D01*
X114941331Y-102980631D01*
X115348075Y-103149110D01*
X115779872Y-103235000D01*
X116220128Y-103235000D01*
X116651925Y-103149110D01*
X117058669Y-102980631D01*
X117424729Y-102736038D01*
X117736038Y-102424729D01*
X117980631Y-102058669D01*
X118149110Y-101651925D01*
X118235000Y-101220128D01*
X118235000Y-100779872D01*
X118149110Y-100348075D01*
X117980631Y-99941331D01*
X117736038Y-99575271D01*
X117424729Y-99263962D01*
X117058669Y-99019369D01*
X116651925Y-98850890D01*
X116220128Y-98765000D01*
X115779872Y-98765000D01*
X115348075Y-98850890D01*
X114941331Y-99019369D01*
X114575271Y-99263962D01*
X114263962Y-99575271D01*
X114019369Y-99941331D01*
X113850890Y-100348075D01*
X113765000Y-100779872D01*
X102203003Y-100779872D01*
X102118475Y-100653368D01*
X101911632Y-100446525D01*
X101737240Y-100330000D01*
X101911632Y-100213475D01*
X102118475Y-100006632D01*
X102280990Y-99763411D01*
X102392932Y-99493158D01*
X102450000Y-99206260D01*
X102450000Y-98913740D01*
X102392932Y-98626842D01*
X102280990Y-98356589D01*
X102118475Y-98113368D01*
X101911632Y-97906525D01*
X101737240Y-97790000D01*
X101911632Y-97673475D01*
X102118475Y-97466632D01*
X102280990Y-97223411D01*
X102392932Y-96953158D01*
X102450000Y-96666260D01*
X102450000Y-96373740D01*
X102392932Y-96086842D01*
X102280990Y-95816589D01*
X102118475Y-95573368D01*
X101986620Y-95441513D01*
X102059180Y-95419502D01*
X102169494Y-95360537D01*
X102266185Y-95281185D01*
X102345537Y-95184494D01*
X102404502Y-95074180D01*
X102440812Y-94954482D01*
X102453072Y-94830000D01*
X102453072Y-93130000D01*
X102440812Y-93005518D01*
X102404502Y-92885820D01*
X102345537Y-92775506D01*
X102266185Y-92678815D01*
X102169494Y-92599463D01*
X102059180Y-92540498D01*
X101939482Y-92504188D01*
X101815000Y-92491928D01*
X100115000Y-92491928D01*
X99990518Y-92504188D01*
X99870820Y-92540498D01*
X99760506Y-92599463D01*
X99663815Y-92678815D01*
X99584463Y-92775506D01*
X99525498Y-92885820D01*
X99489188Y-93005518D01*
X99476928Y-93130000D01*
X98643072Y-93130000D01*
X98630812Y-93005518D01*
X98594502Y-92885820D01*
X98535537Y-92775506D01*
X98456185Y-92678815D01*
X98359494Y-92599463D01*
X98249180Y-92540498D01*
X98129482Y-92504188D01*
X98005000Y-92491928D01*
X97440750Y-92495000D01*
X97282000Y-92653750D01*
X97028000Y-92653750D01*
X96869250Y-92495000D01*
X96305000Y-92491928D01*
X96180518Y-92504188D01*
X96060820Y-92540498D01*
X95950506Y-92599463D01*
X95853815Y-92678815D01*
X95774463Y-92775506D01*
X95715498Y-92885820D01*
X95679188Y-93005518D01*
X95666928Y-93130000D01*
X94833072Y-93130000D01*
X94820812Y-93005518D01*
X94784502Y-92885820D01*
X94725537Y-92775506D01*
X94646185Y-92678815D01*
X94549494Y-92599463D01*
X94439180Y-92540498D01*
X94319482Y-92504188D01*
X94195000Y-92491928D01*
X92495000Y-92491928D01*
X92370518Y-92504188D01*
X92250820Y-92540498D01*
X92140506Y-92599463D01*
X92043815Y-92678815D01*
X91964463Y-92775506D01*
X91905498Y-92885820D01*
X91869188Y-93005518D01*
X91856928Y-93130000D01*
X91856928Y-94830000D01*
X91869188Y-94954482D01*
X91905498Y-95074180D01*
X91964463Y-95184494D01*
X92043815Y-95281185D01*
X92140506Y-95360537D01*
X92250820Y-95419502D01*
X92323380Y-95441513D01*
X92191525Y-95573368D01*
X92029010Y-95816589D01*
X91917068Y-96086842D01*
X91860000Y-96373740D01*
X91860000Y-96666260D01*
X91917068Y-96953158D01*
X92029010Y-97223411D01*
X92191525Y-97466632D01*
X92398368Y-97673475D01*
X92572760Y-97790000D01*
X92398368Y-97906525D01*
X92191525Y-98113368D01*
X92029010Y-98356589D01*
X91917068Y-98626842D01*
X91860000Y-98913740D01*
X91860000Y-99206260D01*
X91917068Y-99493158D01*
X92029010Y-99763411D01*
X92191525Y-100006632D01*
X92398368Y-100213475D01*
X92572760Y-100330000D01*
X92398368Y-100446525D01*
X92191525Y-100653368D01*
X92029010Y-100896589D01*
X91985576Y-101001447D01*
X91935876Y-101042236D01*
X91837778Y-101161767D01*
X91764886Y-101298140D01*
X91719999Y-101446113D01*
X91704842Y-101600000D01*
X76159438Y-101600000D01*
X76235000Y-101220128D01*
X76235000Y-100779872D01*
X76149110Y-100348075D01*
X75980631Y-99941331D01*
X75736038Y-99575271D01*
X75424729Y-99263962D01*
X75058669Y-99019369D01*
X74651925Y-98850890D01*
X74220128Y-98765000D01*
X73779872Y-98765000D01*
X73348075Y-98850890D01*
X72941331Y-99019369D01*
X72575271Y-99263962D01*
X72263962Y-99575271D01*
X72019369Y-99941331D01*
X71850890Y-100348075D01*
X71765000Y-100779872D01*
X70660000Y-100779872D01*
X70660000Y-54318000D01*
X71713928Y-54318000D01*
X71713928Y-55918000D01*
X71726188Y-56042482D01*
X71762498Y-56162180D01*
X71821463Y-56272494D01*
X71900815Y-56369185D01*
X71997506Y-56448537D01*
X72107820Y-56507502D01*
X72227518Y-56543812D01*
X72235961Y-56544643D01*
X72037363Y-56743241D01*
X71880320Y-56978273D01*
X71772147Y-57239426D01*
X71717000Y-57516665D01*
X71717000Y-57799335D01*
X71772147Y-58076574D01*
X71880320Y-58337727D01*
X72037363Y-58572759D01*
X72237241Y-58772637D01*
X72469759Y-58928000D01*
X72237241Y-59083363D01*
X72037363Y-59283241D01*
X71880320Y-59518273D01*
X71772147Y-59779426D01*
X71717000Y-60056665D01*
X71717000Y-60339335D01*
X71772147Y-60616574D01*
X71880320Y-60877727D01*
X72037363Y-61112759D01*
X72237241Y-61312637D01*
X72472273Y-61469680D01*
X72482865Y-61474067D01*
X72296869Y-61585615D01*
X72088481Y-61774586D01*
X71920963Y-62000580D01*
X71800754Y-62254913D01*
X71760096Y-62388961D01*
X71882085Y-62611000D01*
X73025000Y-62611000D01*
X73025000Y-62591000D01*
X73279000Y-62591000D01*
X73279000Y-62611000D01*
X73299000Y-62611000D01*
X73299000Y-62865000D01*
X73279000Y-62865000D01*
X73279000Y-62885000D01*
X73025000Y-62885000D01*
X73025000Y-62865000D01*
X71882085Y-62865000D01*
X71760096Y-63087039D01*
X71800754Y-63221087D01*
X71920963Y-63475420D01*
X72088481Y-63701414D01*
X72296869Y-63890385D01*
X72482865Y-64001933D01*
X72472273Y-64006320D01*
X72237241Y-64163363D01*
X72037363Y-64363241D01*
X71880320Y-64598273D01*
X71772147Y-64859426D01*
X71717000Y-65136665D01*
X71717000Y-65419335D01*
X71772147Y-65696574D01*
X71880320Y-65957727D01*
X72037363Y-66192759D01*
X72237241Y-66392637D01*
X72469759Y-66548000D01*
X72237241Y-66703363D01*
X72037363Y-66903241D01*
X71880320Y-67138273D01*
X71772147Y-67399426D01*
X71717000Y-67676665D01*
X71717000Y-67959335D01*
X71772147Y-68236574D01*
X71880320Y-68497727D01*
X72037363Y-68732759D01*
X72237241Y-68932637D01*
X72469759Y-69088000D01*
X72237241Y-69243363D01*
X72037363Y-69443241D01*
X71880320Y-69678273D01*
X71772147Y-69939426D01*
X71717000Y-70216665D01*
X71717000Y-70499335D01*
X71772147Y-70776574D01*
X71880320Y-71037727D01*
X72037363Y-71272759D01*
X72237241Y-71472637D01*
X72469759Y-71628000D01*
X72237241Y-71783363D01*
X72037363Y-71983241D01*
X71880320Y-72218273D01*
X71772147Y-72479426D01*
X71717000Y-72756665D01*
X71717000Y-73039335D01*
X71772147Y-73316574D01*
X71880320Y-73577727D01*
X72037363Y-73812759D01*
X72237241Y-74012637D01*
X72469759Y-74168000D01*
X72237241Y-74323363D01*
X72037363Y-74523241D01*
X71880320Y-74758273D01*
X71772147Y-75019426D01*
X71717000Y-75296665D01*
X71717000Y-75579335D01*
X71772147Y-75856574D01*
X71880320Y-76117727D01*
X72037363Y-76352759D01*
X72237241Y-76552637D01*
X72469759Y-76708000D01*
X72237241Y-76863363D01*
X72037363Y-77063241D01*
X71880320Y-77298273D01*
X71772147Y-77559426D01*
X71717000Y-77836665D01*
X71717000Y-78119335D01*
X71772147Y-78396574D01*
X71880320Y-78657727D01*
X72037363Y-78892759D01*
X72237241Y-79092637D01*
X72469759Y-79248000D01*
X72237241Y-79403363D01*
X72037363Y-79603241D01*
X71880320Y-79838273D01*
X71772147Y-80099426D01*
X71717000Y-80376665D01*
X71717000Y-80659335D01*
X71772147Y-80936574D01*
X71880320Y-81197727D01*
X72037363Y-81432759D01*
X72237241Y-81632637D01*
X72469759Y-81788000D01*
X72237241Y-81943363D01*
X72037363Y-82143241D01*
X71880320Y-82378273D01*
X71772147Y-82639426D01*
X71717000Y-82916665D01*
X71717000Y-83199335D01*
X71772147Y-83476574D01*
X71880320Y-83737727D01*
X72037363Y-83972759D01*
X72237241Y-84172637D01*
X72469759Y-84328000D01*
X72237241Y-84483363D01*
X72037363Y-84683241D01*
X71880320Y-84918273D01*
X71772147Y-85179426D01*
X71717000Y-85456665D01*
X71717000Y-85739335D01*
X71772147Y-86016574D01*
X71880320Y-86277727D01*
X72037363Y-86512759D01*
X72237241Y-86712637D01*
X72469759Y-86868000D01*
X72237241Y-87023363D01*
X72037363Y-87223241D01*
X71880320Y-87458273D01*
X71772147Y-87719426D01*
X71717000Y-87996665D01*
X71717000Y-88279335D01*
X71772147Y-88556574D01*
X71880320Y-88817727D01*
X72037363Y-89052759D01*
X72237241Y-89252637D01*
X72469759Y-89408000D01*
X72237241Y-89563363D01*
X72037363Y-89763241D01*
X71880320Y-89998273D01*
X71772147Y-90259426D01*
X71717000Y-90536665D01*
X71717000Y-90819335D01*
X71772147Y-91096574D01*
X71880320Y-91357727D01*
X72037363Y-91592759D01*
X72237241Y-91792637D01*
X72472273Y-91949680D01*
X72733426Y-92057853D01*
X73010665Y-92113000D01*
X73293335Y-92113000D01*
X73570574Y-92057853D01*
X73831727Y-91949680D01*
X74066759Y-91792637D01*
X74266637Y-91592759D01*
X74423680Y-91357727D01*
X74531853Y-91096574D01*
X74587000Y-90819335D01*
X74587000Y-90536665D01*
X74556554Y-90383603D01*
X82939963Y-82000195D01*
X82939963Y-85972399D01*
X82936165Y-86010962D01*
X82951321Y-86164848D01*
X82996208Y-86312821D01*
X82996209Y-86312822D01*
X83069101Y-86449195D01*
X83109652Y-86498606D01*
X83142617Y-86538774D01*
X83142621Y-86538778D01*
X83167199Y-86568726D01*
X83197147Y-86593304D01*
X86987446Y-90383604D01*
X86957000Y-90536665D01*
X86957000Y-90819335D01*
X87012147Y-91096574D01*
X87120320Y-91357727D01*
X87277363Y-91592759D01*
X87477241Y-91792637D01*
X87712273Y-91949680D01*
X87973426Y-92057853D01*
X88250665Y-92113000D01*
X88533335Y-92113000D01*
X88810574Y-92057853D01*
X89071727Y-91949680D01*
X89306759Y-91792637D01*
X89506637Y-91592759D01*
X89663680Y-91357727D01*
X89771853Y-91096574D01*
X89827000Y-90819335D01*
X89827000Y-90536665D01*
X89771853Y-90259426D01*
X89663680Y-89998273D01*
X89506637Y-89763241D01*
X89306759Y-89563363D01*
X89074241Y-89408000D01*
X89276284Y-89273000D01*
X110545001Y-89273000D01*
X110545000Y-91373183D01*
X110439294Y-91501987D01*
X110430000Y-91519374D01*
X110420706Y-91501986D01*
X110235134Y-91275866D01*
X110009013Y-91090294D01*
X109751033Y-90952401D01*
X109471110Y-90867487D01*
X109180000Y-90838815D01*
X108888889Y-90867487D01*
X108608966Y-90952401D01*
X108350986Y-91090294D01*
X108124866Y-91275866D01*
X108072777Y-91339337D01*
X108018405Y-91237614D01*
X107907962Y-91103038D01*
X107773386Y-90992595D01*
X107619850Y-90910528D01*
X107453254Y-90859992D01*
X107280000Y-90842928D01*
X106080000Y-90842928D01*
X105906746Y-90859992D01*
X105740150Y-90910528D01*
X105586614Y-90992595D01*
X105452038Y-91103038D01*
X105341595Y-91237614D01*
X105259528Y-91391150D01*
X105208992Y-91557746D01*
X105191928Y-91731000D01*
X105191928Y-93181000D01*
X105208992Y-93354254D01*
X105259528Y-93520850D01*
X105341595Y-93674386D01*
X105452038Y-93808962D01*
X105586614Y-93919405D01*
X105740150Y-94001472D01*
X105906746Y-94052008D01*
X106080000Y-94069072D01*
X107280000Y-94069072D01*
X107453254Y-94052008D01*
X107619850Y-94001472D01*
X107773386Y-93919405D01*
X107907962Y-93808962D01*
X108018405Y-93674386D01*
X108072777Y-93572663D01*
X108124866Y-93636134D01*
X108350987Y-93821706D01*
X108608967Y-93959599D01*
X108888890Y-94044513D01*
X109180000Y-94073185D01*
X109471111Y-94044513D01*
X109751034Y-93959599D01*
X110009014Y-93821706D01*
X110235134Y-93636134D01*
X110420706Y-93410014D01*
X110430000Y-93392626D01*
X110439294Y-93410014D01*
X110624866Y-93636134D01*
X110850987Y-93821706D01*
X111108967Y-93959599D01*
X111388890Y-94044513D01*
X111680000Y-94073185D01*
X111971111Y-94044513D01*
X112251034Y-93959599D01*
X112509014Y-93821706D01*
X112735134Y-93636134D01*
X112920706Y-93410014D01*
X112934462Y-93384278D01*
X113090951Y-93590429D01*
X113308807Y-93783496D01*
X113560142Y-93930352D01*
X113823110Y-94022476D01*
X114053000Y-93901155D01*
X114053000Y-92583000D01*
X114307000Y-92583000D01*
X114307000Y-93901155D01*
X114536890Y-94022476D01*
X114799858Y-93930352D01*
X115051193Y-93783496D01*
X115269049Y-93590429D01*
X115445053Y-93358570D01*
X115572442Y-93096830D01*
X115646320Y-92815267D01*
X115506165Y-92583000D01*
X114307000Y-92583000D01*
X114053000Y-92583000D01*
X114033000Y-92583000D01*
X114033000Y-92329000D01*
X114053000Y-92329000D01*
X114053000Y-91010845D01*
X114307000Y-91010845D01*
X114307000Y-92329000D01*
X115506165Y-92329000D01*
X115646320Y-92096733D01*
X115572442Y-91815170D01*
X115445053Y-91553430D01*
X115269049Y-91321571D01*
X115051193Y-91128504D01*
X114799858Y-90981648D01*
X114536890Y-90889524D01*
X114307000Y-91010845D01*
X114053000Y-91010845D01*
X113823110Y-90889524D01*
X113560142Y-90981648D01*
X113308807Y-91128504D01*
X113090951Y-91321571D01*
X112934462Y-91527722D01*
X112920706Y-91501986D01*
X112815000Y-91373183D01*
X112815000Y-87765743D01*
X112820490Y-87710001D01*
X112815000Y-87654259D01*
X112815000Y-83886817D01*
X112920706Y-83758014D01*
X112934462Y-83732278D01*
X113090951Y-83938429D01*
X113308807Y-84131496D01*
X113560142Y-84278352D01*
X113823110Y-84370476D01*
X114053000Y-84249155D01*
X114053000Y-82931000D01*
X114307000Y-82931000D01*
X114307000Y-84249155D01*
X114536890Y-84370476D01*
X114799858Y-84278352D01*
X115051193Y-84131496D01*
X115269049Y-83938429D01*
X115445053Y-83706570D01*
X115572442Y-83444830D01*
X115646320Y-83163267D01*
X115506165Y-82931000D01*
X114307000Y-82931000D01*
X114053000Y-82931000D01*
X114033000Y-82931000D01*
X114033000Y-82677000D01*
X114053000Y-82677000D01*
X114053000Y-81358845D01*
X114307000Y-81358845D01*
X114307000Y-82677000D01*
X115506165Y-82677000D01*
X115646320Y-82444733D01*
X115572442Y-82163170D01*
X115445053Y-81901430D01*
X115269049Y-81669571D01*
X115051193Y-81476504D01*
X114799858Y-81329648D01*
X114536890Y-81237524D01*
X114307000Y-81358845D01*
X114053000Y-81358845D01*
X113823110Y-81237524D01*
X113560142Y-81329648D01*
X113308807Y-81476504D01*
X113090951Y-81669571D01*
X112934462Y-81875722D01*
X112920706Y-81849986D01*
X112815000Y-81721183D01*
X112815000Y-74234817D01*
X112920706Y-74106014D01*
X112934462Y-74080278D01*
X113090951Y-74286429D01*
X113308807Y-74479496D01*
X113560142Y-74626352D01*
X113823110Y-74718476D01*
X114053000Y-74597155D01*
X114053000Y-73279000D01*
X114307000Y-73279000D01*
X114307000Y-74597155D01*
X114536890Y-74718476D01*
X114799858Y-74626352D01*
X115051193Y-74479496D01*
X115269049Y-74286429D01*
X115445053Y-74054570D01*
X115572442Y-73792830D01*
X115646320Y-73511267D01*
X115506165Y-73279000D01*
X114307000Y-73279000D01*
X114053000Y-73279000D01*
X114033000Y-73279000D01*
X114033000Y-73025000D01*
X114053000Y-73025000D01*
X114053000Y-71706845D01*
X114307000Y-71706845D01*
X114307000Y-73025000D01*
X115506165Y-73025000D01*
X115646320Y-72792733D01*
X115572442Y-72511170D01*
X115445053Y-72249430D01*
X115269049Y-72017571D01*
X115051193Y-71824504D01*
X114799858Y-71677648D01*
X114536890Y-71585524D01*
X114307000Y-71706845D01*
X114053000Y-71706845D01*
X113823110Y-71585524D01*
X113560142Y-71677648D01*
X113308807Y-71824504D01*
X113090951Y-72017571D01*
X112934462Y-72223722D01*
X112920706Y-72197986D01*
X112815000Y-72069183D01*
X112815000Y-64582817D01*
X112920706Y-64454014D01*
X112934462Y-64428278D01*
X113090951Y-64634429D01*
X113308807Y-64827496D01*
X113560142Y-64974352D01*
X113823110Y-65066476D01*
X114053000Y-64945155D01*
X114053000Y-63627000D01*
X114307000Y-63627000D01*
X114307000Y-64945155D01*
X114536890Y-65066476D01*
X114799858Y-64974352D01*
X115051193Y-64827496D01*
X115269049Y-64634429D01*
X115445053Y-64402570D01*
X115572442Y-64140830D01*
X115646320Y-63859267D01*
X115506165Y-63627000D01*
X114307000Y-63627000D01*
X114053000Y-63627000D01*
X114033000Y-63627000D01*
X114033000Y-63373000D01*
X114053000Y-63373000D01*
X114053000Y-62054845D01*
X114307000Y-62054845D01*
X114307000Y-63373000D01*
X115506165Y-63373000D01*
X115646320Y-63140733D01*
X115572442Y-62859170D01*
X115445053Y-62597430D01*
X115269049Y-62365571D01*
X115051193Y-62172504D01*
X114799858Y-62025648D01*
X114536890Y-61933524D01*
X114307000Y-62054845D01*
X114053000Y-62054845D01*
X113823110Y-61933524D01*
X113560142Y-62025648D01*
X113308807Y-62172504D01*
X113090951Y-62365571D01*
X112934462Y-62571722D01*
X112920706Y-62545986D01*
X112735134Y-62319866D01*
X112509013Y-62134294D01*
X112251033Y-61996401D01*
X111971110Y-61911487D01*
X111680000Y-61882815D01*
X111388889Y-61911487D01*
X111108966Y-61996401D01*
X110850986Y-62134294D01*
X110624866Y-62319866D01*
X110439294Y-62545987D01*
X110430000Y-62563374D01*
X110420706Y-62545986D01*
X110235134Y-62319866D01*
X110009013Y-62134294D01*
X109751033Y-61996401D01*
X109471110Y-61911487D01*
X109180000Y-61882815D01*
X108888889Y-61911487D01*
X108608966Y-61996401D01*
X108350986Y-62134294D01*
X108124866Y-62319866D01*
X108072777Y-62383337D01*
X108018405Y-62281614D01*
X107907962Y-62147038D01*
X107773386Y-62036595D01*
X107619850Y-61954528D01*
X107453254Y-61903992D01*
X107280000Y-61886928D01*
X106080000Y-61886928D01*
X105906746Y-61903992D01*
X105740150Y-61954528D01*
X105586614Y-62036595D01*
X105452038Y-62147038D01*
X105341595Y-62281614D01*
X105259528Y-62435150D01*
X105208992Y-62601746D01*
X105191928Y-62775000D01*
X105191928Y-64225000D01*
X105208992Y-64398254D01*
X105259528Y-64564850D01*
X105341595Y-64718386D01*
X105452038Y-64852962D01*
X105586614Y-64963405D01*
X105740150Y-65045472D01*
X105906746Y-65096008D01*
X106080000Y-65113072D01*
X107280000Y-65113072D01*
X107453254Y-65096008D01*
X107619850Y-65045472D01*
X107773386Y-64963405D01*
X107907962Y-64852962D01*
X108018405Y-64718386D01*
X108072777Y-64616663D01*
X108124866Y-64680134D01*
X108350987Y-64865706D01*
X108608967Y-65003599D01*
X108888890Y-65088513D01*
X109180000Y-65117185D01*
X109471111Y-65088513D01*
X109751034Y-65003599D01*
X110009014Y-64865706D01*
X110235134Y-64680134D01*
X110420706Y-64454014D01*
X110430000Y-64436626D01*
X110439294Y-64454014D01*
X110545000Y-64582817D01*
X110545001Y-72069182D01*
X110439294Y-72197987D01*
X110430000Y-72215374D01*
X110420706Y-72197986D01*
X110235134Y-71971866D01*
X110009013Y-71786294D01*
X109751033Y-71648401D01*
X109471110Y-71563487D01*
X109180000Y-71534815D01*
X108888889Y-71563487D01*
X108608966Y-71648401D01*
X108350986Y-71786294D01*
X108124866Y-71971866D01*
X108072777Y-72035337D01*
X108018405Y-71933614D01*
X107907962Y-71799038D01*
X107773386Y-71688595D01*
X107619850Y-71606528D01*
X107453254Y-71555992D01*
X107280000Y-71538928D01*
X106080000Y-71538928D01*
X105906746Y-71555992D01*
X105740150Y-71606528D01*
X105586614Y-71688595D01*
X105452038Y-71799038D01*
X105341595Y-71933614D01*
X105259528Y-72087150D01*
X105208992Y-72253746D01*
X105191928Y-72427000D01*
X105191928Y-73877000D01*
X105208992Y-74050254D01*
X105259528Y-74216850D01*
X105341595Y-74370386D01*
X105452038Y-74504962D01*
X105586614Y-74615405D01*
X105740150Y-74697472D01*
X105906746Y-74748008D01*
X106080000Y-74765072D01*
X107280000Y-74765072D01*
X107453254Y-74748008D01*
X107619850Y-74697472D01*
X107773386Y-74615405D01*
X107907962Y-74504962D01*
X108018405Y-74370386D01*
X108072777Y-74268663D01*
X108124866Y-74332134D01*
X108350987Y-74517706D01*
X108608967Y-74655599D01*
X108888890Y-74740513D01*
X109180000Y-74769185D01*
X109471111Y-74740513D01*
X109751034Y-74655599D01*
X110009014Y-74517706D01*
X110235134Y-74332134D01*
X110420706Y-74106014D01*
X110430000Y-74088626D01*
X110439294Y-74106014D01*
X110545001Y-74234818D01*
X110545000Y-81721183D01*
X110439294Y-81849987D01*
X110430000Y-81867374D01*
X110420706Y-81849986D01*
X110235134Y-81623866D01*
X110009013Y-81438294D01*
X109751033Y-81300401D01*
X109471110Y-81215487D01*
X109180000Y-81186815D01*
X108888889Y-81215487D01*
X108608966Y-81300401D01*
X108350986Y-81438294D01*
X108124866Y-81623866D01*
X108072777Y-81687337D01*
X108018405Y-81585614D01*
X107907962Y-81451038D01*
X107773386Y-81340595D01*
X107619850Y-81258528D01*
X107453254Y-81207992D01*
X107280000Y-81190928D01*
X106080000Y-81190928D01*
X105906746Y-81207992D01*
X105740150Y-81258528D01*
X105586614Y-81340595D01*
X105452038Y-81451038D01*
X105341595Y-81585614D01*
X105259528Y-81739150D01*
X105208992Y-81905746D01*
X105191928Y-82079000D01*
X105191928Y-83529000D01*
X105208992Y-83702254D01*
X105259528Y-83868850D01*
X105341595Y-84022386D01*
X105452038Y-84156962D01*
X105586614Y-84267405D01*
X105740150Y-84349472D01*
X105906746Y-84400008D01*
X106080000Y-84417072D01*
X107280000Y-84417072D01*
X107453254Y-84400008D01*
X107619850Y-84349472D01*
X107773386Y-84267405D01*
X107907962Y-84156962D01*
X108018405Y-84022386D01*
X108072777Y-83920663D01*
X108124866Y-83984134D01*
X108350987Y-84169706D01*
X108608967Y-84307599D01*
X108888890Y-84392513D01*
X109180000Y-84421185D01*
X109471111Y-84392513D01*
X109751034Y-84307599D01*
X110009014Y-84169706D01*
X110235134Y-83984134D01*
X110420706Y-83758014D01*
X110430000Y-83740626D01*
X110439294Y-83758014D01*
X110545001Y-83886818D01*
X110545000Y-87003000D01*
X89276284Y-87003000D01*
X89074241Y-86868000D01*
X89306759Y-86712637D01*
X89506637Y-86512759D01*
X89663680Y-86277727D01*
X89771853Y-86016574D01*
X89827000Y-85739335D01*
X89827000Y-85456665D01*
X89771853Y-85179426D01*
X89663680Y-84918273D01*
X89506637Y-84683241D01*
X89306759Y-84483363D01*
X89074241Y-84328000D01*
X89306759Y-84172637D01*
X89506637Y-83972759D01*
X89663680Y-83737727D01*
X89771853Y-83476574D01*
X89827000Y-83199335D01*
X89827000Y-82916665D01*
X89771853Y-82639426D01*
X89663680Y-82378273D01*
X89506637Y-82143241D01*
X89306759Y-81943363D01*
X89074241Y-81788000D01*
X89306759Y-81632637D01*
X89506637Y-81432759D01*
X89663680Y-81197727D01*
X89771853Y-80936574D01*
X89827000Y-80659335D01*
X89827000Y-80376665D01*
X89771853Y-80099426D01*
X89663680Y-79838273D01*
X89506637Y-79603241D01*
X89306759Y-79403363D01*
X89074241Y-79248000D01*
X89306759Y-79092637D01*
X89506637Y-78892759D01*
X89663680Y-78657727D01*
X89771853Y-78396574D01*
X89827000Y-78119335D01*
X89827000Y-77836665D01*
X89771853Y-77559426D01*
X89663680Y-77298273D01*
X89506637Y-77063241D01*
X89306759Y-76863363D01*
X89074241Y-76708000D01*
X89306759Y-76552637D01*
X89506637Y-76352759D01*
X89663680Y-76117727D01*
X89771853Y-75856574D01*
X89827000Y-75579335D01*
X89827000Y-75296665D01*
X89771853Y-75019426D01*
X89663680Y-74758273D01*
X89506637Y-74523241D01*
X89306759Y-74323363D01*
X89074241Y-74168000D01*
X89306759Y-74012637D01*
X89506637Y-73812759D01*
X89663680Y-73577727D01*
X89771853Y-73316574D01*
X89827000Y-73039335D01*
X89827000Y-72756665D01*
X89771853Y-72479426D01*
X89663680Y-72218273D01*
X89506637Y-71983241D01*
X89306759Y-71783363D01*
X89074241Y-71628000D01*
X89306759Y-71472637D01*
X89506637Y-71272759D01*
X89663680Y-71037727D01*
X89771853Y-70776574D01*
X89827000Y-70499335D01*
X89827000Y-70216665D01*
X89771853Y-69939426D01*
X89663680Y-69678273D01*
X89506637Y-69443241D01*
X89306759Y-69243363D01*
X89074241Y-69088000D01*
X89306759Y-68932637D01*
X89506637Y-68732759D01*
X89663680Y-68497727D01*
X89771853Y-68236574D01*
X89827000Y-67959335D01*
X89827000Y-67676665D01*
X89771853Y-67399426D01*
X89663680Y-67138273D01*
X89506637Y-66903241D01*
X89306759Y-66703363D01*
X89074241Y-66548000D01*
X89306759Y-66392637D01*
X89506637Y-66192759D01*
X89663680Y-65957727D01*
X89771853Y-65696574D01*
X89827000Y-65419335D01*
X89827000Y-65136665D01*
X89771853Y-64859426D01*
X89663680Y-64598273D01*
X89506637Y-64363241D01*
X89306759Y-64163363D01*
X89074241Y-64008000D01*
X89276284Y-63873000D01*
X101735000Y-63873000D01*
X101735001Y-67541000D01*
X93179439Y-67541000D01*
X93064113Y-67552359D01*
X92916140Y-67597246D01*
X92779767Y-67670138D01*
X92660236Y-67768236D01*
X92562138Y-67887767D01*
X92489246Y-68024140D01*
X92444359Y-68172113D01*
X92429202Y-68326000D01*
X92444359Y-68479887D01*
X92489246Y-68627860D01*
X92562138Y-68764233D01*
X92660236Y-68883764D01*
X92779767Y-68981862D01*
X92916140Y-69054754D01*
X93064113Y-69099641D01*
X93179439Y-69111000D01*
X101735000Y-69111000D01*
X101735001Y-71572239D01*
X101735000Y-71572249D01*
X101735000Y-72935868D01*
X101299868Y-73371001D01*
X94534133Y-73371001D01*
X93981143Y-72818012D01*
X93851622Y-72711717D01*
X93654446Y-72606324D01*
X93440498Y-72541423D01*
X93218000Y-72519509D01*
X92995502Y-72541423D01*
X92781554Y-72606324D01*
X92584378Y-72711717D01*
X92411552Y-72853552D01*
X92269717Y-73026378D01*
X92164324Y-73223554D01*
X92099423Y-73437502D01*
X92077509Y-73660000D01*
X92099423Y-73882498D01*
X92164324Y-74096446D01*
X92269717Y-74293622D01*
X92376012Y-74423143D01*
X93222009Y-75269141D01*
X93257552Y-75312450D01*
X93430378Y-75454285D01*
X93627554Y-75559677D01*
X93841502Y-75624578D01*
X94064000Y-75646492D01*
X94119752Y-75641001D01*
X99029868Y-75641001D01*
X98239869Y-76431000D01*
X97960711Y-76431000D01*
X97941774Y-76412063D01*
X97772256Y-76298795D01*
X97583898Y-76220774D01*
X97383939Y-76181000D01*
X97180061Y-76181000D01*
X96980102Y-76220774D01*
X96791744Y-76298795D01*
X96622226Y-76412063D01*
X96603289Y-76431000D01*
X95928711Y-76431000D01*
X95909774Y-76412063D01*
X95740256Y-76298795D01*
X95551898Y-76220774D01*
X95351939Y-76181000D01*
X95148061Y-76181000D01*
X94948102Y-76220774D01*
X94759744Y-76298795D01*
X94590226Y-76412063D01*
X94446063Y-76556226D01*
X94332795Y-76725744D01*
X94254774Y-76914102D01*
X94215000Y-77114061D01*
X94215000Y-77317939D01*
X94254774Y-77517898D01*
X94332795Y-77706256D01*
X94446063Y-77875774D01*
X94590226Y-78019937D01*
X94759744Y-78133205D01*
X94948102Y-78211226D01*
X95148061Y-78251000D01*
X95351939Y-78251000D01*
X95551898Y-78211226D01*
X95740256Y-78133205D01*
X95909774Y-78019937D01*
X95928711Y-78001000D01*
X96603289Y-78001000D01*
X96622226Y-78019937D01*
X96791744Y-78133205D01*
X96980102Y-78211226D01*
X97180061Y-78251000D01*
X97383939Y-78251000D01*
X97583898Y-78211226D01*
X97772256Y-78133205D01*
X97941774Y-78019937D01*
X97960711Y-78001000D01*
X98235950Y-78001000D01*
X98253552Y-78022448D01*
X98426378Y-78164283D01*
X98623554Y-78269676D01*
X98837502Y-78334577D01*
X99060000Y-78356491D01*
X99282498Y-78334577D01*
X99496446Y-78269676D01*
X99693622Y-78164283D01*
X99823143Y-78057988D01*
X102533140Y-75347992D01*
X102576448Y-75312450D01*
X102611995Y-75269137D01*
X103633140Y-74247992D01*
X103676449Y-74212449D01*
X103818284Y-74039623D01*
X103923676Y-73842447D01*
X103988577Y-73628499D01*
X104005000Y-73461752D01*
X104005000Y-73461743D01*
X104010490Y-73406001D01*
X104005000Y-73350259D01*
X104005000Y-62539743D01*
X104010490Y-62484001D01*
X104005000Y-62428259D01*
X104005000Y-59491752D01*
X104010491Y-59436000D01*
X104005000Y-59380248D01*
X104005000Y-58890131D01*
X106849131Y-56046000D01*
X110779928Y-56046000D01*
X110779928Y-57746000D01*
X110792188Y-57870482D01*
X110828498Y-57990180D01*
X110887463Y-58100494D01*
X110966815Y-58197185D01*
X111063506Y-58276537D01*
X111173820Y-58335502D01*
X111293518Y-58371812D01*
X111418000Y-58384072D01*
X113118000Y-58384072D01*
X113242482Y-58371812D01*
X113362180Y-58335502D01*
X113472494Y-58276537D01*
X113569185Y-58197185D01*
X113648537Y-58100494D01*
X113707502Y-57990180D01*
X113729513Y-57917620D01*
X113861368Y-58049475D01*
X114104589Y-58211990D01*
X114374842Y-58323932D01*
X114661740Y-58381000D01*
X114954260Y-58381000D01*
X115241158Y-58323932D01*
X115511411Y-58211990D01*
X115754632Y-58049475D01*
X115961475Y-57842632D01*
X116123990Y-57599411D01*
X116235932Y-57329158D01*
X116293000Y-57042260D01*
X116293000Y-56749740D01*
X116235932Y-56462842D01*
X116123990Y-56192589D01*
X115961475Y-55949368D01*
X115754632Y-55742525D01*
X115511411Y-55580010D01*
X115241158Y-55468068D01*
X114954260Y-55411000D01*
X114661740Y-55411000D01*
X114374842Y-55468068D01*
X114104589Y-55580010D01*
X113861368Y-55742525D01*
X113729513Y-55874380D01*
X113707502Y-55801820D01*
X113648537Y-55691506D01*
X113569185Y-55594815D01*
X113472494Y-55515463D01*
X113362180Y-55456498D01*
X113242482Y-55420188D01*
X113118000Y-55407928D01*
X111418000Y-55407928D01*
X111293518Y-55420188D01*
X111173820Y-55456498D01*
X111063506Y-55515463D01*
X110966815Y-55594815D01*
X110887463Y-55691506D01*
X110828498Y-55801820D01*
X110792188Y-55921518D01*
X110779928Y-56046000D01*
X106849131Y-56046000D01*
X109943146Y-52951987D01*
X109986449Y-52916449D01*
X110035894Y-52856201D01*
X110128284Y-52743623D01*
X110233676Y-52546447D01*
X110298577Y-52332499D01*
X110299414Y-52324000D01*
X110315000Y-52165752D01*
X110320491Y-52110000D01*
X110315000Y-52054248D01*
X110315000Y-51882817D01*
X110420706Y-51754014D01*
X110430000Y-51736626D01*
X110439294Y-51754014D01*
X110624866Y-51980134D01*
X110850987Y-52165706D01*
X110920000Y-52202594D01*
X110920000Y-53105198D01*
X110450199Y-53575000D01*
X110388061Y-53575000D01*
X110188102Y-53614774D01*
X109999744Y-53692795D01*
X109830226Y-53806063D01*
X109686063Y-53950226D01*
X109572795Y-54119744D01*
X109494774Y-54308102D01*
X109455000Y-54508061D01*
X109455000Y-54711939D01*
X109494774Y-54911898D01*
X109572795Y-55100256D01*
X109686063Y-55269774D01*
X109830226Y-55413937D01*
X109999744Y-55527205D01*
X110188102Y-55605226D01*
X110388061Y-55645000D01*
X110591939Y-55645000D01*
X110791898Y-55605226D01*
X110980256Y-55527205D01*
X111149774Y-55413937D01*
X111293937Y-55269774D01*
X111407205Y-55100256D01*
X111485226Y-54911898D01*
X111525000Y-54711939D01*
X111525000Y-54649801D01*
X112191004Y-53983798D01*
X112220001Y-53960001D01*
X112313297Y-53846320D01*
X112314974Y-53844277D01*
X112385546Y-53712247D01*
X112395350Y-53679928D01*
X112429003Y-53568986D01*
X112440000Y-53457333D01*
X112440000Y-53457324D01*
X112443676Y-53420001D01*
X112440000Y-53382678D01*
X112440000Y-52202595D01*
X112509014Y-52165706D01*
X112735134Y-51980134D01*
X112920706Y-51754014D01*
X112930000Y-51736626D01*
X112939294Y-51754014D01*
X113124866Y-51980134D01*
X113350987Y-52165706D01*
X113608967Y-52303599D01*
X113888890Y-52388513D01*
X114180000Y-52417185D01*
X114471111Y-52388513D01*
X114751034Y-52303599D01*
X115009014Y-52165706D01*
X115235134Y-51980134D01*
X115420706Y-51754014D01*
X115558599Y-51496033D01*
X115643513Y-51216110D01*
X115665000Y-50997949D01*
X115665000Y-50602050D01*
X115643513Y-50383889D01*
X115558599Y-50103966D01*
X115420706Y-49845986D01*
X115235134Y-49619866D01*
X115009013Y-49434294D01*
X114751033Y-49296401D01*
X114471110Y-49211487D01*
X114180000Y-49182815D01*
X113888889Y-49211487D01*
X113745225Y-49255067D01*
X113238345Y-48748188D01*
X113213764Y-48718236D01*
X113094233Y-48620138D01*
X112957860Y-48547246D01*
X112809887Y-48502359D01*
X112694561Y-48491000D01*
X112694553Y-48491000D01*
X112656000Y-48487203D01*
X112617447Y-48491000D01*
X111621819Y-48491000D01*
X110210853Y-47080034D01*
X110237557Y-47015567D01*
X110277331Y-46815608D01*
X110277331Y-46611730D01*
X110237557Y-46411771D01*
X110159536Y-46223413D01*
X110046268Y-46053895D01*
X109902105Y-45909732D01*
X109732587Y-45796464D01*
X109544229Y-45718443D01*
X109344270Y-45678669D01*
X109140392Y-45678669D01*
X108940433Y-45718443D01*
X108752075Y-45796464D01*
X108706455Y-45826946D01*
X108694256Y-45818795D01*
X108505898Y-45740774D01*
X108305939Y-45701000D01*
X108102061Y-45701000D01*
X107902102Y-45740774D01*
X107713744Y-45818795D01*
X107544226Y-45932063D01*
X107400063Y-46076226D01*
X107286795Y-46245744D01*
X107208774Y-46434102D01*
X107169000Y-46634061D01*
X107169000Y-46837939D01*
X107208774Y-47037898D01*
X107286795Y-47226256D01*
X107400063Y-47395774D01*
X107424698Y-47420409D01*
X107430359Y-47477887D01*
X107475246Y-47625860D01*
X107548139Y-47762233D01*
X107571387Y-47790560D01*
X107621655Y-47851812D01*
X107621659Y-47851816D01*
X107646237Y-47881764D01*
X107676185Y-47906342D01*
X108973041Y-49203199D01*
X108888889Y-49211487D01*
X108608966Y-49296401D01*
X108350986Y-49434294D01*
X108130055Y-49615608D01*
X108119502Y-49580820D01*
X108060537Y-49470506D01*
X107981185Y-49373815D01*
X107884494Y-49294463D01*
X107774180Y-49235498D01*
X107654482Y-49199188D01*
X107530000Y-49186928D01*
X106965750Y-49190000D01*
X106807000Y-49348750D01*
X106807000Y-50673000D01*
X106827000Y-50673000D01*
X106827000Y-50927000D01*
X106807000Y-50927000D01*
X106807000Y-52251250D01*
X106965750Y-52410000D01*
X107273194Y-52411674D01*
X102106865Y-57578004D01*
X102063551Y-57613551D01*
X101921716Y-57786377D01*
X101839647Y-57939920D01*
X101816324Y-57983554D01*
X101751423Y-58197502D01*
X101741229Y-58301000D01*
X92941677Y-58301000D01*
X92941677Y-57224394D01*
X92925254Y-57057647D01*
X92860353Y-56843699D01*
X92754961Y-56646523D01*
X92613126Y-56473697D01*
X92440300Y-56331862D01*
X92243124Y-56226470D01*
X92029176Y-56161569D01*
X91806677Y-56139655D01*
X91584179Y-56161569D01*
X91370231Y-56226470D01*
X91173055Y-56331862D01*
X91000229Y-56473697D01*
X90858394Y-56646523D01*
X90753002Y-56843699D01*
X90688100Y-57057647D01*
X90671677Y-57224394D01*
X90671677Y-58730926D01*
X90666186Y-58786677D01*
X90671677Y-58842428D01*
X90688100Y-59009175D01*
X90753001Y-59223123D01*
X90858393Y-59420300D01*
X91000228Y-59593126D01*
X91043542Y-59628673D01*
X91614004Y-60199135D01*
X91649551Y-60242449D01*
X91822377Y-60384284D01*
X92019553Y-60489676D01*
X92233501Y-60554577D01*
X92400248Y-60571000D01*
X92400257Y-60571000D01*
X92455999Y-60576490D01*
X92511741Y-60571000D01*
X101735000Y-60571000D01*
X101735001Y-61603000D01*
X89276284Y-61603000D01*
X89074241Y-61468000D01*
X89306759Y-61312637D01*
X89506637Y-61112759D01*
X89663680Y-60877727D01*
X89771853Y-60616574D01*
X89827000Y-60339335D01*
X89827000Y-60056665D01*
X89771853Y-59779426D01*
X89663680Y-59518273D01*
X89506637Y-59283241D01*
X89306759Y-59083363D01*
X89071727Y-58926320D01*
X89061135Y-58921933D01*
X89247131Y-58810385D01*
X89455519Y-58621414D01*
X89623037Y-58395420D01*
X89743246Y-58141087D01*
X89783904Y-58007039D01*
X89661915Y-57785000D01*
X88519000Y-57785000D01*
X88519000Y-57805000D01*
X88265000Y-57805000D01*
X88265000Y-57785000D01*
X87122085Y-57785000D01*
X87000096Y-58007039D01*
X87040754Y-58141087D01*
X87160963Y-58395420D01*
X87328481Y-58621414D01*
X87536869Y-58810385D01*
X87722865Y-58921933D01*
X87712273Y-58926320D01*
X87477241Y-59083363D01*
X87277363Y-59283241D01*
X87120320Y-59518273D01*
X87012147Y-59779426D01*
X86957000Y-60056665D01*
X86957000Y-60339335D01*
X87012147Y-60616574D01*
X87120320Y-60877727D01*
X87277363Y-61112759D01*
X87477241Y-61312637D01*
X87709759Y-61468000D01*
X87477241Y-61623363D01*
X87277363Y-61823241D01*
X87120320Y-62058273D01*
X87012147Y-62319426D01*
X86957000Y-62596665D01*
X86957000Y-62879335D01*
X87012147Y-63156574D01*
X87120320Y-63417727D01*
X87277363Y-63652759D01*
X87477241Y-63852637D01*
X87709759Y-64008000D01*
X87477241Y-64163363D01*
X87277363Y-64363241D01*
X87120320Y-64598273D01*
X87012147Y-64859426D01*
X86957000Y-65136665D01*
X86957000Y-65419335D01*
X87012147Y-65696574D01*
X87120320Y-65957727D01*
X87277363Y-66192759D01*
X87477241Y-66392637D01*
X87709759Y-66548000D01*
X87477241Y-66703363D01*
X87277363Y-66903241D01*
X87120320Y-67138273D01*
X87012147Y-67399426D01*
X86957000Y-67676665D01*
X86957000Y-67959335D01*
X87012147Y-68236574D01*
X87120320Y-68497727D01*
X87277363Y-68732759D01*
X87477241Y-68932637D01*
X87709759Y-69088000D01*
X87477241Y-69243363D01*
X87277363Y-69443241D01*
X87120320Y-69678273D01*
X87012147Y-69939426D01*
X86957000Y-70216665D01*
X86957000Y-70499335D01*
X87012147Y-70776574D01*
X87120320Y-71037727D01*
X87277363Y-71272759D01*
X87477241Y-71472637D01*
X87709759Y-71628000D01*
X87477241Y-71783363D01*
X87277363Y-71983241D01*
X87120320Y-72218273D01*
X87012147Y-72479426D01*
X86957000Y-72756665D01*
X86957000Y-73039335D01*
X87012147Y-73316574D01*
X87120320Y-73577727D01*
X87277363Y-73812759D01*
X87477241Y-74012637D01*
X87709759Y-74168000D01*
X87477241Y-74323363D01*
X87277363Y-74523241D01*
X87120320Y-74758273D01*
X87012147Y-75019426D01*
X86957000Y-75296665D01*
X86957000Y-75579335D01*
X87012147Y-75856574D01*
X87120320Y-76117727D01*
X87277363Y-76352759D01*
X87477241Y-76552637D01*
X87709759Y-76708000D01*
X87477241Y-76863363D01*
X87277363Y-77063241D01*
X87120320Y-77298273D01*
X87012147Y-77559426D01*
X86957000Y-77836665D01*
X86957000Y-78119335D01*
X87012147Y-78396574D01*
X87120320Y-78657727D01*
X87277363Y-78892759D01*
X87477241Y-79092637D01*
X87709759Y-79248000D01*
X87477241Y-79403363D01*
X87277363Y-79603241D01*
X87120320Y-79838273D01*
X87012147Y-80099426D01*
X86957000Y-80376665D01*
X86957000Y-80659335D01*
X87012147Y-80936574D01*
X87120320Y-81197727D01*
X87277363Y-81432759D01*
X87477241Y-81632637D01*
X87709759Y-81788000D01*
X87477241Y-81943363D01*
X87277363Y-82143241D01*
X87120320Y-82378273D01*
X87012147Y-82639426D01*
X86957000Y-82916665D01*
X86957000Y-83199335D01*
X87012147Y-83476574D01*
X87120320Y-83737727D01*
X87277363Y-83972759D01*
X87477241Y-84172637D01*
X87709759Y-84328000D01*
X87477241Y-84483363D01*
X87277363Y-84683241D01*
X87120320Y-84918273D01*
X87012147Y-85179426D01*
X86957000Y-85456665D01*
X86957000Y-85739335D01*
X87012147Y-86016574D01*
X87120320Y-86277727D01*
X87277363Y-86512759D01*
X87477241Y-86712637D01*
X87709759Y-86868000D01*
X87477241Y-87023363D01*
X87277363Y-87223241D01*
X87120320Y-87458273D01*
X87012147Y-87719426D01*
X86957000Y-87996665D01*
X86957000Y-88132842D01*
X84509962Y-85685805D01*
X84509962Y-58408193D01*
X87120363Y-55797792D01*
X87277363Y-56032759D01*
X87477241Y-56232637D01*
X87712273Y-56389680D01*
X87722865Y-56394067D01*
X87536869Y-56505615D01*
X87328481Y-56694586D01*
X87160963Y-56920580D01*
X87040754Y-57174913D01*
X87000096Y-57308961D01*
X87122085Y-57531000D01*
X88265000Y-57531000D01*
X88265000Y-57511000D01*
X88519000Y-57511000D01*
X88519000Y-57531000D01*
X89661915Y-57531000D01*
X89783904Y-57308961D01*
X89743246Y-57174913D01*
X89623037Y-56920580D01*
X89455519Y-56694586D01*
X89247131Y-56505615D01*
X89061135Y-56394067D01*
X89071727Y-56389680D01*
X89306759Y-56232637D01*
X89506637Y-56032759D01*
X89663680Y-55797727D01*
X89771853Y-55536574D01*
X89827000Y-55259335D01*
X89827000Y-54976665D01*
X89771853Y-54699426D01*
X89663680Y-54438273D01*
X89506637Y-54203241D01*
X89306759Y-54003363D01*
X89071792Y-53846363D01*
X89809155Y-53109000D01*
X92836894Y-53109000D01*
X92875447Y-53112797D01*
X92914000Y-53109000D01*
X92914008Y-53109000D01*
X93029334Y-53097641D01*
X93177307Y-53052754D01*
X93313680Y-52979862D01*
X93433211Y-52881764D01*
X93457794Y-52851810D01*
X94534604Y-51775000D01*
X105191928Y-51775000D01*
X105204188Y-51899482D01*
X105240498Y-52019180D01*
X105299463Y-52129494D01*
X105378815Y-52226185D01*
X105475506Y-52305537D01*
X105585820Y-52364502D01*
X105705518Y-52400812D01*
X105830000Y-52413072D01*
X106394250Y-52410000D01*
X106553000Y-52251250D01*
X106553000Y-50927000D01*
X105353750Y-50927000D01*
X105195000Y-51085750D01*
X105191928Y-51775000D01*
X94534604Y-51775000D01*
X97337166Y-48972439D01*
X97363947Y-48972439D01*
X97563906Y-48932665D01*
X97752264Y-48854644D01*
X97921782Y-48741376D01*
X98065945Y-48597213D01*
X98179213Y-48427695D01*
X98257234Y-48239337D01*
X98297008Y-48039378D01*
X98297008Y-47835500D01*
X98257234Y-47635541D01*
X98179213Y-47447183D01*
X98065945Y-47277665D01*
X98063893Y-47275613D01*
X98096873Y-47226256D01*
X98174894Y-47037898D01*
X98201798Y-46902643D01*
X99181973Y-47882819D01*
X99206551Y-47912767D01*
X99236499Y-47937345D01*
X99236502Y-47937348D01*
X99252434Y-47950423D01*
X99326082Y-48010865D01*
X99462455Y-48083757D01*
X99610428Y-48128644D01*
X99630653Y-48130636D01*
X99526063Y-48235226D01*
X99412795Y-48404744D01*
X99334774Y-48593102D01*
X99295000Y-48793061D01*
X99295000Y-48996939D01*
X99334774Y-49196898D01*
X99412795Y-49385256D01*
X99526063Y-49554774D01*
X99670226Y-49698937D01*
X99839744Y-49812205D01*
X100028102Y-49890226D01*
X100228061Y-49930000D01*
X100431939Y-49930000D01*
X100631898Y-49890226D01*
X100789366Y-49825000D01*
X105191928Y-49825000D01*
X105195000Y-50514250D01*
X105353750Y-50673000D01*
X106553000Y-50673000D01*
X106553000Y-49348750D01*
X106394250Y-49190000D01*
X105830000Y-49186928D01*
X105705518Y-49199188D01*
X105585820Y-49235498D01*
X105475506Y-49294463D01*
X105378815Y-49373815D01*
X105299463Y-49470506D01*
X105240498Y-49580820D01*
X105204188Y-49700518D01*
X105191928Y-49825000D01*
X100789366Y-49825000D01*
X100820256Y-49812205D01*
X100989774Y-49698937D01*
X101133937Y-49554774D01*
X101247205Y-49385256D01*
X101325226Y-49196898D01*
X101365000Y-48996939D01*
X101365000Y-48970157D01*
X101607812Y-48727345D01*
X101637765Y-48702763D01*
X101735863Y-48583232D01*
X101808755Y-48446859D01*
X101820585Y-48407862D01*
X101853643Y-48298886D01*
X101861021Y-48223973D01*
X101865001Y-48183560D01*
X101865001Y-48183555D01*
X101868798Y-48144999D01*
X101865001Y-48106443D01*
X101865001Y-46033555D01*
X101868798Y-45994999D01*
X101865001Y-45956443D01*
X101865001Y-45956438D01*
X101860401Y-45909732D01*
X101853643Y-45841112D01*
X101808755Y-45693139D01*
X101801021Y-45678669D01*
X101735863Y-45556766D01*
X101637765Y-45437235D01*
X101607811Y-45412652D01*
X100653328Y-44458169D01*
X100628745Y-44428215D01*
X100509214Y-44330117D01*
X100372841Y-44257225D01*
X100224868Y-44212338D01*
X100109542Y-44200979D01*
X100109534Y-44200979D01*
X100070981Y-44197182D01*
X100032428Y-44200979D01*
X96443999Y-44200979D01*
X96405446Y-44197182D01*
X96366893Y-44200979D01*
X96366886Y-44200979D01*
X96265937Y-44210922D01*
X96251559Y-44212338D01*
X96217119Y-44222785D01*
X96103587Y-44257225D01*
X95967214Y-44330117D01*
X95895200Y-44389218D01*
X95877634Y-44403634D01*
X95877631Y-44403637D01*
X95847683Y-44428215D01*
X95823105Y-44458163D01*
X94476180Y-45805089D01*
X94446226Y-45829672D01*
X94348128Y-45949204D01*
X94275236Y-46085577D01*
X94230349Y-46233550D01*
X94218990Y-46348876D01*
X94218990Y-46348883D01*
X94215193Y-46387436D01*
X94218990Y-46425989D01*
X94218990Y-46711733D01*
X91423723Y-49507000D01*
X81826556Y-49507000D01*
X81788000Y-49503203D01*
X81749444Y-49507000D01*
X81749439Y-49507000D01*
X81709026Y-49510980D01*
X81634113Y-49518358D01*
X81486140Y-49563246D01*
X81349767Y-49636138D01*
X81321290Y-49659509D01*
X81260187Y-49709655D01*
X81260184Y-49709658D01*
X81230236Y-49734236D01*
X81205658Y-49764184D01*
X76180190Y-54789653D01*
X76150236Y-54814236D01*
X76052138Y-54933768D01*
X75979246Y-55070141D01*
X75934359Y-55218114D01*
X75923000Y-55333440D01*
X75923000Y-55333447D01*
X75919203Y-55372000D01*
X75923000Y-55410553D01*
X75923001Y-61396841D01*
X74587000Y-62732843D01*
X74587000Y-62610998D01*
X74421916Y-62610998D01*
X74543904Y-62388961D01*
X74503246Y-62254913D01*
X74383037Y-62000580D01*
X74215519Y-61774586D01*
X74007131Y-61585615D01*
X73821135Y-61474067D01*
X73831727Y-61469680D01*
X74066759Y-61312637D01*
X74266637Y-61112759D01*
X74423680Y-60877727D01*
X74531853Y-60616574D01*
X74587000Y-60339335D01*
X74587000Y-60056665D01*
X74531853Y-59779426D01*
X74423680Y-59518273D01*
X74266637Y-59283241D01*
X74066759Y-59083363D01*
X73834241Y-58928000D01*
X74066759Y-58772637D01*
X74266637Y-58572759D01*
X74423680Y-58337727D01*
X74531853Y-58076574D01*
X74587000Y-57799335D01*
X74587000Y-57516665D01*
X74531853Y-57239426D01*
X74423680Y-56978273D01*
X74266637Y-56743241D01*
X74068039Y-56544643D01*
X74076482Y-56543812D01*
X74196180Y-56507502D01*
X74306494Y-56448537D01*
X74403185Y-56369185D01*
X74482537Y-56272494D01*
X74541502Y-56162180D01*
X74577812Y-56042482D01*
X74590072Y-55918000D01*
X74590072Y-54318000D01*
X74577812Y-54193518D01*
X74541502Y-54073820D01*
X74482537Y-53963506D01*
X74403185Y-53866815D01*
X74306494Y-53787463D01*
X74196180Y-53728498D01*
X74076482Y-53692188D01*
X73952000Y-53679928D01*
X72352000Y-53679928D01*
X72227518Y-53692188D01*
X72107820Y-53728498D01*
X71997506Y-53787463D01*
X71900815Y-53866815D01*
X71821463Y-53963506D01*
X71762498Y-54073820D01*
X71726188Y-54193518D01*
X71713928Y-54318000D01*
X70660000Y-54318000D01*
X70660000Y-44032278D01*
X70684748Y-43779872D01*
X71765000Y-43779872D01*
X71765000Y-44220128D01*
X71850890Y-44651925D01*
X72019369Y-45058669D01*
X72263962Y-45424729D01*
X72575271Y-45736038D01*
X72941331Y-45980631D01*
X73348075Y-46149110D01*
X73779872Y-46235000D01*
X74220128Y-46235000D01*
X74651925Y-46149110D01*
X75058669Y-45980631D01*
X75424729Y-45736038D01*
X75736038Y-45424729D01*
X75980631Y-45058669D01*
X76149110Y-44651925D01*
X76235000Y-44220128D01*
X76235000Y-43779872D01*
X113765000Y-43779872D01*
X113765000Y-44220128D01*
X113850890Y-44651925D01*
X114019369Y-45058669D01*
X114263962Y-45424729D01*
X114575271Y-45736038D01*
X114941331Y-45980631D01*
X115348075Y-46149110D01*
X115779872Y-46235000D01*
X116220128Y-46235000D01*
X116651925Y-46149110D01*
X117058669Y-45980631D01*
X117424729Y-45736038D01*
X117736038Y-45424729D01*
X117980631Y-45058669D01*
X118149110Y-44651925D01*
X118235000Y-44220128D01*
X118235000Y-43779872D01*
X118149110Y-43348075D01*
X117980631Y-42941331D01*
X117736038Y-42575271D01*
X117424729Y-42263962D01*
X117058669Y-42019369D01*
X116651925Y-41850890D01*
X116220128Y-41765000D01*
X115779872Y-41765000D01*
X115348075Y-41850890D01*
X114941331Y-42019369D01*
X114575271Y-42263962D01*
X114263962Y-42575271D01*
X114019369Y-42941331D01*
X113850890Y-43348075D01*
X113765000Y-43779872D01*
X76235000Y-43779872D01*
X76149110Y-43348075D01*
X75980631Y-42941331D01*
X75736038Y-42575271D01*
X75424729Y-42263962D01*
X75058669Y-42019369D01*
X74651925Y-41850890D01*
X74220128Y-41765000D01*
X73779872Y-41765000D01*
X73348075Y-41850890D01*
X72941331Y-42019369D01*
X72575271Y-42263962D01*
X72263962Y-42575271D01*
X72019369Y-42941331D01*
X71850890Y-43348075D01*
X71765000Y-43779872D01*
X70684748Y-43779872D01*
X70726714Y-43351874D01*
X70914943Y-42728428D01*
X71220681Y-42153421D01*
X71632279Y-41648753D01*
X72134067Y-41233638D01*
X72706924Y-40923895D01*
X73329039Y-40731318D01*
X74007584Y-40660000D01*
X115967722Y-40660000D01*
X116648126Y-40726714D01*
G37*
%TD.AperFunction*%
%TD*%
M02*
