%TF.GenerationSoftware,KiCad,Pcbnew,(5.1.9)-1*%
%TF.CreationDate,2021-07-30T23:28:39+09:30*%
%TF.ProjectId,tyre_temp_sense,74797265-5f74-4656-9d70-5f73656e7365,rev?*%
%TF.SameCoordinates,Original*%
%TF.FileFunction,Soldermask,Bot*%
%TF.FilePolarity,Negative*%
%FSLAX46Y46*%
G04 Gerber Fmt 4.6, Leading zero omitted, Abs format (unit mm)*
G04 Created by KiCad (PCBNEW (5.1.9)-1) date 2021-07-30 23:28:39*
%MOMM*%
%LPD*%
G01*
G04 APERTURE LIST*
%ADD10O,1.600000X1.600000*%
%ADD11R,1.600000X1.600000*%
%ADD12O,1.700000X1.700000*%
%ADD13R,1.700000X1.700000*%
%ADD14C,3.200000*%
%ADD15O,1.700000X1.950000*%
G04 APERTURE END LIST*
D10*
%TO.C,A1*%
X88392000Y-90678000D03*
X73152000Y-90678000D03*
X88392000Y-55118000D03*
X73152000Y-88138000D03*
X88392000Y-57658000D03*
X73152000Y-85598000D03*
X88392000Y-60198000D03*
X73152000Y-83058000D03*
X88392000Y-62738000D03*
X73152000Y-80518000D03*
X88392000Y-65278000D03*
X73152000Y-77978000D03*
X88392000Y-67818000D03*
X73152000Y-75438000D03*
X88392000Y-70358000D03*
X73152000Y-72898000D03*
X88392000Y-72898000D03*
X73152000Y-70358000D03*
X88392000Y-75438000D03*
X73152000Y-67818000D03*
X88392000Y-77978000D03*
X73152000Y-65278000D03*
X88392000Y-80518000D03*
X73152000Y-62738000D03*
X88392000Y-83058000D03*
X73152000Y-60198000D03*
X88392000Y-85598000D03*
X73152000Y-57658000D03*
X88392000Y-88138000D03*
D11*
X73152000Y-55118000D03*
%TD*%
D12*
%TO.C,J9*%
X97155000Y-101600000D03*
X97155000Y-99060000D03*
X97155000Y-96520000D03*
D13*
X97155000Y-93980000D03*
%TD*%
D12*
%TO.C,J3*%
X93345000Y-101600000D03*
X93345000Y-99060000D03*
X93345000Y-96520000D03*
D13*
X93345000Y-93980000D03*
%TD*%
D12*
%TO.C,J2*%
X100965000Y-101600000D03*
X100965000Y-99060000D03*
X100965000Y-96520000D03*
D13*
X100965000Y-93980000D03*
%TD*%
D14*
%TO.C,REF\u002A\u002A*%
X116000000Y-101000000D03*
%TD*%
%TO.C,REF\u002A\u002A*%
X116000000Y-44000000D03*
%TD*%
%TO.C,REF\u002A\u002A*%
X74000000Y-44000000D03*
%TD*%
%TO.C,REF\u002A\u002A*%
X74000000Y-101000000D03*
%TD*%
D12*
%TO.C,J8*%
X114808000Y-56896000D03*
D13*
X112268000Y-56896000D03*
%TD*%
D15*
%TO.C,J7*%
X114180000Y-63500000D03*
X111680000Y-63500000D03*
X109180000Y-63500000D03*
G36*
G01*
X105830000Y-64225000D02*
X105830000Y-62775000D01*
G75*
G02*
X106080000Y-62525000I250000J0D01*
G01*
X107280000Y-62525000D01*
G75*
G02*
X107530000Y-62775000I0J-250000D01*
G01*
X107530000Y-64225000D01*
G75*
G02*
X107280000Y-64475000I-250000J0D01*
G01*
X106080000Y-64475000D01*
G75*
G02*
X105830000Y-64225000I0J250000D01*
G01*
G37*
%TD*%
%TO.C,J6*%
X114180000Y-73152000D03*
X111680000Y-73152000D03*
X109180000Y-73152000D03*
G36*
G01*
X105830000Y-73877000D02*
X105830000Y-72427000D01*
G75*
G02*
X106080000Y-72177000I250000J0D01*
G01*
X107280000Y-72177000D01*
G75*
G02*
X107530000Y-72427000I0J-250000D01*
G01*
X107530000Y-73877000D01*
G75*
G02*
X107280000Y-74127000I-250000J0D01*
G01*
X106080000Y-74127000D01*
G75*
G02*
X105830000Y-73877000I0J250000D01*
G01*
G37*
%TD*%
%TO.C,J5*%
X114180000Y-82804000D03*
X111680000Y-82804000D03*
X109180000Y-82804000D03*
G36*
G01*
X105830000Y-83529000D02*
X105830000Y-82079000D01*
G75*
G02*
X106080000Y-81829000I250000J0D01*
G01*
X107280000Y-81829000D01*
G75*
G02*
X107530000Y-82079000I0J-250000D01*
G01*
X107530000Y-83529000D01*
G75*
G02*
X107280000Y-83779000I-250000J0D01*
G01*
X106080000Y-83779000D01*
G75*
G02*
X105830000Y-83529000I0J250000D01*
G01*
G37*
%TD*%
%TO.C,J4*%
X114180000Y-92456000D03*
X111680000Y-92456000D03*
X109180000Y-92456000D03*
G36*
G01*
X105830000Y-93181000D02*
X105830000Y-91731000D01*
G75*
G02*
X106080000Y-91481000I250000J0D01*
G01*
X107280000Y-91481000D01*
G75*
G02*
X107530000Y-91731000I0J-250000D01*
G01*
X107530000Y-93181000D01*
G75*
G02*
X107280000Y-93431000I-250000J0D01*
G01*
X106080000Y-93431000D01*
G75*
G02*
X105830000Y-93181000I0J250000D01*
G01*
G37*
%TD*%
%TO.C,J1*%
X114180000Y-50800000D03*
X111680000Y-50800000D03*
X109180000Y-50800000D03*
G36*
G01*
X105830000Y-51525000D02*
X105830000Y-50075000D01*
G75*
G02*
X106080000Y-49825000I250000J0D01*
G01*
X107280000Y-49825000D01*
G75*
G02*
X107530000Y-50075000I0J-250000D01*
G01*
X107530000Y-51525000D01*
G75*
G02*
X107280000Y-51775000I-250000J0D01*
G01*
X106080000Y-51775000D01*
G75*
G02*
X105830000Y-51525000I0J250000D01*
G01*
G37*
%TD*%
M02*
