%TF.GenerationSoftware,KiCad,Pcbnew,(5.1.9)-1*%
%TF.CreationDate,2021-08-01T22:25:33+09:30*%
%TF.ProjectId,tyre_temp_sense,74797265-5f74-4656-9d70-5f73656e7365,rev?*%
%TF.SameCoordinates,Original*%
%TF.FileFunction,Legend,Top*%
%TF.FilePolarity,Positive*%
%FSLAX46Y46*%
G04 Gerber Fmt 4.6, Leading zero omitted, Abs format (unit mm)*
G04 Created by KiCad (PCBNEW (5.1.9)-1) date 2021-08-01 22:25:33*
%MOMM*%
%LPD*%
G01*
G04 APERTURE LIST*
%ADD10C,0.120000*%
%ADD11C,0.150000*%
%ADD12C,0.100000*%
G04 APERTURE END LIST*
D10*
X114510499Y-86930000D02*
G75*
G03*
X114510499Y-86930000I-100499J0D01*
G01*
X97417703Y-68040000D02*
G75*
G03*
X97417703Y-68040000I-107703J0D01*
G01*
X118500454Y-77870000D02*
G75*
G03*
X118500454Y-77870000I-110454J0D01*
G01*
D11*
X122407023Y-67957142D02*
X122359404Y-68004761D01*
X122216547Y-68052380D01*
X122121309Y-68052380D01*
X121978452Y-68004761D01*
X121883214Y-67909523D01*
X121835595Y-67814285D01*
X121787976Y-67623809D01*
X121787976Y-67480952D01*
X121835595Y-67290476D01*
X121883214Y-67195238D01*
X121978452Y-67100000D01*
X122121309Y-67052380D01*
X122216547Y-67052380D01*
X122359404Y-67100000D01*
X122407023Y-67147619D01*
X122787976Y-67766666D02*
X123264166Y-67766666D01*
X122692738Y-68052380D02*
X123026071Y-67052380D01*
X123359404Y-68052380D01*
X123692738Y-68052380D02*
X123692738Y-67052380D01*
X124264166Y-68052380D01*
X124264166Y-67052380D01*
X122645119Y-69702380D02*
X122597500Y-69702380D01*
X122502261Y-69654761D01*
X122359404Y-69511904D01*
X122121309Y-69226190D01*
X122026071Y-69083333D01*
X121978452Y-68940476D01*
X121978452Y-68845238D01*
X122026071Y-68750000D01*
X122121309Y-68702380D01*
X122168928Y-68702380D01*
X122264166Y-68750000D01*
X122311785Y-68845238D01*
X122311785Y-68892857D01*
X122264166Y-68988095D01*
X122216547Y-69035714D01*
X121930833Y-69226190D01*
X121883214Y-69273809D01*
X121835595Y-69369047D01*
X121835595Y-69511904D01*
X121883214Y-69607142D01*
X121930833Y-69654761D01*
X122026071Y-69702380D01*
X122168928Y-69702380D01*
X122264166Y-69654761D01*
X122311785Y-69607142D01*
X122454642Y-69416666D01*
X122502261Y-69273809D01*
X122502261Y-69178571D01*
X121835595Y-71352380D02*
X121835595Y-70352380D01*
X122216547Y-70352380D01*
X122311785Y-70400000D01*
X122359404Y-70447619D01*
X122407023Y-70542857D01*
X122407023Y-70685714D01*
X122359404Y-70780952D01*
X122311785Y-70828571D01*
X122216547Y-70876190D01*
X121835595Y-70876190D01*
X123026071Y-70352380D02*
X123216547Y-70352380D01*
X123311785Y-70400000D01*
X123407023Y-70495238D01*
X123454642Y-70685714D01*
X123454642Y-71019047D01*
X123407023Y-71209523D01*
X123311785Y-71304761D01*
X123216547Y-71352380D01*
X123026071Y-71352380D01*
X122930833Y-71304761D01*
X122835595Y-71209523D01*
X122787976Y-71019047D01*
X122787976Y-70685714D01*
X122835595Y-70495238D01*
X122930833Y-70400000D01*
X123026071Y-70352380D01*
X123787976Y-70352380D02*
X124026071Y-71352380D01*
X124216547Y-70638095D01*
X124407023Y-71352380D01*
X124645119Y-70352380D01*
X125026071Y-70828571D02*
X125359404Y-70828571D01*
X125502261Y-71352380D02*
X125026071Y-71352380D01*
X125026071Y-70352380D01*
X125502261Y-70352380D01*
X126502261Y-71352380D02*
X126168928Y-70876190D01*
X125930833Y-71352380D02*
X125930833Y-70352380D01*
X126311785Y-70352380D01*
X126407023Y-70400000D01*
X126454642Y-70447619D01*
X126502261Y-70542857D01*
X126502261Y-70685714D01*
X126454642Y-70780952D01*
X126407023Y-70828571D01*
X126311785Y-70876190D01*
X125930833Y-70876190D01*
X123857142Y-85595238D02*
X123904761Y-85642857D01*
X123952380Y-85785714D01*
X123952380Y-85880952D01*
X123904761Y-86023809D01*
X123809523Y-86119047D01*
X123714285Y-86166666D01*
X123523809Y-86214285D01*
X123380952Y-86214285D01*
X123190476Y-86166666D01*
X123095238Y-86119047D01*
X123000000Y-86023809D01*
X122952380Y-85880952D01*
X122952380Y-85785714D01*
X123000000Y-85642857D01*
X123047619Y-85595238D01*
X123666666Y-85214285D02*
X123666666Y-84738095D01*
X123952380Y-85309523D02*
X122952380Y-84976190D01*
X123952380Y-84642857D01*
X123952380Y-84309523D02*
X122952380Y-84309523D01*
X123952380Y-83738095D01*
X122952380Y-83738095D01*
X123952380Y-83261904D02*
X122952380Y-83261904D01*
X123333333Y-83261904D02*
X123285714Y-83166666D01*
X123285714Y-82976190D01*
X123333333Y-82880952D01*
X123380952Y-82833333D01*
X123476190Y-82785714D01*
X123761904Y-82785714D01*
X123857142Y-82833333D01*
X123904761Y-82880952D01*
X123952380Y-82976190D01*
X123952380Y-83166666D01*
X123904761Y-83261904D01*
X123952380Y-82214285D02*
X123904761Y-82309523D01*
X123857142Y-82357142D01*
X123761904Y-82404761D01*
X123476190Y-82404761D01*
X123380952Y-82357142D01*
X123333333Y-82309523D01*
X123285714Y-82214285D01*
X123285714Y-82071428D01*
X123333333Y-81976190D01*
X123380952Y-81928571D01*
X123476190Y-81880952D01*
X123761904Y-81880952D01*
X123857142Y-81928571D01*
X123904761Y-81976190D01*
X123952380Y-82071428D01*
X123952380Y-82214285D01*
X123952380Y-81309523D02*
X123904761Y-81404761D01*
X123857142Y-81452380D01*
X123761904Y-81500000D01*
X123476190Y-81500000D01*
X123380952Y-81452380D01*
X123333333Y-81404761D01*
X123285714Y-81309523D01*
X123285714Y-81166666D01*
X123333333Y-81071428D01*
X123380952Y-81023809D01*
X123476190Y-80976190D01*
X123761904Y-80976190D01*
X123857142Y-81023809D01*
X123904761Y-81071428D01*
X123952380Y-81166666D01*
X123952380Y-81309523D01*
X123904761Y-80595238D02*
X123952380Y-80500000D01*
X123952380Y-80309523D01*
X123904761Y-80214285D01*
X123809523Y-80166666D01*
X123761904Y-80166666D01*
X123666666Y-80214285D01*
X123619047Y-80309523D01*
X123619047Y-80452380D01*
X123571428Y-80547619D01*
X123476190Y-80595238D01*
X123428571Y-80595238D01*
X123333333Y-80547619D01*
X123285714Y-80452380D01*
X123285714Y-80309523D01*
X123333333Y-80214285D01*
X122952380Y-79071428D02*
X122952380Y-78404761D01*
X123952380Y-79071428D01*
X123952380Y-78404761D01*
X123952380Y-77880952D02*
X123904761Y-77976190D01*
X123857142Y-78023809D01*
X123761904Y-78071428D01*
X123476190Y-78071428D01*
X123380952Y-78023809D01*
X123333333Y-77976190D01*
X123285714Y-77880952D01*
X123285714Y-77738095D01*
X123333333Y-77642857D01*
X123380952Y-77595238D01*
X123476190Y-77547619D01*
X123761904Y-77547619D01*
X123857142Y-77595238D01*
X123904761Y-77642857D01*
X123952380Y-77738095D01*
X123952380Y-77880952D01*
X123285714Y-77119047D02*
X123952380Y-77119047D01*
X123380952Y-77119047D02*
X123333333Y-77071428D01*
X123285714Y-76976190D01*
X123285714Y-76833333D01*
X123333333Y-76738095D01*
X123428571Y-76690476D01*
X123952380Y-76690476D01*
X123904761Y-75833333D02*
X123952380Y-75928571D01*
X123952380Y-76119047D01*
X123904761Y-76214285D01*
X123809523Y-76261904D01*
X123428571Y-76261904D01*
X123333333Y-76214285D01*
X123285714Y-76119047D01*
X123285714Y-75928571D01*
X123333333Y-75833333D01*
X123428571Y-75785714D01*
X123523809Y-75785714D01*
X123619047Y-76261904D01*
X66037976Y-88091666D02*
X66514166Y-88091666D01*
X65942738Y-88377380D02*
X66276071Y-87377380D01*
X66609404Y-88377380D01*
X66942738Y-87377380D02*
X66942738Y-88186904D01*
X66990357Y-88282142D01*
X67037976Y-88329761D01*
X67133214Y-88377380D01*
X67323690Y-88377380D01*
X67418928Y-88329761D01*
X67466547Y-88282142D01*
X67514166Y-88186904D01*
X67514166Y-87377380D01*
X67990357Y-88377380D02*
X67990357Y-87377380D01*
X68323690Y-88091666D01*
X68657023Y-87377380D01*
X68657023Y-88377380D01*
X68990357Y-87377380D02*
X69561785Y-87377380D01*
X69276071Y-88377380D02*
X69276071Y-87377380D01*
X70609404Y-87472619D02*
X70657023Y-87425000D01*
X70752261Y-87377380D01*
X70990357Y-87377380D01*
X71085595Y-87425000D01*
X71133214Y-87472619D01*
X71180833Y-87567857D01*
X71180833Y-87663095D01*
X71133214Y-87805952D01*
X70561785Y-88377380D01*
X71180833Y-88377380D01*
X71799880Y-87377380D02*
X71895119Y-87377380D01*
X71990357Y-87425000D01*
X72037976Y-87472619D01*
X72085595Y-87567857D01*
X72133214Y-87758333D01*
X72133214Y-87996428D01*
X72085595Y-88186904D01*
X72037976Y-88282142D01*
X71990357Y-88329761D01*
X71895119Y-88377380D01*
X71799880Y-88377380D01*
X71704642Y-88329761D01*
X71657023Y-88282142D01*
X71609404Y-88186904D01*
X71561785Y-87996428D01*
X71561785Y-87758333D01*
X71609404Y-87567857D01*
X71657023Y-87472619D01*
X71704642Y-87425000D01*
X71799880Y-87377380D01*
X72514166Y-87472619D02*
X72561785Y-87425000D01*
X72657023Y-87377380D01*
X72895119Y-87377380D01*
X72990357Y-87425000D01*
X73037976Y-87472619D01*
X73085595Y-87567857D01*
X73085595Y-87663095D01*
X73037976Y-87805952D01*
X72466547Y-88377380D01*
X73085595Y-88377380D01*
X74037976Y-88377380D02*
X73466547Y-88377380D01*
X73752261Y-88377380D02*
X73752261Y-87377380D01*
X73657023Y-87520238D01*
X73561785Y-87615476D01*
X73466547Y-87663095D01*
X75228452Y-87996428D02*
X75990357Y-87996428D01*
X77561785Y-87853571D02*
X77704642Y-87901190D01*
X77752261Y-87948809D01*
X77799880Y-88044047D01*
X77799880Y-88186904D01*
X77752261Y-88282142D01*
X77704642Y-88329761D01*
X77609404Y-88377380D01*
X77228452Y-88377380D01*
X77228452Y-87377380D01*
X77561785Y-87377380D01*
X77657023Y-87425000D01*
X77704642Y-87472619D01*
X77752261Y-87567857D01*
X77752261Y-87663095D01*
X77704642Y-87758333D01*
X77657023Y-87805952D01*
X77561785Y-87853571D01*
X77228452Y-87853571D01*
X78228452Y-88377380D02*
X78228452Y-87710714D01*
X78228452Y-87901190D02*
X78276071Y-87805952D01*
X78323690Y-87758333D01*
X78418928Y-87710714D01*
X78514166Y-87710714D01*
X78752261Y-87710714D02*
X78990357Y-88377380D01*
X79228452Y-87710714D02*
X78990357Y-88377380D01*
X78895119Y-88615476D01*
X78847500Y-88663095D01*
X78752261Y-88710714D01*
X80037976Y-88329761D02*
X79942738Y-88377380D01*
X79752261Y-88377380D01*
X79657023Y-88329761D01*
X79609404Y-88282142D01*
X79561785Y-88186904D01*
X79561785Y-87901190D01*
X79609404Y-87805952D01*
X79657023Y-87758333D01*
X79752261Y-87710714D01*
X79942738Y-87710714D01*
X80037976Y-87758333D01*
X80847500Y-88329761D02*
X80752261Y-88377380D01*
X80561785Y-88377380D01*
X80466547Y-88329761D01*
X80418928Y-88234523D01*
X80418928Y-87853571D01*
X80466547Y-87758333D01*
X80561785Y-87710714D01*
X80752261Y-87710714D01*
X80847500Y-87758333D01*
X80895119Y-87853571D01*
X80895119Y-87948809D01*
X80418928Y-88044047D01*
X82657023Y-88282142D02*
X82609404Y-88329761D01*
X82466547Y-88377380D01*
X82371309Y-88377380D01*
X82228452Y-88329761D01*
X82133214Y-88234523D01*
X82085595Y-88139285D01*
X82037976Y-87948809D01*
X82037976Y-87805952D01*
X82085595Y-87615476D01*
X82133214Y-87520238D01*
X82228452Y-87425000D01*
X82371309Y-87377380D01*
X82466547Y-87377380D01*
X82609404Y-87425000D01*
X82657023Y-87472619D01*
X83085595Y-88377380D02*
X83085595Y-87377380D01*
X83514166Y-88377380D02*
X83514166Y-87853571D01*
X83466547Y-87758333D01*
X83371309Y-87710714D01*
X83228452Y-87710714D01*
X83133214Y-87758333D01*
X83085595Y-87805952D01*
X84418928Y-87710714D02*
X84418928Y-88377380D01*
X83990357Y-87710714D02*
X83990357Y-88234523D01*
X84037976Y-88329761D01*
X84133214Y-88377380D01*
X84276071Y-88377380D01*
X84371309Y-88329761D01*
X84418928Y-88282142D01*
X84895119Y-87710714D02*
X84895119Y-88377380D01*
X84895119Y-87805952D02*
X84942738Y-87758333D01*
X85037976Y-87710714D01*
X85180833Y-87710714D01*
X85276071Y-87758333D01*
X85323690Y-87853571D01*
X85323690Y-88377380D01*
X86228452Y-87710714D02*
X86228452Y-88520238D01*
X86180833Y-88615476D01*
X86133214Y-88663095D01*
X86037976Y-88710714D01*
X85895119Y-88710714D01*
X85799880Y-88663095D01*
X86228452Y-88329761D02*
X86133214Y-88377380D01*
X85942738Y-88377380D01*
X85847500Y-88329761D01*
X85799880Y-88282142D01*
X85752261Y-88186904D01*
X85752261Y-87901190D01*
X85799880Y-87805952D01*
X85847500Y-87758333D01*
X85942738Y-87710714D01*
X86133214Y-87710714D01*
X86228452Y-87758333D01*
X65942738Y-89027380D02*
X66514166Y-89027380D01*
X66228452Y-90027380D02*
X66228452Y-89027380D01*
X66752261Y-89360714D02*
X66990357Y-90027380D01*
X67228452Y-89360714D02*
X66990357Y-90027380D01*
X66895119Y-90265476D01*
X66847500Y-90313095D01*
X66752261Y-90360714D01*
X67609404Y-90027380D02*
X67609404Y-89360714D01*
X67609404Y-89551190D02*
X67657023Y-89455952D01*
X67704642Y-89408333D01*
X67799880Y-89360714D01*
X67895119Y-89360714D01*
X68609404Y-89979761D02*
X68514166Y-90027380D01*
X68323690Y-90027380D01*
X68228452Y-89979761D01*
X68180833Y-89884523D01*
X68180833Y-89503571D01*
X68228452Y-89408333D01*
X68323690Y-89360714D01*
X68514166Y-89360714D01*
X68609404Y-89408333D01*
X68657023Y-89503571D01*
X68657023Y-89598809D01*
X68180833Y-89694047D01*
X69704642Y-89027380D02*
X70276071Y-89027380D01*
X69990357Y-90027380D02*
X69990357Y-89027380D01*
X70990357Y-89979761D02*
X70895119Y-90027380D01*
X70704642Y-90027380D01*
X70609404Y-89979761D01*
X70561785Y-89884523D01*
X70561785Y-89503571D01*
X70609404Y-89408333D01*
X70704642Y-89360714D01*
X70895119Y-89360714D01*
X70990357Y-89408333D01*
X71037976Y-89503571D01*
X71037976Y-89598809D01*
X70561785Y-89694047D01*
X71466547Y-90027380D02*
X71466547Y-89360714D01*
X71466547Y-89455952D02*
X71514166Y-89408333D01*
X71609404Y-89360714D01*
X71752261Y-89360714D01*
X71847500Y-89408333D01*
X71895119Y-89503571D01*
X71895119Y-90027380D01*
X71895119Y-89503571D02*
X71942738Y-89408333D01*
X72037976Y-89360714D01*
X72180833Y-89360714D01*
X72276071Y-89408333D01*
X72323690Y-89503571D01*
X72323690Y-90027380D01*
X72799880Y-89360714D02*
X72799880Y-90360714D01*
X72799880Y-89408333D02*
X72895119Y-89360714D01*
X73085595Y-89360714D01*
X73180833Y-89408333D01*
X73228452Y-89455952D01*
X73276071Y-89551190D01*
X73276071Y-89836904D01*
X73228452Y-89932142D01*
X73180833Y-89979761D01*
X73085595Y-90027380D01*
X72895119Y-90027380D01*
X72799880Y-89979761D01*
X74085595Y-89979761D02*
X73990357Y-90027380D01*
X73799880Y-90027380D01*
X73704642Y-89979761D01*
X73657023Y-89884523D01*
X73657023Y-89503571D01*
X73704642Y-89408333D01*
X73799880Y-89360714D01*
X73990357Y-89360714D01*
X74085595Y-89408333D01*
X74133214Y-89503571D01*
X74133214Y-89598809D01*
X73657023Y-89694047D01*
X74561785Y-90027380D02*
X74561785Y-89360714D01*
X74561785Y-89551190D02*
X74609404Y-89455952D01*
X74657023Y-89408333D01*
X74752261Y-89360714D01*
X74847500Y-89360714D01*
X75609404Y-90027380D02*
X75609404Y-89503571D01*
X75561785Y-89408333D01*
X75466547Y-89360714D01*
X75276071Y-89360714D01*
X75180833Y-89408333D01*
X75609404Y-89979761D02*
X75514166Y-90027380D01*
X75276071Y-90027380D01*
X75180833Y-89979761D01*
X75133214Y-89884523D01*
X75133214Y-89789285D01*
X75180833Y-89694047D01*
X75276071Y-89646428D01*
X75514166Y-89646428D01*
X75609404Y-89598809D01*
X75942738Y-89360714D02*
X76323690Y-89360714D01*
X76085595Y-89027380D02*
X76085595Y-89884523D01*
X76133214Y-89979761D01*
X76228452Y-90027380D01*
X76323690Y-90027380D01*
X77085595Y-89360714D02*
X77085595Y-90027380D01*
X76657023Y-89360714D02*
X76657023Y-89884523D01*
X76704642Y-89979761D01*
X76799880Y-90027380D01*
X76942738Y-90027380D01*
X77037976Y-89979761D01*
X77085595Y-89932142D01*
X77561785Y-90027380D02*
X77561785Y-89360714D01*
X77561785Y-89551190D02*
X77609404Y-89455952D01*
X77657023Y-89408333D01*
X77752261Y-89360714D01*
X77847500Y-89360714D01*
X78561785Y-89979761D02*
X78466547Y-90027380D01*
X78276071Y-90027380D01*
X78180833Y-89979761D01*
X78133214Y-89884523D01*
X78133214Y-89503571D01*
X78180833Y-89408333D01*
X78276071Y-89360714D01*
X78466547Y-89360714D01*
X78561785Y-89408333D01*
X78609404Y-89503571D01*
X78609404Y-89598809D01*
X78133214Y-89694047D01*
X79752261Y-89979761D02*
X79895119Y-90027380D01*
X80133214Y-90027380D01*
X80228452Y-89979761D01*
X80276071Y-89932142D01*
X80323690Y-89836904D01*
X80323690Y-89741666D01*
X80276071Y-89646428D01*
X80228452Y-89598809D01*
X80133214Y-89551190D01*
X79942738Y-89503571D01*
X79847500Y-89455952D01*
X79799880Y-89408333D01*
X79752261Y-89313095D01*
X79752261Y-89217857D01*
X79799880Y-89122619D01*
X79847500Y-89075000D01*
X79942738Y-89027380D01*
X80180833Y-89027380D01*
X80323690Y-89075000D01*
X81133214Y-89979761D02*
X81037976Y-90027380D01*
X80847500Y-90027380D01*
X80752261Y-89979761D01*
X80704642Y-89884523D01*
X80704642Y-89503571D01*
X80752261Y-89408333D01*
X80847500Y-89360714D01*
X81037976Y-89360714D01*
X81133214Y-89408333D01*
X81180833Y-89503571D01*
X81180833Y-89598809D01*
X80704642Y-89694047D01*
X81609404Y-89360714D02*
X81609404Y-90027380D01*
X81609404Y-89455952D02*
X81657023Y-89408333D01*
X81752261Y-89360714D01*
X81895119Y-89360714D01*
X81990357Y-89408333D01*
X82037976Y-89503571D01*
X82037976Y-90027380D01*
X82466547Y-89979761D02*
X82561785Y-90027380D01*
X82752261Y-90027380D01*
X82847500Y-89979761D01*
X82895119Y-89884523D01*
X82895119Y-89836904D01*
X82847500Y-89741666D01*
X82752261Y-89694047D01*
X82609404Y-89694047D01*
X82514166Y-89646428D01*
X82466547Y-89551190D01*
X82466547Y-89503571D01*
X82514166Y-89408333D01*
X82609404Y-89360714D01*
X82752261Y-89360714D01*
X82847500Y-89408333D01*
X83466547Y-90027380D02*
X83371309Y-89979761D01*
X83323690Y-89932142D01*
X83276071Y-89836904D01*
X83276071Y-89551190D01*
X83323690Y-89455952D01*
X83371309Y-89408333D01*
X83466547Y-89360714D01*
X83609404Y-89360714D01*
X83704642Y-89408333D01*
X83752261Y-89455952D01*
X83799880Y-89551190D01*
X83799880Y-89836904D01*
X83752261Y-89932142D01*
X83704642Y-89979761D01*
X83609404Y-90027380D01*
X83466547Y-90027380D01*
X84228452Y-90027380D02*
X84228452Y-89360714D01*
X84228452Y-89551190D02*
X84276071Y-89455952D01*
X84323690Y-89408333D01*
X84418928Y-89360714D01*
X84514166Y-89360714D01*
X86180833Y-89932142D02*
X86133214Y-89979761D01*
X85990357Y-90027380D01*
X85895119Y-90027380D01*
X85752261Y-89979761D01*
X85657023Y-89884523D01*
X85609404Y-89789285D01*
X85561785Y-89598809D01*
X85561785Y-89455952D01*
X85609404Y-89265476D01*
X85657023Y-89170238D01*
X85752261Y-89075000D01*
X85895119Y-89027380D01*
X85990357Y-89027380D01*
X86133214Y-89075000D01*
X86180833Y-89122619D01*
X86752261Y-90027380D02*
X86657023Y-89979761D01*
X86609404Y-89932142D01*
X86561785Y-89836904D01*
X86561785Y-89551190D01*
X86609404Y-89455952D01*
X86657023Y-89408333D01*
X86752261Y-89360714D01*
X86895119Y-89360714D01*
X86990357Y-89408333D01*
X87037976Y-89455952D01*
X87085595Y-89551190D01*
X87085595Y-89836904D01*
X87037976Y-89932142D01*
X86990357Y-89979761D01*
X86895119Y-90027380D01*
X86752261Y-90027380D01*
X87514166Y-89360714D02*
X87514166Y-90027380D01*
X87514166Y-89455952D02*
X87561785Y-89408333D01*
X87657023Y-89360714D01*
X87799880Y-89360714D01*
X87895119Y-89408333D01*
X87942738Y-89503571D01*
X87942738Y-90027380D01*
X88276071Y-89360714D02*
X88657023Y-89360714D01*
X88418928Y-89027380D02*
X88418928Y-89884523D01*
X88466547Y-89979761D01*
X88561785Y-90027380D01*
X88657023Y-90027380D01*
X88990357Y-90027380D02*
X88990357Y-89360714D01*
X88990357Y-89551190D02*
X89037976Y-89455952D01*
X89085595Y-89408333D01*
X89180833Y-89360714D01*
X89276071Y-89360714D01*
X89752261Y-90027380D02*
X89657023Y-89979761D01*
X89609404Y-89932142D01*
X89561785Y-89836904D01*
X89561785Y-89551190D01*
X89609404Y-89455952D01*
X89657023Y-89408333D01*
X89752261Y-89360714D01*
X89895119Y-89360714D01*
X89990357Y-89408333D01*
X90037976Y-89455952D01*
X90085595Y-89551190D01*
X90085595Y-89836904D01*
X90037976Y-89932142D01*
X89990357Y-89979761D01*
X89895119Y-90027380D01*
X89752261Y-90027380D01*
X90657023Y-90027380D02*
X90561785Y-89979761D01*
X90514166Y-89884523D01*
X90514166Y-89027380D01*
X92133214Y-89503571D02*
X92276071Y-89551190D01*
X92323690Y-89598809D01*
X92371309Y-89694047D01*
X92371309Y-89836904D01*
X92323690Y-89932142D01*
X92276071Y-89979761D01*
X92180833Y-90027380D01*
X91799880Y-90027380D01*
X91799880Y-89027380D01*
X92133214Y-89027380D01*
X92228452Y-89075000D01*
X92276071Y-89122619D01*
X92323690Y-89217857D01*
X92323690Y-89313095D01*
X92276071Y-89408333D01*
X92228452Y-89455952D01*
X92133214Y-89503571D01*
X91799880Y-89503571D01*
X92942738Y-90027380D02*
X92847499Y-89979761D01*
X92799880Y-89932142D01*
X92752261Y-89836904D01*
X92752261Y-89551190D01*
X92799880Y-89455952D01*
X92847499Y-89408333D01*
X92942738Y-89360714D01*
X93085595Y-89360714D01*
X93180833Y-89408333D01*
X93228452Y-89455952D01*
X93276071Y-89551190D01*
X93276071Y-89836904D01*
X93228452Y-89932142D01*
X93180833Y-89979761D01*
X93085595Y-90027380D01*
X92942738Y-90027380D01*
X94133214Y-90027380D02*
X94133214Y-89503571D01*
X94085595Y-89408333D01*
X93990357Y-89360714D01*
X93799880Y-89360714D01*
X93704642Y-89408333D01*
X94133214Y-89979761D02*
X94037976Y-90027380D01*
X93799880Y-90027380D01*
X93704642Y-89979761D01*
X93657023Y-89884523D01*
X93657023Y-89789285D01*
X93704642Y-89694047D01*
X93799880Y-89646428D01*
X94037976Y-89646428D01*
X94133214Y-89598809D01*
X94609404Y-90027380D02*
X94609404Y-89360714D01*
X94609404Y-89551190D02*
X94657023Y-89455952D01*
X94704642Y-89408333D01*
X94799880Y-89360714D01*
X94895119Y-89360714D01*
X95657023Y-90027380D02*
X95657023Y-89027380D01*
X95657023Y-89979761D02*
X95561785Y-90027380D01*
X95371309Y-90027380D01*
X95276071Y-89979761D01*
X95228452Y-89932142D01*
X95180833Y-89836904D01*
X95180833Y-89551190D01*
X95228452Y-89455952D01*
X95276071Y-89408333D01*
X95371309Y-89360714D01*
X95561785Y-89360714D01*
X95657023Y-89408333D01*
X96895119Y-89027380D02*
X96895119Y-89836904D01*
X96942738Y-89932142D01*
X96990357Y-89979761D01*
X97085595Y-90027380D01*
X97276071Y-90027380D01*
X97371309Y-89979761D01*
X97418928Y-89932142D01*
X97466547Y-89836904D01*
X97466547Y-89027380D01*
X98085595Y-90027380D02*
X97990357Y-89979761D01*
X97942738Y-89884523D01*
X97942738Y-89027380D01*
X98323690Y-89360714D02*
X98704642Y-89360714D01*
X98466547Y-89027380D02*
X98466547Y-89884523D01*
X98514166Y-89979761D01*
X98609404Y-90027380D01*
X98704642Y-90027380D01*
X99037976Y-90027380D02*
X99037976Y-89360714D01*
X99037976Y-89551190D02*
X99085595Y-89455952D01*
X99133214Y-89408333D01*
X99228452Y-89360714D01*
X99323690Y-89360714D01*
X100085595Y-90027380D02*
X100085595Y-89503571D01*
X100037976Y-89408333D01*
X99942738Y-89360714D01*
X99752261Y-89360714D01*
X99657023Y-89408333D01*
X100085595Y-89979761D02*
X99990357Y-90027380D01*
X99752261Y-90027380D01*
X99657023Y-89979761D01*
X99609404Y-89884523D01*
X99609404Y-89789285D01*
X99657023Y-89694047D01*
X99752261Y-89646428D01*
X99990357Y-89646428D01*
X100085595Y-89598809D01*
X101752261Y-89360714D02*
X101752261Y-90027380D01*
X101514166Y-88979761D02*
X101276071Y-89694047D01*
X101895119Y-89694047D01*
X102466547Y-89027380D02*
X102561785Y-89027380D01*
X102657023Y-89075000D01*
X102704642Y-89122619D01*
X102752261Y-89217857D01*
X102799880Y-89408333D01*
X102799880Y-89646428D01*
X102752261Y-89836904D01*
X102704642Y-89932142D01*
X102657023Y-89979761D01*
X102561785Y-90027380D01*
X102466547Y-90027380D01*
X102371309Y-89979761D01*
X102323690Y-89932142D01*
X102276071Y-89836904D01*
X102228452Y-89646428D01*
X102228452Y-89408333D01*
X102276071Y-89217857D01*
X102323690Y-89122619D01*
X102371309Y-89075000D01*
X102466547Y-89027380D01*
X103418928Y-89027380D02*
X103514166Y-89027380D01*
X103609404Y-89075000D01*
X103657023Y-89122619D01*
X103704642Y-89217857D01*
X103752261Y-89408333D01*
X103752261Y-89646428D01*
X103704642Y-89836904D01*
X103657023Y-89932142D01*
X103609404Y-89979761D01*
X103514166Y-90027380D01*
X103418928Y-90027380D01*
X103323690Y-89979761D01*
X103276071Y-89932142D01*
X103228452Y-89836904D01*
X103180833Y-89646428D01*
X103180833Y-89408333D01*
X103228452Y-89217857D01*
X103276071Y-89122619D01*
X103323690Y-89075000D01*
X103418928Y-89027380D01*
X104371309Y-89027380D02*
X104466547Y-89027380D01*
X104561785Y-89075000D01*
X104609404Y-89122619D01*
X104657023Y-89217857D01*
X104704642Y-89408333D01*
X104704642Y-89646428D01*
X104657023Y-89836904D01*
X104609404Y-89932142D01*
X104561785Y-89979761D01*
X104466547Y-90027380D01*
X104371309Y-90027380D01*
X104276071Y-89979761D01*
X104228452Y-89932142D01*
X104180833Y-89836904D01*
X104133214Y-89646428D01*
X104133214Y-89408333D01*
X104180833Y-89217857D01*
X104228452Y-89122619D01*
X104276071Y-89075000D01*
X104371309Y-89027380D01*
X105895119Y-89646428D02*
X106657023Y-89646428D01*
X106276071Y-90027380D02*
X106276071Y-89265476D01*
X74059523Y-73452380D02*
X73583333Y-73452380D01*
X73535714Y-73928571D01*
X73583333Y-73880952D01*
X73678571Y-73833333D01*
X73916666Y-73833333D01*
X74011904Y-73880952D01*
X74059523Y-73928571D01*
X74107142Y-74023809D01*
X74107142Y-74261904D01*
X74059523Y-74357142D01*
X74011904Y-74404761D01*
X73916666Y-74452380D01*
X73678571Y-74452380D01*
X73583333Y-74404761D01*
X73535714Y-74357142D01*
X74392857Y-73452380D02*
X74726190Y-74452380D01*
X75059523Y-73452380D01*
X70511904Y-71416666D02*
X70988095Y-71416666D01*
X70416666Y-71702380D02*
X70750000Y-70702380D01*
X71083333Y-71702380D01*
X71321428Y-70702380D02*
X71940476Y-70702380D01*
X71607142Y-71083333D01*
X71750000Y-71083333D01*
X71845238Y-71130952D01*
X71892857Y-71178571D01*
X71940476Y-71273809D01*
X71940476Y-71511904D01*
X71892857Y-71607142D01*
X71845238Y-71654761D01*
X71750000Y-71702380D01*
X71464285Y-71702380D01*
X71369047Y-71654761D01*
X71321428Y-71607142D01*
X72369047Y-71321428D02*
X73130952Y-71321428D01*
X73559523Y-71416666D02*
X74035714Y-71416666D01*
X73464285Y-71702380D02*
X73797619Y-70702380D01*
X74130952Y-71702380D01*
X74654761Y-70702380D02*
X74750000Y-70702380D01*
X74845238Y-70750000D01*
X74892857Y-70797619D01*
X74940476Y-70892857D01*
X74988095Y-71083333D01*
X74988095Y-71321428D01*
X74940476Y-71511904D01*
X74892857Y-71607142D01*
X74845238Y-71654761D01*
X74750000Y-71702380D01*
X74654761Y-71702380D01*
X74559523Y-71654761D01*
X74511904Y-71607142D01*
X74464285Y-71511904D01*
X74416666Y-71321428D01*
X74416666Y-71083333D01*
X74464285Y-70892857D01*
X74511904Y-70797619D01*
X74559523Y-70750000D01*
X74654761Y-70702380D01*
X72988095Y-68000000D02*
X72892857Y-67952380D01*
X72750000Y-67952380D01*
X72607142Y-68000000D01*
X72511904Y-68095238D01*
X72464285Y-68190476D01*
X72416666Y-68380952D01*
X72416666Y-68523809D01*
X72464285Y-68714285D01*
X72511904Y-68809523D01*
X72607142Y-68904761D01*
X72750000Y-68952380D01*
X72845238Y-68952380D01*
X72988095Y-68904761D01*
X73035714Y-68857142D01*
X73035714Y-68523809D01*
X72845238Y-68523809D01*
X73464285Y-68952380D02*
X73464285Y-67952380D01*
X74035714Y-68952380D01*
X74035714Y-67952380D01*
X74511904Y-68952380D02*
X74511904Y-67952380D01*
X74750000Y-67952380D01*
X74892857Y-68000000D01*
X74988095Y-68095238D01*
X75035714Y-68190476D01*
X75083333Y-68380952D01*
X75083333Y-68523809D01*
X75035714Y-68714285D01*
X74988095Y-68809523D01*
X74892857Y-68904761D01*
X74750000Y-68952380D01*
X74511904Y-68952380D01*
D12*
X103757142Y-67771428D02*
X103414285Y-67771428D01*
X103585714Y-67771428D02*
X103585714Y-67171428D01*
X103528571Y-67257142D01*
X103471428Y-67314285D01*
X103414285Y-67342857D01*
X103985714Y-67228571D02*
X104014285Y-67200000D01*
X104071428Y-67171428D01*
X104214285Y-67171428D01*
X104271428Y-67200000D01*
X104300000Y-67228571D01*
X104328571Y-67285714D01*
X104328571Y-67342857D01*
X104300000Y-67428571D01*
X103957142Y-67771428D01*
X104328571Y-67771428D01*
X104700000Y-67171428D02*
X104757142Y-67171428D01*
X104814285Y-67200000D01*
X104842857Y-67228571D01*
X104871428Y-67285714D01*
X104900000Y-67400000D01*
X104900000Y-67542857D01*
X104871428Y-67657142D01*
X104842857Y-67714285D01*
X104814285Y-67742857D01*
X104757142Y-67771428D01*
X104700000Y-67771428D01*
X104642857Y-67742857D01*
X104614285Y-67714285D01*
X104585714Y-67657142D01*
X104557142Y-67542857D01*
X104557142Y-67400000D01*
X104585714Y-67285714D01*
X104614285Y-67228571D01*
X104642857Y-67200000D01*
X104700000Y-67171428D01*
X105128571Y-67771428D02*
X105271428Y-67771428D01*
X105271428Y-67657142D01*
X105214285Y-67628571D01*
X105157142Y-67571428D01*
X105128571Y-67485714D01*
X105128571Y-67342857D01*
X105157142Y-67257142D01*
X105214285Y-67200000D01*
X105300000Y-67171428D01*
X105414285Y-67171428D01*
X105500000Y-67200000D01*
X105557142Y-67257142D01*
X105585714Y-67342857D01*
X105585714Y-67485714D01*
X105557142Y-67571428D01*
X105500000Y-67628571D01*
X105442857Y-67657142D01*
X105442857Y-67771428D01*
X105585714Y-67771428D01*
X103142857Y-68457142D02*
X103342857Y-68457142D01*
X103428571Y-68771428D02*
X103142857Y-68771428D01*
X103142857Y-68171428D01*
X103428571Y-68171428D01*
X103685714Y-68371428D02*
X103685714Y-68771428D01*
X103685714Y-68428571D02*
X103714285Y-68400000D01*
X103771428Y-68371428D01*
X103857142Y-68371428D01*
X103914285Y-68400000D01*
X103942857Y-68457142D01*
X103942857Y-68771428D01*
X104485714Y-68771428D02*
X104485714Y-68457142D01*
X104457142Y-68400000D01*
X104400000Y-68371428D01*
X104285714Y-68371428D01*
X104228571Y-68400000D01*
X104485714Y-68742857D02*
X104428571Y-68771428D01*
X104285714Y-68771428D01*
X104228571Y-68742857D01*
X104200000Y-68685714D01*
X104200000Y-68628571D01*
X104228571Y-68571428D01*
X104285714Y-68542857D01*
X104428571Y-68542857D01*
X104485714Y-68514285D01*
X104771428Y-68771428D02*
X104771428Y-68171428D01*
X104771428Y-68400000D02*
X104828571Y-68371428D01*
X104942857Y-68371428D01*
X105000000Y-68400000D01*
X105028571Y-68428571D01*
X105057142Y-68485714D01*
X105057142Y-68657142D01*
X105028571Y-68714285D01*
X105000000Y-68742857D01*
X104942857Y-68771428D01*
X104828571Y-68771428D01*
X104771428Y-68742857D01*
X105400000Y-68771428D02*
X105342857Y-68742857D01*
X105314285Y-68685714D01*
X105314285Y-68171428D01*
X105857142Y-68742857D02*
X105800000Y-68771428D01*
X105685714Y-68771428D01*
X105628571Y-68742857D01*
X105600000Y-68685714D01*
X105600000Y-68457142D01*
X105628571Y-68400000D01*
X105685714Y-68371428D01*
X105800000Y-68371428D01*
X105857142Y-68400000D01*
X105885714Y-68457142D01*
X105885714Y-68514285D01*
X105600000Y-68571428D01*
X110064285Y-66464285D02*
X110035714Y-66492857D01*
X109950000Y-66521428D01*
X109892857Y-66521428D01*
X109807142Y-66492857D01*
X109750000Y-66435714D01*
X109721428Y-66378571D01*
X109692857Y-66264285D01*
X109692857Y-66178571D01*
X109721428Y-66064285D01*
X109750000Y-66007142D01*
X109807142Y-65950000D01*
X109892857Y-65921428D01*
X109950000Y-65921428D01*
X110035714Y-65950000D01*
X110064285Y-65978571D01*
X110292857Y-66350000D02*
X110578571Y-66350000D01*
X110235714Y-66521428D02*
X110435714Y-65921428D01*
X110635714Y-66521428D01*
X110835714Y-66521428D02*
X110835714Y-65921428D01*
X111178571Y-66521428D01*
X111178571Y-65921428D01*
X111750000Y-66521428D02*
X111464285Y-66521428D01*
X111464285Y-65921428D01*
X112750000Y-66464285D02*
X112721428Y-66492857D01*
X112635714Y-66521428D01*
X112578571Y-66521428D01*
X112492857Y-66492857D01*
X112435714Y-66435714D01*
X112407142Y-66378571D01*
X112378571Y-66264285D01*
X112378571Y-66178571D01*
X112407142Y-66064285D01*
X112435714Y-66007142D01*
X112492857Y-65950000D01*
X112578571Y-65921428D01*
X112635714Y-65921428D01*
X112721428Y-65950000D01*
X112750000Y-65978571D01*
X112978571Y-66350000D02*
X113264285Y-66350000D01*
X112921428Y-66521428D02*
X113121428Y-65921428D01*
X113321428Y-66521428D01*
X113521428Y-66521428D02*
X113521428Y-65921428D01*
X113864285Y-66521428D01*
X113864285Y-65921428D01*
X114150000Y-66521428D02*
X114150000Y-65921428D01*
X114150000Y-66207142D02*
X114492857Y-66207142D01*
X114492857Y-66521428D02*
X114492857Y-65921428D01*
X115521428Y-65921428D02*
X115235714Y-65921428D01*
X115207142Y-66207142D01*
X115235714Y-66178571D01*
X115292857Y-66150000D01*
X115435714Y-66150000D01*
X115492857Y-66178571D01*
X115521428Y-66207142D01*
X115550000Y-66264285D01*
X115550000Y-66407142D01*
X115521428Y-66464285D01*
X115492857Y-66492857D01*
X115435714Y-66521428D01*
X115292857Y-66521428D01*
X115235714Y-66492857D01*
X115207142Y-66464285D01*
X115721428Y-65921428D02*
X115921428Y-66521428D01*
X116121428Y-65921428D01*
X117550000Y-65950000D02*
X117492857Y-65921428D01*
X117407142Y-65921428D01*
X117321428Y-65950000D01*
X117264285Y-66007142D01*
X117235714Y-66064285D01*
X117207142Y-66178571D01*
X117207142Y-66264285D01*
X117235714Y-66378571D01*
X117264285Y-66435714D01*
X117321428Y-66492857D01*
X117407142Y-66521428D01*
X117464285Y-66521428D01*
X117550000Y-66492857D01*
X117578571Y-66464285D01*
X117578571Y-66264285D01*
X117464285Y-66264285D01*
X117835714Y-66521428D02*
X117835714Y-65921428D01*
X118178571Y-66521428D01*
X118178571Y-65921428D01*
X118464285Y-66521428D02*
X118464285Y-65921428D01*
X118607142Y-65921428D01*
X118692857Y-65950000D01*
X118750000Y-66007142D01*
X118778571Y-66064285D01*
X118807142Y-66178571D01*
X118807142Y-66264285D01*
X118778571Y-66378571D01*
X118750000Y-66435714D01*
X118692857Y-66492857D01*
X118607142Y-66521428D01*
X118464285Y-66521428D01*
X67828571Y-64171428D02*
X68200000Y-64171428D01*
X68000000Y-64400000D01*
X68085714Y-64400000D01*
X68142857Y-64428571D01*
X68171428Y-64457142D01*
X68200000Y-64514285D01*
X68200000Y-64657142D01*
X68171428Y-64714285D01*
X68142857Y-64742857D01*
X68085714Y-64771428D01*
X67914285Y-64771428D01*
X67857142Y-64742857D01*
X67828571Y-64714285D01*
X68400000Y-64371428D02*
X68542857Y-64771428D01*
X68685714Y-64371428D01*
X68857142Y-64171428D02*
X69228571Y-64171428D01*
X69028571Y-64400000D01*
X69114285Y-64400000D01*
X69171428Y-64428571D01*
X69200000Y-64457142D01*
X69228571Y-64514285D01*
X69228571Y-64657142D01*
X69200000Y-64714285D01*
X69171428Y-64742857D01*
X69114285Y-64771428D01*
X68942857Y-64771428D01*
X68885714Y-64742857D01*
X68857142Y-64714285D01*
X70714285Y-64200000D02*
X70657142Y-64171428D01*
X70571428Y-64171428D01*
X70485714Y-64200000D01*
X70428571Y-64257142D01*
X70400000Y-64314285D01*
X70371428Y-64428571D01*
X70371428Y-64514285D01*
X70400000Y-64628571D01*
X70428571Y-64685714D01*
X70485714Y-64742857D01*
X70571428Y-64771428D01*
X70628571Y-64771428D01*
X70714285Y-64742857D01*
X70742857Y-64714285D01*
X70742857Y-64514285D01*
X70628571Y-64514285D01*
X71000000Y-64771428D02*
X71000000Y-64171428D01*
X71342857Y-64771428D01*
X71342857Y-64171428D01*
X71628571Y-64771428D02*
X71628571Y-64171428D01*
X71771428Y-64171428D01*
X71857142Y-64200000D01*
X71914285Y-64257142D01*
X71942857Y-64314285D01*
X71971428Y-64428571D01*
X71971428Y-64514285D01*
X71942857Y-64628571D01*
X71914285Y-64685714D01*
X71857142Y-64742857D01*
X71771428Y-64771428D01*
X71628571Y-64771428D01*
X73114285Y-64742857D02*
X73200000Y-64771428D01*
X73342857Y-64771428D01*
X73400000Y-64742857D01*
X73428571Y-64714285D01*
X73457142Y-64657142D01*
X73457142Y-64600000D01*
X73428571Y-64542857D01*
X73400000Y-64514285D01*
X73342857Y-64485714D01*
X73228571Y-64457142D01*
X73171428Y-64428571D01*
X73142857Y-64400000D01*
X73114285Y-64342857D01*
X73114285Y-64285714D01*
X73142857Y-64228571D01*
X73171428Y-64200000D01*
X73228571Y-64171428D01*
X73371428Y-64171428D01*
X73457142Y-64200000D01*
X74057142Y-64714285D02*
X74028571Y-64742857D01*
X73942857Y-64771428D01*
X73885714Y-64771428D01*
X73800000Y-64742857D01*
X73742857Y-64685714D01*
X73714285Y-64628571D01*
X73685714Y-64514285D01*
X73685714Y-64428571D01*
X73714285Y-64314285D01*
X73742857Y-64257142D01*
X73800000Y-64200000D01*
X73885714Y-64171428D01*
X73942857Y-64171428D01*
X74028571Y-64200000D01*
X74057142Y-64228571D01*
X74600000Y-64771428D02*
X74314285Y-64771428D01*
X74314285Y-64171428D01*
X75685714Y-64742857D02*
X75771428Y-64771428D01*
X75914285Y-64771428D01*
X75971428Y-64742857D01*
X76000000Y-64714285D01*
X76028571Y-64657142D01*
X76028571Y-64600000D01*
X76000000Y-64542857D01*
X75971428Y-64514285D01*
X75914285Y-64485714D01*
X75800000Y-64457142D01*
X75742857Y-64428571D01*
X75714285Y-64400000D01*
X75685714Y-64342857D01*
X75685714Y-64285714D01*
X75714285Y-64228571D01*
X75742857Y-64200000D01*
X75800000Y-64171428D01*
X75942857Y-64171428D01*
X76028571Y-64200000D01*
X76285714Y-64771428D02*
X76285714Y-64171428D01*
X76428571Y-64171428D01*
X76514285Y-64200000D01*
X76571428Y-64257142D01*
X76600000Y-64314285D01*
X76628571Y-64428571D01*
X76628571Y-64514285D01*
X76600000Y-64628571D01*
X76571428Y-64685714D01*
X76514285Y-64742857D01*
X76428571Y-64771428D01*
X76285714Y-64771428D01*
X76857142Y-64600000D02*
X77142857Y-64600000D01*
X76800000Y-64771428D02*
X77000000Y-64171428D01*
X77200000Y-64771428D01*
X81828571Y-64171428D02*
X82200000Y-64171428D01*
X82000000Y-64400000D01*
X82085714Y-64400000D01*
X82142857Y-64428571D01*
X82171428Y-64457142D01*
X82200000Y-64514285D01*
X82200000Y-64657142D01*
X82171428Y-64714285D01*
X82142857Y-64742857D01*
X82085714Y-64771428D01*
X81914285Y-64771428D01*
X81857142Y-64742857D01*
X81828571Y-64714285D01*
X82400000Y-64371428D02*
X82542857Y-64771428D01*
X82685714Y-64371428D01*
X82857142Y-64171428D02*
X83228571Y-64171428D01*
X83028571Y-64400000D01*
X83114285Y-64400000D01*
X83171428Y-64428571D01*
X83200000Y-64457142D01*
X83228571Y-64514285D01*
X83228571Y-64657142D01*
X83200000Y-64714285D01*
X83171428Y-64742857D01*
X83114285Y-64771428D01*
X82942857Y-64771428D01*
X82885714Y-64742857D01*
X82857142Y-64714285D01*
X84714285Y-64200000D02*
X84657142Y-64171428D01*
X84571428Y-64171428D01*
X84485714Y-64200000D01*
X84428571Y-64257142D01*
X84400000Y-64314285D01*
X84371428Y-64428571D01*
X84371428Y-64514285D01*
X84400000Y-64628571D01*
X84428571Y-64685714D01*
X84485714Y-64742857D01*
X84571428Y-64771428D01*
X84628571Y-64771428D01*
X84714285Y-64742857D01*
X84742857Y-64714285D01*
X84742857Y-64514285D01*
X84628571Y-64514285D01*
X85000000Y-64771428D02*
X85000000Y-64171428D01*
X85342857Y-64771428D01*
X85342857Y-64171428D01*
X85628571Y-64771428D02*
X85628571Y-64171428D01*
X85771428Y-64171428D01*
X85857142Y-64200000D01*
X85914285Y-64257142D01*
X85942857Y-64314285D01*
X85971428Y-64428571D01*
X85971428Y-64514285D01*
X85942857Y-64628571D01*
X85914285Y-64685714D01*
X85857142Y-64742857D01*
X85771428Y-64771428D01*
X85628571Y-64771428D01*
X87114285Y-64742857D02*
X87200000Y-64771428D01*
X87342857Y-64771428D01*
X87400000Y-64742857D01*
X87428571Y-64714285D01*
X87457142Y-64657142D01*
X87457142Y-64600000D01*
X87428571Y-64542857D01*
X87400000Y-64514285D01*
X87342857Y-64485714D01*
X87228571Y-64457142D01*
X87171428Y-64428571D01*
X87142857Y-64400000D01*
X87114285Y-64342857D01*
X87114285Y-64285714D01*
X87142857Y-64228571D01*
X87171428Y-64200000D01*
X87228571Y-64171428D01*
X87371428Y-64171428D01*
X87457142Y-64200000D01*
X88057142Y-64714285D02*
X88028571Y-64742857D01*
X87942857Y-64771428D01*
X87885714Y-64771428D01*
X87800000Y-64742857D01*
X87742857Y-64685714D01*
X87714285Y-64628571D01*
X87685714Y-64514285D01*
X87685714Y-64428571D01*
X87714285Y-64314285D01*
X87742857Y-64257142D01*
X87800000Y-64200000D01*
X87885714Y-64171428D01*
X87942857Y-64171428D01*
X88028571Y-64200000D01*
X88057142Y-64228571D01*
X88600000Y-64771428D02*
X88314285Y-64771428D01*
X88314285Y-64171428D01*
X89685714Y-64742857D02*
X89771428Y-64771428D01*
X89914285Y-64771428D01*
X89971428Y-64742857D01*
X90000000Y-64714285D01*
X90028571Y-64657142D01*
X90028571Y-64600000D01*
X90000000Y-64542857D01*
X89971428Y-64514285D01*
X89914285Y-64485714D01*
X89800000Y-64457142D01*
X89742857Y-64428571D01*
X89714285Y-64400000D01*
X89685714Y-64342857D01*
X89685714Y-64285714D01*
X89714285Y-64228571D01*
X89742857Y-64200000D01*
X89800000Y-64171428D01*
X89942857Y-64171428D01*
X90028571Y-64200000D01*
X90285714Y-64771428D02*
X90285714Y-64171428D01*
X90428571Y-64171428D01*
X90514285Y-64200000D01*
X90571428Y-64257142D01*
X90600000Y-64314285D01*
X90628571Y-64428571D01*
X90628571Y-64514285D01*
X90600000Y-64628571D01*
X90571428Y-64685714D01*
X90514285Y-64742857D01*
X90428571Y-64771428D01*
X90285714Y-64771428D01*
X90857142Y-64600000D02*
X91142857Y-64600000D01*
X90800000Y-64771428D02*
X91000000Y-64171428D01*
X91200000Y-64771428D01*
X110328571Y-64171428D02*
X110700000Y-64171428D01*
X110500000Y-64400000D01*
X110585714Y-64400000D01*
X110642857Y-64428571D01*
X110671428Y-64457142D01*
X110700000Y-64514285D01*
X110700000Y-64657142D01*
X110671428Y-64714285D01*
X110642857Y-64742857D01*
X110585714Y-64771428D01*
X110414285Y-64771428D01*
X110357142Y-64742857D01*
X110328571Y-64714285D01*
X110900000Y-64371428D02*
X111042857Y-64771428D01*
X111185714Y-64371428D01*
X111357142Y-64171428D02*
X111728571Y-64171428D01*
X111528571Y-64400000D01*
X111614285Y-64400000D01*
X111671428Y-64428571D01*
X111700000Y-64457142D01*
X111728571Y-64514285D01*
X111728571Y-64657142D01*
X111700000Y-64714285D01*
X111671428Y-64742857D01*
X111614285Y-64771428D01*
X111442857Y-64771428D01*
X111385714Y-64742857D01*
X111357142Y-64714285D01*
X113214285Y-64200000D02*
X113157142Y-64171428D01*
X113071428Y-64171428D01*
X112985714Y-64200000D01*
X112928571Y-64257142D01*
X112900000Y-64314285D01*
X112871428Y-64428571D01*
X112871428Y-64514285D01*
X112900000Y-64628571D01*
X112928571Y-64685714D01*
X112985714Y-64742857D01*
X113071428Y-64771428D01*
X113128571Y-64771428D01*
X113214285Y-64742857D01*
X113242857Y-64714285D01*
X113242857Y-64514285D01*
X113128571Y-64514285D01*
X113500000Y-64771428D02*
X113500000Y-64171428D01*
X113842857Y-64771428D01*
X113842857Y-64171428D01*
X114128571Y-64771428D02*
X114128571Y-64171428D01*
X114271428Y-64171428D01*
X114357142Y-64200000D01*
X114414285Y-64257142D01*
X114442857Y-64314285D01*
X114471428Y-64428571D01*
X114471428Y-64514285D01*
X114442857Y-64628571D01*
X114414285Y-64685714D01*
X114357142Y-64742857D01*
X114271428Y-64771428D01*
X114128571Y-64771428D01*
X115614285Y-64742857D02*
X115700000Y-64771428D01*
X115842857Y-64771428D01*
X115900000Y-64742857D01*
X115928571Y-64714285D01*
X115957142Y-64657142D01*
X115957142Y-64600000D01*
X115928571Y-64542857D01*
X115900000Y-64514285D01*
X115842857Y-64485714D01*
X115728571Y-64457142D01*
X115671428Y-64428571D01*
X115642857Y-64400000D01*
X115614285Y-64342857D01*
X115614285Y-64285714D01*
X115642857Y-64228571D01*
X115671428Y-64200000D01*
X115728571Y-64171428D01*
X115871428Y-64171428D01*
X115957142Y-64200000D01*
X116557142Y-64714285D02*
X116528571Y-64742857D01*
X116442857Y-64771428D01*
X116385714Y-64771428D01*
X116300000Y-64742857D01*
X116242857Y-64685714D01*
X116214285Y-64628571D01*
X116185714Y-64514285D01*
X116185714Y-64428571D01*
X116214285Y-64314285D01*
X116242857Y-64257142D01*
X116300000Y-64200000D01*
X116385714Y-64171428D01*
X116442857Y-64171428D01*
X116528571Y-64200000D01*
X116557142Y-64228571D01*
X117100000Y-64771428D02*
X116814285Y-64771428D01*
X116814285Y-64171428D01*
X118185714Y-64742857D02*
X118271428Y-64771428D01*
X118414285Y-64771428D01*
X118471428Y-64742857D01*
X118500000Y-64714285D01*
X118528571Y-64657142D01*
X118528571Y-64600000D01*
X118500000Y-64542857D01*
X118471428Y-64514285D01*
X118414285Y-64485714D01*
X118300000Y-64457142D01*
X118242857Y-64428571D01*
X118214285Y-64400000D01*
X118185714Y-64342857D01*
X118185714Y-64285714D01*
X118214285Y-64228571D01*
X118242857Y-64200000D01*
X118300000Y-64171428D01*
X118442857Y-64171428D01*
X118528571Y-64200000D01*
X118785714Y-64771428D02*
X118785714Y-64171428D01*
X118928571Y-64171428D01*
X119014285Y-64200000D01*
X119071428Y-64257142D01*
X119100000Y-64314285D01*
X119128571Y-64428571D01*
X119128571Y-64514285D01*
X119100000Y-64628571D01*
X119071428Y-64685714D01*
X119014285Y-64742857D01*
X118928571Y-64771428D01*
X118785714Y-64771428D01*
X119357142Y-64600000D02*
X119642857Y-64600000D01*
X119300000Y-64771428D02*
X119500000Y-64171428D01*
X119700000Y-64771428D01*
X96328571Y-64171428D02*
X96700000Y-64171428D01*
X96500000Y-64400000D01*
X96585714Y-64400000D01*
X96642857Y-64428571D01*
X96671428Y-64457142D01*
X96700000Y-64514285D01*
X96700000Y-64657142D01*
X96671428Y-64714285D01*
X96642857Y-64742857D01*
X96585714Y-64771428D01*
X96414285Y-64771428D01*
X96357142Y-64742857D01*
X96328571Y-64714285D01*
X96900000Y-64371428D02*
X97042857Y-64771428D01*
X97185714Y-64371428D01*
X97357142Y-64171428D02*
X97728571Y-64171428D01*
X97528571Y-64400000D01*
X97614285Y-64400000D01*
X97671428Y-64428571D01*
X97700000Y-64457142D01*
X97728571Y-64514285D01*
X97728571Y-64657142D01*
X97700000Y-64714285D01*
X97671428Y-64742857D01*
X97614285Y-64771428D01*
X97442857Y-64771428D01*
X97385714Y-64742857D01*
X97357142Y-64714285D01*
X99214285Y-64200000D02*
X99157142Y-64171428D01*
X99071428Y-64171428D01*
X98985714Y-64200000D01*
X98928571Y-64257142D01*
X98900000Y-64314285D01*
X98871428Y-64428571D01*
X98871428Y-64514285D01*
X98900000Y-64628571D01*
X98928571Y-64685714D01*
X98985714Y-64742857D01*
X99071428Y-64771428D01*
X99128571Y-64771428D01*
X99214285Y-64742857D01*
X99242857Y-64714285D01*
X99242857Y-64514285D01*
X99128571Y-64514285D01*
X99500000Y-64771428D02*
X99500000Y-64171428D01*
X99842857Y-64771428D01*
X99842857Y-64171428D01*
X100128571Y-64771428D02*
X100128571Y-64171428D01*
X100271428Y-64171428D01*
X100357142Y-64200000D01*
X100414285Y-64257142D01*
X100442857Y-64314285D01*
X100471428Y-64428571D01*
X100471428Y-64514285D01*
X100442857Y-64628571D01*
X100414285Y-64685714D01*
X100357142Y-64742857D01*
X100271428Y-64771428D01*
X100128571Y-64771428D01*
X101614285Y-64742857D02*
X101700000Y-64771428D01*
X101842857Y-64771428D01*
X101900000Y-64742857D01*
X101928571Y-64714285D01*
X101957142Y-64657142D01*
X101957142Y-64600000D01*
X101928571Y-64542857D01*
X101900000Y-64514285D01*
X101842857Y-64485714D01*
X101728571Y-64457142D01*
X101671428Y-64428571D01*
X101642857Y-64400000D01*
X101614285Y-64342857D01*
X101614285Y-64285714D01*
X101642857Y-64228571D01*
X101671428Y-64200000D01*
X101728571Y-64171428D01*
X101871428Y-64171428D01*
X101957142Y-64200000D01*
X102557142Y-64714285D02*
X102528571Y-64742857D01*
X102442857Y-64771428D01*
X102385714Y-64771428D01*
X102300000Y-64742857D01*
X102242857Y-64685714D01*
X102214285Y-64628571D01*
X102185714Y-64514285D01*
X102185714Y-64428571D01*
X102214285Y-64314285D01*
X102242857Y-64257142D01*
X102300000Y-64200000D01*
X102385714Y-64171428D01*
X102442857Y-64171428D01*
X102528571Y-64200000D01*
X102557142Y-64228571D01*
X103100000Y-64771428D02*
X102814285Y-64771428D01*
X102814285Y-64171428D01*
X104185714Y-64742857D02*
X104271428Y-64771428D01*
X104414285Y-64771428D01*
X104471428Y-64742857D01*
X104500000Y-64714285D01*
X104528571Y-64657142D01*
X104528571Y-64600000D01*
X104500000Y-64542857D01*
X104471428Y-64514285D01*
X104414285Y-64485714D01*
X104300000Y-64457142D01*
X104242857Y-64428571D01*
X104214285Y-64400000D01*
X104185714Y-64342857D01*
X104185714Y-64285714D01*
X104214285Y-64228571D01*
X104242857Y-64200000D01*
X104300000Y-64171428D01*
X104442857Y-64171428D01*
X104528571Y-64200000D01*
X104785714Y-64771428D02*
X104785714Y-64171428D01*
X104928571Y-64171428D01*
X105014285Y-64200000D01*
X105071428Y-64257142D01*
X105100000Y-64314285D01*
X105128571Y-64428571D01*
X105128571Y-64514285D01*
X105100000Y-64628571D01*
X105071428Y-64685714D01*
X105014285Y-64742857D01*
X104928571Y-64771428D01*
X104785714Y-64771428D01*
X105357142Y-64600000D02*
X105642857Y-64600000D01*
X105300000Y-64771428D02*
X105500000Y-64171428D01*
X105700000Y-64771428D01*
D11*
X110880952Y-63402380D02*
X110880952Y-62402380D01*
X111214285Y-63116666D01*
X111547619Y-62402380D01*
X111547619Y-63402380D01*
X112023809Y-62402380D02*
X112023809Y-63211904D01*
X112071428Y-63307142D01*
X112119047Y-63354761D01*
X112214285Y-63402380D01*
X112404761Y-63402380D01*
X112500000Y-63354761D01*
X112547619Y-63307142D01*
X112595238Y-63211904D01*
X112595238Y-62402380D01*
X112976190Y-62402380D02*
X113642857Y-63402380D01*
X113642857Y-62402380D02*
X112976190Y-63402380D01*
X114785714Y-63402380D02*
X114785714Y-62402380D01*
X115166666Y-62402380D01*
X115261904Y-62450000D01*
X115309523Y-62497619D01*
X115357142Y-62592857D01*
X115357142Y-62735714D01*
X115309523Y-62830952D01*
X115261904Y-62878571D01*
X115166666Y-62926190D01*
X114785714Y-62926190D01*
X115928571Y-63402380D02*
X115833333Y-63354761D01*
X115785714Y-63307142D01*
X115738095Y-63211904D01*
X115738095Y-62926190D01*
X115785714Y-62830952D01*
X115833333Y-62783333D01*
X115928571Y-62735714D01*
X116071428Y-62735714D01*
X116166666Y-62783333D01*
X116214285Y-62830952D01*
X116261904Y-62926190D01*
X116261904Y-63211904D01*
X116214285Y-63307142D01*
X116166666Y-63354761D01*
X116071428Y-63402380D01*
X115928571Y-63402380D01*
X116690476Y-63402380D02*
X116690476Y-62735714D01*
X116690476Y-62926190D02*
X116738095Y-62830952D01*
X116785714Y-62783333D01*
X116880952Y-62735714D01*
X116976190Y-62735714D01*
X117166666Y-62735714D02*
X117547619Y-62735714D01*
X117309523Y-62402380D02*
X117309523Y-63259523D01*
X117357142Y-63354761D01*
X117452380Y-63402380D01*
X117547619Y-63402380D01*
X118833333Y-62402380D02*
X118928571Y-62402380D01*
X119023809Y-62450000D01*
X119071428Y-62497619D01*
X119119047Y-62592857D01*
X119166666Y-62783333D01*
X119166666Y-63021428D01*
X119119047Y-63211904D01*
X119071428Y-63307142D01*
X119023809Y-63354761D01*
X118928571Y-63402380D01*
X118833333Y-63402380D01*
X118738095Y-63354761D01*
X118690476Y-63307142D01*
X118642857Y-63211904D01*
X118595238Y-63021428D01*
X118595238Y-62783333D01*
X118642857Y-62592857D01*
X118690476Y-62497619D01*
X118738095Y-62450000D01*
X118833333Y-62402380D01*
X96880952Y-63402380D02*
X96880952Y-62402380D01*
X97214285Y-63116666D01*
X97547619Y-62402380D01*
X97547619Y-63402380D01*
X98023809Y-62402380D02*
X98023809Y-63211904D01*
X98071428Y-63307142D01*
X98119047Y-63354761D01*
X98214285Y-63402380D01*
X98404761Y-63402380D01*
X98500000Y-63354761D01*
X98547619Y-63307142D01*
X98595238Y-63211904D01*
X98595238Y-62402380D01*
X98976190Y-62402380D02*
X99642857Y-63402380D01*
X99642857Y-62402380D02*
X98976190Y-63402380D01*
X100785714Y-63402380D02*
X100785714Y-62402380D01*
X101166666Y-62402380D01*
X101261904Y-62450000D01*
X101309523Y-62497619D01*
X101357142Y-62592857D01*
X101357142Y-62735714D01*
X101309523Y-62830952D01*
X101261904Y-62878571D01*
X101166666Y-62926190D01*
X100785714Y-62926190D01*
X101928571Y-63402380D02*
X101833333Y-63354761D01*
X101785714Y-63307142D01*
X101738095Y-63211904D01*
X101738095Y-62926190D01*
X101785714Y-62830952D01*
X101833333Y-62783333D01*
X101928571Y-62735714D01*
X102071428Y-62735714D01*
X102166666Y-62783333D01*
X102214285Y-62830952D01*
X102261904Y-62926190D01*
X102261904Y-63211904D01*
X102214285Y-63307142D01*
X102166666Y-63354761D01*
X102071428Y-63402380D01*
X101928571Y-63402380D01*
X102690476Y-63402380D02*
X102690476Y-62735714D01*
X102690476Y-62926190D02*
X102738095Y-62830952D01*
X102785714Y-62783333D01*
X102880952Y-62735714D01*
X102976190Y-62735714D01*
X103166666Y-62735714D02*
X103547619Y-62735714D01*
X103309523Y-62402380D02*
X103309523Y-63259523D01*
X103357142Y-63354761D01*
X103452380Y-63402380D01*
X103547619Y-63402380D01*
X105166666Y-63402380D02*
X104595238Y-63402380D01*
X104880952Y-63402380D02*
X104880952Y-62402380D01*
X104785714Y-62545238D01*
X104690476Y-62640476D01*
X104595238Y-62688095D01*
X82680952Y-63402380D02*
X82680952Y-62402380D01*
X83014285Y-63116666D01*
X83347619Y-62402380D01*
X83347619Y-63402380D01*
X83823809Y-62402380D02*
X83823809Y-63211904D01*
X83871428Y-63307142D01*
X83919047Y-63354761D01*
X84014285Y-63402380D01*
X84204761Y-63402380D01*
X84300000Y-63354761D01*
X84347619Y-63307142D01*
X84395238Y-63211904D01*
X84395238Y-62402380D01*
X84776190Y-62402380D02*
X85442857Y-63402380D01*
X85442857Y-62402380D02*
X84776190Y-63402380D01*
X86585714Y-63402380D02*
X86585714Y-62402380D01*
X86966666Y-62402380D01*
X87061904Y-62450000D01*
X87109523Y-62497619D01*
X87157142Y-62592857D01*
X87157142Y-62735714D01*
X87109523Y-62830952D01*
X87061904Y-62878571D01*
X86966666Y-62926190D01*
X86585714Y-62926190D01*
X87728571Y-63402380D02*
X87633333Y-63354761D01*
X87585714Y-63307142D01*
X87538095Y-63211904D01*
X87538095Y-62926190D01*
X87585714Y-62830952D01*
X87633333Y-62783333D01*
X87728571Y-62735714D01*
X87871428Y-62735714D01*
X87966666Y-62783333D01*
X88014285Y-62830952D01*
X88061904Y-62926190D01*
X88061904Y-63211904D01*
X88014285Y-63307142D01*
X87966666Y-63354761D01*
X87871428Y-63402380D01*
X87728571Y-63402380D01*
X88490476Y-63402380D02*
X88490476Y-62735714D01*
X88490476Y-62926190D02*
X88538095Y-62830952D01*
X88585714Y-62783333D01*
X88680952Y-62735714D01*
X88776190Y-62735714D01*
X88966666Y-62735714D02*
X89347619Y-62735714D01*
X89109523Y-62402380D02*
X89109523Y-63259523D01*
X89157142Y-63354761D01*
X89252380Y-63402380D01*
X89347619Y-63402380D01*
X90395238Y-62497619D02*
X90442857Y-62450000D01*
X90538095Y-62402380D01*
X90776190Y-62402380D01*
X90871428Y-62450000D01*
X90919047Y-62497619D01*
X90966666Y-62592857D01*
X90966666Y-62688095D01*
X90919047Y-62830952D01*
X90347619Y-63402380D01*
X90966666Y-63402380D01*
X68880952Y-63402380D02*
X68880952Y-62402380D01*
X69214285Y-63116666D01*
X69547619Y-62402380D01*
X69547619Y-63402380D01*
X70023809Y-62402380D02*
X70023809Y-63211904D01*
X70071428Y-63307142D01*
X70119047Y-63354761D01*
X70214285Y-63402380D01*
X70404761Y-63402380D01*
X70500000Y-63354761D01*
X70547619Y-63307142D01*
X70595238Y-63211904D01*
X70595238Y-62402380D01*
X70976190Y-62402380D02*
X71642857Y-63402380D01*
X71642857Y-62402380D02*
X70976190Y-63402380D01*
X72785714Y-63402380D02*
X72785714Y-62402380D01*
X73166666Y-62402380D01*
X73261904Y-62450000D01*
X73309523Y-62497619D01*
X73357142Y-62592857D01*
X73357142Y-62735714D01*
X73309523Y-62830952D01*
X73261904Y-62878571D01*
X73166666Y-62926190D01*
X72785714Y-62926190D01*
X73928571Y-63402380D02*
X73833333Y-63354761D01*
X73785714Y-63307142D01*
X73738095Y-63211904D01*
X73738095Y-62926190D01*
X73785714Y-62830952D01*
X73833333Y-62783333D01*
X73928571Y-62735714D01*
X74071428Y-62735714D01*
X74166666Y-62783333D01*
X74214285Y-62830952D01*
X74261904Y-62926190D01*
X74261904Y-63211904D01*
X74214285Y-63307142D01*
X74166666Y-63354761D01*
X74071428Y-63402380D01*
X73928571Y-63402380D01*
X74690476Y-63402380D02*
X74690476Y-62735714D01*
X74690476Y-62926190D02*
X74738095Y-62830952D01*
X74785714Y-62783333D01*
X74880952Y-62735714D01*
X74976190Y-62735714D01*
X75166666Y-62735714D02*
X75547619Y-62735714D01*
X75309523Y-62402380D02*
X75309523Y-63259523D01*
X75357142Y-63354761D01*
X75452380Y-63402380D01*
X75547619Y-63402380D01*
X76547619Y-62402380D02*
X77166666Y-62402380D01*
X76833333Y-62783333D01*
X76976190Y-62783333D01*
X77071428Y-62830952D01*
X77119047Y-62878571D01*
X77166666Y-62973809D01*
X77166666Y-63211904D01*
X77119047Y-63307142D01*
X77071428Y-63354761D01*
X76976190Y-63402380D01*
X76690476Y-63402380D01*
X76595238Y-63354761D01*
X76547619Y-63307142D01*
X60238095Y-84452380D02*
X60809523Y-84452380D01*
X60523809Y-85452380D02*
X60523809Y-84452380D01*
X61047619Y-84452380D02*
X61714285Y-85452380D01*
X61714285Y-84452380D02*
X61047619Y-85452380D01*
X60833333Y-81452380D02*
X60500000Y-80976190D01*
X60261904Y-81452380D02*
X60261904Y-80452380D01*
X60642857Y-80452380D01*
X60738095Y-80500000D01*
X60785714Y-80547619D01*
X60833333Y-80642857D01*
X60833333Y-80785714D01*
X60785714Y-80880952D01*
X60738095Y-80928571D01*
X60642857Y-80976190D01*
X60261904Y-80976190D01*
X61166666Y-80452380D02*
X61833333Y-81452380D01*
X61833333Y-80452380D02*
X61166666Y-81452380D01*
D10*
%TO.C,R14*%
X107919436Y-73090000D02*
X109373564Y-73090000D01*
X107919436Y-74910000D02*
X109373564Y-74910000D01*
%TO.C,J8*%
X85950000Y-69080000D02*
X85950000Y-66420000D01*
X78270000Y-69080000D02*
X85950000Y-69080000D01*
X78270000Y-66420000D02*
X85950000Y-66420000D01*
X78270000Y-69080000D02*
X78270000Y-66420000D01*
X77000000Y-69080000D02*
X75670000Y-69080000D01*
X75670000Y-69080000D02*
X75670000Y-67750000D01*
%TO.C,J9*%
X85950000Y-74580000D02*
X85950000Y-71920000D01*
X78270000Y-74580000D02*
X85950000Y-74580000D01*
X78270000Y-71920000D02*
X85950000Y-71920000D01*
X78270000Y-74580000D02*
X78270000Y-71920000D01*
X77000000Y-74580000D02*
X75670000Y-74580000D01*
X75670000Y-74580000D02*
X75670000Y-73250000D01*
%TO.C,J7*%
X85950000Y-71830000D02*
X85950000Y-69170000D01*
X78270000Y-71830000D02*
X85950000Y-71830000D01*
X78270000Y-69170000D02*
X85950000Y-69170000D01*
X78270000Y-71830000D02*
X78270000Y-69170000D01*
X77000000Y-71830000D02*
X75670000Y-71830000D01*
X75670000Y-71830000D02*
X75670000Y-70500000D01*
%TO.C,TP9*%
X64450000Y-85000000D02*
G75*
G03*
X64450000Y-85000000I-950000J0D01*
G01*
%TO.C,TP8*%
X64450000Y-81000000D02*
G75*
G03*
X64450000Y-81000000I-950000J0D01*
G01*
%TO.C,J6*%
X105724000Y-74609000D02*
X104394000Y-74609000D01*
X105724000Y-73279000D02*
X105724000Y-74609000D01*
X105724000Y-72009000D02*
X103064000Y-72009000D01*
X103064000Y-72009000D02*
X103064000Y-69409000D01*
X105724000Y-72009000D02*
X105724000Y-69409000D01*
X105724000Y-69409000D02*
X103064000Y-69409000D01*
%TO.C,C4*%
X114667420Y-81028000D02*
X114948580Y-81028000D01*
X114667420Y-80008000D02*
X114948580Y-80008000D01*
%TO.C,Y1*%
X113800000Y-93800000D02*
X119550000Y-93800000D01*
X113800000Y-90200000D02*
X113800000Y-93800000D01*
X119550000Y-90200000D02*
X113800000Y-90200000D01*
%TO.C,U3*%
X117348000Y-78506000D02*
X120798000Y-78506000D01*
X117348000Y-78506000D02*
X115398000Y-78506000D01*
X117348000Y-73386000D02*
X119298000Y-73386000D01*
X117348000Y-73386000D02*
X115398000Y-73386000D01*
%TO.C,U2*%
X113963000Y-85344000D02*
X113963000Y-88944000D01*
X113963000Y-85344000D02*
X113963000Y-83144000D01*
X120733000Y-85344000D02*
X120733000Y-87544000D01*
X120733000Y-85344000D02*
X120733000Y-83144000D01*
%TO.C,U1*%
X97785000Y-69000000D02*
X97785000Y-65400000D01*
X97785000Y-69000000D02*
X97785000Y-71200000D01*
X89715000Y-69000000D02*
X89715000Y-66800000D01*
X89715000Y-69000000D02*
X89715000Y-71200000D01*
%TO.C,R13*%
X111745500Y-77930742D02*
X111745500Y-78405258D01*
X112790500Y-77930742D02*
X112790500Y-78405258D01*
%TO.C,R12*%
X111745500Y-80979742D02*
X111745500Y-81454258D01*
X112790500Y-80979742D02*
X112790500Y-81454258D01*
%TO.C,R11*%
X77580258Y-55611500D02*
X77105742Y-55611500D01*
X77580258Y-56656500D02*
X77105742Y-56656500D01*
%TO.C,R10*%
X72978742Y-56656500D02*
X73453258Y-56656500D01*
X72978742Y-55611500D02*
X73453258Y-55611500D01*
%TO.C,R9*%
X91486258Y-55738500D02*
X91011742Y-55738500D01*
X91486258Y-56783500D02*
X91011742Y-56783500D01*
%TO.C,R8*%
X86821742Y-56783500D02*
X87296258Y-56783500D01*
X86821742Y-55738500D02*
X87296258Y-55738500D01*
%TO.C,R7*%
X105710258Y-55765500D02*
X105235742Y-55765500D01*
X105710258Y-56810500D02*
X105235742Y-56810500D01*
%TO.C,R6*%
X101299742Y-56810500D02*
X101774258Y-56810500D01*
X101299742Y-55765500D02*
X101774258Y-55765500D01*
%TO.C,R5*%
X119617258Y-55865500D02*
X119142742Y-55865500D01*
X119617258Y-56910500D02*
X119142742Y-56910500D01*
%TO.C,R4*%
X115014742Y-56910500D02*
X115489258Y-56910500D01*
X115014742Y-55865500D02*
X115489258Y-55865500D01*
%TO.C,R3*%
X98312258Y-73477500D02*
X97837742Y-73477500D01*
X98312258Y-74522500D02*
X97837742Y-74522500D01*
%TO.C,R2*%
X93687742Y-74522500D02*
X94162258Y-74522500D01*
X93687742Y-73477500D02*
X94162258Y-73477500D01*
%TO.C,R1*%
X99831258Y-67422500D02*
X99356742Y-67422500D01*
X99831258Y-68467500D02*
X99356742Y-68467500D01*
%TO.C,J5*%
X79491000Y-57588000D02*
X76991000Y-57588000D01*
X79491000Y-60088000D02*
X79491000Y-57588000D01*
X67471000Y-59388000D02*
X67471000Y-57888000D01*
X66471000Y-59388000D02*
X67471000Y-59388000D01*
X78191000Y-59388000D02*
X78191000Y-57888000D01*
X79191000Y-59388000D02*
X78191000Y-59388000D01*
X66971000Y-60198000D02*
X66471000Y-60198000D01*
X66971000Y-61408000D02*
X66971000Y-60198000D01*
X78691000Y-61408000D02*
X66971000Y-61408000D01*
X78691000Y-60198000D02*
X78691000Y-61408000D01*
X79191000Y-60198000D02*
X78691000Y-60198000D01*
X66471000Y-61908000D02*
X79191000Y-61908000D01*
X66471000Y-57888000D02*
X66471000Y-61908000D01*
X79191000Y-57888000D02*
X66471000Y-57888000D01*
X79191000Y-61908000D02*
X79191000Y-57888000D01*
%TO.C,J4*%
X93334000Y-57588000D02*
X90834000Y-57588000D01*
X93334000Y-60088000D02*
X93334000Y-57588000D01*
X81314000Y-59388000D02*
X81314000Y-57888000D01*
X80314000Y-59388000D02*
X81314000Y-59388000D01*
X92034000Y-59388000D02*
X92034000Y-57888000D01*
X93034000Y-59388000D02*
X92034000Y-59388000D01*
X80814000Y-60198000D02*
X80314000Y-60198000D01*
X80814000Y-61408000D02*
X80814000Y-60198000D01*
X92534000Y-61408000D02*
X80814000Y-61408000D01*
X92534000Y-60198000D02*
X92534000Y-61408000D01*
X93034000Y-60198000D02*
X92534000Y-60198000D01*
X80314000Y-61908000D02*
X93034000Y-61908000D01*
X80314000Y-57888000D02*
X80314000Y-61908000D01*
X93034000Y-57888000D02*
X80314000Y-57888000D01*
X93034000Y-61908000D02*
X93034000Y-57888000D01*
%TO.C,J3*%
X107558000Y-57590000D02*
X105058000Y-57590000D01*
X107558000Y-60090000D02*
X107558000Y-57590000D01*
X95538000Y-59390000D02*
X95538000Y-57890000D01*
X94538000Y-59390000D02*
X95538000Y-59390000D01*
X106258000Y-59390000D02*
X106258000Y-57890000D01*
X107258000Y-59390000D02*
X106258000Y-59390000D01*
X95038000Y-60200000D02*
X94538000Y-60200000D01*
X95038000Y-61410000D02*
X95038000Y-60200000D01*
X106758000Y-61410000D02*
X95038000Y-61410000D01*
X106758000Y-60200000D02*
X106758000Y-61410000D01*
X107258000Y-60200000D02*
X106758000Y-60200000D01*
X94538000Y-61910000D02*
X107258000Y-61910000D01*
X94538000Y-57890000D02*
X94538000Y-61910000D01*
X107258000Y-57890000D02*
X94538000Y-57890000D01*
X107258000Y-61910000D02*
X107258000Y-57890000D01*
%TO.C,J2*%
X121228000Y-61910000D02*
X121228000Y-57890000D01*
X121228000Y-57890000D02*
X108508000Y-57890000D01*
X108508000Y-57890000D02*
X108508000Y-61910000D01*
X108508000Y-61910000D02*
X121228000Y-61910000D01*
X121228000Y-60200000D02*
X120728000Y-60200000D01*
X120728000Y-60200000D02*
X120728000Y-61410000D01*
X120728000Y-61410000D02*
X109008000Y-61410000D01*
X109008000Y-61410000D02*
X109008000Y-60200000D01*
X109008000Y-60200000D02*
X108508000Y-60200000D01*
X121228000Y-59390000D02*
X120228000Y-59390000D01*
X120228000Y-59390000D02*
X120228000Y-57890000D01*
X108508000Y-59390000D02*
X109508000Y-59390000D01*
X109508000Y-59390000D02*
X109508000Y-57890000D01*
X121528000Y-60090000D02*
X121528000Y-57590000D01*
X121528000Y-57590000D02*
X119028000Y-57590000D01*
%TO.C,J1*%
X121020000Y-66986000D02*
X118520000Y-66986000D01*
X121020000Y-69486000D02*
X121020000Y-66986000D01*
X109000000Y-68786000D02*
X109000000Y-67286000D01*
X108000000Y-68786000D02*
X109000000Y-68786000D01*
X119720000Y-68786000D02*
X119720000Y-67286000D01*
X120720000Y-68786000D02*
X119720000Y-68786000D01*
X108500000Y-69596000D02*
X108000000Y-69596000D01*
X108500000Y-70806000D02*
X108500000Y-69596000D01*
X120220000Y-70806000D02*
X108500000Y-70806000D01*
X120220000Y-69596000D02*
X120220000Y-70806000D01*
X120720000Y-69596000D02*
X120220000Y-69596000D01*
X108000000Y-71306000D02*
X120720000Y-71306000D01*
X108000000Y-67286000D02*
X108000000Y-71306000D01*
X120720000Y-67286000D02*
X108000000Y-67286000D01*
X120720000Y-71306000D02*
X120720000Y-67286000D01*
%TO.C,C2*%
X121414000Y-91365580D02*
X121414000Y-91084420D01*
X120394000Y-91365580D02*
X120394000Y-91084420D01*
%TO.C,C1*%
X113286000Y-91365580D02*
X113286000Y-91084420D01*
X112266000Y-91365580D02*
X112266000Y-91084420D01*
%TO.C,C3*%
X99798580Y-71372000D02*
X99517420Y-71372000D01*
X99798580Y-72392000D02*
X99517420Y-72392000D01*
%TO.C,A1*%
X65280000Y-75360000D02*
X65280000Y-93400000D01*
X108720000Y-75360000D02*
X65280000Y-75360000D01*
X108720000Y-93400000D02*
X108720000Y-75360000D01*
X106050000Y-90730000D02*
X106050000Y-93400000D01*
X70490000Y-90730000D02*
X106050000Y-90730000D01*
X70490000Y-90730000D02*
X70490000Y-93400000D01*
X106050000Y-78030000D02*
X106050000Y-75360000D01*
X67950000Y-78030000D02*
X106050000Y-78030000D01*
X67950000Y-78030000D02*
X67950000Y-75360000D01*
X65280000Y-93400000D02*
X67950000Y-93400000D01*
X70490000Y-93400000D02*
X108720000Y-93400000D01*
X67950000Y-90730000D02*
X67950000Y-93400000D01*
X70490000Y-90730000D02*
X67950000Y-90730000D01*
%TO.C,R14*%
D11*
X108003642Y-72632380D02*
X107670309Y-72156190D01*
X107432214Y-72632380D02*
X107432214Y-71632380D01*
X107813166Y-71632380D01*
X107908404Y-71680000D01*
X107956023Y-71727619D01*
X108003642Y-71822857D01*
X108003642Y-71965714D01*
X107956023Y-72060952D01*
X107908404Y-72108571D01*
X107813166Y-72156190D01*
X107432214Y-72156190D01*
X108956023Y-72632380D02*
X108384595Y-72632380D01*
X108670309Y-72632380D02*
X108670309Y-71632380D01*
X108575071Y-71775238D01*
X108479833Y-71870476D01*
X108384595Y-71918095D01*
X109813166Y-71965714D02*
X109813166Y-72632380D01*
X109575071Y-71584761D02*
X109336976Y-72299047D01*
X109956023Y-72299047D01*
%TO.C,C4*%
X118333333Y-80857142D02*
X118285714Y-80904761D01*
X118142857Y-80952380D01*
X118047619Y-80952380D01*
X117904761Y-80904761D01*
X117809523Y-80809523D01*
X117761904Y-80714285D01*
X117714285Y-80523809D01*
X117714285Y-80380952D01*
X117761904Y-80190476D01*
X117809523Y-80095238D01*
X117904761Y-80000000D01*
X118047619Y-79952380D01*
X118142857Y-79952380D01*
X118285714Y-80000000D01*
X118333333Y-80047619D01*
X119190476Y-80285714D02*
X119190476Y-80952380D01*
X118952380Y-79904761D02*
X118714285Y-80619047D01*
X119333333Y-80619047D01*
%TO.C,Y1*%
X112523809Y-94226190D02*
X112523809Y-94702380D01*
X112190476Y-93702380D02*
X112523809Y-94226190D01*
X112857142Y-93702380D01*
X113714285Y-94702380D02*
X113142857Y-94702380D01*
X113428571Y-94702380D02*
X113428571Y-93702380D01*
X113333333Y-93845238D01*
X113238095Y-93940476D01*
X113142857Y-93988095D01*
%TO.C,U3*%
X116488095Y-75452380D02*
X116488095Y-76261904D01*
X116535714Y-76357142D01*
X116583333Y-76404761D01*
X116678571Y-76452380D01*
X116869047Y-76452380D01*
X116964285Y-76404761D01*
X117011904Y-76357142D01*
X117059523Y-76261904D01*
X117059523Y-75452380D01*
X117440476Y-75452380D02*
X118059523Y-75452380D01*
X117726190Y-75833333D01*
X117869047Y-75833333D01*
X117964285Y-75880952D01*
X118011904Y-75928571D01*
X118059523Y-76023809D01*
X118059523Y-76261904D01*
X118011904Y-76357142D01*
X117964285Y-76404761D01*
X117869047Y-76452380D01*
X117583333Y-76452380D01*
X117488095Y-76404761D01*
X117440476Y-76357142D01*
%TO.C,U2*%
X116238095Y-84796380D02*
X116238095Y-85605904D01*
X116285714Y-85701142D01*
X116333333Y-85748761D01*
X116428571Y-85796380D01*
X116619047Y-85796380D01*
X116714285Y-85748761D01*
X116761904Y-85701142D01*
X116809523Y-85605904D01*
X116809523Y-84796380D01*
X117238095Y-84891619D02*
X117285714Y-84844000D01*
X117380952Y-84796380D01*
X117619047Y-84796380D01*
X117714285Y-84844000D01*
X117761904Y-84891619D01*
X117809523Y-84986857D01*
X117809523Y-85082095D01*
X117761904Y-85224952D01*
X117190476Y-85796380D01*
X117809523Y-85796380D01*
%TO.C,U1*%
X92988095Y-67952380D02*
X92988095Y-68761904D01*
X93035714Y-68857142D01*
X93083333Y-68904761D01*
X93178571Y-68952380D01*
X93369047Y-68952380D01*
X93464285Y-68904761D01*
X93511904Y-68857142D01*
X93559523Y-68761904D01*
X93559523Y-67952380D01*
X94559523Y-68952380D02*
X93988095Y-68952380D01*
X94273809Y-68952380D02*
X94273809Y-67952380D01*
X94178571Y-68095238D01*
X94083333Y-68190476D01*
X93988095Y-68238095D01*
%TO.C,R13*%
X109607142Y-77702380D02*
X109273809Y-77226190D01*
X109035714Y-77702380D02*
X109035714Y-76702380D01*
X109416666Y-76702380D01*
X109511904Y-76750000D01*
X109559523Y-76797619D01*
X109607142Y-76892857D01*
X109607142Y-77035714D01*
X109559523Y-77130952D01*
X109511904Y-77178571D01*
X109416666Y-77226190D01*
X109035714Y-77226190D01*
X110559523Y-77702380D02*
X109988095Y-77702380D01*
X110273809Y-77702380D02*
X110273809Y-76702380D01*
X110178571Y-76845238D01*
X110083333Y-76940476D01*
X109988095Y-76988095D01*
X110892857Y-76702380D02*
X111511904Y-76702380D01*
X111178571Y-77083333D01*
X111321428Y-77083333D01*
X111416666Y-77130952D01*
X111464285Y-77178571D01*
X111511904Y-77273809D01*
X111511904Y-77511904D01*
X111464285Y-77607142D01*
X111416666Y-77654761D01*
X111321428Y-77702380D01*
X111035714Y-77702380D01*
X110940476Y-77654761D01*
X110892857Y-77607142D01*
%TO.C,R12*%
X109607142Y-80702380D02*
X109273809Y-80226190D01*
X109035714Y-80702380D02*
X109035714Y-79702380D01*
X109416666Y-79702380D01*
X109511904Y-79750000D01*
X109559523Y-79797619D01*
X109607142Y-79892857D01*
X109607142Y-80035714D01*
X109559523Y-80130952D01*
X109511904Y-80178571D01*
X109416666Y-80226190D01*
X109035714Y-80226190D01*
X110559523Y-80702380D02*
X109988095Y-80702380D01*
X110273809Y-80702380D02*
X110273809Y-79702380D01*
X110178571Y-79845238D01*
X110083333Y-79940476D01*
X109988095Y-79988095D01*
X110940476Y-79797619D02*
X110988095Y-79750000D01*
X111083333Y-79702380D01*
X111321428Y-79702380D01*
X111416666Y-79750000D01*
X111464285Y-79797619D01*
X111511904Y-79892857D01*
X111511904Y-79988095D01*
X111464285Y-80130952D01*
X110892857Y-80702380D01*
X111511904Y-80702380D01*
%TO.C,R11*%
X76700142Y-55062380D02*
X76366809Y-54586190D01*
X76128714Y-55062380D02*
X76128714Y-54062380D01*
X76509666Y-54062380D01*
X76604904Y-54110000D01*
X76652523Y-54157619D01*
X76700142Y-54252857D01*
X76700142Y-54395714D01*
X76652523Y-54490952D01*
X76604904Y-54538571D01*
X76509666Y-54586190D01*
X76128714Y-54586190D01*
X77652523Y-55062380D02*
X77081095Y-55062380D01*
X77366809Y-55062380D02*
X77366809Y-54062380D01*
X77271571Y-54205238D01*
X77176333Y-54300476D01*
X77081095Y-54348095D01*
X78604904Y-55062380D02*
X78033476Y-55062380D01*
X78319190Y-55062380D02*
X78319190Y-54062380D01*
X78223952Y-54205238D01*
X78128714Y-54300476D01*
X78033476Y-54348095D01*
%TO.C,R10*%
X72573142Y-55156380D02*
X72239809Y-54680190D01*
X72001714Y-55156380D02*
X72001714Y-54156380D01*
X72382666Y-54156380D01*
X72477904Y-54204000D01*
X72525523Y-54251619D01*
X72573142Y-54346857D01*
X72573142Y-54489714D01*
X72525523Y-54584952D01*
X72477904Y-54632571D01*
X72382666Y-54680190D01*
X72001714Y-54680190D01*
X73525523Y-55156380D02*
X72954095Y-55156380D01*
X73239809Y-55156380D02*
X73239809Y-54156380D01*
X73144571Y-54299238D01*
X73049333Y-54394476D01*
X72954095Y-54442095D01*
X74144571Y-54156380D02*
X74239809Y-54156380D01*
X74335047Y-54204000D01*
X74382666Y-54251619D01*
X74430285Y-54346857D01*
X74477904Y-54537333D01*
X74477904Y-54775428D01*
X74430285Y-54965904D01*
X74382666Y-55061142D01*
X74335047Y-55108761D01*
X74239809Y-55156380D01*
X74144571Y-55156380D01*
X74049333Y-55108761D01*
X74001714Y-55061142D01*
X73954095Y-54965904D01*
X73906476Y-54775428D01*
X73906476Y-54537333D01*
X73954095Y-54346857D01*
X74001714Y-54251619D01*
X74049333Y-54204000D01*
X74144571Y-54156380D01*
%TO.C,R9*%
X91146333Y-55316380D02*
X90813000Y-54840190D01*
X90574904Y-55316380D02*
X90574904Y-54316380D01*
X90955857Y-54316380D01*
X91051095Y-54364000D01*
X91098714Y-54411619D01*
X91146333Y-54506857D01*
X91146333Y-54649714D01*
X91098714Y-54744952D01*
X91051095Y-54792571D01*
X90955857Y-54840190D01*
X90574904Y-54840190D01*
X91622523Y-55316380D02*
X91813000Y-55316380D01*
X91908238Y-55268761D01*
X91955857Y-55221142D01*
X92051095Y-55078285D01*
X92098714Y-54887809D01*
X92098714Y-54506857D01*
X92051095Y-54411619D01*
X92003476Y-54364000D01*
X91908238Y-54316380D01*
X91717761Y-54316380D01*
X91622523Y-54364000D01*
X91574904Y-54411619D01*
X91527285Y-54506857D01*
X91527285Y-54744952D01*
X91574904Y-54840190D01*
X91622523Y-54887809D01*
X91717761Y-54935428D01*
X91908238Y-54935428D01*
X92003476Y-54887809D01*
X92051095Y-54840190D01*
X92098714Y-54744952D01*
%TO.C,R8*%
X86892333Y-55283380D02*
X86559000Y-54807190D01*
X86320904Y-55283380D02*
X86320904Y-54283380D01*
X86701857Y-54283380D01*
X86797095Y-54331000D01*
X86844714Y-54378619D01*
X86892333Y-54473857D01*
X86892333Y-54616714D01*
X86844714Y-54711952D01*
X86797095Y-54759571D01*
X86701857Y-54807190D01*
X86320904Y-54807190D01*
X87463761Y-54711952D02*
X87368523Y-54664333D01*
X87320904Y-54616714D01*
X87273285Y-54521476D01*
X87273285Y-54473857D01*
X87320904Y-54378619D01*
X87368523Y-54331000D01*
X87463761Y-54283380D01*
X87654238Y-54283380D01*
X87749476Y-54331000D01*
X87797095Y-54378619D01*
X87844714Y-54473857D01*
X87844714Y-54521476D01*
X87797095Y-54616714D01*
X87749476Y-54664333D01*
X87654238Y-54711952D01*
X87463761Y-54711952D01*
X87368523Y-54759571D01*
X87320904Y-54807190D01*
X87273285Y-54902428D01*
X87273285Y-55092904D01*
X87320904Y-55188142D01*
X87368523Y-55235761D01*
X87463761Y-55283380D01*
X87654238Y-55283380D01*
X87749476Y-55235761D01*
X87797095Y-55188142D01*
X87844714Y-55092904D01*
X87844714Y-54902428D01*
X87797095Y-54807190D01*
X87749476Y-54759571D01*
X87654238Y-54711952D01*
%TO.C,R7*%
X105306333Y-55343380D02*
X104973000Y-54867190D01*
X104734904Y-55343380D02*
X104734904Y-54343380D01*
X105115857Y-54343380D01*
X105211095Y-54391000D01*
X105258714Y-54438619D01*
X105306333Y-54533857D01*
X105306333Y-54676714D01*
X105258714Y-54771952D01*
X105211095Y-54819571D01*
X105115857Y-54867190D01*
X104734904Y-54867190D01*
X105639666Y-54343380D02*
X106306333Y-54343380D01*
X105877761Y-55343380D01*
%TO.C,R6*%
X101370333Y-55310380D02*
X101037000Y-54834190D01*
X100798904Y-55310380D02*
X100798904Y-54310380D01*
X101179857Y-54310380D01*
X101275095Y-54358000D01*
X101322714Y-54405619D01*
X101370333Y-54500857D01*
X101370333Y-54643714D01*
X101322714Y-54738952D01*
X101275095Y-54786571D01*
X101179857Y-54834190D01*
X100798904Y-54834190D01*
X102227476Y-54310380D02*
X102037000Y-54310380D01*
X101941761Y-54358000D01*
X101894142Y-54405619D01*
X101798904Y-54548476D01*
X101751285Y-54738952D01*
X101751285Y-55119904D01*
X101798904Y-55215142D01*
X101846523Y-55262761D01*
X101941761Y-55310380D01*
X102132238Y-55310380D01*
X102227476Y-55262761D01*
X102275095Y-55215142D01*
X102322714Y-55119904D01*
X102322714Y-54881809D01*
X102275095Y-54786571D01*
X102227476Y-54738952D01*
X102132238Y-54691333D01*
X101941761Y-54691333D01*
X101846523Y-54738952D01*
X101798904Y-54786571D01*
X101751285Y-54881809D01*
%TO.C,R5*%
X119213333Y-55316380D02*
X118880000Y-54840190D01*
X118641904Y-55316380D02*
X118641904Y-54316380D01*
X119022857Y-54316380D01*
X119118095Y-54364000D01*
X119165714Y-54411619D01*
X119213333Y-54506857D01*
X119213333Y-54649714D01*
X119165714Y-54744952D01*
X119118095Y-54792571D01*
X119022857Y-54840190D01*
X118641904Y-54840190D01*
X120118095Y-54316380D02*
X119641904Y-54316380D01*
X119594285Y-54792571D01*
X119641904Y-54744952D01*
X119737142Y-54697333D01*
X119975238Y-54697333D01*
X120070476Y-54744952D01*
X120118095Y-54792571D01*
X120165714Y-54887809D01*
X120165714Y-55125904D01*
X120118095Y-55221142D01*
X120070476Y-55268761D01*
X119975238Y-55316380D01*
X119737142Y-55316380D01*
X119641904Y-55268761D01*
X119594285Y-55221142D01*
%TO.C,R4*%
X115085333Y-55410380D02*
X114752000Y-54934190D01*
X114513904Y-55410380D02*
X114513904Y-54410380D01*
X114894857Y-54410380D01*
X114990095Y-54458000D01*
X115037714Y-54505619D01*
X115085333Y-54600857D01*
X115085333Y-54743714D01*
X115037714Y-54838952D01*
X114990095Y-54886571D01*
X114894857Y-54934190D01*
X114513904Y-54934190D01*
X115942476Y-54743714D02*
X115942476Y-55410380D01*
X115704380Y-54362761D02*
X115466285Y-55077047D01*
X116085333Y-55077047D01*
%TO.C,R3*%
X100833333Y-74952380D02*
X100500000Y-74476190D01*
X100261904Y-74952380D02*
X100261904Y-73952380D01*
X100642857Y-73952380D01*
X100738095Y-74000000D01*
X100785714Y-74047619D01*
X100833333Y-74142857D01*
X100833333Y-74285714D01*
X100785714Y-74380952D01*
X100738095Y-74428571D01*
X100642857Y-74476190D01*
X100261904Y-74476190D01*
X101166666Y-73952380D02*
X101785714Y-73952380D01*
X101452380Y-74333333D01*
X101595238Y-74333333D01*
X101690476Y-74380952D01*
X101738095Y-74428571D01*
X101785714Y-74523809D01*
X101785714Y-74761904D01*
X101738095Y-74857142D01*
X101690476Y-74904761D01*
X101595238Y-74952380D01*
X101309523Y-74952380D01*
X101214285Y-74904761D01*
X101166666Y-74857142D01*
%TO.C,R2*%
X91083333Y-74452380D02*
X90750000Y-73976190D01*
X90511904Y-74452380D02*
X90511904Y-73452380D01*
X90892857Y-73452380D01*
X90988095Y-73500000D01*
X91035714Y-73547619D01*
X91083333Y-73642857D01*
X91083333Y-73785714D01*
X91035714Y-73880952D01*
X90988095Y-73928571D01*
X90892857Y-73976190D01*
X90511904Y-73976190D01*
X91464285Y-73547619D02*
X91511904Y-73500000D01*
X91607142Y-73452380D01*
X91845238Y-73452380D01*
X91940476Y-73500000D01*
X91988095Y-73547619D01*
X92035714Y-73642857D01*
X92035714Y-73738095D01*
X91988095Y-73880952D01*
X91416666Y-74452380D01*
X92035714Y-74452380D01*
%TO.C,R1*%
X99583333Y-66952380D02*
X99250000Y-66476190D01*
X99011904Y-66952380D02*
X99011904Y-65952380D01*
X99392857Y-65952380D01*
X99488095Y-66000000D01*
X99535714Y-66047619D01*
X99583333Y-66142857D01*
X99583333Y-66285714D01*
X99535714Y-66380952D01*
X99488095Y-66428571D01*
X99392857Y-66476190D01*
X99011904Y-66476190D01*
X100535714Y-66952380D02*
X99964285Y-66952380D01*
X100250000Y-66952380D02*
X100250000Y-65952380D01*
X100154761Y-66095238D01*
X100059523Y-66190476D01*
X99964285Y-66238095D01*
%TO.C,C2*%
X122583333Y-92107142D02*
X122535714Y-92154761D01*
X122392857Y-92202380D01*
X122297619Y-92202380D01*
X122154761Y-92154761D01*
X122059523Y-92059523D01*
X122011904Y-91964285D01*
X121964285Y-91773809D01*
X121964285Y-91630952D01*
X122011904Y-91440476D01*
X122059523Y-91345238D01*
X122154761Y-91250000D01*
X122297619Y-91202380D01*
X122392857Y-91202380D01*
X122535714Y-91250000D01*
X122583333Y-91297619D01*
X122964285Y-91297619D02*
X123011904Y-91250000D01*
X123107142Y-91202380D01*
X123345238Y-91202380D01*
X123440476Y-91250000D01*
X123488095Y-91297619D01*
X123535714Y-91392857D01*
X123535714Y-91488095D01*
X123488095Y-91630952D01*
X122916666Y-92202380D01*
X123535714Y-92202380D01*
%TO.C,C1*%
X110583333Y-91857142D02*
X110535714Y-91904761D01*
X110392857Y-91952380D01*
X110297619Y-91952380D01*
X110154761Y-91904761D01*
X110059523Y-91809523D01*
X110011904Y-91714285D01*
X109964285Y-91523809D01*
X109964285Y-91380952D01*
X110011904Y-91190476D01*
X110059523Y-91095238D01*
X110154761Y-91000000D01*
X110297619Y-90952380D01*
X110392857Y-90952380D01*
X110535714Y-91000000D01*
X110583333Y-91047619D01*
X111535714Y-91952380D02*
X110964285Y-91952380D01*
X111250000Y-91952380D02*
X111250000Y-90952380D01*
X111154761Y-91095238D01*
X111059523Y-91190476D01*
X110964285Y-91238095D01*
%TO.C,C3*%
X99491333Y-70357142D02*
X99443714Y-70404761D01*
X99300857Y-70452380D01*
X99205619Y-70452380D01*
X99062761Y-70404761D01*
X98967523Y-70309523D01*
X98919904Y-70214285D01*
X98872285Y-70023809D01*
X98872285Y-69880952D01*
X98919904Y-69690476D01*
X98967523Y-69595238D01*
X99062761Y-69500000D01*
X99205619Y-69452380D01*
X99300857Y-69452380D01*
X99443714Y-69500000D01*
X99491333Y-69547619D01*
X99824666Y-69452380D02*
X100443714Y-69452380D01*
X100110380Y-69833333D01*
X100253238Y-69833333D01*
X100348476Y-69880952D01*
X100396095Y-69928571D01*
X100443714Y-70023809D01*
X100443714Y-70261904D01*
X100396095Y-70357142D01*
X100348476Y-70404761D01*
X100253238Y-70452380D01*
X99967523Y-70452380D01*
X99872285Y-70404761D01*
X99824666Y-70357142D01*
%TD*%
M02*
