%TF.GenerationSoftware,KiCad,Pcbnew,(5.1.9)-1*%
%TF.CreationDate,2021-08-01T22:25:33+09:30*%
%TF.ProjectId,tyre_temp_sense,74797265-5f74-4656-9d70-5f73656e7365,rev?*%
%TF.SameCoordinates,Original*%
%TF.FileFunction,Legend,Bot*%
%TF.FilePolarity,Positive*%
%FSLAX46Y46*%
G04 Gerber Fmt 4.6, Leading zero omitted, Abs format (unit mm)*
G04 Created by KiCad (PCBNEW (5.1.9)-1) date 2021-08-01 22:25:33*
%MOMM*%
%LPD*%
G01*
G04 APERTURE LIST*
%ADD10C,0.150000*%
G04 APERTURE END LIST*
D10*
X119527261Y-62727380D02*
X118955833Y-62727380D01*
X119241547Y-63727380D02*
X119241547Y-62727380D01*
X118622500Y-63727380D02*
X118622500Y-62727380D01*
X118193928Y-63727380D02*
X118193928Y-63203571D01*
X118241547Y-63108333D01*
X118336785Y-63060714D01*
X118479642Y-63060714D01*
X118574880Y-63108333D01*
X118622500Y-63155952D01*
X117336785Y-63679761D02*
X117432023Y-63727380D01*
X117622500Y-63727380D01*
X117717738Y-63679761D01*
X117765357Y-63584523D01*
X117765357Y-63203571D01*
X117717738Y-63108333D01*
X117622500Y-63060714D01*
X117432023Y-63060714D01*
X117336785Y-63108333D01*
X117289166Y-63203571D01*
X117289166Y-63298809D01*
X117765357Y-63394047D01*
X116146309Y-63679761D02*
X116051071Y-63727380D01*
X115860595Y-63727380D01*
X115765357Y-63679761D01*
X115717738Y-63584523D01*
X115717738Y-63536904D01*
X115765357Y-63441666D01*
X115860595Y-63394047D01*
X116003452Y-63394047D01*
X116098690Y-63346428D01*
X116146309Y-63251190D01*
X116146309Y-63203571D01*
X116098690Y-63108333D01*
X116003452Y-63060714D01*
X115860595Y-63060714D01*
X115765357Y-63108333D01*
X114908214Y-63679761D02*
X115003452Y-63727380D01*
X115193928Y-63727380D01*
X115289166Y-63679761D01*
X115336785Y-63584523D01*
X115336785Y-63203571D01*
X115289166Y-63108333D01*
X115193928Y-63060714D01*
X115003452Y-63060714D01*
X114908214Y-63108333D01*
X114860595Y-63203571D01*
X114860595Y-63298809D01*
X115336785Y-63394047D01*
X114003452Y-63727380D02*
X114003452Y-63203571D01*
X114051071Y-63108333D01*
X114146309Y-63060714D01*
X114336785Y-63060714D01*
X114432023Y-63108333D01*
X114003452Y-63679761D02*
X114098690Y-63727380D01*
X114336785Y-63727380D01*
X114432023Y-63679761D01*
X114479642Y-63584523D01*
X114479642Y-63489285D01*
X114432023Y-63394047D01*
X114336785Y-63346428D01*
X114098690Y-63346428D01*
X114003452Y-63298809D01*
X113670119Y-63060714D02*
X113289166Y-63060714D01*
X113527261Y-62727380D02*
X113527261Y-63584523D01*
X113479642Y-63679761D01*
X113384404Y-63727380D01*
X113289166Y-63727380D01*
X112955833Y-63727380D02*
X112955833Y-62727380D01*
X112955833Y-63108333D02*
X112860595Y-63060714D01*
X112670119Y-63060714D01*
X112574880Y-63108333D01*
X112527261Y-63155952D01*
X112479642Y-63251190D01*
X112479642Y-63536904D01*
X112527261Y-63632142D01*
X112574880Y-63679761D01*
X112670119Y-63727380D01*
X112860595Y-63727380D01*
X112955833Y-63679761D01*
X111670119Y-63679761D02*
X111765357Y-63727380D01*
X111955833Y-63727380D01*
X112051071Y-63679761D01*
X112098690Y-63584523D01*
X112098690Y-63203571D01*
X112051071Y-63108333D01*
X111955833Y-63060714D01*
X111765357Y-63060714D01*
X111670119Y-63108333D01*
X111622500Y-63203571D01*
X111622500Y-63298809D01*
X112098690Y-63394047D01*
X111051071Y-63727380D02*
X111146309Y-63679761D01*
X111193928Y-63584523D01*
X111193928Y-62727380D01*
X110812976Y-63060714D02*
X110432023Y-63060714D01*
X110670119Y-62727380D02*
X110670119Y-63584523D01*
X110622500Y-63679761D01*
X110527261Y-63727380D01*
X110432023Y-63727380D01*
X109384404Y-63679761D02*
X109289166Y-63727380D01*
X109098690Y-63727380D01*
X109003452Y-63679761D01*
X108955833Y-63584523D01*
X108955833Y-63536904D01*
X109003452Y-63441666D01*
X109098690Y-63394047D01*
X109241547Y-63394047D01*
X109336785Y-63346428D01*
X109384404Y-63251190D01*
X109384404Y-63203571D01*
X109336785Y-63108333D01*
X109241547Y-63060714D01*
X109098690Y-63060714D01*
X109003452Y-63108333D01*
X108527261Y-63727380D02*
X108527261Y-63060714D01*
X108527261Y-62727380D02*
X108574880Y-62775000D01*
X108527261Y-62822619D01*
X108479642Y-62775000D01*
X108527261Y-62727380D01*
X108527261Y-62822619D01*
X107622500Y-63060714D02*
X107622500Y-63870238D01*
X107670119Y-63965476D01*
X107717738Y-64013095D01*
X107812976Y-64060714D01*
X107955833Y-64060714D01*
X108051071Y-64013095D01*
X107622500Y-63679761D02*
X107717738Y-63727380D01*
X107908214Y-63727380D01*
X108003452Y-63679761D01*
X108051071Y-63632142D01*
X108098690Y-63536904D01*
X108098690Y-63251190D01*
X108051071Y-63155952D01*
X108003452Y-63108333D01*
X107908214Y-63060714D01*
X107717738Y-63060714D01*
X107622500Y-63108333D01*
X107146309Y-63060714D02*
X107146309Y-63727380D01*
X107146309Y-63155952D02*
X107098690Y-63108333D01*
X107003452Y-63060714D01*
X106860595Y-63060714D01*
X106765357Y-63108333D01*
X106717738Y-63203571D01*
X106717738Y-63727380D01*
X105479642Y-63727380D02*
X105479642Y-62727380D01*
X105051071Y-63727380D02*
X105051071Y-63203571D01*
X105098690Y-63108333D01*
X105193928Y-63060714D01*
X105336785Y-63060714D01*
X105432023Y-63108333D01*
X105479642Y-63155952D01*
X104146309Y-63727380D02*
X104146309Y-63203571D01*
X104193928Y-63108333D01*
X104289166Y-63060714D01*
X104479642Y-63060714D01*
X104574880Y-63108333D01*
X104146309Y-63679761D02*
X104241547Y-63727380D01*
X104479642Y-63727380D01*
X104574880Y-63679761D01*
X104622500Y-63584523D01*
X104622500Y-63489285D01*
X104574880Y-63394047D01*
X104479642Y-63346428D01*
X104241547Y-63346428D01*
X104146309Y-63298809D01*
X103717738Y-63679761D02*
X103622500Y-63727380D01*
X103432023Y-63727380D01*
X103336785Y-63679761D01*
X103289166Y-63584523D01*
X103289166Y-63536904D01*
X103336785Y-63441666D01*
X103432023Y-63394047D01*
X103574880Y-63394047D01*
X103670119Y-63346428D01*
X103717738Y-63251190D01*
X103717738Y-63203571D01*
X103670119Y-63108333D01*
X103574880Y-63060714D01*
X103432023Y-63060714D01*
X103336785Y-63108333D01*
X102098690Y-63727380D02*
X102098690Y-62727380D01*
X102098690Y-63108333D02*
X102003452Y-63060714D01*
X101812976Y-63060714D01*
X101717738Y-63108333D01*
X101670119Y-63155952D01*
X101622500Y-63251190D01*
X101622500Y-63536904D01*
X101670119Y-63632142D01*
X101717738Y-63679761D01*
X101812976Y-63727380D01*
X102003452Y-63727380D01*
X102098690Y-63679761D01*
X100812976Y-63679761D02*
X100908214Y-63727380D01*
X101098690Y-63727380D01*
X101193928Y-63679761D01*
X101241547Y-63584523D01*
X101241547Y-63203571D01*
X101193928Y-63108333D01*
X101098690Y-63060714D01*
X100908214Y-63060714D01*
X100812976Y-63108333D01*
X100765357Y-63203571D01*
X100765357Y-63298809D01*
X101241547Y-63394047D01*
X99955833Y-63679761D02*
X100051071Y-63727380D01*
X100241547Y-63727380D01*
X100336785Y-63679761D01*
X100384404Y-63584523D01*
X100384404Y-63203571D01*
X100336785Y-63108333D01*
X100241547Y-63060714D01*
X100051071Y-63060714D01*
X99955833Y-63108333D01*
X99908214Y-63203571D01*
X99908214Y-63298809D01*
X100384404Y-63394047D01*
X99479642Y-63060714D02*
X99479642Y-63727380D01*
X99479642Y-63155952D02*
X99432023Y-63108333D01*
X99336785Y-63060714D01*
X99193928Y-63060714D01*
X99098690Y-63108333D01*
X99051071Y-63203571D01*
X99051071Y-63727380D01*
X97860595Y-63679761D02*
X97765357Y-63727380D01*
X97574880Y-63727380D01*
X97479642Y-63679761D01*
X97432023Y-63584523D01*
X97432023Y-63536904D01*
X97479642Y-63441666D01*
X97574880Y-63394047D01*
X97717738Y-63394047D01*
X97812976Y-63346428D01*
X97860595Y-63251190D01*
X97860595Y-63203571D01*
X97812976Y-63108333D01*
X97717738Y-63060714D01*
X97574880Y-63060714D01*
X97479642Y-63108333D01*
X97098690Y-63060714D02*
X96908214Y-63727380D01*
X96717738Y-63251190D01*
X96527261Y-63727380D01*
X96336785Y-63060714D01*
X95955833Y-63727380D02*
X95955833Y-63060714D01*
X95955833Y-62727380D02*
X96003452Y-62775000D01*
X95955833Y-62822619D01*
X95908214Y-62775000D01*
X95955833Y-62727380D01*
X95955833Y-62822619D01*
X95622500Y-63060714D02*
X95241547Y-63060714D01*
X95479642Y-62727380D02*
X95479642Y-63584523D01*
X95432023Y-63679761D01*
X95336785Y-63727380D01*
X95241547Y-63727380D01*
X94479642Y-63679761D02*
X94574880Y-63727380D01*
X94765357Y-63727380D01*
X94860595Y-63679761D01*
X94908214Y-63632142D01*
X94955833Y-63536904D01*
X94955833Y-63251190D01*
X94908214Y-63155952D01*
X94860595Y-63108333D01*
X94765357Y-63060714D01*
X94574880Y-63060714D01*
X94479642Y-63108333D01*
X94051071Y-63727380D02*
X94051071Y-62727380D01*
X93622500Y-63727380D02*
X93622500Y-63203571D01*
X93670119Y-63108333D01*
X93765357Y-63060714D01*
X93908214Y-63060714D01*
X94003452Y-63108333D01*
X94051071Y-63155952D01*
X92765357Y-63679761D02*
X92860595Y-63727380D01*
X93051071Y-63727380D01*
X93146309Y-63679761D01*
X93193928Y-63584523D01*
X93193928Y-63203571D01*
X93146309Y-63108333D01*
X93051071Y-63060714D01*
X92860595Y-63060714D01*
X92765357Y-63108333D01*
X92717738Y-63203571D01*
X92717738Y-63298809D01*
X93193928Y-63394047D01*
X91860595Y-63727380D02*
X91860595Y-62727380D01*
X91860595Y-63679761D02*
X91955833Y-63727380D01*
X92146309Y-63727380D01*
X92241547Y-63679761D01*
X92289166Y-63632142D01*
X92336785Y-63536904D01*
X92336785Y-63251190D01*
X92289166Y-63155952D01*
X92241547Y-63108333D01*
X92146309Y-63060714D01*
X91955833Y-63060714D01*
X91860595Y-63108333D01*
X90479642Y-63727380D02*
X90574880Y-63679761D01*
X90622500Y-63632142D01*
X90670119Y-63536904D01*
X90670119Y-63251190D01*
X90622500Y-63155952D01*
X90574880Y-63108333D01*
X90479642Y-63060714D01*
X90336785Y-63060714D01*
X90241547Y-63108333D01*
X90193928Y-63155952D01*
X90146309Y-63251190D01*
X90146309Y-63536904D01*
X90193928Y-63632142D01*
X90241547Y-63679761D01*
X90336785Y-63727380D01*
X90479642Y-63727380D01*
X89717738Y-63060714D02*
X89717738Y-63727380D01*
X89717738Y-63155952D02*
X89670119Y-63108333D01*
X89574880Y-63060714D01*
X89432023Y-63060714D01*
X89336785Y-63108333D01*
X89289166Y-63203571D01*
X89289166Y-63727380D01*
X88812976Y-63632142D02*
X88765357Y-63679761D01*
X88812976Y-63727380D01*
X88860595Y-63679761D01*
X88812976Y-63632142D01*
X88812976Y-63727380D01*
X119384404Y-65377380D02*
X119384404Y-64377380D01*
X119003452Y-64377380D01*
X118908214Y-64425000D01*
X118860595Y-64472619D01*
X118812976Y-64567857D01*
X118812976Y-64710714D01*
X118860595Y-64805952D01*
X118908214Y-64853571D01*
X119003452Y-64901190D01*
X119384404Y-64901190D01*
X118241547Y-65377380D02*
X118336785Y-65329761D01*
X118384404Y-65234523D01*
X118384404Y-64377380D01*
X117479642Y-65329761D02*
X117574880Y-65377380D01*
X117765357Y-65377380D01*
X117860595Y-65329761D01*
X117908214Y-65234523D01*
X117908214Y-64853571D01*
X117860595Y-64758333D01*
X117765357Y-64710714D01*
X117574880Y-64710714D01*
X117479642Y-64758333D01*
X117432023Y-64853571D01*
X117432023Y-64948809D01*
X117908214Y-65044047D01*
X116574880Y-65377380D02*
X116574880Y-64853571D01*
X116622500Y-64758333D01*
X116717738Y-64710714D01*
X116908214Y-64710714D01*
X117003452Y-64758333D01*
X116574880Y-65329761D02*
X116670119Y-65377380D01*
X116908214Y-65377380D01*
X117003452Y-65329761D01*
X117051071Y-65234523D01*
X117051071Y-65139285D01*
X117003452Y-65044047D01*
X116908214Y-64996428D01*
X116670119Y-64996428D01*
X116574880Y-64948809D01*
X116146309Y-65329761D02*
X116051071Y-65377380D01*
X115860595Y-65377380D01*
X115765357Y-65329761D01*
X115717738Y-65234523D01*
X115717738Y-65186904D01*
X115765357Y-65091666D01*
X115860595Y-65044047D01*
X116003452Y-65044047D01*
X116098690Y-64996428D01*
X116146309Y-64901190D01*
X116146309Y-64853571D01*
X116098690Y-64758333D01*
X116003452Y-64710714D01*
X115860595Y-64710714D01*
X115765357Y-64758333D01*
X114908214Y-65329761D02*
X115003452Y-65377380D01*
X115193928Y-65377380D01*
X115289166Y-65329761D01*
X115336785Y-65234523D01*
X115336785Y-64853571D01*
X115289166Y-64758333D01*
X115193928Y-64710714D01*
X115003452Y-64710714D01*
X114908214Y-64758333D01*
X114860595Y-64853571D01*
X114860595Y-64948809D01*
X115336785Y-65044047D01*
X113670119Y-65377380D02*
X113670119Y-64710714D01*
X113670119Y-64901190D02*
X113622500Y-64805952D01*
X113574880Y-64758333D01*
X113479642Y-64710714D01*
X113384404Y-64710714D01*
X112670119Y-65329761D02*
X112765357Y-65377380D01*
X112955833Y-65377380D01*
X113051071Y-65329761D01*
X113098690Y-65234523D01*
X113098690Y-64853571D01*
X113051071Y-64758333D01*
X112955833Y-64710714D01*
X112765357Y-64710714D01*
X112670119Y-64758333D01*
X112622500Y-64853571D01*
X112622500Y-64948809D01*
X113098690Y-65044047D01*
X112336785Y-64710714D02*
X111955833Y-64710714D01*
X112193928Y-65377380D02*
X112193928Y-64520238D01*
X112146309Y-64425000D01*
X112051071Y-64377380D01*
X111955833Y-64377380D01*
X111622500Y-65377380D02*
X111622500Y-64710714D01*
X111622500Y-64901190D02*
X111574880Y-64805952D01*
X111527261Y-64758333D01*
X111432023Y-64710714D01*
X111336785Y-64710714D01*
X110574880Y-65377380D02*
X110574880Y-64853571D01*
X110622500Y-64758333D01*
X110717738Y-64710714D01*
X110908214Y-64710714D01*
X111003452Y-64758333D01*
X110574880Y-65329761D02*
X110670119Y-65377380D01*
X110908214Y-65377380D01*
X111003452Y-65329761D01*
X111051071Y-65234523D01*
X111051071Y-65139285D01*
X111003452Y-65044047D01*
X110908214Y-64996428D01*
X110670119Y-64996428D01*
X110574880Y-64948809D01*
X110098690Y-65377380D02*
X110098690Y-64710714D01*
X110098690Y-64377380D02*
X110146309Y-64425000D01*
X110098690Y-64472619D01*
X110051071Y-64425000D01*
X110098690Y-64377380D01*
X110098690Y-64472619D01*
X109622500Y-64710714D02*
X109622500Y-65377380D01*
X109622500Y-64805952D02*
X109574880Y-64758333D01*
X109479642Y-64710714D01*
X109336785Y-64710714D01*
X109241547Y-64758333D01*
X109193928Y-64853571D01*
X109193928Y-65377380D01*
X108098690Y-64710714D02*
X107717738Y-64710714D01*
X107955833Y-65377380D02*
X107955833Y-64520238D01*
X107908214Y-64425000D01*
X107812976Y-64377380D01*
X107717738Y-64377380D01*
X107384404Y-65377380D02*
X107384404Y-64710714D01*
X107384404Y-64901190D02*
X107336785Y-64805952D01*
X107289166Y-64758333D01*
X107193928Y-64710714D01*
X107098690Y-64710714D01*
X106622500Y-65377380D02*
X106717738Y-65329761D01*
X106765357Y-65282142D01*
X106812976Y-65186904D01*
X106812976Y-64901190D01*
X106765357Y-64805952D01*
X106717738Y-64758333D01*
X106622500Y-64710714D01*
X106479642Y-64710714D01*
X106384404Y-64758333D01*
X106336785Y-64805952D01*
X106289166Y-64901190D01*
X106289166Y-65186904D01*
X106336785Y-65282142D01*
X106384404Y-65329761D01*
X106479642Y-65377380D01*
X106622500Y-65377380D01*
X105860595Y-65377380D02*
X105860595Y-64710714D01*
X105860595Y-64805952D02*
X105812976Y-64758333D01*
X105717738Y-64710714D01*
X105574880Y-64710714D01*
X105479642Y-64758333D01*
X105432023Y-64853571D01*
X105432023Y-65377380D01*
X105432023Y-64853571D02*
X105384404Y-64758333D01*
X105289166Y-64710714D01*
X105146309Y-64710714D01*
X105051071Y-64758333D01*
X105003452Y-64853571D01*
X105003452Y-65377380D01*
X103860595Y-64710714D02*
X103670119Y-65377380D01*
X103479642Y-64901190D01*
X103289166Y-65377380D01*
X103098690Y-64710714D01*
X102289166Y-65377380D02*
X102289166Y-64853571D01*
X102336785Y-64758333D01*
X102432023Y-64710714D01*
X102622500Y-64710714D01*
X102717738Y-64758333D01*
X102289166Y-65329761D02*
X102384404Y-65377380D01*
X102622500Y-65377380D01*
X102717738Y-65329761D01*
X102765357Y-65234523D01*
X102765357Y-65139285D01*
X102717738Y-65044047D01*
X102622500Y-64996428D01*
X102384404Y-64996428D01*
X102289166Y-64948809D01*
X101670119Y-65377380D02*
X101765357Y-65329761D01*
X101812976Y-65234523D01*
X101812976Y-64377380D01*
X101289166Y-65377380D02*
X101289166Y-64377380D01*
X101193928Y-64996428D02*
X100908214Y-65377380D01*
X100908214Y-64710714D02*
X101289166Y-65091666D01*
X100479642Y-65377380D02*
X100479642Y-64710714D01*
X100479642Y-64377380D02*
X100527261Y-64425000D01*
X100479642Y-64472619D01*
X100432023Y-64425000D01*
X100479642Y-64377380D01*
X100479642Y-64472619D01*
X100003452Y-64710714D02*
X100003452Y-65377380D01*
X100003452Y-64805952D02*
X99955833Y-64758333D01*
X99860595Y-64710714D01*
X99717738Y-64710714D01*
X99622500Y-64758333D01*
X99574880Y-64853571D01*
X99574880Y-65377380D01*
X98670119Y-64710714D02*
X98670119Y-65520238D01*
X98717738Y-65615476D01*
X98765357Y-65663095D01*
X98860595Y-65710714D01*
X99003452Y-65710714D01*
X99098690Y-65663095D01*
X98670119Y-65329761D02*
X98765357Y-65377380D01*
X98955833Y-65377380D01*
X99051071Y-65329761D01*
X99098690Y-65282142D01*
X99146309Y-65186904D01*
X99146309Y-64901190D01*
X99098690Y-64805952D01*
X99051071Y-64758333D01*
X98955833Y-64710714D01*
X98765357Y-64710714D01*
X98670119Y-64758333D01*
X97003452Y-65377380D02*
X97003452Y-64853571D01*
X97051071Y-64758333D01*
X97146309Y-64710714D01*
X97336785Y-64710714D01*
X97432023Y-64758333D01*
X97003452Y-65329761D02*
X97098690Y-65377380D01*
X97336785Y-65377380D01*
X97432023Y-65329761D01*
X97479642Y-65234523D01*
X97479642Y-65139285D01*
X97432023Y-65044047D01*
X97336785Y-64996428D01*
X97098690Y-64996428D01*
X97003452Y-64948809D01*
X96527261Y-65377380D02*
X96527261Y-64377380D01*
X96527261Y-64758333D02*
X96432023Y-64710714D01*
X96241547Y-64710714D01*
X96146309Y-64758333D01*
X96098690Y-64805952D01*
X96051071Y-64901190D01*
X96051071Y-65186904D01*
X96098690Y-65282142D01*
X96146309Y-65329761D01*
X96241547Y-65377380D01*
X96432023Y-65377380D01*
X96527261Y-65329761D01*
X95479642Y-65377380D02*
X95574880Y-65329761D01*
X95622500Y-65282142D01*
X95670119Y-65186904D01*
X95670119Y-64901190D01*
X95622500Y-64805952D01*
X95574880Y-64758333D01*
X95479642Y-64710714D01*
X95336785Y-64710714D01*
X95241547Y-64758333D01*
X95193928Y-64805952D01*
X95146309Y-64901190D01*
X95146309Y-65186904D01*
X95193928Y-65282142D01*
X95241547Y-65329761D01*
X95336785Y-65377380D01*
X95479642Y-65377380D01*
X94289166Y-64710714D02*
X94289166Y-65377380D01*
X94717738Y-64710714D02*
X94717738Y-65234523D01*
X94670119Y-65329761D01*
X94574880Y-65377380D01*
X94432023Y-65377380D01*
X94336785Y-65329761D01*
X94289166Y-65282142D01*
X93955833Y-64710714D02*
X93574880Y-64710714D01*
X93812976Y-64377380D02*
X93812976Y-65234523D01*
X93765357Y-65329761D01*
X93670119Y-65377380D01*
X93574880Y-65377380D01*
X92622500Y-64710714D02*
X92241547Y-64710714D01*
X92479642Y-64377380D02*
X92479642Y-65234523D01*
X92432023Y-65329761D01*
X92336785Y-65377380D01*
X92241547Y-65377380D01*
X91908214Y-65377380D02*
X91908214Y-64377380D01*
X91479642Y-65377380D02*
X91479642Y-64853571D01*
X91527261Y-64758333D01*
X91622500Y-64710714D01*
X91765357Y-64710714D01*
X91860595Y-64758333D01*
X91908214Y-64805952D01*
X90622500Y-65329761D02*
X90717738Y-65377380D01*
X90908214Y-65377380D01*
X91003452Y-65329761D01*
X91051071Y-65234523D01*
X91051071Y-64853571D01*
X91003452Y-64758333D01*
X90908214Y-64710714D01*
X90717738Y-64710714D01*
X90622500Y-64758333D01*
X90574880Y-64853571D01*
X90574880Y-64948809D01*
X91051071Y-65044047D01*
X89384404Y-65377380D02*
X89384404Y-64377380D01*
X88955833Y-64139285D02*
X88860595Y-64091666D01*
X88717738Y-64091666D01*
X88622500Y-64139285D01*
X88574880Y-64234523D01*
X88574880Y-64329761D01*
X88622500Y-64425000D01*
X88955833Y-64758333D01*
X88574880Y-64758333D01*
X87574880Y-65282142D02*
X87622500Y-65329761D01*
X87765357Y-65377380D01*
X87860595Y-65377380D01*
X88003452Y-65329761D01*
X88098690Y-65234523D01*
X88146309Y-65139285D01*
X88193928Y-64948809D01*
X88193928Y-64805952D01*
X88146309Y-64615476D01*
X88098690Y-64520238D01*
X88003452Y-64425000D01*
X87860595Y-64377380D01*
X87765357Y-64377380D01*
X87622500Y-64425000D01*
X87574880Y-64472619D01*
X86384404Y-65377380D02*
X86384404Y-64377380D01*
X86384404Y-64758333D02*
X86289166Y-64710714D01*
X86098690Y-64710714D01*
X86003452Y-64758333D01*
X85955833Y-64805952D01*
X85908214Y-64901190D01*
X85908214Y-65186904D01*
X85955833Y-65282142D01*
X86003452Y-65329761D01*
X86098690Y-65377380D01*
X86289166Y-65377380D01*
X86384404Y-65329761D01*
X85051071Y-64710714D02*
X85051071Y-65377380D01*
X85479642Y-64710714D02*
X85479642Y-65234523D01*
X85432023Y-65329761D01*
X85336785Y-65377380D01*
X85193928Y-65377380D01*
X85098690Y-65329761D01*
X85051071Y-65282142D01*
X84622500Y-65329761D02*
X84527261Y-65377380D01*
X84336785Y-65377380D01*
X84241547Y-65329761D01*
X84193928Y-65234523D01*
X84193928Y-65186904D01*
X84241547Y-65091666D01*
X84336785Y-65044047D01*
X84479642Y-65044047D01*
X84574880Y-64996428D01*
X84622500Y-64901190D01*
X84622500Y-64853571D01*
X84574880Y-64758333D01*
X84479642Y-64710714D01*
X84336785Y-64710714D01*
X84241547Y-64758333D01*
X83098690Y-64710714D02*
X82908214Y-65377380D01*
X82717738Y-64901190D01*
X82527261Y-65377380D01*
X82336785Y-64710714D01*
X81955833Y-65377380D02*
X81955833Y-64377380D01*
X81527261Y-65377380D02*
X81527261Y-64853571D01*
X81574880Y-64758333D01*
X81670119Y-64710714D01*
X81812976Y-64710714D01*
X81908214Y-64758333D01*
X81955833Y-64805952D01*
X81051071Y-65377380D02*
X81051071Y-64710714D01*
X81051071Y-64377380D02*
X81098690Y-64425000D01*
X81051071Y-64472619D01*
X81003452Y-64425000D01*
X81051071Y-64377380D01*
X81051071Y-64472619D01*
X80432023Y-65377380D02*
X80527261Y-65329761D01*
X80574880Y-65234523D01*
X80574880Y-64377380D01*
X79670119Y-65329761D02*
X79765357Y-65377380D01*
X79955833Y-65377380D01*
X80051071Y-65329761D01*
X80098690Y-65234523D01*
X80098690Y-64853571D01*
X80051071Y-64758333D01*
X79955833Y-64710714D01*
X79765357Y-64710714D01*
X79670119Y-64758333D01*
X79622500Y-64853571D01*
X79622500Y-64948809D01*
X80098690Y-65044047D01*
X78574880Y-64710714D02*
X78193928Y-64710714D01*
X78432023Y-64377380D02*
X78432023Y-65234523D01*
X78384404Y-65329761D01*
X78289166Y-65377380D01*
X78193928Y-65377380D01*
X77860595Y-65377380D02*
X77860595Y-64377380D01*
X77432023Y-65377380D02*
X77432023Y-64853571D01*
X77479642Y-64758333D01*
X77574880Y-64710714D01*
X77717738Y-64710714D01*
X77812976Y-64758333D01*
X77860595Y-64805952D01*
X76574880Y-65329761D02*
X76670119Y-65377380D01*
X76860595Y-65377380D01*
X76955833Y-65329761D01*
X77003452Y-65234523D01*
X77003452Y-64853571D01*
X76955833Y-64758333D01*
X76860595Y-64710714D01*
X76670119Y-64710714D01*
X76574880Y-64758333D01*
X76527261Y-64853571D01*
X76527261Y-64948809D01*
X77003452Y-65044047D01*
X75384404Y-65329761D02*
X75289166Y-65377380D01*
X75098690Y-65377380D01*
X75003452Y-65329761D01*
X74955833Y-65234523D01*
X74955833Y-65186904D01*
X75003452Y-65091666D01*
X75098690Y-65044047D01*
X75241547Y-65044047D01*
X75336785Y-64996428D01*
X75384404Y-64901190D01*
X75384404Y-64853571D01*
X75336785Y-64758333D01*
X75241547Y-64710714D01*
X75098690Y-64710714D01*
X75003452Y-64758333D01*
X74527261Y-65377380D02*
X74527261Y-64710714D01*
X74527261Y-64377380D02*
X74574880Y-64425000D01*
X74527261Y-64472619D01*
X74479642Y-64425000D01*
X74527261Y-64377380D01*
X74527261Y-64472619D01*
X73622500Y-64710714D02*
X73622500Y-65520238D01*
X73670119Y-65615476D01*
X73717738Y-65663095D01*
X73812976Y-65710714D01*
X73955833Y-65710714D01*
X74051071Y-65663095D01*
X73622500Y-65329761D02*
X73717738Y-65377380D01*
X73908214Y-65377380D01*
X74003452Y-65329761D01*
X74051071Y-65282142D01*
X74098690Y-65186904D01*
X74098690Y-64901190D01*
X74051071Y-64805952D01*
X74003452Y-64758333D01*
X73908214Y-64710714D01*
X73717738Y-64710714D01*
X73622500Y-64758333D01*
X73146309Y-64710714D02*
X73146309Y-65377380D01*
X73146309Y-64805952D02*
X73098690Y-64758333D01*
X73003452Y-64710714D01*
X72860595Y-64710714D01*
X72765357Y-64758333D01*
X72717738Y-64853571D01*
X72717738Y-65377380D01*
X71479642Y-65377380D02*
X71479642Y-64710714D01*
X71479642Y-64377380D02*
X71527261Y-64425000D01*
X71479642Y-64472619D01*
X71432023Y-64425000D01*
X71479642Y-64377380D01*
X71479642Y-64472619D01*
X71051071Y-65329761D02*
X70955833Y-65377380D01*
X70765357Y-65377380D01*
X70670119Y-65329761D01*
X70622500Y-65234523D01*
X70622500Y-65186904D01*
X70670119Y-65091666D01*
X70765357Y-65044047D01*
X70908214Y-65044047D01*
X71003452Y-64996428D01*
X71051071Y-64901190D01*
X71051071Y-64853571D01*
X71003452Y-64758333D01*
X70908214Y-64710714D01*
X70765357Y-64710714D01*
X70670119Y-64758333D01*
X69289166Y-65377380D02*
X69384404Y-65329761D01*
X69432023Y-65282142D01*
X69479642Y-65186904D01*
X69479642Y-64901190D01*
X69432023Y-64805952D01*
X69384404Y-64758333D01*
X69289166Y-64710714D01*
X69146309Y-64710714D01*
X69051071Y-64758333D01*
X69003452Y-64805952D01*
X68955833Y-64901190D01*
X68955833Y-65186904D01*
X69003452Y-65282142D01*
X69051071Y-65329761D01*
X69146309Y-65377380D01*
X69289166Y-65377380D01*
X68527261Y-64710714D02*
X68527261Y-65377380D01*
X68527261Y-64805952D02*
X68479642Y-64758333D01*
X68384404Y-64710714D01*
X68241547Y-64710714D01*
X68146309Y-64758333D01*
X68098690Y-64853571D01*
X68098690Y-65377380D01*
X67622500Y-65282142D02*
X67574880Y-65329761D01*
X67622500Y-65377380D01*
X67670119Y-65329761D01*
X67622500Y-65282142D01*
X67622500Y-65377380D01*
X92369047Y-84702380D02*
X92369047Y-85416666D01*
X92416666Y-85559523D01*
X92511904Y-85654761D01*
X92654761Y-85702380D01*
X92750000Y-85702380D01*
X91416666Y-85702380D02*
X91892857Y-85702380D01*
X91892857Y-84702380D01*
X90511904Y-85607142D02*
X90559523Y-85654761D01*
X90702380Y-85702380D01*
X90797619Y-85702380D01*
X90940476Y-85654761D01*
X91035714Y-85559523D01*
X91083333Y-85464285D01*
X91130952Y-85273809D01*
X91130952Y-85130952D01*
X91083333Y-84940476D01*
X91035714Y-84845238D01*
X90940476Y-84750000D01*
X90797619Y-84702380D01*
X90702380Y-84702380D01*
X90559523Y-84750000D01*
X90511904Y-84797619D01*
X89797619Y-84702380D02*
X89797619Y-85416666D01*
X89845238Y-85559523D01*
X89940476Y-85654761D01*
X90083333Y-85702380D01*
X90178571Y-85702380D01*
X88845238Y-85702380D02*
X89321428Y-85702380D01*
X89321428Y-84702380D01*
X87940476Y-85607142D02*
X87988095Y-85654761D01*
X88130952Y-85702380D01*
X88226190Y-85702380D01*
X88369047Y-85654761D01*
X88464285Y-85559523D01*
X88511904Y-85464285D01*
X88559523Y-85273809D01*
X88559523Y-85130952D01*
X88511904Y-84940476D01*
X88464285Y-84845238D01*
X88369047Y-84750000D01*
X88226190Y-84702380D01*
X88130952Y-84702380D01*
X87988095Y-84750000D01*
X87940476Y-84797619D01*
X87226190Y-84702380D02*
X87226190Y-85416666D01*
X87273809Y-85559523D01*
X87369047Y-85654761D01*
X87511904Y-85702380D01*
X87607142Y-85702380D01*
X86273809Y-85702380D02*
X86750000Y-85702380D01*
X86750000Y-84702380D01*
X85369047Y-85607142D02*
X85416666Y-85654761D01*
X85559523Y-85702380D01*
X85654761Y-85702380D01*
X85797619Y-85654761D01*
X85892857Y-85559523D01*
X85940476Y-85464285D01*
X85988095Y-85273809D01*
X85988095Y-85130952D01*
X85940476Y-84940476D01*
X85892857Y-84845238D01*
X85797619Y-84750000D01*
X85654761Y-84702380D01*
X85559523Y-84702380D01*
X85416666Y-84750000D01*
X85369047Y-84797619D01*
X84654761Y-84702380D02*
X84654761Y-85416666D01*
X84702380Y-85559523D01*
X84797619Y-85654761D01*
X84940476Y-85702380D01*
X85035714Y-85702380D01*
X83702380Y-85702380D02*
X84178571Y-85702380D01*
X84178571Y-84702380D01*
X82797619Y-85607142D02*
X82845238Y-85654761D01*
X82988095Y-85702380D01*
X83083333Y-85702380D01*
X83226190Y-85654761D01*
X83321428Y-85559523D01*
X83369047Y-85464285D01*
X83416666Y-85273809D01*
X83416666Y-85130952D01*
X83369047Y-84940476D01*
X83321428Y-84845238D01*
X83226190Y-84750000D01*
X83083333Y-84702380D01*
X82988095Y-84702380D01*
X82845238Y-84750000D01*
X82797619Y-84797619D01*
M02*
