M48
METRIC
T1C0.400
T2C0.950
T3C1.000
%
G90
G05
T1
X89.244Y-67.437
X95.301Y-70.696
X97.372Y-67.183
X98.5Y-66.5
X100.42Y-70.866
X100.42Y-72.898
X110.998Y-78.994
X111.633Y-83.439
X111.76Y-90.424
X112.776Y-89.408
X116.84Y-80.518
X118.174Y-84.728
X120.904Y-89.408
X121.0Y-76.75
X121.158Y-88.138
X121.92Y-90.424
T2
X69.081Y-60.198
X71.581Y-60.198
X74.081Y-60.198
X76.581Y-60.198
X82.924Y-60.198
X85.424Y-60.198
X87.924Y-60.198
X90.424Y-60.198
X97.148Y-60.2
X99.648Y-60.2
X102.148Y-60.2
X104.648Y-60.2
X110.61Y-69.596
X111.118Y-60.2
X113.11Y-69.596
X113.618Y-60.2
X115.61Y-69.596
X116.118Y-60.2
X118.11Y-69.596
X118.618Y-60.2
T3
X69.22Y-76.76
X69.22Y-92.0
X71.76Y-76.76
X71.76Y-92.0
X74.3Y-76.76
X74.3Y-92.0
X76.84Y-76.76
X76.84Y-92.0
X77.0Y-67.75
X77.0Y-70.5
X77.0Y-73.25
X79.38Y-76.76
X79.38Y-92.0
X79.54Y-67.75
X79.54Y-70.5
X79.54Y-73.25
X81.92Y-76.76
X81.92Y-92.0
X82.08Y-67.75
X82.08Y-70.5
X82.08Y-73.25
X84.46Y-76.76
X84.46Y-92.0
X84.62Y-67.75
X84.62Y-70.5
X84.62Y-73.25
X87.0Y-76.76
X87.0Y-92.0
X89.54Y-76.76
X89.54Y-92.0
X92.08Y-76.76
X92.08Y-92.0
X94.62Y-76.76
X94.62Y-92.0
X97.16Y-76.76
X97.16Y-92.0
X99.7Y-76.76
X99.7Y-92.0
X102.24Y-76.76
X102.24Y-92.0
X104.394Y-70.739
X104.394Y-73.279
X104.78Y-76.76
X104.78Y-92.0
T0
M30
