%TF.GenerationSoftware,KiCad,Pcbnew,(5.1.9)-1*%
%TF.CreationDate,2021-08-01T22:25:33+09:30*%
%TF.ProjectId,tyre_temp_sense,74797265-5f74-4656-9d70-5f73656e7365,rev?*%
%TF.SameCoordinates,Original*%
%TF.FileFunction,Copper,L2,Bot*%
%TF.FilePolarity,Positive*%
%FSLAX46Y46*%
G04 Gerber Fmt 4.6, Leading zero omitted, Abs format (unit mm)*
G04 Created by KiCad (PCBNEW (5.1.9)-1) date 2021-08-01 22:25:33*
%MOMM*%
%LPD*%
G01*
G04 APERTURE LIST*
%TA.AperFunction,ComponentPad*%
%ADD10O,1.700000X1.700000*%
%TD*%
%TA.AperFunction,ComponentPad*%
%ADD11R,1.700000X1.700000*%
%TD*%
%TA.AperFunction,ComponentPad*%
%ADD12O,1.700000X1.950000*%
%TD*%
%TA.AperFunction,ComponentPad*%
%ADD13O,1.600000X1.600000*%
%TD*%
%TA.AperFunction,ComponentPad*%
%ADD14R,1.600000X1.600000*%
%TD*%
%TA.AperFunction,ViaPad*%
%ADD15C,0.800000*%
%TD*%
%TA.AperFunction,Conductor*%
%ADD16C,0.300000*%
%TD*%
%TA.AperFunction,Conductor*%
%ADD17C,1.000000*%
%TD*%
%TA.AperFunction,Conductor*%
%ADD18C,0.254000*%
%TD*%
%TA.AperFunction,Conductor*%
%ADD19C,0.100000*%
%TD*%
G04 APERTURE END LIST*
D10*
%TO.P,J8,4*%
%TO.N,GND*%
X84620000Y-67750000D03*
%TO.P,J8,3*%
X82080000Y-67750000D03*
%TO.P,J8,2*%
X79540000Y-67750000D03*
D11*
%TO.P,J8,1*%
X77000000Y-67750000D03*
%TD*%
D10*
%TO.P,J9,4*%
%TO.N,+5V*%
X84620000Y-73250000D03*
%TO.P,J9,3*%
X82080000Y-73250000D03*
%TO.P,J9,2*%
X79540000Y-73250000D03*
D11*
%TO.P,J9,1*%
X77000000Y-73250000D03*
%TD*%
D10*
%TO.P,J7,4*%
%TO.N,A0*%
X84620000Y-70500000D03*
%TO.P,J7,3*%
%TO.N,A1*%
X82080000Y-70500000D03*
%TO.P,J7,2*%
%TO.N,A2*%
X79540000Y-70500000D03*
D11*
%TO.P,J7,1*%
%TO.N,A3*%
X77000000Y-70500000D03*
%TD*%
D10*
%TO.P,J6,2*%
%TO.N,CAN-*%
X104394000Y-70739000D03*
D11*
%TO.P,J6,1*%
%TO.N,Net-(J6-Pad1)*%
X104394000Y-73279000D03*
%TD*%
D12*
%TO.P,J5,4*%
%TO.N,+3V3*%
X69081000Y-60198000D03*
%TO.P,J5,3*%
%TO.N,GND*%
X71581000Y-60198000D03*
%TO.P,J5,2*%
%TO.N,Net-(J5-Pad2)*%
X74081000Y-60198000D03*
%TO.P,J5,1*%
%TO.N,Net-(J5-Pad1)*%
%TA.AperFunction,ComponentPad*%
G36*
G01*
X77431000Y-59473000D02*
X77431000Y-60923000D01*
G75*
G02*
X77181000Y-61173000I-250000J0D01*
G01*
X75981000Y-61173000D01*
G75*
G02*
X75731000Y-60923000I0J250000D01*
G01*
X75731000Y-59473000D01*
G75*
G02*
X75981000Y-59223000I250000J0D01*
G01*
X77181000Y-59223000D01*
G75*
G02*
X77431000Y-59473000I0J-250000D01*
G01*
G37*
%TD.AperFunction*%
%TD*%
%TO.P,J4,4*%
%TO.N,+3V3*%
X82924000Y-60198000D03*
%TO.P,J4,3*%
%TO.N,GND*%
X85424000Y-60198000D03*
%TO.P,J4,2*%
%TO.N,Net-(J4-Pad2)*%
X87924000Y-60198000D03*
%TO.P,J4,1*%
%TO.N,Net-(J4-Pad1)*%
%TA.AperFunction,ComponentPad*%
G36*
G01*
X91274000Y-59473000D02*
X91274000Y-60923000D01*
G75*
G02*
X91024000Y-61173000I-250000J0D01*
G01*
X89824000Y-61173000D01*
G75*
G02*
X89574000Y-60923000I0J250000D01*
G01*
X89574000Y-59473000D01*
G75*
G02*
X89824000Y-59223000I250000J0D01*
G01*
X91024000Y-59223000D01*
G75*
G02*
X91274000Y-59473000I0J-250000D01*
G01*
G37*
%TD.AperFunction*%
%TD*%
%TO.P,J3,4*%
%TO.N,+3V3*%
X97148000Y-60200000D03*
%TO.P,J3,3*%
%TO.N,GND*%
X99648000Y-60200000D03*
%TO.P,J3,2*%
%TO.N,Net-(J3-Pad2)*%
X102148000Y-60200000D03*
%TO.P,J3,1*%
%TO.N,Net-(J3-Pad1)*%
%TA.AperFunction,ComponentPad*%
G36*
G01*
X105498000Y-59475000D02*
X105498000Y-60925000D01*
G75*
G02*
X105248000Y-61175000I-250000J0D01*
G01*
X104048000Y-61175000D01*
G75*
G02*
X103798000Y-60925000I0J250000D01*
G01*
X103798000Y-59475000D01*
G75*
G02*
X104048000Y-59225000I250000J0D01*
G01*
X105248000Y-59225000D01*
G75*
G02*
X105498000Y-59475000I0J-250000D01*
G01*
G37*
%TD.AperFunction*%
%TD*%
%TO.P,J2,1*%
%TO.N,Net-(J2-Pad1)*%
%TA.AperFunction,ComponentPad*%
G36*
G01*
X119468000Y-59475000D02*
X119468000Y-60925000D01*
G75*
G02*
X119218000Y-61175000I-250000J0D01*
G01*
X118018000Y-61175000D01*
G75*
G02*
X117768000Y-60925000I0J250000D01*
G01*
X117768000Y-59475000D01*
G75*
G02*
X118018000Y-59225000I250000J0D01*
G01*
X119218000Y-59225000D01*
G75*
G02*
X119468000Y-59475000I0J-250000D01*
G01*
G37*
%TD.AperFunction*%
%TO.P,J2,2*%
%TO.N,Net-(J2-Pad2)*%
X116118000Y-60200000D03*
%TO.P,J2,3*%
%TO.N,GND*%
X113618000Y-60200000D03*
%TO.P,J2,4*%
%TO.N,+3V3*%
X111118000Y-60200000D03*
%TD*%
%TO.P,J1,4*%
%TO.N,CAN-*%
X110610000Y-69596000D03*
%TO.P,J1,3*%
%TO.N,CAN+*%
X113110000Y-69596000D03*
%TO.P,J1,2*%
%TO.N,+5V*%
X115610000Y-69596000D03*
%TO.P,J1,1*%
%TO.N,GND*%
%TA.AperFunction,ComponentPad*%
G36*
G01*
X118960000Y-68871000D02*
X118960000Y-70321000D01*
G75*
G02*
X118710000Y-70571000I-250000J0D01*
G01*
X117510000Y-70571000D01*
G75*
G02*
X117260000Y-70321000I0J250000D01*
G01*
X117260000Y-68871000D01*
G75*
G02*
X117510000Y-68621000I250000J0D01*
G01*
X118710000Y-68621000D01*
G75*
G02*
X118960000Y-68871000I0J-250000D01*
G01*
G37*
%TD.AperFunction*%
%TD*%
D13*
%TO.P,A1,16*%
%TO.N,CLK_CAN*%
X104780000Y-76760000D03*
%TO.P,A1,15*%
%TO.N,MISO_CAN*%
X104780000Y-92000000D03*
%TO.P,A1,30*%
%TO.N,Net-(A1-Pad30)*%
X69220000Y-76760000D03*
%TO.P,A1,14*%
%TO.N,MOSI_CAN*%
X102240000Y-92000000D03*
%TO.P,A1,29*%
%TO.N,GND*%
X71760000Y-76760000D03*
%TO.P,A1,13*%
%TO.N,Net-(A1-Pad13)*%
X99700000Y-92000000D03*
%TO.P,A1,28*%
%TO.N,Net-(A1-Pad28)*%
X74300000Y-76760000D03*
%TO.P,A1,12*%
%TO.N,Net-(A1-Pad12)*%
X97160000Y-92000000D03*
%TO.P,A1,27*%
%TO.N,+5V*%
X76840000Y-76760000D03*
%TO.P,A1,11*%
%TO.N,Net-(A1-Pad11)*%
X94620000Y-92000000D03*
%TO.P,A1,26*%
%TO.N,Net-(A1-Pad26)*%
X79380000Y-76760000D03*
%TO.P,A1,10*%
%TO.N,Net-(A1-Pad10)*%
X92080000Y-92000000D03*
%TO.P,A1,25*%
%TO.N,Net-(A1-Pad25)*%
X81920000Y-76760000D03*
%TO.P,A1,9*%
%TO.N,D6*%
X89540000Y-92000000D03*
%TO.P,A1,24*%
%TO.N,SCL*%
X84460000Y-76760000D03*
%TO.P,A1,8*%
%TO.N,Net-(A1-Pad8)*%
X87000000Y-92000000D03*
%TO.P,A1,23*%
%TO.N,SDA*%
X87000000Y-76760000D03*
%TO.P,A1,7*%
%TO.N,Net-(A1-Pad7)*%
X84460000Y-92000000D03*
%TO.P,A1,22*%
%TO.N,A3*%
X89540000Y-76760000D03*
%TO.P,A1,6*%
%TO.N,Net-(A1-Pad6)*%
X81920000Y-92000000D03*
%TO.P,A1,21*%
%TO.N,A2*%
X92080000Y-76760000D03*
%TO.P,A1,5*%
%TO.N,D2*%
X79380000Y-92000000D03*
%TO.P,A1,20*%
%TO.N,A1*%
X94620000Y-76760000D03*
%TO.P,A1,4*%
%TO.N,GND*%
X76840000Y-92000000D03*
%TO.P,A1,19*%
%TO.N,A0*%
X97160000Y-76760000D03*
%TO.P,A1,3*%
%TO.N,Net-(A1-Pad3)*%
X74300000Y-92000000D03*
%TO.P,A1,18*%
%TO.N,Net-(A1-Pad18)*%
X99700000Y-76760000D03*
%TO.P,A1,2*%
%TO.N,Net-(A1-Pad2)*%
X71760000Y-92000000D03*
%TO.P,A1,17*%
%TO.N,+3V3*%
X102240000Y-76760000D03*
D14*
%TO.P,A1,1*%
%TO.N,Net-(A1-Pad1)*%
X69220000Y-92000000D03*
%TD*%
D15*
%TO.N,CLK_CAN*%
X118173669Y-84727669D03*
X111633000Y-83439000D03*
%TO.N,GND*%
X116840000Y-80518000D03*
X121158000Y-88138000D03*
X121920000Y-90424000D03*
X120904000Y-89408000D03*
X112776000Y-89408000D03*
X111760000Y-90424000D03*
X95300703Y-70696000D03*
X100420000Y-70866000D03*
X100420000Y-72898000D03*
X110998000Y-78994000D03*
X98500000Y-66500000D03*
X97372000Y-67183000D03*
X89244000Y-67437000D03*
X121000000Y-76750000D03*
%TD*%
D16*
%TO.N,CLK_CAN*%
X112921669Y-84727669D02*
X111633000Y-83439000D01*
X118173669Y-84727669D02*
X112921669Y-84727669D01*
D17*
%TO.N,GND*%
X71581000Y-60198000D02*
X71581000Y-61669000D01*
X85424000Y-60198000D02*
X85424000Y-61424000D01*
X99648000Y-60200000D02*
X99648000Y-61398000D01*
X113618000Y-60200000D02*
X113618000Y-61118000D01*
X113618000Y-60200000D02*
X113618000Y-61618000D01*
%TO.N,+3V3*%
X97148000Y-60200000D02*
X97277000Y-60200000D01*
X69081000Y-60198000D02*
X69081000Y-59919000D01*
X82924000Y-60198000D02*
X83106955Y-60198000D01*
X97148000Y-60200000D02*
X97330955Y-60200000D01*
X111118000Y-60200000D02*
X108668000Y-57750000D01*
X97148000Y-57898000D02*
X97000000Y-57750000D01*
X97148000Y-60200000D02*
X97148000Y-57898000D01*
X108668000Y-57750000D02*
X97000000Y-57750000D01*
X69263955Y-60198000D02*
X69081000Y-60198000D01*
X71711955Y-57750000D02*
X69263955Y-60198000D01*
X82924000Y-57826000D02*
X83000000Y-57750000D01*
X82924000Y-60198000D02*
X82924000Y-57826000D01*
X83000000Y-57750000D02*
X71711955Y-57750000D01*
X97000000Y-57750000D02*
X83000000Y-57750000D01*
D16*
%TO.N,A3*%
X78200001Y-71700001D02*
X77000000Y-70500000D01*
X78200001Y-74200001D02*
X78200001Y-71700001D01*
X78950011Y-74950011D02*
X78200001Y-74200001D01*
X87730011Y-74950011D02*
X78950011Y-74950011D01*
X89540000Y-76760000D02*
X87730011Y-74950011D01*
%TO.N,A2*%
X80740001Y-73686003D02*
X80740001Y-71700001D01*
X81503999Y-74450001D02*
X80740001Y-73686003D01*
X80740001Y-71700001D02*
X79540000Y-70500000D01*
X89770001Y-74450001D02*
X81503999Y-74450001D01*
X92080000Y-76760000D02*
X89770001Y-74450001D01*
%TO.N,A1*%
X83629999Y-72049999D02*
X82080000Y-70500000D01*
X89909999Y-72049999D02*
X83629999Y-72049999D01*
X94620000Y-76760000D02*
X89909999Y-72049999D01*
%TO.N,A0*%
X90900000Y-70500000D02*
X84620000Y-70500000D01*
X97160000Y-76760000D02*
X90900000Y-70500000D01*
%TD*%
D18*
%TO.N,GND*%
X127648126Y-54226714D02*
X128271572Y-54414943D01*
X128846579Y-54720681D01*
X129351247Y-55132279D01*
X129766362Y-55634067D01*
X130076105Y-56206924D01*
X130268682Y-56829039D01*
X130340001Y-57507594D01*
X130340000Y-90967721D01*
X130273286Y-91648126D01*
X130085057Y-92271570D01*
X129779323Y-92846573D01*
X129367721Y-93351248D01*
X128865933Y-93766362D01*
X128293077Y-94076104D01*
X127670961Y-94268682D01*
X126992417Y-94340000D01*
X60032279Y-94340000D01*
X59351874Y-94273286D01*
X58728430Y-94085057D01*
X58153427Y-93779323D01*
X57648752Y-93367721D01*
X57233638Y-92865933D01*
X56923896Y-92293077D01*
X56731318Y-91670961D01*
X56660000Y-90992417D01*
X56660000Y-90779872D01*
X57765000Y-90779872D01*
X57765000Y-91220128D01*
X57850890Y-91651925D01*
X58019369Y-92058669D01*
X58263962Y-92424729D01*
X58575271Y-92736038D01*
X58941331Y-92980631D01*
X59348075Y-93149110D01*
X59779872Y-93235000D01*
X60220128Y-93235000D01*
X60651925Y-93149110D01*
X61058669Y-92980631D01*
X61424729Y-92736038D01*
X61736038Y-92424729D01*
X61980631Y-92058669D01*
X62149110Y-91651925D01*
X62235000Y-91220128D01*
X62235000Y-91200000D01*
X67781928Y-91200000D01*
X67781928Y-92800000D01*
X67794188Y-92924482D01*
X67830498Y-93044180D01*
X67889463Y-93154494D01*
X67968815Y-93251185D01*
X68065506Y-93330537D01*
X68175820Y-93389502D01*
X68295518Y-93425812D01*
X68420000Y-93438072D01*
X70020000Y-93438072D01*
X70144482Y-93425812D01*
X70264180Y-93389502D01*
X70374494Y-93330537D01*
X70471185Y-93251185D01*
X70550537Y-93154494D01*
X70609502Y-93044180D01*
X70645812Y-92924482D01*
X70646643Y-92916039D01*
X70845241Y-93114637D01*
X71080273Y-93271680D01*
X71341426Y-93379853D01*
X71618665Y-93435000D01*
X71901335Y-93435000D01*
X72178574Y-93379853D01*
X72439727Y-93271680D01*
X72674759Y-93114637D01*
X72874637Y-92914759D01*
X73030000Y-92682241D01*
X73185363Y-92914759D01*
X73385241Y-93114637D01*
X73620273Y-93271680D01*
X73881426Y-93379853D01*
X74158665Y-93435000D01*
X74441335Y-93435000D01*
X74718574Y-93379853D01*
X74979727Y-93271680D01*
X75214759Y-93114637D01*
X75414637Y-92914759D01*
X75571680Y-92679727D01*
X75576067Y-92669135D01*
X75687615Y-92855131D01*
X75876586Y-93063519D01*
X76102580Y-93231037D01*
X76356913Y-93351246D01*
X76490961Y-93391904D01*
X76713000Y-93269915D01*
X76713000Y-92127000D01*
X76693000Y-92127000D01*
X76693000Y-91873000D01*
X76713000Y-91873000D01*
X76713000Y-90730085D01*
X76967000Y-90730085D01*
X76967000Y-91873000D01*
X76987000Y-91873000D01*
X76987000Y-92127000D01*
X76967000Y-92127000D01*
X76967000Y-93269915D01*
X77189039Y-93391904D01*
X77323087Y-93351246D01*
X77577420Y-93231037D01*
X77803414Y-93063519D01*
X77992385Y-92855131D01*
X78103933Y-92669135D01*
X78108320Y-92679727D01*
X78265363Y-92914759D01*
X78465241Y-93114637D01*
X78700273Y-93271680D01*
X78961426Y-93379853D01*
X79238665Y-93435000D01*
X79521335Y-93435000D01*
X79798574Y-93379853D01*
X80059727Y-93271680D01*
X80294759Y-93114637D01*
X80494637Y-92914759D01*
X80650000Y-92682241D01*
X80805363Y-92914759D01*
X81005241Y-93114637D01*
X81240273Y-93271680D01*
X81501426Y-93379853D01*
X81778665Y-93435000D01*
X82061335Y-93435000D01*
X82338574Y-93379853D01*
X82599727Y-93271680D01*
X82834759Y-93114637D01*
X83034637Y-92914759D01*
X83190000Y-92682241D01*
X83345363Y-92914759D01*
X83545241Y-93114637D01*
X83780273Y-93271680D01*
X84041426Y-93379853D01*
X84318665Y-93435000D01*
X84601335Y-93435000D01*
X84878574Y-93379853D01*
X85139727Y-93271680D01*
X85374759Y-93114637D01*
X85574637Y-92914759D01*
X85730000Y-92682241D01*
X85885363Y-92914759D01*
X86085241Y-93114637D01*
X86320273Y-93271680D01*
X86581426Y-93379853D01*
X86858665Y-93435000D01*
X87141335Y-93435000D01*
X87418574Y-93379853D01*
X87679727Y-93271680D01*
X87914759Y-93114637D01*
X88114637Y-92914759D01*
X88270000Y-92682241D01*
X88425363Y-92914759D01*
X88625241Y-93114637D01*
X88860273Y-93271680D01*
X89121426Y-93379853D01*
X89398665Y-93435000D01*
X89681335Y-93435000D01*
X89958574Y-93379853D01*
X90219727Y-93271680D01*
X90454759Y-93114637D01*
X90654637Y-92914759D01*
X90810000Y-92682241D01*
X90965363Y-92914759D01*
X91165241Y-93114637D01*
X91400273Y-93271680D01*
X91661426Y-93379853D01*
X91938665Y-93435000D01*
X92221335Y-93435000D01*
X92498574Y-93379853D01*
X92759727Y-93271680D01*
X92994759Y-93114637D01*
X93194637Y-92914759D01*
X93350000Y-92682241D01*
X93505363Y-92914759D01*
X93705241Y-93114637D01*
X93940273Y-93271680D01*
X94201426Y-93379853D01*
X94478665Y-93435000D01*
X94761335Y-93435000D01*
X95038574Y-93379853D01*
X95299727Y-93271680D01*
X95534759Y-93114637D01*
X95734637Y-92914759D01*
X95890000Y-92682241D01*
X96045363Y-92914759D01*
X96245241Y-93114637D01*
X96480273Y-93271680D01*
X96741426Y-93379853D01*
X97018665Y-93435000D01*
X97301335Y-93435000D01*
X97578574Y-93379853D01*
X97839727Y-93271680D01*
X98074759Y-93114637D01*
X98274637Y-92914759D01*
X98430000Y-92682241D01*
X98585363Y-92914759D01*
X98785241Y-93114637D01*
X99020273Y-93271680D01*
X99281426Y-93379853D01*
X99558665Y-93435000D01*
X99841335Y-93435000D01*
X100118574Y-93379853D01*
X100379727Y-93271680D01*
X100614759Y-93114637D01*
X100814637Y-92914759D01*
X100970000Y-92682241D01*
X101125363Y-92914759D01*
X101325241Y-93114637D01*
X101560273Y-93271680D01*
X101821426Y-93379853D01*
X102098665Y-93435000D01*
X102381335Y-93435000D01*
X102658574Y-93379853D01*
X102919727Y-93271680D01*
X103154759Y-93114637D01*
X103354637Y-92914759D01*
X103510000Y-92682241D01*
X103665363Y-92914759D01*
X103865241Y-93114637D01*
X104100273Y-93271680D01*
X104361426Y-93379853D01*
X104638665Y-93435000D01*
X104921335Y-93435000D01*
X105198574Y-93379853D01*
X105459727Y-93271680D01*
X105694759Y-93114637D01*
X105894637Y-92914759D01*
X106051680Y-92679727D01*
X106159853Y-92418574D01*
X106215000Y-92141335D01*
X106215000Y-91858665D01*
X106159853Y-91581426D01*
X106051680Y-91320273D01*
X105894637Y-91085241D01*
X105694759Y-90885363D01*
X105536881Y-90779872D01*
X124765000Y-90779872D01*
X124765000Y-91220128D01*
X124850890Y-91651925D01*
X125019369Y-92058669D01*
X125263962Y-92424729D01*
X125575271Y-92736038D01*
X125941331Y-92980631D01*
X126348075Y-93149110D01*
X126779872Y-93235000D01*
X127220128Y-93235000D01*
X127651925Y-93149110D01*
X128058669Y-92980631D01*
X128424729Y-92736038D01*
X128736038Y-92424729D01*
X128980631Y-92058669D01*
X129149110Y-91651925D01*
X129235000Y-91220128D01*
X129235000Y-90779872D01*
X129149110Y-90348075D01*
X128980631Y-89941331D01*
X128736038Y-89575271D01*
X128424729Y-89263962D01*
X128058669Y-89019369D01*
X127651925Y-88850890D01*
X127220128Y-88765000D01*
X126779872Y-88765000D01*
X126348075Y-88850890D01*
X125941331Y-89019369D01*
X125575271Y-89263962D01*
X125263962Y-89575271D01*
X125019369Y-89941331D01*
X124850890Y-90348075D01*
X124765000Y-90779872D01*
X105536881Y-90779872D01*
X105459727Y-90728320D01*
X105198574Y-90620147D01*
X104921335Y-90565000D01*
X104638665Y-90565000D01*
X104361426Y-90620147D01*
X104100273Y-90728320D01*
X103865241Y-90885363D01*
X103665363Y-91085241D01*
X103510000Y-91317759D01*
X103354637Y-91085241D01*
X103154759Y-90885363D01*
X102919727Y-90728320D01*
X102658574Y-90620147D01*
X102381335Y-90565000D01*
X102098665Y-90565000D01*
X101821426Y-90620147D01*
X101560273Y-90728320D01*
X101325241Y-90885363D01*
X101125363Y-91085241D01*
X100970000Y-91317759D01*
X100814637Y-91085241D01*
X100614759Y-90885363D01*
X100379727Y-90728320D01*
X100118574Y-90620147D01*
X99841335Y-90565000D01*
X99558665Y-90565000D01*
X99281426Y-90620147D01*
X99020273Y-90728320D01*
X98785241Y-90885363D01*
X98585363Y-91085241D01*
X98430000Y-91317759D01*
X98274637Y-91085241D01*
X98074759Y-90885363D01*
X97839727Y-90728320D01*
X97578574Y-90620147D01*
X97301335Y-90565000D01*
X97018665Y-90565000D01*
X96741426Y-90620147D01*
X96480273Y-90728320D01*
X96245241Y-90885363D01*
X96045363Y-91085241D01*
X95890000Y-91317759D01*
X95734637Y-91085241D01*
X95534759Y-90885363D01*
X95299727Y-90728320D01*
X95038574Y-90620147D01*
X94761335Y-90565000D01*
X94478665Y-90565000D01*
X94201426Y-90620147D01*
X93940273Y-90728320D01*
X93705241Y-90885363D01*
X93505363Y-91085241D01*
X93350000Y-91317759D01*
X93194637Y-91085241D01*
X92994759Y-90885363D01*
X92759727Y-90728320D01*
X92498574Y-90620147D01*
X92221335Y-90565000D01*
X91938665Y-90565000D01*
X91661426Y-90620147D01*
X91400273Y-90728320D01*
X91165241Y-90885363D01*
X90965363Y-91085241D01*
X90810000Y-91317759D01*
X90654637Y-91085241D01*
X90454759Y-90885363D01*
X90219727Y-90728320D01*
X89958574Y-90620147D01*
X89681335Y-90565000D01*
X89398665Y-90565000D01*
X89121426Y-90620147D01*
X88860273Y-90728320D01*
X88625241Y-90885363D01*
X88425363Y-91085241D01*
X88270000Y-91317759D01*
X88114637Y-91085241D01*
X87914759Y-90885363D01*
X87679727Y-90728320D01*
X87418574Y-90620147D01*
X87141335Y-90565000D01*
X86858665Y-90565000D01*
X86581426Y-90620147D01*
X86320273Y-90728320D01*
X86085241Y-90885363D01*
X85885363Y-91085241D01*
X85730000Y-91317759D01*
X85574637Y-91085241D01*
X85374759Y-90885363D01*
X85139727Y-90728320D01*
X84878574Y-90620147D01*
X84601335Y-90565000D01*
X84318665Y-90565000D01*
X84041426Y-90620147D01*
X83780273Y-90728320D01*
X83545241Y-90885363D01*
X83345363Y-91085241D01*
X83190000Y-91317759D01*
X83034637Y-91085241D01*
X82834759Y-90885363D01*
X82599727Y-90728320D01*
X82338574Y-90620147D01*
X82061335Y-90565000D01*
X81778665Y-90565000D01*
X81501426Y-90620147D01*
X81240273Y-90728320D01*
X81005241Y-90885363D01*
X80805363Y-91085241D01*
X80650000Y-91317759D01*
X80494637Y-91085241D01*
X80294759Y-90885363D01*
X80059727Y-90728320D01*
X79798574Y-90620147D01*
X79521335Y-90565000D01*
X79238665Y-90565000D01*
X78961426Y-90620147D01*
X78700273Y-90728320D01*
X78465241Y-90885363D01*
X78265363Y-91085241D01*
X78108320Y-91320273D01*
X78103933Y-91330865D01*
X77992385Y-91144869D01*
X77803414Y-90936481D01*
X77577420Y-90768963D01*
X77323087Y-90648754D01*
X77189039Y-90608096D01*
X76967000Y-90730085D01*
X76713000Y-90730085D01*
X76490961Y-90608096D01*
X76356913Y-90648754D01*
X76102580Y-90768963D01*
X75876586Y-90936481D01*
X75687615Y-91144869D01*
X75576067Y-91330865D01*
X75571680Y-91320273D01*
X75414637Y-91085241D01*
X75214759Y-90885363D01*
X74979727Y-90728320D01*
X74718574Y-90620147D01*
X74441335Y-90565000D01*
X74158665Y-90565000D01*
X73881426Y-90620147D01*
X73620273Y-90728320D01*
X73385241Y-90885363D01*
X73185363Y-91085241D01*
X73030000Y-91317759D01*
X72874637Y-91085241D01*
X72674759Y-90885363D01*
X72439727Y-90728320D01*
X72178574Y-90620147D01*
X71901335Y-90565000D01*
X71618665Y-90565000D01*
X71341426Y-90620147D01*
X71080273Y-90728320D01*
X70845241Y-90885363D01*
X70646643Y-91083961D01*
X70645812Y-91075518D01*
X70609502Y-90955820D01*
X70550537Y-90845506D01*
X70471185Y-90748815D01*
X70374494Y-90669463D01*
X70264180Y-90610498D01*
X70144482Y-90574188D01*
X70020000Y-90561928D01*
X68420000Y-90561928D01*
X68295518Y-90574188D01*
X68175820Y-90610498D01*
X68065506Y-90669463D01*
X67968815Y-90748815D01*
X67889463Y-90845506D01*
X67830498Y-90955820D01*
X67794188Y-91075518D01*
X67781928Y-91200000D01*
X62235000Y-91200000D01*
X62235000Y-90779872D01*
X62149110Y-90348075D01*
X61980631Y-89941331D01*
X61736038Y-89575271D01*
X61424729Y-89263962D01*
X61058669Y-89019369D01*
X60651925Y-88850890D01*
X60220128Y-88765000D01*
X59779872Y-88765000D01*
X59348075Y-88850890D01*
X58941331Y-89019369D01*
X58575271Y-89263962D01*
X58263962Y-89575271D01*
X58019369Y-89941331D01*
X57850890Y-90348075D01*
X57765000Y-90779872D01*
X56660000Y-90779872D01*
X56660000Y-83337061D01*
X110598000Y-83337061D01*
X110598000Y-83540939D01*
X110637774Y-83740898D01*
X110715795Y-83929256D01*
X110829063Y-84098774D01*
X110973226Y-84242937D01*
X111142744Y-84356205D01*
X111331102Y-84434226D01*
X111531061Y-84474000D01*
X111557843Y-84474000D01*
X112339327Y-85255484D01*
X112363905Y-85285433D01*
X112393853Y-85310011D01*
X112393856Y-85310014D01*
X112423228Y-85334119D01*
X112483436Y-85383531D01*
X112619809Y-85456423D01*
X112767781Y-85501310D01*
X112782159Y-85502726D01*
X112883108Y-85512669D01*
X112883115Y-85512669D01*
X112921668Y-85516466D01*
X112960221Y-85512669D01*
X117494958Y-85512669D01*
X117513895Y-85531606D01*
X117683413Y-85644874D01*
X117871771Y-85722895D01*
X118071730Y-85762669D01*
X118275608Y-85762669D01*
X118475567Y-85722895D01*
X118663925Y-85644874D01*
X118833443Y-85531606D01*
X118977606Y-85387443D01*
X119090874Y-85217925D01*
X119168895Y-85029567D01*
X119208669Y-84829608D01*
X119208669Y-84625730D01*
X119168895Y-84425771D01*
X119090874Y-84237413D01*
X118977606Y-84067895D01*
X118833443Y-83923732D01*
X118663925Y-83810464D01*
X118475567Y-83732443D01*
X118275608Y-83692669D01*
X118071730Y-83692669D01*
X117871771Y-83732443D01*
X117683413Y-83810464D01*
X117513895Y-83923732D01*
X117494958Y-83942669D01*
X113246827Y-83942669D01*
X112668000Y-83363843D01*
X112668000Y-83337061D01*
X112628226Y-83137102D01*
X112550205Y-82948744D01*
X112436937Y-82779226D01*
X112292774Y-82635063D01*
X112123256Y-82521795D01*
X111934898Y-82443774D01*
X111734939Y-82404000D01*
X111531061Y-82404000D01*
X111331102Y-82443774D01*
X111142744Y-82521795D01*
X110973226Y-82635063D01*
X110829063Y-82779226D01*
X110715795Y-82948744D01*
X110637774Y-83137102D01*
X110598000Y-83337061D01*
X56660000Y-83337061D01*
X56660000Y-76618665D01*
X67785000Y-76618665D01*
X67785000Y-76901335D01*
X67840147Y-77178574D01*
X67948320Y-77439727D01*
X68105363Y-77674759D01*
X68305241Y-77874637D01*
X68540273Y-78031680D01*
X68801426Y-78139853D01*
X69078665Y-78195000D01*
X69361335Y-78195000D01*
X69638574Y-78139853D01*
X69899727Y-78031680D01*
X70134759Y-77874637D01*
X70334637Y-77674759D01*
X70491680Y-77439727D01*
X70496067Y-77429135D01*
X70607615Y-77615131D01*
X70796586Y-77823519D01*
X71022580Y-77991037D01*
X71276913Y-78111246D01*
X71410961Y-78151904D01*
X71633000Y-78029915D01*
X71633000Y-76887000D01*
X71613000Y-76887000D01*
X71613000Y-76633000D01*
X71633000Y-76633000D01*
X71633000Y-75490085D01*
X71887000Y-75490085D01*
X71887000Y-76633000D01*
X71907000Y-76633000D01*
X71907000Y-76887000D01*
X71887000Y-76887000D01*
X71887000Y-78029915D01*
X72109039Y-78151904D01*
X72243087Y-78111246D01*
X72497420Y-77991037D01*
X72723414Y-77823519D01*
X72912385Y-77615131D01*
X73023933Y-77429135D01*
X73028320Y-77439727D01*
X73185363Y-77674759D01*
X73385241Y-77874637D01*
X73620273Y-78031680D01*
X73881426Y-78139853D01*
X74158665Y-78195000D01*
X74441335Y-78195000D01*
X74718574Y-78139853D01*
X74979727Y-78031680D01*
X75214759Y-77874637D01*
X75414637Y-77674759D01*
X75570000Y-77442241D01*
X75725363Y-77674759D01*
X75925241Y-77874637D01*
X76160273Y-78031680D01*
X76421426Y-78139853D01*
X76698665Y-78195000D01*
X76981335Y-78195000D01*
X77258574Y-78139853D01*
X77519727Y-78031680D01*
X77754759Y-77874637D01*
X77954637Y-77674759D01*
X78110000Y-77442241D01*
X78265363Y-77674759D01*
X78465241Y-77874637D01*
X78700273Y-78031680D01*
X78961426Y-78139853D01*
X79238665Y-78195000D01*
X79521335Y-78195000D01*
X79798574Y-78139853D01*
X80059727Y-78031680D01*
X80294759Y-77874637D01*
X80494637Y-77674759D01*
X80650000Y-77442241D01*
X80805363Y-77674759D01*
X81005241Y-77874637D01*
X81240273Y-78031680D01*
X81501426Y-78139853D01*
X81778665Y-78195000D01*
X82061335Y-78195000D01*
X82338574Y-78139853D01*
X82599727Y-78031680D01*
X82834759Y-77874637D01*
X83034637Y-77674759D01*
X83190000Y-77442241D01*
X83345363Y-77674759D01*
X83545241Y-77874637D01*
X83780273Y-78031680D01*
X84041426Y-78139853D01*
X84318665Y-78195000D01*
X84601335Y-78195000D01*
X84878574Y-78139853D01*
X85139727Y-78031680D01*
X85374759Y-77874637D01*
X85574637Y-77674759D01*
X85730000Y-77442241D01*
X85885363Y-77674759D01*
X86085241Y-77874637D01*
X86320273Y-78031680D01*
X86581426Y-78139853D01*
X86858665Y-78195000D01*
X87141335Y-78195000D01*
X87418574Y-78139853D01*
X87679727Y-78031680D01*
X87914759Y-77874637D01*
X88114637Y-77674759D01*
X88270000Y-77442241D01*
X88425363Y-77674759D01*
X88625241Y-77874637D01*
X88860273Y-78031680D01*
X89121426Y-78139853D01*
X89398665Y-78195000D01*
X89681335Y-78195000D01*
X89958574Y-78139853D01*
X90219727Y-78031680D01*
X90454759Y-77874637D01*
X90654637Y-77674759D01*
X90810000Y-77442241D01*
X90965363Y-77674759D01*
X91165241Y-77874637D01*
X91400273Y-78031680D01*
X91661426Y-78139853D01*
X91938665Y-78195000D01*
X92221335Y-78195000D01*
X92498574Y-78139853D01*
X92759727Y-78031680D01*
X92994759Y-77874637D01*
X93194637Y-77674759D01*
X93350000Y-77442241D01*
X93505363Y-77674759D01*
X93705241Y-77874637D01*
X93940273Y-78031680D01*
X94201426Y-78139853D01*
X94478665Y-78195000D01*
X94761335Y-78195000D01*
X95038574Y-78139853D01*
X95299727Y-78031680D01*
X95534759Y-77874637D01*
X95734637Y-77674759D01*
X95890000Y-77442241D01*
X96045363Y-77674759D01*
X96245241Y-77874637D01*
X96480273Y-78031680D01*
X96741426Y-78139853D01*
X97018665Y-78195000D01*
X97301335Y-78195000D01*
X97578574Y-78139853D01*
X97839727Y-78031680D01*
X98074759Y-77874637D01*
X98274637Y-77674759D01*
X98430000Y-77442241D01*
X98585363Y-77674759D01*
X98785241Y-77874637D01*
X99020273Y-78031680D01*
X99281426Y-78139853D01*
X99558665Y-78195000D01*
X99841335Y-78195000D01*
X100118574Y-78139853D01*
X100379727Y-78031680D01*
X100614759Y-77874637D01*
X100814637Y-77674759D01*
X100970000Y-77442241D01*
X101125363Y-77674759D01*
X101325241Y-77874637D01*
X101560273Y-78031680D01*
X101821426Y-78139853D01*
X102098665Y-78195000D01*
X102381335Y-78195000D01*
X102658574Y-78139853D01*
X102919727Y-78031680D01*
X103154759Y-77874637D01*
X103354637Y-77674759D01*
X103510000Y-77442241D01*
X103665363Y-77674759D01*
X103865241Y-77874637D01*
X104100273Y-78031680D01*
X104361426Y-78139853D01*
X104638665Y-78195000D01*
X104921335Y-78195000D01*
X105198574Y-78139853D01*
X105459727Y-78031680D01*
X105694759Y-77874637D01*
X105894637Y-77674759D01*
X106051680Y-77439727D01*
X106159853Y-77178574D01*
X106215000Y-76901335D01*
X106215000Y-76618665D01*
X106159853Y-76341426D01*
X106051680Y-76080273D01*
X105894637Y-75845241D01*
X105694759Y-75645363D01*
X105459727Y-75488320D01*
X105198574Y-75380147D01*
X104921335Y-75325000D01*
X104638665Y-75325000D01*
X104361426Y-75380147D01*
X104100273Y-75488320D01*
X103865241Y-75645363D01*
X103665363Y-75845241D01*
X103510000Y-76077759D01*
X103354637Y-75845241D01*
X103154759Y-75645363D01*
X102919727Y-75488320D01*
X102658574Y-75380147D01*
X102381335Y-75325000D01*
X102098665Y-75325000D01*
X101821426Y-75380147D01*
X101560273Y-75488320D01*
X101325241Y-75645363D01*
X101125363Y-75845241D01*
X100970000Y-76077759D01*
X100814637Y-75845241D01*
X100614759Y-75645363D01*
X100379727Y-75488320D01*
X100118574Y-75380147D01*
X99841335Y-75325000D01*
X99558665Y-75325000D01*
X99281426Y-75380147D01*
X99020273Y-75488320D01*
X98785241Y-75645363D01*
X98585363Y-75845241D01*
X98430000Y-76077759D01*
X98274637Y-75845241D01*
X98074759Y-75645363D01*
X97839727Y-75488320D01*
X97578574Y-75380147D01*
X97301335Y-75325000D01*
X97018665Y-75325000D01*
X96865604Y-75355446D01*
X93939158Y-72429000D01*
X102905928Y-72429000D01*
X102905928Y-74129000D01*
X102918188Y-74253482D01*
X102954498Y-74373180D01*
X103013463Y-74483494D01*
X103092815Y-74580185D01*
X103189506Y-74659537D01*
X103299820Y-74718502D01*
X103419518Y-74754812D01*
X103544000Y-74767072D01*
X105244000Y-74767072D01*
X105368482Y-74754812D01*
X105488180Y-74718502D01*
X105598494Y-74659537D01*
X105695185Y-74580185D01*
X105774537Y-74483494D01*
X105833502Y-74373180D01*
X105869812Y-74253482D01*
X105882072Y-74129000D01*
X105882072Y-72429000D01*
X105869812Y-72304518D01*
X105833502Y-72184820D01*
X105774537Y-72074506D01*
X105695185Y-71977815D01*
X105598494Y-71898463D01*
X105488180Y-71839498D01*
X105415620Y-71817487D01*
X105547475Y-71685632D01*
X105709990Y-71442411D01*
X105821932Y-71172158D01*
X105879000Y-70885260D01*
X105879000Y-70592740D01*
X105821932Y-70305842D01*
X105709990Y-70035589D01*
X105547475Y-69792368D01*
X105340632Y-69585525D01*
X105097411Y-69423010D01*
X105037152Y-69398050D01*
X109125000Y-69398050D01*
X109125000Y-69793949D01*
X109146487Y-70012110D01*
X109231401Y-70292033D01*
X109369294Y-70550013D01*
X109554866Y-70776134D01*
X109780986Y-70961706D01*
X110038966Y-71099599D01*
X110318889Y-71184513D01*
X110610000Y-71213185D01*
X110901110Y-71184513D01*
X111181033Y-71099599D01*
X111439013Y-70961706D01*
X111665134Y-70776134D01*
X111850706Y-70550014D01*
X111860000Y-70532626D01*
X111869294Y-70550013D01*
X112054866Y-70776134D01*
X112280986Y-70961706D01*
X112538966Y-71099599D01*
X112818889Y-71184513D01*
X113110000Y-71213185D01*
X113401110Y-71184513D01*
X113681033Y-71099599D01*
X113939013Y-70961706D01*
X114165134Y-70776134D01*
X114350706Y-70550014D01*
X114360000Y-70532626D01*
X114369294Y-70550013D01*
X114554866Y-70776134D01*
X114780986Y-70961706D01*
X115038966Y-71099599D01*
X115318889Y-71184513D01*
X115610000Y-71213185D01*
X115901110Y-71184513D01*
X116181033Y-71099599D01*
X116439013Y-70961706D01*
X116659945Y-70780392D01*
X116670498Y-70815180D01*
X116729463Y-70925494D01*
X116808815Y-71022185D01*
X116905506Y-71101537D01*
X117015820Y-71160502D01*
X117135518Y-71196812D01*
X117260000Y-71209072D01*
X117824250Y-71206000D01*
X117983000Y-71047250D01*
X117983000Y-69723000D01*
X118237000Y-69723000D01*
X118237000Y-71047250D01*
X118395750Y-71206000D01*
X118960000Y-71209072D01*
X119084482Y-71196812D01*
X119204180Y-71160502D01*
X119314494Y-71101537D01*
X119411185Y-71022185D01*
X119490537Y-70925494D01*
X119549502Y-70815180D01*
X119585812Y-70695482D01*
X119598072Y-70571000D01*
X119595000Y-69881750D01*
X119436250Y-69723000D01*
X118237000Y-69723000D01*
X117983000Y-69723000D01*
X117963000Y-69723000D01*
X117963000Y-69469000D01*
X117983000Y-69469000D01*
X117983000Y-68144750D01*
X118237000Y-68144750D01*
X118237000Y-69469000D01*
X119436250Y-69469000D01*
X119595000Y-69310250D01*
X119598072Y-68621000D01*
X119585812Y-68496518D01*
X119549502Y-68376820D01*
X119490537Y-68266506D01*
X119411185Y-68169815D01*
X119314494Y-68090463D01*
X119204180Y-68031498D01*
X119084482Y-67995188D01*
X118960000Y-67982928D01*
X118395750Y-67986000D01*
X118237000Y-68144750D01*
X117983000Y-68144750D01*
X117824250Y-67986000D01*
X117260000Y-67982928D01*
X117135518Y-67995188D01*
X117015820Y-68031498D01*
X116905506Y-68090463D01*
X116808815Y-68169815D01*
X116729463Y-68266506D01*
X116670498Y-68376820D01*
X116659945Y-68411608D01*
X116439014Y-68230294D01*
X116181034Y-68092401D01*
X115901111Y-68007487D01*
X115610000Y-67978815D01*
X115318890Y-68007487D01*
X115038967Y-68092401D01*
X114780987Y-68230294D01*
X114554866Y-68415866D01*
X114369294Y-68641986D01*
X114360000Y-68659374D01*
X114350706Y-68641986D01*
X114165134Y-68415866D01*
X113939014Y-68230294D01*
X113681034Y-68092401D01*
X113401111Y-68007487D01*
X113110000Y-67978815D01*
X112818890Y-68007487D01*
X112538967Y-68092401D01*
X112280987Y-68230294D01*
X112054866Y-68415866D01*
X111869294Y-68641986D01*
X111860000Y-68659374D01*
X111850706Y-68641986D01*
X111665134Y-68415866D01*
X111439014Y-68230294D01*
X111181034Y-68092401D01*
X110901111Y-68007487D01*
X110610000Y-67978815D01*
X110318890Y-68007487D01*
X110038967Y-68092401D01*
X109780987Y-68230294D01*
X109554866Y-68415866D01*
X109369294Y-68641986D01*
X109231401Y-68899966D01*
X109146487Y-69179889D01*
X109125000Y-69398050D01*
X105037152Y-69398050D01*
X104827158Y-69311068D01*
X104540260Y-69254000D01*
X104247740Y-69254000D01*
X103960842Y-69311068D01*
X103690589Y-69423010D01*
X103447368Y-69585525D01*
X103240525Y-69792368D01*
X103078010Y-70035589D01*
X102966068Y-70305842D01*
X102909000Y-70592740D01*
X102909000Y-70885260D01*
X102966068Y-71172158D01*
X103078010Y-71442411D01*
X103240525Y-71685632D01*
X103372380Y-71817487D01*
X103299820Y-71839498D01*
X103189506Y-71898463D01*
X103092815Y-71977815D01*
X103013463Y-72074506D01*
X102954498Y-72184820D01*
X102918188Y-72304518D01*
X102905928Y-72429000D01*
X93939158Y-72429000D01*
X91482347Y-69972190D01*
X91457764Y-69942236D01*
X91338233Y-69844138D01*
X91201860Y-69771246D01*
X91053887Y-69726359D01*
X90938561Y-69715000D01*
X90938553Y-69715000D01*
X90900000Y-69711203D01*
X90861447Y-69715000D01*
X85881474Y-69715000D01*
X85773475Y-69553368D01*
X85566632Y-69346525D01*
X85323411Y-69184010D01*
X85175049Y-69122557D01*
X85386920Y-69021641D01*
X85620269Y-68847588D01*
X85815178Y-68631355D01*
X85964157Y-68381252D01*
X86061481Y-68106891D01*
X85940814Y-67877000D01*
X84747000Y-67877000D01*
X84747000Y-67897000D01*
X84493000Y-67897000D01*
X84493000Y-67877000D01*
X82207000Y-67877000D01*
X82207000Y-67897000D01*
X81953000Y-67897000D01*
X81953000Y-67877000D01*
X79667000Y-67877000D01*
X79667000Y-67897000D01*
X79413000Y-67897000D01*
X79413000Y-67877000D01*
X77127000Y-67877000D01*
X77127000Y-67897000D01*
X76873000Y-67897000D01*
X76873000Y-67877000D01*
X75673750Y-67877000D01*
X75515000Y-68035750D01*
X75511928Y-68600000D01*
X75524188Y-68724482D01*
X75560498Y-68844180D01*
X75619463Y-68954494D01*
X75698815Y-69051185D01*
X75788759Y-69125000D01*
X75698815Y-69198815D01*
X75619463Y-69295506D01*
X75560498Y-69405820D01*
X75524188Y-69525518D01*
X75511928Y-69650000D01*
X75511928Y-71350000D01*
X75524188Y-71474482D01*
X75560498Y-71594180D01*
X75619463Y-71704494D01*
X75698815Y-71801185D01*
X75788759Y-71875000D01*
X75698815Y-71948815D01*
X75619463Y-72045506D01*
X75560498Y-72155820D01*
X75524188Y-72275518D01*
X75511928Y-72400000D01*
X75511928Y-74100000D01*
X75524188Y-74224482D01*
X75560498Y-74344180D01*
X75619463Y-74454494D01*
X75698815Y-74551185D01*
X75795506Y-74630537D01*
X75905820Y-74689502D01*
X76025518Y-74725812D01*
X76150000Y-74738072D01*
X77626075Y-74738072D01*
X77642237Y-74757765D01*
X77672190Y-74782348D01*
X78367668Y-75477826D01*
X78392247Y-75507775D01*
X78422195Y-75532353D01*
X78422198Y-75532356D01*
X78451570Y-75556461D01*
X78511778Y-75605873D01*
X78518758Y-75609604D01*
X78465241Y-75645363D01*
X78265363Y-75845241D01*
X78110000Y-76077759D01*
X77954637Y-75845241D01*
X77754759Y-75645363D01*
X77519727Y-75488320D01*
X77258574Y-75380147D01*
X76981335Y-75325000D01*
X76698665Y-75325000D01*
X76421426Y-75380147D01*
X76160273Y-75488320D01*
X75925241Y-75645363D01*
X75725363Y-75845241D01*
X75570000Y-76077759D01*
X75414637Y-75845241D01*
X75214759Y-75645363D01*
X74979727Y-75488320D01*
X74718574Y-75380147D01*
X74441335Y-75325000D01*
X74158665Y-75325000D01*
X73881426Y-75380147D01*
X73620273Y-75488320D01*
X73385241Y-75645363D01*
X73185363Y-75845241D01*
X73028320Y-76080273D01*
X73023933Y-76090865D01*
X72912385Y-75904869D01*
X72723414Y-75696481D01*
X72497420Y-75528963D01*
X72243087Y-75408754D01*
X72109039Y-75368096D01*
X71887000Y-75490085D01*
X71633000Y-75490085D01*
X71410961Y-75368096D01*
X71276913Y-75408754D01*
X71022580Y-75528963D01*
X70796586Y-75696481D01*
X70607615Y-75904869D01*
X70496067Y-76090865D01*
X70491680Y-76080273D01*
X70334637Y-75845241D01*
X70134759Y-75645363D01*
X69899727Y-75488320D01*
X69638574Y-75380147D01*
X69361335Y-75325000D01*
X69078665Y-75325000D01*
X68801426Y-75380147D01*
X68540273Y-75488320D01*
X68305241Y-75645363D01*
X68105363Y-75845241D01*
X67948320Y-76080273D01*
X67840147Y-76341426D01*
X67785000Y-76618665D01*
X56660000Y-76618665D01*
X56660000Y-66900000D01*
X75511928Y-66900000D01*
X75515000Y-67464250D01*
X75673750Y-67623000D01*
X76873000Y-67623000D01*
X76873000Y-66423750D01*
X77127000Y-66423750D01*
X77127000Y-67623000D01*
X79413000Y-67623000D01*
X79413000Y-66429845D01*
X79667000Y-66429845D01*
X79667000Y-67623000D01*
X81953000Y-67623000D01*
X81953000Y-66429845D01*
X82207000Y-66429845D01*
X82207000Y-67623000D01*
X84493000Y-67623000D01*
X84493000Y-66429845D01*
X84747000Y-66429845D01*
X84747000Y-67623000D01*
X85940814Y-67623000D01*
X86061481Y-67393109D01*
X85964157Y-67118748D01*
X85815178Y-66868645D01*
X85620269Y-66652412D01*
X85386920Y-66478359D01*
X85124099Y-66353175D01*
X84976890Y-66308524D01*
X84747000Y-66429845D01*
X84493000Y-66429845D01*
X84263110Y-66308524D01*
X84115901Y-66353175D01*
X83853080Y-66478359D01*
X83619731Y-66652412D01*
X83424822Y-66868645D01*
X83350000Y-66994255D01*
X83275178Y-66868645D01*
X83080269Y-66652412D01*
X82846920Y-66478359D01*
X82584099Y-66353175D01*
X82436890Y-66308524D01*
X82207000Y-66429845D01*
X81953000Y-66429845D01*
X81723110Y-66308524D01*
X81575901Y-66353175D01*
X81313080Y-66478359D01*
X81079731Y-66652412D01*
X80884822Y-66868645D01*
X80810000Y-66994255D01*
X80735178Y-66868645D01*
X80540269Y-66652412D01*
X80306920Y-66478359D01*
X80044099Y-66353175D01*
X79896890Y-66308524D01*
X79667000Y-66429845D01*
X79413000Y-66429845D01*
X79183110Y-66308524D01*
X79035901Y-66353175D01*
X78773080Y-66478359D01*
X78539731Y-66652412D01*
X78463966Y-66736466D01*
X78439502Y-66655820D01*
X78380537Y-66545506D01*
X78301185Y-66448815D01*
X78204494Y-66369463D01*
X78094180Y-66310498D01*
X77974482Y-66274188D01*
X77850000Y-66261928D01*
X77285750Y-66265000D01*
X77127000Y-66423750D01*
X76873000Y-66423750D01*
X76714250Y-66265000D01*
X76150000Y-66261928D01*
X76025518Y-66274188D01*
X75905820Y-66310498D01*
X75795506Y-66369463D01*
X75698815Y-66448815D01*
X75619463Y-66545506D01*
X75560498Y-66655820D01*
X75524188Y-66775518D01*
X75511928Y-66900000D01*
X56660000Y-66900000D01*
X56660000Y-60000050D01*
X67596000Y-60000050D01*
X67596000Y-60395949D01*
X67617487Y-60614110D01*
X67702401Y-60894033D01*
X67840294Y-61152013D01*
X68025866Y-61378134D01*
X68251986Y-61563706D01*
X68509966Y-61701599D01*
X68789889Y-61786513D01*
X69081000Y-61815185D01*
X69372110Y-61786513D01*
X69652033Y-61701599D01*
X69910013Y-61563706D01*
X70136134Y-61378134D01*
X70321706Y-61152014D01*
X70335462Y-61126278D01*
X70491951Y-61332429D01*
X70709807Y-61525496D01*
X70961142Y-61672352D01*
X71224110Y-61764476D01*
X71454000Y-61643155D01*
X71454000Y-60325000D01*
X71434000Y-60325000D01*
X71434000Y-60071000D01*
X71454000Y-60071000D01*
X71454000Y-60051000D01*
X71708000Y-60051000D01*
X71708000Y-60071000D01*
X71728000Y-60071000D01*
X71728000Y-60325000D01*
X71708000Y-60325000D01*
X71708000Y-61643155D01*
X71937890Y-61764476D01*
X72200858Y-61672352D01*
X72452193Y-61525496D01*
X72670049Y-61332429D01*
X72826538Y-61126278D01*
X72840294Y-61152013D01*
X73025866Y-61378134D01*
X73251986Y-61563706D01*
X73509966Y-61701599D01*
X73789889Y-61786513D01*
X74081000Y-61815185D01*
X74372110Y-61786513D01*
X74652033Y-61701599D01*
X74910013Y-61563706D01*
X75136134Y-61378134D01*
X75188223Y-61314663D01*
X75242595Y-61416386D01*
X75353038Y-61550962D01*
X75487614Y-61661405D01*
X75641150Y-61743472D01*
X75807746Y-61794008D01*
X75981000Y-61811072D01*
X77181000Y-61811072D01*
X77354254Y-61794008D01*
X77520850Y-61743472D01*
X77674386Y-61661405D01*
X77808962Y-61550962D01*
X77919405Y-61416386D01*
X78001472Y-61262850D01*
X78052008Y-61096254D01*
X78069072Y-60923000D01*
X78069072Y-59473000D01*
X78052008Y-59299746D01*
X78001472Y-59133150D01*
X77919405Y-58979614D01*
X77841758Y-58885000D01*
X81789001Y-58885000D01*
X81789000Y-59115182D01*
X81683294Y-59243986D01*
X81545401Y-59501966D01*
X81460487Y-59781889D01*
X81439000Y-60000050D01*
X81439000Y-60395949D01*
X81460487Y-60614110D01*
X81545401Y-60894033D01*
X81683294Y-61152013D01*
X81868866Y-61378134D01*
X82094986Y-61563706D01*
X82352966Y-61701599D01*
X82632889Y-61786513D01*
X82924000Y-61815185D01*
X83215110Y-61786513D01*
X83495033Y-61701599D01*
X83753013Y-61563706D01*
X83979134Y-61378134D01*
X84164706Y-61152014D01*
X84178462Y-61126278D01*
X84334951Y-61332429D01*
X84552807Y-61525496D01*
X84804142Y-61672352D01*
X85067110Y-61764476D01*
X85297000Y-61643155D01*
X85297000Y-60325000D01*
X85277000Y-60325000D01*
X85277000Y-60071000D01*
X85297000Y-60071000D01*
X85297000Y-60051000D01*
X85551000Y-60051000D01*
X85551000Y-60071000D01*
X85571000Y-60071000D01*
X85571000Y-60325000D01*
X85551000Y-60325000D01*
X85551000Y-61643155D01*
X85780890Y-61764476D01*
X86043858Y-61672352D01*
X86295193Y-61525496D01*
X86513049Y-61332429D01*
X86669538Y-61126278D01*
X86683294Y-61152013D01*
X86868866Y-61378134D01*
X87094986Y-61563706D01*
X87352966Y-61701599D01*
X87632889Y-61786513D01*
X87924000Y-61815185D01*
X88215110Y-61786513D01*
X88495033Y-61701599D01*
X88753013Y-61563706D01*
X88979134Y-61378134D01*
X89031223Y-61314663D01*
X89085595Y-61416386D01*
X89196038Y-61550962D01*
X89330614Y-61661405D01*
X89484150Y-61743472D01*
X89650746Y-61794008D01*
X89824000Y-61811072D01*
X91024000Y-61811072D01*
X91197254Y-61794008D01*
X91363850Y-61743472D01*
X91517386Y-61661405D01*
X91651962Y-61550962D01*
X91762405Y-61416386D01*
X91844472Y-61262850D01*
X91895008Y-61096254D01*
X91912072Y-60923000D01*
X91912072Y-59473000D01*
X91895008Y-59299746D01*
X91844472Y-59133150D01*
X91762405Y-58979614D01*
X91684758Y-58885000D01*
X96013001Y-58885000D01*
X96013000Y-59117182D01*
X95907294Y-59245986D01*
X95769401Y-59503966D01*
X95684487Y-59783889D01*
X95663000Y-60002050D01*
X95663000Y-60397949D01*
X95684487Y-60616110D01*
X95769401Y-60896033D01*
X95907294Y-61154013D01*
X96092866Y-61380134D01*
X96318986Y-61565706D01*
X96576966Y-61703599D01*
X96856889Y-61788513D01*
X97148000Y-61817185D01*
X97439110Y-61788513D01*
X97719033Y-61703599D01*
X97977013Y-61565706D01*
X98203134Y-61380134D01*
X98388706Y-61154014D01*
X98402462Y-61128278D01*
X98558951Y-61334429D01*
X98776807Y-61527496D01*
X99028142Y-61674352D01*
X99291110Y-61766476D01*
X99521000Y-61645155D01*
X99521000Y-60327000D01*
X99501000Y-60327000D01*
X99501000Y-60073000D01*
X99521000Y-60073000D01*
X99521000Y-60053000D01*
X99775000Y-60053000D01*
X99775000Y-60073000D01*
X99795000Y-60073000D01*
X99795000Y-60327000D01*
X99775000Y-60327000D01*
X99775000Y-61645155D01*
X100004890Y-61766476D01*
X100267858Y-61674352D01*
X100519193Y-61527496D01*
X100737049Y-61334429D01*
X100893538Y-61128278D01*
X100907294Y-61154013D01*
X101092866Y-61380134D01*
X101318986Y-61565706D01*
X101576966Y-61703599D01*
X101856889Y-61788513D01*
X102148000Y-61817185D01*
X102439110Y-61788513D01*
X102719033Y-61703599D01*
X102977013Y-61565706D01*
X103203134Y-61380134D01*
X103255223Y-61316663D01*
X103309595Y-61418386D01*
X103420038Y-61552962D01*
X103554614Y-61663405D01*
X103708150Y-61745472D01*
X103874746Y-61796008D01*
X104048000Y-61813072D01*
X105248000Y-61813072D01*
X105421254Y-61796008D01*
X105587850Y-61745472D01*
X105741386Y-61663405D01*
X105875962Y-61552962D01*
X105986405Y-61418386D01*
X106068472Y-61264850D01*
X106119008Y-61098254D01*
X106136072Y-60925000D01*
X106136072Y-59475000D01*
X106119008Y-59301746D01*
X106068472Y-59135150D01*
X105986405Y-58981614D01*
X105907116Y-58885000D01*
X108197869Y-58885000D01*
X109633000Y-60320132D01*
X109633000Y-60397949D01*
X109654487Y-60616110D01*
X109739401Y-60896033D01*
X109877294Y-61154013D01*
X110062866Y-61380134D01*
X110288986Y-61565706D01*
X110546966Y-61703599D01*
X110826889Y-61788513D01*
X111118000Y-61817185D01*
X111409110Y-61788513D01*
X111689033Y-61703599D01*
X111947013Y-61565706D01*
X112173134Y-61380134D01*
X112358706Y-61154014D01*
X112372462Y-61128278D01*
X112528951Y-61334429D01*
X112746807Y-61527496D01*
X112998142Y-61674352D01*
X113261110Y-61766476D01*
X113491000Y-61645155D01*
X113491000Y-60327000D01*
X113471000Y-60327000D01*
X113471000Y-60073000D01*
X113491000Y-60073000D01*
X113491000Y-58754845D01*
X113745000Y-58754845D01*
X113745000Y-60073000D01*
X113765000Y-60073000D01*
X113765000Y-60327000D01*
X113745000Y-60327000D01*
X113745000Y-61645155D01*
X113974890Y-61766476D01*
X114237858Y-61674352D01*
X114489193Y-61527496D01*
X114707049Y-61334429D01*
X114863538Y-61128278D01*
X114877294Y-61154013D01*
X115062866Y-61380134D01*
X115288986Y-61565706D01*
X115546966Y-61703599D01*
X115826889Y-61788513D01*
X116118000Y-61817185D01*
X116409110Y-61788513D01*
X116689033Y-61703599D01*
X116947013Y-61565706D01*
X117173134Y-61380134D01*
X117225223Y-61316663D01*
X117279595Y-61418386D01*
X117390038Y-61552962D01*
X117524614Y-61663405D01*
X117678150Y-61745472D01*
X117844746Y-61796008D01*
X118018000Y-61813072D01*
X119218000Y-61813072D01*
X119391254Y-61796008D01*
X119557850Y-61745472D01*
X119711386Y-61663405D01*
X119845962Y-61552962D01*
X119956405Y-61418386D01*
X120038472Y-61264850D01*
X120089008Y-61098254D01*
X120106072Y-60925000D01*
X120106072Y-59475000D01*
X120089008Y-59301746D01*
X120038472Y-59135150D01*
X119956405Y-58981614D01*
X119845962Y-58847038D01*
X119711386Y-58736595D01*
X119557850Y-58654528D01*
X119391254Y-58603992D01*
X119218000Y-58586928D01*
X118018000Y-58586928D01*
X117844746Y-58603992D01*
X117678150Y-58654528D01*
X117524614Y-58736595D01*
X117390038Y-58847038D01*
X117279595Y-58981614D01*
X117225223Y-59083337D01*
X117173134Y-59019866D01*
X116947014Y-58834294D01*
X116689034Y-58696401D01*
X116409111Y-58611487D01*
X116118000Y-58582815D01*
X115826890Y-58611487D01*
X115546967Y-58696401D01*
X115288987Y-58834294D01*
X115062866Y-59019866D01*
X114877294Y-59245986D01*
X114863538Y-59271722D01*
X114707049Y-59065571D01*
X114489193Y-58872504D01*
X114237858Y-58725648D01*
X113974890Y-58633524D01*
X113745000Y-58754845D01*
X113491000Y-58754845D01*
X113261110Y-58633524D01*
X112998142Y-58725648D01*
X112746807Y-58872504D01*
X112528951Y-59065571D01*
X112372462Y-59271722D01*
X112358706Y-59245986D01*
X112173134Y-59019866D01*
X111947014Y-58834294D01*
X111689034Y-58696401D01*
X111409111Y-58611487D01*
X111118000Y-58582815D01*
X111107027Y-58583896D01*
X109803003Y-57279872D01*
X124765000Y-57279872D01*
X124765000Y-57720128D01*
X124850890Y-58151925D01*
X125019369Y-58558669D01*
X125263962Y-58924729D01*
X125575271Y-59236038D01*
X125941331Y-59480631D01*
X126348075Y-59649110D01*
X126779872Y-59735000D01*
X127220128Y-59735000D01*
X127651925Y-59649110D01*
X128058669Y-59480631D01*
X128424729Y-59236038D01*
X128736038Y-58924729D01*
X128980631Y-58558669D01*
X129149110Y-58151925D01*
X129235000Y-57720128D01*
X129235000Y-57279872D01*
X129149110Y-56848075D01*
X128980631Y-56441331D01*
X128736038Y-56075271D01*
X128424729Y-55763962D01*
X128058669Y-55519369D01*
X127651925Y-55350890D01*
X127220128Y-55265000D01*
X126779872Y-55265000D01*
X126348075Y-55350890D01*
X125941331Y-55519369D01*
X125575271Y-55763962D01*
X125263962Y-56075271D01*
X125019369Y-56441331D01*
X124850890Y-56848075D01*
X124765000Y-57279872D01*
X109803003Y-57279872D01*
X109509996Y-56986865D01*
X109474449Y-56943551D01*
X109301623Y-56801716D01*
X109104447Y-56696324D01*
X108890499Y-56631423D01*
X108723752Y-56615000D01*
X108723751Y-56615000D01*
X108668000Y-56609509D01*
X108612249Y-56615000D01*
X97055751Y-56615000D01*
X97000000Y-56609509D01*
X96944249Y-56615000D01*
X83055743Y-56615000D01*
X82999999Y-56609510D01*
X82944255Y-56615000D01*
X71767707Y-56615000D01*
X71711955Y-56609509D01*
X71656203Y-56615000D01*
X71489456Y-56631423D01*
X71275508Y-56696324D01*
X71078332Y-56801716D01*
X70905506Y-56943551D01*
X70869964Y-56986859D01*
X69258524Y-58598300D01*
X69081000Y-58580815D01*
X68789890Y-58609487D01*
X68509967Y-58694401D01*
X68251987Y-58832294D01*
X68025866Y-59017866D01*
X67840294Y-59243986D01*
X67702401Y-59501966D01*
X67617487Y-59781889D01*
X67596000Y-60000050D01*
X56660000Y-60000050D01*
X56660000Y-57532278D01*
X56684748Y-57279872D01*
X57765000Y-57279872D01*
X57765000Y-57720128D01*
X57850890Y-58151925D01*
X58019369Y-58558669D01*
X58263962Y-58924729D01*
X58575271Y-59236038D01*
X58941331Y-59480631D01*
X59348075Y-59649110D01*
X59779872Y-59735000D01*
X60220128Y-59735000D01*
X60651925Y-59649110D01*
X61058669Y-59480631D01*
X61424729Y-59236038D01*
X61736038Y-58924729D01*
X61980631Y-58558669D01*
X62149110Y-58151925D01*
X62235000Y-57720128D01*
X62235000Y-57279872D01*
X62149110Y-56848075D01*
X61980631Y-56441331D01*
X61736038Y-56075271D01*
X61424729Y-55763962D01*
X61058669Y-55519369D01*
X60651925Y-55350890D01*
X60220128Y-55265000D01*
X59779872Y-55265000D01*
X59348075Y-55350890D01*
X58941331Y-55519369D01*
X58575271Y-55763962D01*
X58263962Y-56075271D01*
X58019369Y-56441331D01*
X57850890Y-56848075D01*
X57765000Y-57279872D01*
X56684748Y-57279872D01*
X56726714Y-56851874D01*
X56914943Y-56228428D01*
X57220681Y-55653421D01*
X57632279Y-55148753D01*
X58134067Y-54733638D01*
X58706924Y-54423895D01*
X59329039Y-54231318D01*
X60007584Y-54160000D01*
X126967722Y-54160000D01*
X127648126Y-54226714D01*
%TA.AperFunction,Conductor*%
D19*
G36*
X127648126Y-54226714D02*
G01*
X128271572Y-54414943D01*
X128846579Y-54720681D01*
X129351247Y-55132279D01*
X129766362Y-55634067D01*
X130076105Y-56206924D01*
X130268682Y-56829039D01*
X130340001Y-57507594D01*
X130340000Y-90967721D01*
X130273286Y-91648126D01*
X130085057Y-92271570D01*
X129779323Y-92846573D01*
X129367721Y-93351248D01*
X128865933Y-93766362D01*
X128293077Y-94076104D01*
X127670961Y-94268682D01*
X126992417Y-94340000D01*
X60032279Y-94340000D01*
X59351874Y-94273286D01*
X58728430Y-94085057D01*
X58153427Y-93779323D01*
X57648752Y-93367721D01*
X57233638Y-92865933D01*
X56923896Y-92293077D01*
X56731318Y-91670961D01*
X56660000Y-90992417D01*
X56660000Y-90779872D01*
X57765000Y-90779872D01*
X57765000Y-91220128D01*
X57850890Y-91651925D01*
X58019369Y-92058669D01*
X58263962Y-92424729D01*
X58575271Y-92736038D01*
X58941331Y-92980631D01*
X59348075Y-93149110D01*
X59779872Y-93235000D01*
X60220128Y-93235000D01*
X60651925Y-93149110D01*
X61058669Y-92980631D01*
X61424729Y-92736038D01*
X61736038Y-92424729D01*
X61980631Y-92058669D01*
X62149110Y-91651925D01*
X62235000Y-91220128D01*
X62235000Y-91200000D01*
X67781928Y-91200000D01*
X67781928Y-92800000D01*
X67794188Y-92924482D01*
X67830498Y-93044180D01*
X67889463Y-93154494D01*
X67968815Y-93251185D01*
X68065506Y-93330537D01*
X68175820Y-93389502D01*
X68295518Y-93425812D01*
X68420000Y-93438072D01*
X70020000Y-93438072D01*
X70144482Y-93425812D01*
X70264180Y-93389502D01*
X70374494Y-93330537D01*
X70471185Y-93251185D01*
X70550537Y-93154494D01*
X70609502Y-93044180D01*
X70645812Y-92924482D01*
X70646643Y-92916039D01*
X70845241Y-93114637D01*
X71080273Y-93271680D01*
X71341426Y-93379853D01*
X71618665Y-93435000D01*
X71901335Y-93435000D01*
X72178574Y-93379853D01*
X72439727Y-93271680D01*
X72674759Y-93114637D01*
X72874637Y-92914759D01*
X73030000Y-92682241D01*
X73185363Y-92914759D01*
X73385241Y-93114637D01*
X73620273Y-93271680D01*
X73881426Y-93379853D01*
X74158665Y-93435000D01*
X74441335Y-93435000D01*
X74718574Y-93379853D01*
X74979727Y-93271680D01*
X75214759Y-93114637D01*
X75414637Y-92914759D01*
X75571680Y-92679727D01*
X75576067Y-92669135D01*
X75687615Y-92855131D01*
X75876586Y-93063519D01*
X76102580Y-93231037D01*
X76356913Y-93351246D01*
X76490961Y-93391904D01*
X76713000Y-93269915D01*
X76713000Y-92127000D01*
X76693000Y-92127000D01*
X76693000Y-91873000D01*
X76713000Y-91873000D01*
X76713000Y-90730085D01*
X76967000Y-90730085D01*
X76967000Y-91873000D01*
X76987000Y-91873000D01*
X76987000Y-92127000D01*
X76967000Y-92127000D01*
X76967000Y-93269915D01*
X77189039Y-93391904D01*
X77323087Y-93351246D01*
X77577420Y-93231037D01*
X77803414Y-93063519D01*
X77992385Y-92855131D01*
X78103933Y-92669135D01*
X78108320Y-92679727D01*
X78265363Y-92914759D01*
X78465241Y-93114637D01*
X78700273Y-93271680D01*
X78961426Y-93379853D01*
X79238665Y-93435000D01*
X79521335Y-93435000D01*
X79798574Y-93379853D01*
X80059727Y-93271680D01*
X80294759Y-93114637D01*
X80494637Y-92914759D01*
X80650000Y-92682241D01*
X80805363Y-92914759D01*
X81005241Y-93114637D01*
X81240273Y-93271680D01*
X81501426Y-93379853D01*
X81778665Y-93435000D01*
X82061335Y-93435000D01*
X82338574Y-93379853D01*
X82599727Y-93271680D01*
X82834759Y-93114637D01*
X83034637Y-92914759D01*
X83190000Y-92682241D01*
X83345363Y-92914759D01*
X83545241Y-93114637D01*
X83780273Y-93271680D01*
X84041426Y-93379853D01*
X84318665Y-93435000D01*
X84601335Y-93435000D01*
X84878574Y-93379853D01*
X85139727Y-93271680D01*
X85374759Y-93114637D01*
X85574637Y-92914759D01*
X85730000Y-92682241D01*
X85885363Y-92914759D01*
X86085241Y-93114637D01*
X86320273Y-93271680D01*
X86581426Y-93379853D01*
X86858665Y-93435000D01*
X87141335Y-93435000D01*
X87418574Y-93379853D01*
X87679727Y-93271680D01*
X87914759Y-93114637D01*
X88114637Y-92914759D01*
X88270000Y-92682241D01*
X88425363Y-92914759D01*
X88625241Y-93114637D01*
X88860273Y-93271680D01*
X89121426Y-93379853D01*
X89398665Y-93435000D01*
X89681335Y-93435000D01*
X89958574Y-93379853D01*
X90219727Y-93271680D01*
X90454759Y-93114637D01*
X90654637Y-92914759D01*
X90810000Y-92682241D01*
X90965363Y-92914759D01*
X91165241Y-93114637D01*
X91400273Y-93271680D01*
X91661426Y-93379853D01*
X91938665Y-93435000D01*
X92221335Y-93435000D01*
X92498574Y-93379853D01*
X92759727Y-93271680D01*
X92994759Y-93114637D01*
X93194637Y-92914759D01*
X93350000Y-92682241D01*
X93505363Y-92914759D01*
X93705241Y-93114637D01*
X93940273Y-93271680D01*
X94201426Y-93379853D01*
X94478665Y-93435000D01*
X94761335Y-93435000D01*
X95038574Y-93379853D01*
X95299727Y-93271680D01*
X95534759Y-93114637D01*
X95734637Y-92914759D01*
X95890000Y-92682241D01*
X96045363Y-92914759D01*
X96245241Y-93114637D01*
X96480273Y-93271680D01*
X96741426Y-93379853D01*
X97018665Y-93435000D01*
X97301335Y-93435000D01*
X97578574Y-93379853D01*
X97839727Y-93271680D01*
X98074759Y-93114637D01*
X98274637Y-92914759D01*
X98430000Y-92682241D01*
X98585363Y-92914759D01*
X98785241Y-93114637D01*
X99020273Y-93271680D01*
X99281426Y-93379853D01*
X99558665Y-93435000D01*
X99841335Y-93435000D01*
X100118574Y-93379853D01*
X100379727Y-93271680D01*
X100614759Y-93114637D01*
X100814637Y-92914759D01*
X100970000Y-92682241D01*
X101125363Y-92914759D01*
X101325241Y-93114637D01*
X101560273Y-93271680D01*
X101821426Y-93379853D01*
X102098665Y-93435000D01*
X102381335Y-93435000D01*
X102658574Y-93379853D01*
X102919727Y-93271680D01*
X103154759Y-93114637D01*
X103354637Y-92914759D01*
X103510000Y-92682241D01*
X103665363Y-92914759D01*
X103865241Y-93114637D01*
X104100273Y-93271680D01*
X104361426Y-93379853D01*
X104638665Y-93435000D01*
X104921335Y-93435000D01*
X105198574Y-93379853D01*
X105459727Y-93271680D01*
X105694759Y-93114637D01*
X105894637Y-92914759D01*
X106051680Y-92679727D01*
X106159853Y-92418574D01*
X106215000Y-92141335D01*
X106215000Y-91858665D01*
X106159853Y-91581426D01*
X106051680Y-91320273D01*
X105894637Y-91085241D01*
X105694759Y-90885363D01*
X105536881Y-90779872D01*
X124765000Y-90779872D01*
X124765000Y-91220128D01*
X124850890Y-91651925D01*
X125019369Y-92058669D01*
X125263962Y-92424729D01*
X125575271Y-92736038D01*
X125941331Y-92980631D01*
X126348075Y-93149110D01*
X126779872Y-93235000D01*
X127220128Y-93235000D01*
X127651925Y-93149110D01*
X128058669Y-92980631D01*
X128424729Y-92736038D01*
X128736038Y-92424729D01*
X128980631Y-92058669D01*
X129149110Y-91651925D01*
X129235000Y-91220128D01*
X129235000Y-90779872D01*
X129149110Y-90348075D01*
X128980631Y-89941331D01*
X128736038Y-89575271D01*
X128424729Y-89263962D01*
X128058669Y-89019369D01*
X127651925Y-88850890D01*
X127220128Y-88765000D01*
X126779872Y-88765000D01*
X126348075Y-88850890D01*
X125941331Y-89019369D01*
X125575271Y-89263962D01*
X125263962Y-89575271D01*
X125019369Y-89941331D01*
X124850890Y-90348075D01*
X124765000Y-90779872D01*
X105536881Y-90779872D01*
X105459727Y-90728320D01*
X105198574Y-90620147D01*
X104921335Y-90565000D01*
X104638665Y-90565000D01*
X104361426Y-90620147D01*
X104100273Y-90728320D01*
X103865241Y-90885363D01*
X103665363Y-91085241D01*
X103510000Y-91317759D01*
X103354637Y-91085241D01*
X103154759Y-90885363D01*
X102919727Y-90728320D01*
X102658574Y-90620147D01*
X102381335Y-90565000D01*
X102098665Y-90565000D01*
X101821426Y-90620147D01*
X101560273Y-90728320D01*
X101325241Y-90885363D01*
X101125363Y-91085241D01*
X100970000Y-91317759D01*
X100814637Y-91085241D01*
X100614759Y-90885363D01*
X100379727Y-90728320D01*
X100118574Y-90620147D01*
X99841335Y-90565000D01*
X99558665Y-90565000D01*
X99281426Y-90620147D01*
X99020273Y-90728320D01*
X98785241Y-90885363D01*
X98585363Y-91085241D01*
X98430000Y-91317759D01*
X98274637Y-91085241D01*
X98074759Y-90885363D01*
X97839727Y-90728320D01*
X97578574Y-90620147D01*
X97301335Y-90565000D01*
X97018665Y-90565000D01*
X96741426Y-90620147D01*
X96480273Y-90728320D01*
X96245241Y-90885363D01*
X96045363Y-91085241D01*
X95890000Y-91317759D01*
X95734637Y-91085241D01*
X95534759Y-90885363D01*
X95299727Y-90728320D01*
X95038574Y-90620147D01*
X94761335Y-90565000D01*
X94478665Y-90565000D01*
X94201426Y-90620147D01*
X93940273Y-90728320D01*
X93705241Y-90885363D01*
X93505363Y-91085241D01*
X93350000Y-91317759D01*
X93194637Y-91085241D01*
X92994759Y-90885363D01*
X92759727Y-90728320D01*
X92498574Y-90620147D01*
X92221335Y-90565000D01*
X91938665Y-90565000D01*
X91661426Y-90620147D01*
X91400273Y-90728320D01*
X91165241Y-90885363D01*
X90965363Y-91085241D01*
X90810000Y-91317759D01*
X90654637Y-91085241D01*
X90454759Y-90885363D01*
X90219727Y-90728320D01*
X89958574Y-90620147D01*
X89681335Y-90565000D01*
X89398665Y-90565000D01*
X89121426Y-90620147D01*
X88860273Y-90728320D01*
X88625241Y-90885363D01*
X88425363Y-91085241D01*
X88270000Y-91317759D01*
X88114637Y-91085241D01*
X87914759Y-90885363D01*
X87679727Y-90728320D01*
X87418574Y-90620147D01*
X87141335Y-90565000D01*
X86858665Y-90565000D01*
X86581426Y-90620147D01*
X86320273Y-90728320D01*
X86085241Y-90885363D01*
X85885363Y-91085241D01*
X85730000Y-91317759D01*
X85574637Y-91085241D01*
X85374759Y-90885363D01*
X85139727Y-90728320D01*
X84878574Y-90620147D01*
X84601335Y-90565000D01*
X84318665Y-90565000D01*
X84041426Y-90620147D01*
X83780273Y-90728320D01*
X83545241Y-90885363D01*
X83345363Y-91085241D01*
X83190000Y-91317759D01*
X83034637Y-91085241D01*
X82834759Y-90885363D01*
X82599727Y-90728320D01*
X82338574Y-90620147D01*
X82061335Y-90565000D01*
X81778665Y-90565000D01*
X81501426Y-90620147D01*
X81240273Y-90728320D01*
X81005241Y-90885363D01*
X80805363Y-91085241D01*
X80650000Y-91317759D01*
X80494637Y-91085241D01*
X80294759Y-90885363D01*
X80059727Y-90728320D01*
X79798574Y-90620147D01*
X79521335Y-90565000D01*
X79238665Y-90565000D01*
X78961426Y-90620147D01*
X78700273Y-90728320D01*
X78465241Y-90885363D01*
X78265363Y-91085241D01*
X78108320Y-91320273D01*
X78103933Y-91330865D01*
X77992385Y-91144869D01*
X77803414Y-90936481D01*
X77577420Y-90768963D01*
X77323087Y-90648754D01*
X77189039Y-90608096D01*
X76967000Y-90730085D01*
X76713000Y-90730085D01*
X76490961Y-90608096D01*
X76356913Y-90648754D01*
X76102580Y-90768963D01*
X75876586Y-90936481D01*
X75687615Y-91144869D01*
X75576067Y-91330865D01*
X75571680Y-91320273D01*
X75414637Y-91085241D01*
X75214759Y-90885363D01*
X74979727Y-90728320D01*
X74718574Y-90620147D01*
X74441335Y-90565000D01*
X74158665Y-90565000D01*
X73881426Y-90620147D01*
X73620273Y-90728320D01*
X73385241Y-90885363D01*
X73185363Y-91085241D01*
X73030000Y-91317759D01*
X72874637Y-91085241D01*
X72674759Y-90885363D01*
X72439727Y-90728320D01*
X72178574Y-90620147D01*
X71901335Y-90565000D01*
X71618665Y-90565000D01*
X71341426Y-90620147D01*
X71080273Y-90728320D01*
X70845241Y-90885363D01*
X70646643Y-91083961D01*
X70645812Y-91075518D01*
X70609502Y-90955820D01*
X70550537Y-90845506D01*
X70471185Y-90748815D01*
X70374494Y-90669463D01*
X70264180Y-90610498D01*
X70144482Y-90574188D01*
X70020000Y-90561928D01*
X68420000Y-90561928D01*
X68295518Y-90574188D01*
X68175820Y-90610498D01*
X68065506Y-90669463D01*
X67968815Y-90748815D01*
X67889463Y-90845506D01*
X67830498Y-90955820D01*
X67794188Y-91075518D01*
X67781928Y-91200000D01*
X62235000Y-91200000D01*
X62235000Y-90779872D01*
X62149110Y-90348075D01*
X61980631Y-89941331D01*
X61736038Y-89575271D01*
X61424729Y-89263962D01*
X61058669Y-89019369D01*
X60651925Y-88850890D01*
X60220128Y-88765000D01*
X59779872Y-88765000D01*
X59348075Y-88850890D01*
X58941331Y-89019369D01*
X58575271Y-89263962D01*
X58263962Y-89575271D01*
X58019369Y-89941331D01*
X57850890Y-90348075D01*
X57765000Y-90779872D01*
X56660000Y-90779872D01*
X56660000Y-83337061D01*
X110598000Y-83337061D01*
X110598000Y-83540939D01*
X110637774Y-83740898D01*
X110715795Y-83929256D01*
X110829063Y-84098774D01*
X110973226Y-84242937D01*
X111142744Y-84356205D01*
X111331102Y-84434226D01*
X111531061Y-84474000D01*
X111557843Y-84474000D01*
X112339327Y-85255484D01*
X112363905Y-85285433D01*
X112393853Y-85310011D01*
X112393856Y-85310014D01*
X112423228Y-85334119D01*
X112483436Y-85383531D01*
X112619809Y-85456423D01*
X112767781Y-85501310D01*
X112782159Y-85502726D01*
X112883108Y-85512669D01*
X112883115Y-85512669D01*
X112921668Y-85516466D01*
X112960221Y-85512669D01*
X117494958Y-85512669D01*
X117513895Y-85531606D01*
X117683413Y-85644874D01*
X117871771Y-85722895D01*
X118071730Y-85762669D01*
X118275608Y-85762669D01*
X118475567Y-85722895D01*
X118663925Y-85644874D01*
X118833443Y-85531606D01*
X118977606Y-85387443D01*
X119090874Y-85217925D01*
X119168895Y-85029567D01*
X119208669Y-84829608D01*
X119208669Y-84625730D01*
X119168895Y-84425771D01*
X119090874Y-84237413D01*
X118977606Y-84067895D01*
X118833443Y-83923732D01*
X118663925Y-83810464D01*
X118475567Y-83732443D01*
X118275608Y-83692669D01*
X118071730Y-83692669D01*
X117871771Y-83732443D01*
X117683413Y-83810464D01*
X117513895Y-83923732D01*
X117494958Y-83942669D01*
X113246827Y-83942669D01*
X112668000Y-83363843D01*
X112668000Y-83337061D01*
X112628226Y-83137102D01*
X112550205Y-82948744D01*
X112436937Y-82779226D01*
X112292774Y-82635063D01*
X112123256Y-82521795D01*
X111934898Y-82443774D01*
X111734939Y-82404000D01*
X111531061Y-82404000D01*
X111331102Y-82443774D01*
X111142744Y-82521795D01*
X110973226Y-82635063D01*
X110829063Y-82779226D01*
X110715795Y-82948744D01*
X110637774Y-83137102D01*
X110598000Y-83337061D01*
X56660000Y-83337061D01*
X56660000Y-76618665D01*
X67785000Y-76618665D01*
X67785000Y-76901335D01*
X67840147Y-77178574D01*
X67948320Y-77439727D01*
X68105363Y-77674759D01*
X68305241Y-77874637D01*
X68540273Y-78031680D01*
X68801426Y-78139853D01*
X69078665Y-78195000D01*
X69361335Y-78195000D01*
X69638574Y-78139853D01*
X69899727Y-78031680D01*
X70134759Y-77874637D01*
X70334637Y-77674759D01*
X70491680Y-77439727D01*
X70496067Y-77429135D01*
X70607615Y-77615131D01*
X70796586Y-77823519D01*
X71022580Y-77991037D01*
X71276913Y-78111246D01*
X71410961Y-78151904D01*
X71633000Y-78029915D01*
X71633000Y-76887000D01*
X71613000Y-76887000D01*
X71613000Y-76633000D01*
X71633000Y-76633000D01*
X71633000Y-75490085D01*
X71887000Y-75490085D01*
X71887000Y-76633000D01*
X71907000Y-76633000D01*
X71907000Y-76887000D01*
X71887000Y-76887000D01*
X71887000Y-78029915D01*
X72109039Y-78151904D01*
X72243087Y-78111246D01*
X72497420Y-77991037D01*
X72723414Y-77823519D01*
X72912385Y-77615131D01*
X73023933Y-77429135D01*
X73028320Y-77439727D01*
X73185363Y-77674759D01*
X73385241Y-77874637D01*
X73620273Y-78031680D01*
X73881426Y-78139853D01*
X74158665Y-78195000D01*
X74441335Y-78195000D01*
X74718574Y-78139853D01*
X74979727Y-78031680D01*
X75214759Y-77874637D01*
X75414637Y-77674759D01*
X75570000Y-77442241D01*
X75725363Y-77674759D01*
X75925241Y-77874637D01*
X76160273Y-78031680D01*
X76421426Y-78139853D01*
X76698665Y-78195000D01*
X76981335Y-78195000D01*
X77258574Y-78139853D01*
X77519727Y-78031680D01*
X77754759Y-77874637D01*
X77954637Y-77674759D01*
X78110000Y-77442241D01*
X78265363Y-77674759D01*
X78465241Y-77874637D01*
X78700273Y-78031680D01*
X78961426Y-78139853D01*
X79238665Y-78195000D01*
X79521335Y-78195000D01*
X79798574Y-78139853D01*
X80059727Y-78031680D01*
X80294759Y-77874637D01*
X80494637Y-77674759D01*
X80650000Y-77442241D01*
X80805363Y-77674759D01*
X81005241Y-77874637D01*
X81240273Y-78031680D01*
X81501426Y-78139853D01*
X81778665Y-78195000D01*
X82061335Y-78195000D01*
X82338574Y-78139853D01*
X82599727Y-78031680D01*
X82834759Y-77874637D01*
X83034637Y-77674759D01*
X83190000Y-77442241D01*
X83345363Y-77674759D01*
X83545241Y-77874637D01*
X83780273Y-78031680D01*
X84041426Y-78139853D01*
X84318665Y-78195000D01*
X84601335Y-78195000D01*
X84878574Y-78139853D01*
X85139727Y-78031680D01*
X85374759Y-77874637D01*
X85574637Y-77674759D01*
X85730000Y-77442241D01*
X85885363Y-77674759D01*
X86085241Y-77874637D01*
X86320273Y-78031680D01*
X86581426Y-78139853D01*
X86858665Y-78195000D01*
X87141335Y-78195000D01*
X87418574Y-78139853D01*
X87679727Y-78031680D01*
X87914759Y-77874637D01*
X88114637Y-77674759D01*
X88270000Y-77442241D01*
X88425363Y-77674759D01*
X88625241Y-77874637D01*
X88860273Y-78031680D01*
X89121426Y-78139853D01*
X89398665Y-78195000D01*
X89681335Y-78195000D01*
X89958574Y-78139853D01*
X90219727Y-78031680D01*
X90454759Y-77874637D01*
X90654637Y-77674759D01*
X90810000Y-77442241D01*
X90965363Y-77674759D01*
X91165241Y-77874637D01*
X91400273Y-78031680D01*
X91661426Y-78139853D01*
X91938665Y-78195000D01*
X92221335Y-78195000D01*
X92498574Y-78139853D01*
X92759727Y-78031680D01*
X92994759Y-77874637D01*
X93194637Y-77674759D01*
X93350000Y-77442241D01*
X93505363Y-77674759D01*
X93705241Y-77874637D01*
X93940273Y-78031680D01*
X94201426Y-78139853D01*
X94478665Y-78195000D01*
X94761335Y-78195000D01*
X95038574Y-78139853D01*
X95299727Y-78031680D01*
X95534759Y-77874637D01*
X95734637Y-77674759D01*
X95890000Y-77442241D01*
X96045363Y-77674759D01*
X96245241Y-77874637D01*
X96480273Y-78031680D01*
X96741426Y-78139853D01*
X97018665Y-78195000D01*
X97301335Y-78195000D01*
X97578574Y-78139853D01*
X97839727Y-78031680D01*
X98074759Y-77874637D01*
X98274637Y-77674759D01*
X98430000Y-77442241D01*
X98585363Y-77674759D01*
X98785241Y-77874637D01*
X99020273Y-78031680D01*
X99281426Y-78139853D01*
X99558665Y-78195000D01*
X99841335Y-78195000D01*
X100118574Y-78139853D01*
X100379727Y-78031680D01*
X100614759Y-77874637D01*
X100814637Y-77674759D01*
X100970000Y-77442241D01*
X101125363Y-77674759D01*
X101325241Y-77874637D01*
X101560273Y-78031680D01*
X101821426Y-78139853D01*
X102098665Y-78195000D01*
X102381335Y-78195000D01*
X102658574Y-78139853D01*
X102919727Y-78031680D01*
X103154759Y-77874637D01*
X103354637Y-77674759D01*
X103510000Y-77442241D01*
X103665363Y-77674759D01*
X103865241Y-77874637D01*
X104100273Y-78031680D01*
X104361426Y-78139853D01*
X104638665Y-78195000D01*
X104921335Y-78195000D01*
X105198574Y-78139853D01*
X105459727Y-78031680D01*
X105694759Y-77874637D01*
X105894637Y-77674759D01*
X106051680Y-77439727D01*
X106159853Y-77178574D01*
X106215000Y-76901335D01*
X106215000Y-76618665D01*
X106159853Y-76341426D01*
X106051680Y-76080273D01*
X105894637Y-75845241D01*
X105694759Y-75645363D01*
X105459727Y-75488320D01*
X105198574Y-75380147D01*
X104921335Y-75325000D01*
X104638665Y-75325000D01*
X104361426Y-75380147D01*
X104100273Y-75488320D01*
X103865241Y-75645363D01*
X103665363Y-75845241D01*
X103510000Y-76077759D01*
X103354637Y-75845241D01*
X103154759Y-75645363D01*
X102919727Y-75488320D01*
X102658574Y-75380147D01*
X102381335Y-75325000D01*
X102098665Y-75325000D01*
X101821426Y-75380147D01*
X101560273Y-75488320D01*
X101325241Y-75645363D01*
X101125363Y-75845241D01*
X100970000Y-76077759D01*
X100814637Y-75845241D01*
X100614759Y-75645363D01*
X100379727Y-75488320D01*
X100118574Y-75380147D01*
X99841335Y-75325000D01*
X99558665Y-75325000D01*
X99281426Y-75380147D01*
X99020273Y-75488320D01*
X98785241Y-75645363D01*
X98585363Y-75845241D01*
X98430000Y-76077759D01*
X98274637Y-75845241D01*
X98074759Y-75645363D01*
X97839727Y-75488320D01*
X97578574Y-75380147D01*
X97301335Y-75325000D01*
X97018665Y-75325000D01*
X96865604Y-75355446D01*
X93939158Y-72429000D01*
X102905928Y-72429000D01*
X102905928Y-74129000D01*
X102918188Y-74253482D01*
X102954498Y-74373180D01*
X103013463Y-74483494D01*
X103092815Y-74580185D01*
X103189506Y-74659537D01*
X103299820Y-74718502D01*
X103419518Y-74754812D01*
X103544000Y-74767072D01*
X105244000Y-74767072D01*
X105368482Y-74754812D01*
X105488180Y-74718502D01*
X105598494Y-74659537D01*
X105695185Y-74580185D01*
X105774537Y-74483494D01*
X105833502Y-74373180D01*
X105869812Y-74253482D01*
X105882072Y-74129000D01*
X105882072Y-72429000D01*
X105869812Y-72304518D01*
X105833502Y-72184820D01*
X105774537Y-72074506D01*
X105695185Y-71977815D01*
X105598494Y-71898463D01*
X105488180Y-71839498D01*
X105415620Y-71817487D01*
X105547475Y-71685632D01*
X105709990Y-71442411D01*
X105821932Y-71172158D01*
X105879000Y-70885260D01*
X105879000Y-70592740D01*
X105821932Y-70305842D01*
X105709990Y-70035589D01*
X105547475Y-69792368D01*
X105340632Y-69585525D01*
X105097411Y-69423010D01*
X105037152Y-69398050D01*
X109125000Y-69398050D01*
X109125000Y-69793949D01*
X109146487Y-70012110D01*
X109231401Y-70292033D01*
X109369294Y-70550013D01*
X109554866Y-70776134D01*
X109780986Y-70961706D01*
X110038966Y-71099599D01*
X110318889Y-71184513D01*
X110610000Y-71213185D01*
X110901110Y-71184513D01*
X111181033Y-71099599D01*
X111439013Y-70961706D01*
X111665134Y-70776134D01*
X111850706Y-70550014D01*
X111860000Y-70532626D01*
X111869294Y-70550013D01*
X112054866Y-70776134D01*
X112280986Y-70961706D01*
X112538966Y-71099599D01*
X112818889Y-71184513D01*
X113110000Y-71213185D01*
X113401110Y-71184513D01*
X113681033Y-71099599D01*
X113939013Y-70961706D01*
X114165134Y-70776134D01*
X114350706Y-70550014D01*
X114360000Y-70532626D01*
X114369294Y-70550013D01*
X114554866Y-70776134D01*
X114780986Y-70961706D01*
X115038966Y-71099599D01*
X115318889Y-71184513D01*
X115610000Y-71213185D01*
X115901110Y-71184513D01*
X116181033Y-71099599D01*
X116439013Y-70961706D01*
X116659945Y-70780392D01*
X116670498Y-70815180D01*
X116729463Y-70925494D01*
X116808815Y-71022185D01*
X116905506Y-71101537D01*
X117015820Y-71160502D01*
X117135518Y-71196812D01*
X117260000Y-71209072D01*
X117824250Y-71206000D01*
X117983000Y-71047250D01*
X117983000Y-69723000D01*
X118237000Y-69723000D01*
X118237000Y-71047250D01*
X118395750Y-71206000D01*
X118960000Y-71209072D01*
X119084482Y-71196812D01*
X119204180Y-71160502D01*
X119314494Y-71101537D01*
X119411185Y-71022185D01*
X119490537Y-70925494D01*
X119549502Y-70815180D01*
X119585812Y-70695482D01*
X119598072Y-70571000D01*
X119595000Y-69881750D01*
X119436250Y-69723000D01*
X118237000Y-69723000D01*
X117983000Y-69723000D01*
X117963000Y-69723000D01*
X117963000Y-69469000D01*
X117983000Y-69469000D01*
X117983000Y-68144750D01*
X118237000Y-68144750D01*
X118237000Y-69469000D01*
X119436250Y-69469000D01*
X119595000Y-69310250D01*
X119598072Y-68621000D01*
X119585812Y-68496518D01*
X119549502Y-68376820D01*
X119490537Y-68266506D01*
X119411185Y-68169815D01*
X119314494Y-68090463D01*
X119204180Y-68031498D01*
X119084482Y-67995188D01*
X118960000Y-67982928D01*
X118395750Y-67986000D01*
X118237000Y-68144750D01*
X117983000Y-68144750D01*
X117824250Y-67986000D01*
X117260000Y-67982928D01*
X117135518Y-67995188D01*
X117015820Y-68031498D01*
X116905506Y-68090463D01*
X116808815Y-68169815D01*
X116729463Y-68266506D01*
X116670498Y-68376820D01*
X116659945Y-68411608D01*
X116439014Y-68230294D01*
X116181034Y-68092401D01*
X115901111Y-68007487D01*
X115610000Y-67978815D01*
X115318890Y-68007487D01*
X115038967Y-68092401D01*
X114780987Y-68230294D01*
X114554866Y-68415866D01*
X114369294Y-68641986D01*
X114360000Y-68659374D01*
X114350706Y-68641986D01*
X114165134Y-68415866D01*
X113939014Y-68230294D01*
X113681034Y-68092401D01*
X113401111Y-68007487D01*
X113110000Y-67978815D01*
X112818890Y-68007487D01*
X112538967Y-68092401D01*
X112280987Y-68230294D01*
X112054866Y-68415866D01*
X111869294Y-68641986D01*
X111860000Y-68659374D01*
X111850706Y-68641986D01*
X111665134Y-68415866D01*
X111439014Y-68230294D01*
X111181034Y-68092401D01*
X110901111Y-68007487D01*
X110610000Y-67978815D01*
X110318890Y-68007487D01*
X110038967Y-68092401D01*
X109780987Y-68230294D01*
X109554866Y-68415866D01*
X109369294Y-68641986D01*
X109231401Y-68899966D01*
X109146487Y-69179889D01*
X109125000Y-69398050D01*
X105037152Y-69398050D01*
X104827158Y-69311068D01*
X104540260Y-69254000D01*
X104247740Y-69254000D01*
X103960842Y-69311068D01*
X103690589Y-69423010D01*
X103447368Y-69585525D01*
X103240525Y-69792368D01*
X103078010Y-70035589D01*
X102966068Y-70305842D01*
X102909000Y-70592740D01*
X102909000Y-70885260D01*
X102966068Y-71172158D01*
X103078010Y-71442411D01*
X103240525Y-71685632D01*
X103372380Y-71817487D01*
X103299820Y-71839498D01*
X103189506Y-71898463D01*
X103092815Y-71977815D01*
X103013463Y-72074506D01*
X102954498Y-72184820D01*
X102918188Y-72304518D01*
X102905928Y-72429000D01*
X93939158Y-72429000D01*
X91482347Y-69972190D01*
X91457764Y-69942236D01*
X91338233Y-69844138D01*
X91201860Y-69771246D01*
X91053887Y-69726359D01*
X90938561Y-69715000D01*
X90938553Y-69715000D01*
X90900000Y-69711203D01*
X90861447Y-69715000D01*
X85881474Y-69715000D01*
X85773475Y-69553368D01*
X85566632Y-69346525D01*
X85323411Y-69184010D01*
X85175049Y-69122557D01*
X85386920Y-69021641D01*
X85620269Y-68847588D01*
X85815178Y-68631355D01*
X85964157Y-68381252D01*
X86061481Y-68106891D01*
X85940814Y-67877000D01*
X84747000Y-67877000D01*
X84747000Y-67897000D01*
X84493000Y-67897000D01*
X84493000Y-67877000D01*
X82207000Y-67877000D01*
X82207000Y-67897000D01*
X81953000Y-67897000D01*
X81953000Y-67877000D01*
X79667000Y-67877000D01*
X79667000Y-67897000D01*
X79413000Y-67897000D01*
X79413000Y-67877000D01*
X77127000Y-67877000D01*
X77127000Y-67897000D01*
X76873000Y-67897000D01*
X76873000Y-67877000D01*
X75673750Y-67877000D01*
X75515000Y-68035750D01*
X75511928Y-68600000D01*
X75524188Y-68724482D01*
X75560498Y-68844180D01*
X75619463Y-68954494D01*
X75698815Y-69051185D01*
X75788759Y-69125000D01*
X75698815Y-69198815D01*
X75619463Y-69295506D01*
X75560498Y-69405820D01*
X75524188Y-69525518D01*
X75511928Y-69650000D01*
X75511928Y-71350000D01*
X75524188Y-71474482D01*
X75560498Y-71594180D01*
X75619463Y-71704494D01*
X75698815Y-71801185D01*
X75788759Y-71875000D01*
X75698815Y-71948815D01*
X75619463Y-72045506D01*
X75560498Y-72155820D01*
X75524188Y-72275518D01*
X75511928Y-72400000D01*
X75511928Y-74100000D01*
X75524188Y-74224482D01*
X75560498Y-74344180D01*
X75619463Y-74454494D01*
X75698815Y-74551185D01*
X75795506Y-74630537D01*
X75905820Y-74689502D01*
X76025518Y-74725812D01*
X76150000Y-74738072D01*
X77626075Y-74738072D01*
X77642237Y-74757765D01*
X77672190Y-74782348D01*
X78367668Y-75477826D01*
X78392247Y-75507775D01*
X78422195Y-75532353D01*
X78422198Y-75532356D01*
X78451570Y-75556461D01*
X78511778Y-75605873D01*
X78518758Y-75609604D01*
X78465241Y-75645363D01*
X78265363Y-75845241D01*
X78110000Y-76077759D01*
X77954637Y-75845241D01*
X77754759Y-75645363D01*
X77519727Y-75488320D01*
X77258574Y-75380147D01*
X76981335Y-75325000D01*
X76698665Y-75325000D01*
X76421426Y-75380147D01*
X76160273Y-75488320D01*
X75925241Y-75645363D01*
X75725363Y-75845241D01*
X75570000Y-76077759D01*
X75414637Y-75845241D01*
X75214759Y-75645363D01*
X74979727Y-75488320D01*
X74718574Y-75380147D01*
X74441335Y-75325000D01*
X74158665Y-75325000D01*
X73881426Y-75380147D01*
X73620273Y-75488320D01*
X73385241Y-75645363D01*
X73185363Y-75845241D01*
X73028320Y-76080273D01*
X73023933Y-76090865D01*
X72912385Y-75904869D01*
X72723414Y-75696481D01*
X72497420Y-75528963D01*
X72243087Y-75408754D01*
X72109039Y-75368096D01*
X71887000Y-75490085D01*
X71633000Y-75490085D01*
X71410961Y-75368096D01*
X71276913Y-75408754D01*
X71022580Y-75528963D01*
X70796586Y-75696481D01*
X70607615Y-75904869D01*
X70496067Y-76090865D01*
X70491680Y-76080273D01*
X70334637Y-75845241D01*
X70134759Y-75645363D01*
X69899727Y-75488320D01*
X69638574Y-75380147D01*
X69361335Y-75325000D01*
X69078665Y-75325000D01*
X68801426Y-75380147D01*
X68540273Y-75488320D01*
X68305241Y-75645363D01*
X68105363Y-75845241D01*
X67948320Y-76080273D01*
X67840147Y-76341426D01*
X67785000Y-76618665D01*
X56660000Y-76618665D01*
X56660000Y-66900000D01*
X75511928Y-66900000D01*
X75515000Y-67464250D01*
X75673750Y-67623000D01*
X76873000Y-67623000D01*
X76873000Y-66423750D01*
X77127000Y-66423750D01*
X77127000Y-67623000D01*
X79413000Y-67623000D01*
X79413000Y-66429845D01*
X79667000Y-66429845D01*
X79667000Y-67623000D01*
X81953000Y-67623000D01*
X81953000Y-66429845D01*
X82207000Y-66429845D01*
X82207000Y-67623000D01*
X84493000Y-67623000D01*
X84493000Y-66429845D01*
X84747000Y-66429845D01*
X84747000Y-67623000D01*
X85940814Y-67623000D01*
X86061481Y-67393109D01*
X85964157Y-67118748D01*
X85815178Y-66868645D01*
X85620269Y-66652412D01*
X85386920Y-66478359D01*
X85124099Y-66353175D01*
X84976890Y-66308524D01*
X84747000Y-66429845D01*
X84493000Y-66429845D01*
X84263110Y-66308524D01*
X84115901Y-66353175D01*
X83853080Y-66478359D01*
X83619731Y-66652412D01*
X83424822Y-66868645D01*
X83350000Y-66994255D01*
X83275178Y-66868645D01*
X83080269Y-66652412D01*
X82846920Y-66478359D01*
X82584099Y-66353175D01*
X82436890Y-66308524D01*
X82207000Y-66429845D01*
X81953000Y-66429845D01*
X81723110Y-66308524D01*
X81575901Y-66353175D01*
X81313080Y-66478359D01*
X81079731Y-66652412D01*
X80884822Y-66868645D01*
X80810000Y-66994255D01*
X80735178Y-66868645D01*
X80540269Y-66652412D01*
X80306920Y-66478359D01*
X80044099Y-66353175D01*
X79896890Y-66308524D01*
X79667000Y-66429845D01*
X79413000Y-66429845D01*
X79183110Y-66308524D01*
X79035901Y-66353175D01*
X78773080Y-66478359D01*
X78539731Y-66652412D01*
X78463966Y-66736466D01*
X78439502Y-66655820D01*
X78380537Y-66545506D01*
X78301185Y-66448815D01*
X78204494Y-66369463D01*
X78094180Y-66310498D01*
X77974482Y-66274188D01*
X77850000Y-66261928D01*
X77285750Y-66265000D01*
X77127000Y-66423750D01*
X76873000Y-66423750D01*
X76714250Y-66265000D01*
X76150000Y-66261928D01*
X76025518Y-66274188D01*
X75905820Y-66310498D01*
X75795506Y-66369463D01*
X75698815Y-66448815D01*
X75619463Y-66545506D01*
X75560498Y-66655820D01*
X75524188Y-66775518D01*
X75511928Y-66900000D01*
X56660000Y-66900000D01*
X56660000Y-60000050D01*
X67596000Y-60000050D01*
X67596000Y-60395949D01*
X67617487Y-60614110D01*
X67702401Y-60894033D01*
X67840294Y-61152013D01*
X68025866Y-61378134D01*
X68251986Y-61563706D01*
X68509966Y-61701599D01*
X68789889Y-61786513D01*
X69081000Y-61815185D01*
X69372110Y-61786513D01*
X69652033Y-61701599D01*
X69910013Y-61563706D01*
X70136134Y-61378134D01*
X70321706Y-61152014D01*
X70335462Y-61126278D01*
X70491951Y-61332429D01*
X70709807Y-61525496D01*
X70961142Y-61672352D01*
X71224110Y-61764476D01*
X71454000Y-61643155D01*
X71454000Y-60325000D01*
X71434000Y-60325000D01*
X71434000Y-60071000D01*
X71454000Y-60071000D01*
X71454000Y-60051000D01*
X71708000Y-60051000D01*
X71708000Y-60071000D01*
X71728000Y-60071000D01*
X71728000Y-60325000D01*
X71708000Y-60325000D01*
X71708000Y-61643155D01*
X71937890Y-61764476D01*
X72200858Y-61672352D01*
X72452193Y-61525496D01*
X72670049Y-61332429D01*
X72826538Y-61126278D01*
X72840294Y-61152013D01*
X73025866Y-61378134D01*
X73251986Y-61563706D01*
X73509966Y-61701599D01*
X73789889Y-61786513D01*
X74081000Y-61815185D01*
X74372110Y-61786513D01*
X74652033Y-61701599D01*
X74910013Y-61563706D01*
X75136134Y-61378134D01*
X75188223Y-61314663D01*
X75242595Y-61416386D01*
X75353038Y-61550962D01*
X75487614Y-61661405D01*
X75641150Y-61743472D01*
X75807746Y-61794008D01*
X75981000Y-61811072D01*
X77181000Y-61811072D01*
X77354254Y-61794008D01*
X77520850Y-61743472D01*
X77674386Y-61661405D01*
X77808962Y-61550962D01*
X77919405Y-61416386D01*
X78001472Y-61262850D01*
X78052008Y-61096254D01*
X78069072Y-60923000D01*
X78069072Y-59473000D01*
X78052008Y-59299746D01*
X78001472Y-59133150D01*
X77919405Y-58979614D01*
X77841758Y-58885000D01*
X81789001Y-58885000D01*
X81789000Y-59115182D01*
X81683294Y-59243986D01*
X81545401Y-59501966D01*
X81460487Y-59781889D01*
X81439000Y-60000050D01*
X81439000Y-60395949D01*
X81460487Y-60614110D01*
X81545401Y-60894033D01*
X81683294Y-61152013D01*
X81868866Y-61378134D01*
X82094986Y-61563706D01*
X82352966Y-61701599D01*
X82632889Y-61786513D01*
X82924000Y-61815185D01*
X83215110Y-61786513D01*
X83495033Y-61701599D01*
X83753013Y-61563706D01*
X83979134Y-61378134D01*
X84164706Y-61152014D01*
X84178462Y-61126278D01*
X84334951Y-61332429D01*
X84552807Y-61525496D01*
X84804142Y-61672352D01*
X85067110Y-61764476D01*
X85297000Y-61643155D01*
X85297000Y-60325000D01*
X85277000Y-60325000D01*
X85277000Y-60071000D01*
X85297000Y-60071000D01*
X85297000Y-60051000D01*
X85551000Y-60051000D01*
X85551000Y-60071000D01*
X85571000Y-60071000D01*
X85571000Y-60325000D01*
X85551000Y-60325000D01*
X85551000Y-61643155D01*
X85780890Y-61764476D01*
X86043858Y-61672352D01*
X86295193Y-61525496D01*
X86513049Y-61332429D01*
X86669538Y-61126278D01*
X86683294Y-61152013D01*
X86868866Y-61378134D01*
X87094986Y-61563706D01*
X87352966Y-61701599D01*
X87632889Y-61786513D01*
X87924000Y-61815185D01*
X88215110Y-61786513D01*
X88495033Y-61701599D01*
X88753013Y-61563706D01*
X88979134Y-61378134D01*
X89031223Y-61314663D01*
X89085595Y-61416386D01*
X89196038Y-61550962D01*
X89330614Y-61661405D01*
X89484150Y-61743472D01*
X89650746Y-61794008D01*
X89824000Y-61811072D01*
X91024000Y-61811072D01*
X91197254Y-61794008D01*
X91363850Y-61743472D01*
X91517386Y-61661405D01*
X91651962Y-61550962D01*
X91762405Y-61416386D01*
X91844472Y-61262850D01*
X91895008Y-61096254D01*
X91912072Y-60923000D01*
X91912072Y-59473000D01*
X91895008Y-59299746D01*
X91844472Y-59133150D01*
X91762405Y-58979614D01*
X91684758Y-58885000D01*
X96013001Y-58885000D01*
X96013000Y-59117182D01*
X95907294Y-59245986D01*
X95769401Y-59503966D01*
X95684487Y-59783889D01*
X95663000Y-60002050D01*
X95663000Y-60397949D01*
X95684487Y-60616110D01*
X95769401Y-60896033D01*
X95907294Y-61154013D01*
X96092866Y-61380134D01*
X96318986Y-61565706D01*
X96576966Y-61703599D01*
X96856889Y-61788513D01*
X97148000Y-61817185D01*
X97439110Y-61788513D01*
X97719033Y-61703599D01*
X97977013Y-61565706D01*
X98203134Y-61380134D01*
X98388706Y-61154014D01*
X98402462Y-61128278D01*
X98558951Y-61334429D01*
X98776807Y-61527496D01*
X99028142Y-61674352D01*
X99291110Y-61766476D01*
X99521000Y-61645155D01*
X99521000Y-60327000D01*
X99501000Y-60327000D01*
X99501000Y-60073000D01*
X99521000Y-60073000D01*
X99521000Y-60053000D01*
X99775000Y-60053000D01*
X99775000Y-60073000D01*
X99795000Y-60073000D01*
X99795000Y-60327000D01*
X99775000Y-60327000D01*
X99775000Y-61645155D01*
X100004890Y-61766476D01*
X100267858Y-61674352D01*
X100519193Y-61527496D01*
X100737049Y-61334429D01*
X100893538Y-61128278D01*
X100907294Y-61154013D01*
X101092866Y-61380134D01*
X101318986Y-61565706D01*
X101576966Y-61703599D01*
X101856889Y-61788513D01*
X102148000Y-61817185D01*
X102439110Y-61788513D01*
X102719033Y-61703599D01*
X102977013Y-61565706D01*
X103203134Y-61380134D01*
X103255223Y-61316663D01*
X103309595Y-61418386D01*
X103420038Y-61552962D01*
X103554614Y-61663405D01*
X103708150Y-61745472D01*
X103874746Y-61796008D01*
X104048000Y-61813072D01*
X105248000Y-61813072D01*
X105421254Y-61796008D01*
X105587850Y-61745472D01*
X105741386Y-61663405D01*
X105875962Y-61552962D01*
X105986405Y-61418386D01*
X106068472Y-61264850D01*
X106119008Y-61098254D01*
X106136072Y-60925000D01*
X106136072Y-59475000D01*
X106119008Y-59301746D01*
X106068472Y-59135150D01*
X105986405Y-58981614D01*
X105907116Y-58885000D01*
X108197869Y-58885000D01*
X109633000Y-60320132D01*
X109633000Y-60397949D01*
X109654487Y-60616110D01*
X109739401Y-60896033D01*
X109877294Y-61154013D01*
X110062866Y-61380134D01*
X110288986Y-61565706D01*
X110546966Y-61703599D01*
X110826889Y-61788513D01*
X111118000Y-61817185D01*
X111409110Y-61788513D01*
X111689033Y-61703599D01*
X111947013Y-61565706D01*
X112173134Y-61380134D01*
X112358706Y-61154014D01*
X112372462Y-61128278D01*
X112528951Y-61334429D01*
X112746807Y-61527496D01*
X112998142Y-61674352D01*
X113261110Y-61766476D01*
X113491000Y-61645155D01*
X113491000Y-60327000D01*
X113471000Y-60327000D01*
X113471000Y-60073000D01*
X113491000Y-60073000D01*
X113491000Y-58754845D01*
X113745000Y-58754845D01*
X113745000Y-60073000D01*
X113765000Y-60073000D01*
X113765000Y-60327000D01*
X113745000Y-60327000D01*
X113745000Y-61645155D01*
X113974890Y-61766476D01*
X114237858Y-61674352D01*
X114489193Y-61527496D01*
X114707049Y-61334429D01*
X114863538Y-61128278D01*
X114877294Y-61154013D01*
X115062866Y-61380134D01*
X115288986Y-61565706D01*
X115546966Y-61703599D01*
X115826889Y-61788513D01*
X116118000Y-61817185D01*
X116409110Y-61788513D01*
X116689033Y-61703599D01*
X116947013Y-61565706D01*
X117173134Y-61380134D01*
X117225223Y-61316663D01*
X117279595Y-61418386D01*
X117390038Y-61552962D01*
X117524614Y-61663405D01*
X117678150Y-61745472D01*
X117844746Y-61796008D01*
X118018000Y-61813072D01*
X119218000Y-61813072D01*
X119391254Y-61796008D01*
X119557850Y-61745472D01*
X119711386Y-61663405D01*
X119845962Y-61552962D01*
X119956405Y-61418386D01*
X120038472Y-61264850D01*
X120089008Y-61098254D01*
X120106072Y-60925000D01*
X120106072Y-59475000D01*
X120089008Y-59301746D01*
X120038472Y-59135150D01*
X119956405Y-58981614D01*
X119845962Y-58847038D01*
X119711386Y-58736595D01*
X119557850Y-58654528D01*
X119391254Y-58603992D01*
X119218000Y-58586928D01*
X118018000Y-58586928D01*
X117844746Y-58603992D01*
X117678150Y-58654528D01*
X117524614Y-58736595D01*
X117390038Y-58847038D01*
X117279595Y-58981614D01*
X117225223Y-59083337D01*
X117173134Y-59019866D01*
X116947014Y-58834294D01*
X116689034Y-58696401D01*
X116409111Y-58611487D01*
X116118000Y-58582815D01*
X115826890Y-58611487D01*
X115546967Y-58696401D01*
X115288987Y-58834294D01*
X115062866Y-59019866D01*
X114877294Y-59245986D01*
X114863538Y-59271722D01*
X114707049Y-59065571D01*
X114489193Y-58872504D01*
X114237858Y-58725648D01*
X113974890Y-58633524D01*
X113745000Y-58754845D01*
X113491000Y-58754845D01*
X113261110Y-58633524D01*
X112998142Y-58725648D01*
X112746807Y-58872504D01*
X112528951Y-59065571D01*
X112372462Y-59271722D01*
X112358706Y-59245986D01*
X112173134Y-59019866D01*
X111947014Y-58834294D01*
X111689034Y-58696401D01*
X111409111Y-58611487D01*
X111118000Y-58582815D01*
X111107027Y-58583896D01*
X109803003Y-57279872D01*
X124765000Y-57279872D01*
X124765000Y-57720128D01*
X124850890Y-58151925D01*
X125019369Y-58558669D01*
X125263962Y-58924729D01*
X125575271Y-59236038D01*
X125941331Y-59480631D01*
X126348075Y-59649110D01*
X126779872Y-59735000D01*
X127220128Y-59735000D01*
X127651925Y-59649110D01*
X128058669Y-59480631D01*
X128424729Y-59236038D01*
X128736038Y-58924729D01*
X128980631Y-58558669D01*
X129149110Y-58151925D01*
X129235000Y-57720128D01*
X129235000Y-57279872D01*
X129149110Y-56848075D01*
X128980631Y-56441331D01*
X128736038Y-56075271D01*
X128424729Y-55763962D01*
X128058669Y-55519369D01*
X127651925Y-55350890D01*
X127220128Y-55265000D01*
X126779872Y-55265000D01*
X126348075Y-55350890D01*
X125941331Y-55519369D01*
X125575271Y-55763962D01*
X125263962Y-56075271D01*
X125019369Y-56441331D01*
X124850890Y-56848075D01*
X124765000Y-57279872D01*
X109803003Y-57279872D01*
X109509996Y-56986865D01*
X109474449Y-56943551D01*
X109301623Y-56801716D01*
X109104447Y-56696324D01*
X108890499Y-56631423D01*
X108723752Y-56615000D01*
X108723751Y-56615000D01*
X108668000Y-56609509D01*
X108612249Y-56615000D01*
X97055751Y-56615000D01*
X97000000Y-56609509D01*
X96944249Y-56615000D01*
X83055743Y-56615000D01*
X82999999Y-56609510D01*
X82944255Y-56615000D01*
X71767707Y-56615000D01*
X71711955Y-56609509D01*
X71656203Y-56615000D01*
X71489456Y-56631423D01*
X71275508Y-56696324D01*
X71078332Y-56801716D01*
X70905506Y-56943551D01*
X70869964Y-56986859D01*
X69258524Y-58598300D01*
X69081000Y-58580815D01*
X68789890Y-58609487D01*
X68509967Y-58694401D01*
X68251987Y-58832294D01*
X68025866Y-59017866D01*
X67840294Y-59243986D01*
X67702401Y-59501966D01*
X67617487Y-59781889D01*
X67596000Y-60000050D01*
X56660000Y-60000050D01*
X56660000Y-57532278D01*
X56684748Y-57279872D01*
X57765000Y-57279872D01*
X57765000Y-57720128D01*
X57850890Y-58151925D01*
X58019369Y-58558669D01*
X58263962Y-58924729D01*
X58575271Y-59236038D01*
X58941331Y-59480631D01*
X59348075Y-59649110D01*
X59779872Y-59735000D01*
X60220128Y-59735000D01*
X60651925Y-59649110D01*
X61058669Y-59480631D01*
X61424729Y-59236038D01*
X61736038Y-58924729D01*
X61980631Y-58558669D01*
X62149110Y-58151925D01*
X62235000Y-57720128D01*
X62235000Y-57279872D01*
X62149110Y-56848075D01*
X61980631Y-56441331D01*
X61736038Y-56075271D01*
X61424729Y-55763962D01*
X61058669Y-55519369D01*
X60651925Y-55350890D01*
X60220128Y-55265000D01*
X59779872Y-55265000D01*
X59348075Y-55350890D01*
X58941331Y-55519369D01*
X58575271Y-55763962D01*
X58263962Y-56075271D01*
X58019369Y-56441331D01*
X57850890Y-56848075D01*
X57765000Y-57279872D01*
X56684748Y-57279872D01*
X56726714Y-56851874D01*
X56914943Y-56228428D01*
X57220681Y-55653421D01*
X57632279Y-55148753D01*
X58134067Y-54733638D01*
X58706924Y-54423895D01*
X59329039Y-54231318D01*
X60007584Y-54160000D01*
X126967722Y-54160000D01*
X127648126Y-54226714D01*
G37*
%TD.AperFunction*%
%TD*%
M02*
