%TF.GenerationSoftware,KiCad,Pcbnew,(5.1.9)-1*%
%TF.CreationDate,2021-07-30T23:28:39+09:30*%
%TF.ProjectId,tyre_temp_sense,74797265-5f74-4656-9d70-5f73656e7365,rev?*%
%TF.SameCoordinates,Original*%
%TF.FileFunction,Copper,L1,Top*%
%TF.FilePolarity,Positive*%
%FSLAX46Y46*%
G04 Gerber Fmt 4.6, Leading zero omitted, Abs format (unit mm)*
G04 Created by KiCad (PCBNEW (5.1.9)-1) date 2021-07-30 23:28:39*
%MOMM*%
%LPD*%
G01*
G04 APERTURE LIST*
%TA.AperFunction,ComponentPad*%
%ADD10O,1.600000X1.600000*%
%TD*%
%TA.AperFunction,ComponentPad*%
%ADD11R,1.600000X1.600000*%
%TD*%
%TA.AperFunction,SMDPad,CuDef*%
%ADD12C,1.500000*%
%TD*%
%TA.AperFunction,ComponentPad*%
%ADD13O,1.700000X1.700000*%
%TD*%
%TA.AperFunction,ComponentPad*%
%ADD14R,1.700000X1.700000*%
%TD*%
%TA.AperFunction,SMDPad,CuDef*%
%ADD15R,2.000000X2.400000*%
%TD*%
%TA.AperFunction,ComponentPad*%
%ADD16O,1.700000X1.950000*%
%TD*%
%TA.AperFunction,ViaPad*%
%ADD17C,0.800000*%
%TD*%
%TA.AperFunction,Conductor*%
%ADD18C,0.300000*%
%TD*%
%TA.AperFunction,Conductor*%
%ADD19C,0.250000*%
%TD*%
%TA.AperFunction,Conductor*%
%ADD20C,1.000000*%
%TD*%
%TA.AperFunction,Conductor*%
%ADD21C,0.200000*%
%TD*%
G04 APERTURE END LIST*
D10*
%TO.P,A1,16*%
%TO.N,CLK_CAN*%
X88392000Y-90678000D03*
%TO.P,A1,15*%
%TO.N,MISO_CAN*%
X73152000Y-90678000D03*
%TO.P,A1,30*%
%TO.N,Net-(A1-Pad30)*%
X88392000Y-55118000D03*
%TO.P,A1,14*%
%TO.N,MOSI_CAN*%
X73152000Y-88138000D03*
%TO.P,A1,29*%
%TO.N,GND*%
X88392000Y-57658000D03*
%TO.P,A1,13*%
%TO.N,Net-(A1-Pad13)*%
X73152000Y-85598000D03*
%TO.P,A1,28*%
%TO.N,Net-(A1-Pad28)*%
X88392000Y-60198000D03*
%TO.P,A1,12*%
%TO.N,Net-(A1-Pad12)*%
X73152000Y-83058000D03*
%TO.P,A1,27*%
%TO.N,+5V*%
X88392000Y-62738000D03*
%TO.P,A1,11*%
%TO.N,Net-(A1-Pad11)*%
X73152000Y-80518000D03*
%TO.P,A1,26*%
%TO.N,Net-(A1-Pad26)*%
X88392000Y-65278000D03*
%TO.P,A1,10*%
%TO.N,Net-(A1-Pad10)*%
X73152000Y-77978000D03*
%TO.P,A1,25*%
%TO.N,Net-(A1-Pad25)*%
X88392000Y-67818000D03*
%TO.P,A1,9*%
%TO.N,D6*%
X73152000Y-75438000D03*
%TO.P,A1,24*%
%TO.N,SCL*%
X88392000Y-70358000D03*
%TO.P,A1,8*%
%TO.N,Net-(A1-Pad8)*%
X73152000Y-72898000D03*
%TO.P,A1,23*%
%TO.N,SDA*%
X88392000Y-72898000D03*
%TO.P,A1,7*%
%TO.N,Net-(A1-Pad7)*%
X73152000Y-70358000D03*
%TO.P,A1,22*%
%TO.N,A3*%
X88392000Y-75438000D03*
%TO.P,A1,6*%
%TO.N,Net-(A1-Pad6)*%
X73152000Y-67818000D03*
%TO.P,A1,21*%
%TO.N,A2*%
X88392000Y-77978000D03*
%TO.P,A1,5*%
%TO.N,D2*%
X73152000Y-65278000D03*
%TO.P,A1,20*%
%TO.N,A1*%
X88392000Y-80518000D03*
%TO.P,A1,4*%
%TO.N,GND*%
X73152000Y-62738000D03*
%TO.P,A1,19*%
%TO.N,A0*%
X88392000Y-83058000D03*
%TO.P,A1,3*%
%TO.N,Net-(A1-Pad3)*%
X73152000Y-60198000D03*
%TO.P,A1,18*%
%TO.N,Net-(A1-Pad18)*%
X88392000Y-85598000D03*
%TO.P,A1,2*%
%TO.N,Net-(A1-Pad2)*%
X73152000Y-57658000D03*
%TO.P,A1,17*%
%TO.N,+3V3*%
X88392000Y-88138000D03*
D11*
%TO.P,A1,1*%
%TO.N,Net-(A1-Pad1)*%
X73152000Y-55118000D03*
%TD*%
D12*
%TO.P,TP6,1*%
%TO.N,MISO_CAN*%
X80232000Y-99000000D03*
%TD*%
%TO.P,TP3,1*%
%TO.N,CAN+*%
X108204000Y-43180000D03*
%TD*%
%TO.P,TP4,1*%
%TO.N,+5V*%
X105664000Y-43180000D03*
%TD*%
%TO.P,TP1,1*%
%TO.N,CAN-*%
X110744000Y-43180000D03*
%TD*%
D13*
%TO.P,J9,4*%
%TO.N,GND*%
X97155000Y-101600000D03*
%TO.P,J9,3*%
X97155000Y-99060000D03*
%TO.P,J9,2*%
X97155000Y-96520000D03*
D14*
%TO.P,J9,1*%
X97155000Y-93980000D03*
%TD*%
D13*
%TO.P,J3,4*%
%TO.N,A0*%
X93345000Y-101600000D03*
%TO.P,J3,3*%
%TO.N,A1*%
X93345000Y-99060000D03*
%TO.P,J3,2*%
%TO.N,A2*%
X93345000Y-96520000D03*
D14*
%TO.P,J3,1*%
%TO.N,A3*%
X93345000Y-93980000D03*
%TD*%
D13*
%TO.P,J2,4*%
%TO.N,+5V*%
X100965000Y-101600000D03*
%TO.P,J2,3*%
X100965000Y-99060000D03*
%TO.P,J2,2*%
X100965000Y-96520000D03*
D14*
%TO.P,J2,1*%
X100965000Y-93980000D03*
%TD*%
D15*
%TO.P,Y1,2*%
%TO.N,Net-(C2-Pad1)*%
X88572000Y-45836000D03*
%TO.P,Y1,1*%
%TO.N,Net-(C3-Pad1)*%
X84872000Y-45836000D03*
%TD*%
%TO.P,C2,2*%
%TO.N,GND*%
%TA.AperFunction,SMDPad,CuDef*%
G36*
G01*
X88822000Y-42080000D02*
X88322000Y-42080000D01*
G75*
G02*
X88097000Y-41855000I0J225000D01*
G01*
X88097000Y-41405000D01*
G75*
G02*
X88322000Y-41180000I225000J0D01*
G01*
X88822000Y-41180000D01*
G75*
G02*
X89047000Y-41405000I0J-225000D01*
G01*
X89047000Y-41855000D01*
G75*
G02*
X88822000Y-42080000I-225000J0D01*
G01*
G37*
%TD.AperFunction*%
%TO.P,C2,1*%
%TO.N,Net-(C2-Pad1)*%
%TA.AperFunction,SMDPad,CuDef*%
G36*
G01*
X88822000Y-43630000D02*
X88322000Y-43630000D01*
G75*
G02*
X88097000Y-43405000I0J225000D01*
G01*
X88097000Y-42955000D01*
G75*
G02*
X88322000Y-42730000I225000J0D01*
G01*
X88822000Y-42730000D01*
G75*
G02*
X89047000Y-42955000I0J-225000D01*
G01*
X89047000Y-43405000D01*
G75*
G02*
X88822000Y-43630000I-225000J0D01*
G01*
G37*
%TD.AperFunction*%
%TD*%
%TO.P,U3,8*%
%TO.N,Net-(R13-Pad1)*%
%TA.AperFunction,SMDPad,CuDef*%
G36*
G01*
X97500000Y-54125000D02*
X97500000Y-53825000D01*
G75*
G02*
X97650000Y-53675000I150000J0D01*
G01*
X99300000Y-53675000D01*
G75*
G02*
X99450000Y-53825000I0J-150000D01*
G01*
X99450000Y-54125000D01*
G75*
G02*
X99300000Y-54275000I-150000J0D01*
G01*
X97650000Y-54275000D01*
G75*
G02*
X97500000Y-54125000I0J150000D01*
G01*
G37*
%TD.AperFunction*%
%TO.P,U3,7*%
%TO.N,CAN+*%
%TA.AperFunction,SMDPad,CuDef*%
G36*
G01*
X97500000Y-55395000D02*
X97500000Y-55095000D01*
G75*
G02*
X97650000Y-54945000I150000J0D01*
G01*
X99300000Y-54945000D01*
G75*
G02*
X99450000Y-55095000I0J-150000D01*
G01*
X99450000Y-55395000D01*
G75*
G02*
X99300000Y-55545000I-150000J0D01*
G01*
X97650000Y-55545000D01*
G75*
G02*
X97500000Y-55395000I0J150000D01*
G01*
G37*
%TD.AperFunction*%
%TO.P,U3,6*%
%TO.N,CAN-*%
%TA.AperFunction,SMDPad,CuDef*%
G36*
G01*
X97500000Y-56665000D02*
X97500000Y-56365000D01*
G75*
G02*
X97650000Y-56215000I150000J0D01*
G01*
X99300000Y-56215000D01*
G75*
G02*
X99450000Y-56365000I0J-150000D01*
G01*
X99450000Y-56665000D01*
G75*
G02*
X99300000Y-56815000I-150000J0D01*
G01*
X97650000Y-56815000D01*
G75*
G02*
X97500000Y-56665000I0J150000D01*
G01*
G37*
%TD.AperFunction*%
%TO.P,U3,5*%
%TO.N,Net-(U3-Pad5)*%
%TA.AperFunction,SMDPad,CuDef*%
G36*
G01*
X97500000Y-57935000D02*
X97500000Y-57635000D01*
G75*
G02*
X97650000Y-57485000I150000J0D01*
G01*
X99300000Y-57485000D01*
G75*
G02*
X99450000Y-57635000I0J-150000D01*
G01*
X99450000Y-57935000D01*
G75*
G02*
X99300000Y-58085000I-150000J0D01*
G01*
X97650000Y-58085000D01*
G75*
G02*
X97500000Y-57935000I0J150000D01*
G01*
G37*
%TD.AperFunction*%
%TO.P,U3,4*%
%TO.N,Net-(U2-Pad2)*%
%TA.AperFunction,SMDPad,CuDef*%
G36*
G01*
X92550000Y-57935000D02*
X92550000Y-57635000D01*
G75*
G02*
X92700000Y-57485000I150000J0D01*
G01*
X94350000Y-57485000D01*
G75*
G02*
X94500000Y-57635000I0J-150000D01*
G01*
X94500000Y-57935000D01*
G75*
G02*
X94350000Y-58085000I-150000J0D01*
G01*
X92700000Y-58085000D01*
G75*
G02*
X92550000Y-57935000I0J150000D01*
G01*
G37*
%TD.AperFunction*%
%TO.P,U3,3*%
%TO.N,+5V*%
%TA.AperFunction,SMDPad,CuDef*%
G36*
G01*
X92550000Y-56665000D02*
X92550000Y-56365000D01*
G75*
G02*
X92700000Y-56215000I150000J0D01*
G01*
X94350000Y-56215000D01*
G75*
G02*
X94500000Y-56365000I0J-150000D01*
G01*
X94500000Y-56665000D01*
G75*
G02*
X94350000Y-56815000I-150000J0D01*
G01*
X92700000Y-56815000D01*
G75*
G02*
X92550000Y-56665000I0J150000D01*
G01*
G37*
%TD.AperFunction*%
%TO.P,U3,2*%
%TO.N,GND*%
%TA.AperFunction,SMDPad,CuDef*%
G36*
G01*
X92550000Y-55395000D02*
X92550000Y-55095000D01*
G75*
G02*
X92700000Y-54945000I150000J0D01*
G01*
X94350000Y-54945000D01*
G75*
G02*
X94500000Y-55095000I0J-150000D01*
G01*
X94500000Y-55395000D01*
G75*
G02*
X94350000Y-55545000I-150000J0D01*
G01*
X92700000Y-55545000D01*
G75*
G02*
X92550000Y-55395000I0J150000D01*
G01*
G37*
%TD.AperFunction*%
%TO.P,U3,1*%
%TO.N,Net-(U2-Pad1)*%
%TA.AperFunction,SMDPad,CuDef*%
G36*
G01*
X92550000Y-54125000D02*
X92550000Y-53825000D01*
G75*
G02*
X92700000Y-53675000I150000J0D01*
G01*
X94350000Y-53675000D01*
G75*
G02*
X94500000Y-53825000I0J-150000D01*
G01*
X94500000Y-54125000D01*
G75*
G02*
X94350000Y-54275000I-150000J0D01*
G01*
X92700000Y-54275000D01*
G75*
G02*
X92550000Y-54125000I0J150000D01*
G01*
G37*
%TD.AperFunction*%
%TD*%
%TO.P,U2,1*%
%TO.N,Net-(U2-Pad1)*%
%TA.AperFunction,SMDPad,CuDef*%
G36*
G01*
X92412000Y-44927000D02*
X92412000Y-44727000D01*
G75*
G02*
X92512000Y-44627000I100000J0D01*
G01*
X93787000Y-44627000D01*
G75*
G02*
X93887000Y-44727000I0J-100000D01*
G01*
X93887000Y-44927000D01*
G75*
G02*
X93787000Y-45027000I-100000J0D01*
G01*
X92512000Y-45027000D01*
G75*
G02*
X92412000Y-44927000I0J100000D01*
G01*
G37*
%TD.AperFunction*%
%TO.P,U2,2*%
%TO.N,Net-(U2-Pad2)*%
%TA.AperFunction,SMDPad,CuDef*%
G36*
G01*
X92412000Y-45577000D02*
X92412000Y-45377000D01*
G75*
G02*
X92512000Y-45277000I100000J0D01*
G01*
X93787000Y-45277000D01*
G75*
G02*
X93887000Y-45377000I0J-100000D01*
G01*
X93887000Y-45577000D01*
G75*
G02*
X93787000Y-45677000I-100000J0D01*
G01*
X92512000Y-45677000D01*
G75*
G02*
X92412000Y-45577000I0J100000D01*
G01*
G37*
%TD.AperFunction*%
%TO.P,U2,3*%
%TO.N,Net-(U2-Pad3)*%
%TA.AperFunction,SMDPad,CuDef*%
G36*
G01*
X92412000Y-46227000D02*
X92412000Y-46027000D01*
G75*
G02*
X92512000Y-45927000I100000J0D01*
G01*
X93787000Y-45927000D01*
G75*
G02*
X93887000Y-46027000I0J-100000D01*
G01*
X93887000Y-46227000D01*
G75*
G02*
X93787000Y-46327000I-100000J0D01*
G01*
X92512000Y-46327000D01*
G75*
G02*
X92412000Y-46227000I0J100000D01*
G01*
G37*
%TD.AperFunction*%
%TO.P,U2,4*%
%TO.N,Net-(U2-Pad4)*%
%TA.AperFunction,SMDPad,CuDef*%
G36*
G01*
X92412000Y-46877000D02*
X92412000Y-46677000D01*
G75*
G02*
X92512000Y-46577000I100000J0D01*
G01*
X93787000Y-46577000D01*
G75*
G02*
X93887000Y-46677000I0J-100000D01*
G01*
X93887000Y-46877000D01*
G75*
G02*
X93787000Y-46977000I-100000J0D01*
G01*
X92512000Y-46977000D01*
G75*
G02*
X92412000Y-46877000I0J100000D01*
G01*
G37*
%TD.AperFunction*%
%TO.P,U2,5*%
%TO.N,Net-(U2-Pad5)*%
%TA.AperFunction,SMDPad,CuDef*%
G36*
G01*
X92412000Y-47527000D02*
X92412000Y-47327000D01*
G75*
G02*
X92512000Y-47227000I100000J0D01*
G01*
X93787000Y-47227000D01*
G75*
G02*
X93887000Y-47327000I0J-100000D01*
G01*
X93887000Y-47527000D01*
G75*
G02*
X93787000Y-47627000I-100000J0D01*
G01*
X92512000Y-47627000D01*
G75*
G02*
X92412000Y-47527000I0J100000D01*
G01*
G37*
%TD.AperFunction*%
%TO.P,U2,6*%
%TO.N,Net-(U2-Pad6)*%
%TA.AperFunction,SMDPad,CuDef*%
G36*
G01*
X92412000Y-48177000D02*
X92412000Y-47977000D01*
G75*
G02*
X92512000Y-47877000I100000J0D01*
G01*
X93787000Y-47877000D01*
G75*
G02*
X93887000Y-47977000I0J-100000D01*
G01*
X93887000Y-48177000D01*
G75*
G02*
X93787000Y-48277000I-100000J0D01*
G01*
X92512000Y-48277000D01*
G75*
G02*
X92412000Y-48177000I0J100000D01*
G01*
G37*
%TD.AperFunction*%
%TO.P,U2,7*%
%TO.N,Net-(U2-Pad7)*%
%TA.AperFunction,SMDPad,CuDef*%
G36*
G01*
X92412000Y-48827000D02*
X92412000Y-48627000D01*
G75*
G02*
X92512000Y-48527000I100000J0D01*
G01*
X93787000Y-48527000D01*
G75*
G02*
X93887000Y-48627000I0J-100000D01*
G01*
X93887000Y-48827000D01*
G75*
G02*
X93787000Y-48927000I-100000J0D01*
G01*
X92512000Y-48927000D01*
G75*
G02*
X92412000Y-48827000I0J100000D01*
G01*
G37*
%TD.AperFunction*%
%TO.P,U2,8*%
%TO.N,Net-(C2-Pad1)*%
%TA.AperFunction,SMDPad,CuDef*%
G36*
G01*
X92412000Y-49477000D02*
X92412000Y-49277000D01*
G75*
G02*
X92512000Y-49177000I100000J0D01*
G01*
X93787000Y-49177000D01*
G75*
G02*
X93887000Y-49277000I0J-100000D01*
G01*
X93887000Y-49477000D01*
G75*
G02*
X93787000Y-49577000I-100000J0D01*
G01*
X92512000Y-49577000D01*
G75*
G02*
X92412000Y-49477000I0J100000D01*
G01*
G37*
%TD.AperFunction*%
%TO.P,U2,9*%
%TO.N,Net-(C3-Pad1)*%
%TA.AperFunction,SMDPad,CuDef*%
G36*
G01*
X92412000Y-50127000D02*
X92412000Y-49927000D01*
G75*
G02*
X92512000Y-49827000I100000J0D01*
G01*
X93787000Y-49827000D01*
G75*
G02*
X93887000Y-49927000I0J-100000D01*
G01*
X93887000Y-50127000D01*
G75*
G02*
X93787000Y-50227000I-100000J0D01*
G01*
X92512000Y-50227000D01*
G75*
G02*
X92412000Y-50127000I0J100000D01*
G01*
G37*
%TD.AperFunction*%
%TO.P,U2,10*%
%TO.N,GND*%
%TA.AperFunction,SMDPad,CuDef*%
G36*
G01*
X92412000Y-50777000D02*
X92412000Y-50577000D01*
G75*
G02*
X92512000Y-50477000I100000J0D01*
G01*
X93787000Y-50477000D01*
G75*
G02*
X93887000Y-50577000I0J-100000D01*
G01*
X93887000Y-50777000D01*
G75*
G02*
X93787000Y-50877000I-100000J0D01*
G01*
X92512000Y-50877000D01*
G75*
G02*
X92412000Y-50777000I0J100000D01*
G01*
G37*
%TD.AperFunction*%
%TO.P,U2,11*%
%TO.N,Net-(U2-Pad11)*%
%TA.AperFunction,SMDPad,CuDef*%
G36*
G01*
X98137000Y-50777000D02*
X98137000Y-50577000D01*
G75*
G02*
X98237000Y-50477000I100000J0D01*
G01*
X99512000Y-50477000D01*
G75*
G02*
X99612000Y-50577000I0J-100000D01*
G01*
X99612000Y-50777000D01*
G75*
G02*
X99512000Y-50877000I-100000J0D01*
G01*
X98237000Y-50877000D01*
G75*
G02*
X98137000Y-50777000I0J100000D01*
G01*
G37*
%TD.AperFunction*%
%TO.P,U2,12*%
%TO.N,Net-(U2-Pad12)*%
%TA.AperFunction,SMDPad,CuDef*%
G36*
G01*
X98137000Y-50127000D02*
X98137000Y-49927000D01*
G75*
G02*
X98237000Y-49827000I100000J0D01*
G01*
X99512000Y-49827000D01*
G75*
G02*
X99612000Y-49927000I0J-100000D01*
G01*
X99612000Y-50127000D01*
G75*
G02*
X99512000Y-50227000I-100000J0D01*
G01*
X98237000Y-50227000D01*
G75*
G02*
X98137000Y-50127000I0J100000D01*
G01*
G37*
%TD.AperFunction*%
%TO.P,U2,13*%
%TO.N,D2*%
%TA.AperFunction,SMDPad,CuDef*%
G36*
G01*
X98137000Y-49477000D02*
X98137000Y-49277000D01*
G75*
G02*
X98237000Y-49177000I100000J0D01*
G01*
X99512000Y-49177000D01*
G75*
G02*
X99612000Y-49277000I0J-100000D01*
G01*
X99612000Y-49477000D01*
G75*
G02*
X99512000Y-49577000I-100000J0D01*
G01*
X98237000Y-49577000D01*
G75*
G02*
X98137000Y-49477000I0J100000D01*
G01*
G37*
%TD.AperFunction*%
%TO.P,U2,14*%
%TO.N,CLK_CAN*%
%TA.AperFunction,SMDPad,CuDef*%
G36*
G01*
X98137000Y-48827000D02*
X98137000Y-48627000D01*
G75*
G02*
X98237000Y-48527000I100000J0D01*
G01*
X99512000Y-48527000D01*
G75*
G02*
X99612000Y-48627000I0J-100000D01*
G01*
X99612000Y-48827000D01*
G75*
G02*
X99512000Y-48927000I-100000J0D01*
G01*
X98237000Y-48927000D01*
G75*
G02*
X98137000Y-48827000I0J100000D01*
G01*
G37*
%TD.AperFunction*%
%TO.P,U2,15*%
%TO.N,Net-(U2-Pad15)*%
%TA.AperFunction,SMDPad,CuDef*%
G36*
G01*
X98137000Y-48177000D02*
X98137000Y-47977000D01*
G75*
G02*
X98237000Y-47877000I100000J0D01*
G01*
X99512000Y-47877000D01*
G75*
G02*
X99612000Y-47977000I0J-100000D01*
G01*
X99612000Y-48177000D01*
G75*
G02*
X99512000Y-48277000I-100000J0D01*
G01*
X98237000Y-48277000D01*
G75*
G02*
X98137000Y-48177000I0J100000D01*
G01*
G37*
%TD.AperFunction*%
%TO.P,U2,16*%
%TO.N,MOSI_CAN*%
%TA.AperFunction,SMDPad,CuDef*%
G36*
G01*
X98137000Y-47527000D02*
X98137000Y-47327000D01*
G75*
G02*
X98237000Y-47227000I100000J0D01*
G01*
X99512000Y-47227000D01*
G75*
G02*
X99612000Y-47327000I0J-100000D01*
G01*
X99612000Y-47527000D01*
G75*
G02*
X99512000Y-47627000I-100000J0D01*
G01*
X98237000Y-47627000D01*
G75*
G02*
X98137000Y-47527000I0J100000D01*
G01*
G37*
%TD.AperFunction*%
%TO.P,U2,17*%
%TO.N,MISO_CAN*%
%TA.AperFunction,SMDPad,CuDef*%
G36*
G01*
X98137000Y-46877000D02*
X98137000Y-46677000D01*
G75*
G02*
X98237000Y-46577000I100000J0D01*
G01*
X99512000Y-46577000D01*
G75*
G02*
X99612000Y-46677000I0J-100000D01*
G01*
X99612000Y-46877000D01*
G75*
G02*
X99512000Y-46977000I-100000J0D01*
G01*
X98237000Y-46977000D01*
G75*
G02*
X98137000Y-46877000I0J100000D01*
G01*
G37*
%TD.AperFunction*%
%TO.P,U2,18*%
%TO.N,D6*%
%TA.AperFunction,SMDPad,CuDef*%
G36*
G01*
X98137000Y-46227000D02*
X98137000Y-46027000D01*
G75*
G02*
X98237000Y-45927000I100000J0D01*
G01*
X99512000Y-45927000D01*
G75*
G02*
X99612000Y-46027000I0J-100000D01*
G01*
X99612000Y-46227000D01*
G75*
G02*
X99512000Y-46327000I-100000J0D01*
G01*
X98237000Y-46327000D01*
G75*
G02*
X98137000Y-46227000I0J100000D01*
G01*
G37*
%TD.AperFunction*%
%TO.P,U2,19*%
%TO.N,Net-(R12-Pad2)*%
%TA.AperFunction,SMDPad,CuDef*%
G36*
G01*
X98137000Y-45577000D02*
X98137000Y-45377000D01*
G75*
G02*
X98237000Y-45277000I100000J0D01*
G01*
X99512000Y-45277000D01*
G75*
G02*
X99612000Y-45377000I0J-100000D01*
G01*
X99612000Y-45577000D01*
G75*
G02*
X99512000Y-45677000I-100000J0D01*
G01*
X98237000Y-45677000D01*
G75*
G02*
X98137000Y-45577000I0J100000D01*
G01*
G37*
%TD.AperFunction*%
%TO.P,U2,20*%
%TO.N,+5V*%
%TA.AperFunction,SMDPad,CuDef*%
G36*
G01*
X98137000Y-44927000D02*
X98137000Y-44727000D01*
G75*
G02*
X98237000Y-44627000I100000J0D01*
G01*
X99512000Y-44627000D01*
G75*
G02*
X99612000Y-44727000I0J-100000D01*
G01*
X99612000Y-44927000D01*
G75*
G02*
X99512000Y-45027000I-100000J0D01*
G01*
X98237000Y-45027000D01*
G75*
G02*
X98137000Y-44927000I0J100000D01*
G01*
G37*
%TD.AperFunction*%
%TD*%
%TO.P,U1,24*%
%TO.N,+5V*%
%TA.AperFunction,SMDPad,CuDef*%
G36*
G01*
X93875000Y-72694000D02*
X93875000Y-72894000D01*
G75*
G02*
X93775000Y-72994000I-100000J0D01*
G01*
X92500000Y-72994000D01*
G75*
G02*
X92400000Y-72894000I0J100000D01*
G01*
X92400000Y-72694000D01*
G75*
G02*
X92500000Y-72594000I100000J0D01*
G01*
X93775000Y-72594000D01*
G75*
G02*
X93875000Y-72694000I0J-100000D01*
G01*
G37*
%TD.AperFunction*%
%TO.P,U1,23*%
%TO.N,SDA*%
%TA.AperFunction,SMDPad,CuDef*%
G36*
G01*
X93875000Y-72044000D02*
X93875000Y-72244000D01*
G75*
G02*
X93775000Y-72344000I-100000J0D01*
G01*
X92500000Y-72344000D01*
G75*
G02*
X92400000Y-72244000I0J100000D01*
G01*
X92400000Y-72044000D01*
G75*
G02*
X92500000Y-71944000I100000J0D01*
G01*
X93775000Y-71944000D01*
G75*
G02*
X93875000Y-72044000I0J-100000D01*
G01*
G37*
%TD.AperFunction*%
%TO.P,U1,22*%
%TO.N,SCL*%
%TA.AperFunction,SMDPad,CuDef*%
G36*
G01*
X93875000Y-71394000D02*
X93875000Y-71594000D01*
G75*
G02*
X93775000Y-71694000I-100000J0D01*
G01*
X92500000Y-71694000D01*
G75*
G02*
X92400000Y-71594000I0J100000D01*
G01*
X92400000Y-71394000D01*
G75*
G02*
X92500000Y-71294000I100000J0D01*
G01*
X93775000Y-71294000D01*
G75*
G02*
X93875000Y-71394000I0J-100000D01*
G01*
G37*
%TD.AperFunction*%
%TO.P,U1,21*%
%TO.N,GND*%
%TA.AperFunction,SMDPad,CuDef*%
G36*
G01*
X93875000Y-70744000D02*
X93875000Y-70944000D01*
G75*
G02*
X93775000Y-71044000I-100000J0D01*
G01*
X92500000Y-71044000D01*
G75*
G02*
X92400000Y-70944000I0J100000D01*
G01*
X92400000Y-70744000D01*
G75*
G02*
X92500000Y-70644000I100000J0D01*
G01*
X93775000Y-70644000D01*
G75*
G02*
X93875000Y-70744000I0J-100000D01*
G01*
G37*
%TD.AperFunction*%
%TO.P,U1,20*%
%TO.N,Net-(U1-Pad20)*%
%TA.AperFunction,SMDPad,CuDef*%
G36*
G01*
X93875000Y-70094000D02*
X93875000Y-70294000D01*
G75*
G02*
X93775000Y-70394000I-100000J0D01*
G01*
X92500000Y-70394000D01*
G75*
G02*
X92400000Y-70294000I0J100000D01*
G01*
X92400000Y-70094000D01*
G75*
G02*
X92500000Y-69994000I100000J0D01*
G01*
X93775000Y-69994000D01*
G75*
G02*
X93875000Y-70094000I0J-100000D01*
G01*
G37*
%TD.AperFunction*%
%TO.P,U1,19*%
%TO.N,Net-(U1-Pad19)*%
%TA.AperFunction,SMDPad,CuDef*%
G36*
G01*
X93875000Y-69444000D02*
X93875000Y-69644000D01*
G75*
G02*
X93775000Y-69744000I-100000J0D01*
G01*
X92500000Y-69744000D01*
G75*
G02*
X92400000Y-69644000I0J100000D01*
G01*
X92400000Y-69444000D01*
G75*
G02*
X92500000Y-69344000I100000J0D01*
G01*
X93775000Y-69344000D01*
G75*
G02*
X93875000Y-69444000I0J-100000D01*
G01*
G37*
%TD.AperFunction*%
%TO.P,U1,18*%
%TO.N,Net-(U1-Pad18)*%
%TA.AperFunction,SMDPad,CuDef*%
G36*
G01*
X93875000Y-68794000D02*
X93875000Y-68994000D01*
G75*
G02*
X93775000Y-69094000I-100000J0D01*
G01*
X92500000Y-69094000D01*
G75*
G02*
X92400000Y-68994000I0J100000D01*
G01*
X92400000Y-68794000D01*
G75*
G02*
X92500000Y-68694000I100000J0D01*
G01*
X93775000Y-68694000D01*
G75*
G02*
X93875000Y-68794000I0J-100000D01*
G01*
G37*
%TD.AperFunction*%
%TO.P,U1,17*%
%TO.N,Net-(U1-Pad17)*%
%TA.AperFunction,SMDPad,CuDef*%
G36*
G01*
X93875000Y-68144000D02*
X93875000Y-68344000D01*
G75*
G02*
X93775000Y-68444000I-100000J0D01*
G01*
X92500000Y-68444000D01*
G75*
G02*
X92400000Y-68344000I0J100000D01*
G01*
X92400000Y-68144000D01*
G75*
G02*
X92500000Y-68044000I100000J0D01*
G01*
X93775000Y-68044000D01*
G75*
G02*
X93875000Y-68144000I0J-100000D01*
G01*
G37*
%TD.AperFunction*%
%TO.P,U1,16*%
%TO.N,Net-(U1-Pad16)*%
%TA.AperFunction,SMDPad,CuDef*%
G36*
G01*
X93875000Y-67494000D02*
X93875000Y-67694000D01*
G75*
G02*
X93775000Y-67794000I-100000J0D01*
G01*
X92500000Y-67794000D01*
G75*
G02*
X92400000Y-67694000I0J100000D01*
G01*
X92400000Y-67494000D01*
G75*
G02*
X92500000Y-67394000I100000J0D01*
G01*
X93775000Y-67394000D01*
G75*
G02*
X93875000Y-67494000I0J-100000D01*
G01*
G37*
%TD.AperFunction*%
%TO.P,U1,15*%
%TO.N,Net-(U1-Pad15)*%
%TA.AperFunction,SMDPad,CuDef*%
G36*
G01*
X93875000Y-66844000D02*
X93875000Y-67044000D01*
G75*
G02*
X93775000Y-67144000I-100000J0D01*
G01*
X92500000Y-67144000D01*
G75*
G02*
X92400000Y-67044000I0J100000D01*
G01*
X92400000Y-66844000D01*
G75*
G02*
X92500000Y-66744000I100000J0D01*
G01*
X93775000Y-66744000D01*
G75*
G02*
X93875000Y-66844000I0J-100000D01*
G01*
G37*
%TD.AperFunction*%
%TO.P,U1,14*%
%TO.N,Net-(U1-Pad14)*%
%TA.AperFunction,SMDPad,CuDef*%
G36*
G01*
X93875000Y-66194000D02*
X93875000Y-66394000D01*
G75*
G02*
X93775000Y-66494000I-100000J0D01*
G01*
X92500000Y-66494000D01*
G75*
G02*
X92400000Y-66394000I0J100000D01*
G01*
X92400000Y-66194000D01*
G75*
G02*
X92500000Y-66094000I100000J0D01*
G01*
X93775000Y-66094000D01*
G75*
G02*
X93875000Y-66194000I0J-100000D01*
G01*
G37*
%TD.AperFunction*%
%TO.P,U1,13*%
%TO.N,Net-(U1-Pad13)*%
%TA.AperFunction,SMDPad,CuDef*%
G36*
G01*
X93875000Y-65544000D02*
X93875000Y-65744000D01*
G75*
G02*
X93775000Y-65844000I-100000J0D01*
G01*
X92500000Y-65844000D01*
G75*
G02*
X92400000Y-65744000I0J100000D01*
G01*
X92400000Y-65544000D01*
G75*
G02*
X92500000Y-65444000I100000J0D01*
G01*
X93775000Y-65444000D01*
G75*
G02*
X93875000Y-65544000I0J-100000D01*
G01*
G37*
%TD.AperFunction*%
%TO.P,U1,12*%
%TO.N,GND*%
%TA.AperFunction,SMDPad,CuDef*%
G36*
G01*
X99600000Y-65544000D02*
X99600000Y-65744000D01*
G75*
G02*
X99500000Y-65844000I-100000J0D01*
G01*
X98225000Y-65844000D01*
G75*
G02*
X98125000Y-65744000I0J100000D01*
G01*
X98125000Y-65544000D01*
G75*
G02*
X98225000Y-65444000I100000J0D01*
G01*
X99500000Y-65444000D01*
G75*
G02*
X99600000Y-65544000I0J-100000D01*
G01*
G37*
%TD.AperFunction*%
%TO.P,U1,11*%
%TO.N,Net-(J7-Pad2)*%
%TA.AperFunction,SMDPad,CuDef*%
G36*
G01*
X99600000Y-66194000D02*
X99600000Y-66394000D01*
G75*
G02*
X99500000Y-66494000I-100000J0D01*
G01*
X98225000Y-66494000D01*
G75*
G02*
X98125000Y-66394000I0J100000D01*
G01*
X98125000Y-66194000D01*
G75*
G02*
X98225000Y-66094000I100000J0D01*
G01*
X99500000Y-66094000D01*
G75*
G02*
X99600000Y-66194000I0J-100000D01*
G01*
G37*
%TD.AperFunction*%
%TO.P,U1,10*%
%TO.N,Net-(J7-Pad1)*%
%TA.AperFunction,SMDPad,CuDef*%
G36*
G01*
X99600000Y-66844000D02*
X99600000Y-67044000D01*
G75*
G02*
X99500000Y-67144000I-100000J0D01*
G01*
X98225000Y-67144000D01*
G75*
G02*
X98125000Y-67044000I0J100000D01*
G01*
X98125000Y-66844000D01*
G75*
G02*
X98225000Y-66744000I100000J0D01*
G01*
X99500000Y-66744000D01*
G75*
G02*
X99600000Y-66844000I0J-100000D01*
G01*
G37*
%TD.AperFunction*%
%TO.P,U1,9*%
%TO.N,Net-(J6-Pad2)*%
%TA.AperFunction,SMDPad,CuDef*%
G36*
G01*
X99600000Y-67494000D02*
X99600000Y-67694000D01*
G75*
G02*
X99500000Y-67794000I-100000J0D01*
G01*
X98225000Y-67794000D01*
G75*
G02*
X98125000Y-67694000I0J100000D01*
G01*
X98125000Y-67494000D01*
G75*
G02*
X98225000Y-67394000I100000J0D01*
G01*
X99500000Y-67394000D01*
G75*
G02*
X99600000Y-67494000I0J-100000D01*
G01*
G37*
%TD.AperFunction*%
%TO.P,U1,8*%
%TO.N,Net-(J6-Pad1)*%
%TA.AperFunction,SMDPad,CuDef*%
G36*
G01*
X99600000Y-68144000D02*
X99600000Y-68344000D01*
G75*
G02*
X99500000Y-68444000I-100000J0D01*
G01*
X98225000Y-68444000D01*
G75*
G02*
X98125000Y-68344000I0J100000D01*
G01*
X98125000Y-68144000D01*
G75*
G02*
X98225000Y-68044000I100000J0D01*
G01*
X99500000Y-68044000D01*
G75*
G02*
X99600000Y-68144000I0J-100000D01*
G01*
G37*
%TD.AperFunction*%
%TO.P,U1,7*%
%TO.N,Net-(J5-Pad2)*%
%TA.AperFunction,SMDPad,CuDef*%
G36*
G01*
X99600000Y-68794000D02*
X99600000Y-68994000D01*
G75*
G02*
X99500000Y-69094000I-100000J0D01*
G01*
X98225000Y-69094000D01*
G75*
G02*
X98125000Y-68994000I0J100000D01*
G01*
X98125000Y-68794000D01*
G75*
G02*
X98225000Y-68694000I100000J0D01*
G01*
X99500000Y-68694000D01*
G75*
G02*
X99600000Y-68794000I0J-100000D01*
G01*
G37*
%TD.AperFunction*%
%TO.P,U1,6*%
%TO.N,Net-(J5-Pad1)*%
%TA.AperFunction,SMDPad,CuDef*%
G36*
G01*
X99600000Y-69444000D02*
X99600000Y-69644000D01*
G75*
G02*
X99500000Y-69744000I-100000J0D01*
G01*
X98225000Y-69744000D01*
G75*
G02*
X98125000Y-69644000I0J100000D01*
G01*
X98125000Y-69444000D01*
G75*
G02*
X98225000Y-69344000I100000J0D01*
G01*
X99500000Y-69344000D01*
G75*
G02*
X99600000Y-69444000I0J-100000D01*
G01*
G37*
%TD.AperFunction*%
%TO.P,U1,5*%
%TO.N,Net-(J4-Pad2)*%
%TA.AperFunction,SMDPad,CuDef*%
G36*
G01*
X99600000Y-70094000D02*
X99600000Y-70294000D01*
G75*
G02*
X99500000Y-70394000I-100000J0D01*
G01*
X98225000Y-70394000D01*
G75*
G02*
X98125000Y-70294000I0J100000D01*
G01*
X98125000Y-70094000D01*
G75*
G02*
X98225000Y-69994000I100000J0D01*
G01*
X99500000Y-69994000D01*
G75*
G02*
X99600000Y-70094000I0J-100000D01*
G01*
G37*
%TD.AperFunction*%
%TO.P,U1,4*%
%TO.N,Net-(J4-Pad1)*%
%TA.AperFunction,SMDPad,CuDef*%
G36*
G01*
X99600000Y-70744000D02*
X99600000Y-70944000D01*
G75*
G02*
X99500000Y-71044000I-100000J0D01*
G01*
X98225000Y-71044000D01*
G75*
G02*
X98125000Y-70944000I0J100000D01*
G01*
X98125000Y-70744000D01*
G75*
G02*
X98225000Y-70644000I100000J0D01*
G01*
X99500000Y-70644000D01*
G75*
G02*
X99600000Y-70744000I0J-100000D01*
G01*
G37*
%TD.AperFunction*%
%TO.P,U1,3*%
%TO.N,Net-(R1-Pad2)*%
%TA.AperFunction,SMDPad,CuDef*%
G36*
G01*
X99600000Y-71394000D02*
X99600000Y-71594000D01*
G75*
G02*
X99500000Y-71694000I-100000J0D01*
G01*
X98225000Y-71694000D01*
G75*
G02*
X98125000Y-71594000I0J100000D01*
G01*
X98125000Y-71394000D01*
G75*
G02*
X98225000Y-71294000I100000J0D01*
G01*
X99500000Y-71294000D01*
G75*
G02*
X99600000Y-71394000I0J-100000D01*
G01*
G37*
%TD.AperFunction*%
%TO.P,U1,2*%
%TO.N,GND*%
%TA.AperFunction,SMDPad,CuDef*%
G36*
G01*
X99600000Y-72044000D02*
X99600000Y-72244000D01*
G75*
G02*
X99500000Y-72344000I-100000J0D01*
G01*
X98225000Y-72344000D01*
G75*
G02*
X98125000Y-72244000I0J100000D01*
G01*
X98125000Y-72044000D01*
G75*
G02*
X98225000Y-71944000I100000J0D01*
G01*
X99500000Y-71944000D01*
G75*
G02*
X99600000Y-72044000I0J-100000D01*
G01*
G37*
%TD.AperFunction*%
%TO.P,U1,1*%
%TA.AperFunction,SMDPad,CuDef*%
G36*
G01*
X99600000Y-72694000D02*
X99600000Y-72894000D01*
G75*
G02*
X99500000Y-72994000I-100000J0D01*
G01*
X98225000Y-72994000D01*
G75*
G02*
X98125000Y-72894000I0J100000D01*
G01*
X98125000Y-72694000D01*
G75*
G02*
X98225000Y-72594000I100000J0D01*
G01*
X99500000Y-72594000D01*
G75*
G02*
X99600000Y-72694000I0J-100000D01*
G01*
G37*
%TD.AperFunction*%
%TD*%
D12*
%TO.P,TP9,1*%
%TO.N,Net-(A1-Pad1)*%
X76200000Y-49784000D03*
%TD*%
%TO.P,TP8,1*%
%TO.N,Net-(A1-Pad2)*%
X78740000Y-49784000D03*
%TD*%
%TO.P,TP7,1*%
%TO.N,CLK_CAN*%
X85312000Y-99000000D03*
%TD*%
%TO.P,TP5,1*%
%TO.N,MOSI_CAN*%
X82772000Y-99000000D03*
%TD*%
%TO.P,TP2,1*%
%TO.N,GND*%
X103124000Y-43180000D03*
%TD*%
%TO.P,R14,2*%
%TO.N,CAN+*%
%TA.AperFunction,SMDPad,CuDef*%
G36*
G01*
X109749000Y-56154000D02*
X109199000Y-56154000D01*
G75*
G02*
X108999000Y-55954000I0J200000D01*
G01*
X108999000Y-55554000D01*
G75*
G02*
X109199000Y-55354000I200000J0D01*
G01*
X109749000Y-55354000D01*
G75*
G02*
X109949000Y-55554000I0J-200000D01*
G01*
X109949000Y-55954000D01*
G75*
G02*
X109749000Y-56154000I-200000J0D01*
G01*
G37*
%TD.AperFunction*%
%TO.P,R14,1*%
%TO.N,Net-(J8-Pad1)*%
%TA.AperFunction,SMDPad,CuDef*%
G36*
G01*
X109749000Y-57804000D02*
X109199000Y-57804000D01*
G75*
G02*
X108999000Y-57604000I0J200000D01*
G01*
X108999000Y-57204000D01*
G75*
G02*
X109199000Y-57004000I200000J0D01*
G01*
X109749000Y-57004000D01*
G75*
G02*
X109949000Y-57204000I0J-200000D01*
G01*
X109949000Y-57604000D01*
G75*
G02*
X109749000Y-57804000I-200000J0D01*
G01*
G37*
%TD.AperFunction*%
%TD*%
%TO.P,R13,2*%
%TO.N,GND*%
%TA.AperFunction,SMDPad,CuDef*%
G36*
G01*
X101367000Y-52407000D02*
X100817000Y-52407000D01*
G75*
G02*
X100617000Y-52207000I0J200000D01*
G01*
X100617000Y-51807000D01*
G75*
G02*
X100817000Y-51607000I200000J0D01*
G01*
X101367000Y-51607000D01*
G75*
G02*
X101567000Y-51807000I0J-200000D01*
G01*
X101567000Y-52207000D01*
G75*
G02*
X101367000Y-52407000I-200000J0D01*
G01*
G37*
%TD.AperFunction*%
%TO.P,R13,1*%
%TO.N,Net-(R13-Pad1)*%
%TA.AperFunction,SMDPad,CuDef*%
G36*
G01*
X101367000Y-54057000D02*
X100817000Y-54057000D01*
G75*
G02*
X100617000Y-53857000I0J200000D01*
G01*
X100617000Y-53457000D01*
G75*
G02*
X100817000Y-53257000I200000J0D01*
G01*
X101367000Y-53257000D01*
G75*
G02*
X101567000Y-53457000I0J-200000D01*
G01*
X101567000Y-53857000D01*
G75*
G02*
X101367000Y-54057000I-200000J0D01*
G01*
G37*
%TD.AperFunction*%
%TD*%
%TO.P,R12,2*%
%TO.N,Net-(R12-Pad2)*%
%TA.AperFunction,SMDPad,CuDef*%
G36*
G01*
X94213000Y-42970000D02*
X94763000Y-42970000D01*
G75*
G02*
X94963000Y-43170000I0J-200000D01*
G01*
X94963000Y-43570000D01*
G75*
G02*
X94763000Y-43770000I-200000J0D01*
G01*
X94213000Y-43770000D01*
G75*
G02*
X94013000Y-43570000I0J200000D01*
G01*
X94013000Y-43170000D01*
G75*
G02*
X94213000Y-42970000I200000J0D01*
G01*
G37*
%TD.AperFunction*%
%TO.P,R12,1*%
%TO.N,+5V*%
%TA.AperFunction,SMDPad,CuDef*%
G36*
G01*
X94213000Y-41320000D02*
X94763000Y-41320000D01*
G75*
G02*
X94963000Y-41520000I0J-200000D01*
G01*
X94963000Y-41920000D01*
G75*
G02*
X94763000Y-42120000I-200000J0D01*
G01*
X94213000Y-42120000D01*
G75*
G02*
X94013000Y-41920000I0J200000D01*
G01*
X94013000Y-41520000D01*
G75*
G02*
X94213000Y-41320000I200000J0D01*
G01*
G37*
%TD.AperFunction*%
%TD*%
%TO.P,R11,2*%
%TO.N,Net-(J7-Pad1)*%
%TA.AperFunction,SMDPad,CuDef*%
G36*
G01*
X107970000Y-68305000D02*
X107970000Y-68855000D01*
G75*
G02*
X107770000Y-69055000I-200000J0D01*
G01*
X107370000Y-69055000D01*
G75*
G02*
X107170000Y-68855000I0J200000D01*
G01*
X107170000Y-68305000D01*
G75*
G02*
X107370000Y-68105000I200000J0D01*
G01*
X107770000Y-68105000D01*
G75*
G02*
X107970000Y-68305000I0J-200000D01*
G01*
G37*
%TD.AperFunction*%
%TO.P,R11,1*%
%TO.N,+5V*%
%TA.AperFunction,SMDPad,CuDef*%
G36*
G01*
X109620000Y-68305000D02*
X109620000Y-68855000D01*
G75*
G02*
X109420000Y-69055000I-200000J0D01*
G01*
X109020000Y-69055000D01*
G75*
G02*
X108820000Y-68855000I0J200000D01*
G01*
X108820000Y-68305000D01*
G75*
G02*
X109020000Y-68105000I200000J0D01*
G01*
X109420000Y-68105000D01*
G75*
G02*
X109620000Y-68305000I0J-200000D01*
G01*
G37*
%TD.AperFunction*%
%TD*%
%TO.P,R10,2*%
%TO.N,Net-(J7-Pad2)*%
%TA.AperFunction,SMDPad,CuDef*%
G36*
G01*
X112185000Y-68855000D02*
X112185000Y-68305000D01*
G75*
G02*
X112385000Y-68105000I200000J0D01*
G01*
X112785000Y-68105000D01*
G75*
G02*
X112985000Y-68305000I0J-200000D01*
G01*
X112985000Y-68855000D01*
G75*
G02*
X112785000Y-69055000I-200000J0D01*
G01*
X112385000Y-69055000D01*
G75*
G02*
X112185000Y-68855000I0J200000D01*
G01*
G37*
%TD.AperFunction*%
%TO.P,R10,1*%
%TO.N,+5V*%
%TA.AperFunction,SMDPad,CuDef*%
G36*
G01*
X110535000Y-68855000D02*
X110535000Y-68305000D01*
G75*
G02*
X110735000Y-68105000I200000J0D01*
G01*
X111135000Y-68105000D01*
G75*
G02*
X111335000Y-68305000I0J-200000D01*
G01*
X111335000Y-68855000D01*
G75*
G02*
X111135000Y-69055000I-200000J0D01*
G01*
X110735000Y-69055000D01*
G75*
G02*
X110535000Y-68855000I0J200000D01*
G01*
G37*
%TD.AperFunction*%
%TD*%
%TO.P,R9,2*%
%TO.N,Net-(J6-Pad1)*%
%TA.AperFunction,SMDPad,CuDef*%
G36*
G01*
X107970000Y-77957000D02*
X107970000Y-78507000D01*
G75*
G02*
X107770000Y-78707000I-200000J0D01*
G01*
X107370000Y-78707000D01*
G75*
G02*
X107170000Y-78507000I0J200000D01*
G01*
X107170000Y-77957000D01*
G75*
G02*
X107370000Y-77757000I200000J0D01*
G01*
X107770000Y-77757000D01*
G75*
G02*
X107970000Y-77957000I0J-200000D01*
G01*
G37*
%TD.AperFunction*%
%TO.P,R9,1*%
%TO.N,+5V*%
%TA.AperFunction,SMDPad,CuDef*%
G36*
G01*
X109620000Y-77957000D02*
X109620000Y-78507000D01*
G75*
G02*
X109420000Y-78707000I-200000J0D01*
G01*
X109020000Y-78707000D01*
G75*
G02*
X108820000Y-78507000I0J200000D01*
G01*
X108820000Y-77957000D01*
G75*
G02*
X109020000Y-77757000I200000J0D01*
G01*
X109420000Y-77757000D01*
G75*
G02*
X109620000Y-77957000I0J-200000D01*
G01*
G37*
%TD.AperFunction*%
%TD*%
%TO.P,R8,2*%
%TO.N,Net-(J6-Pad2)*%
%TA.AperFunction,SMDPad,CuDef*%
G36*
G01*
X112185000Y-78507000D02*
X112185000Y-77957000D01*
G75*
G02*
X112385000Y-77757000I200000J0D01*
G01*
X112785000Y-77757000D01*
G75*
G02*
X112985000Y-77957000I0J-200000D01*
G01*
X112985000Y-78507000D01*
G75*
G02*
X112785000Y-78707000I-200000J0D01*
G01*
X112385000Y-78707000D01*
G75*
G02*
X112185000Y-78507000I0J200000D01*
G01*
G37*
%TD.AperFunction*%
%TO.P,R8,1*%
%TO.N,+5V*%
%TA.AperFunction,SMDPad,CuDef*%
G36*
G01*
X110535000Y-78507000D02*
X110535000Y-77957000D01*
G75*
G02*
X110735000Y-77757000I200000J0D01*
G01*
X111135000Y-77757000D01*
G75*
G02*
X111335000Y-77957000I0J-200000D01*
G01*
X111335000Y-78507000D01*
G75*
G02*
X111135000Y-78707000I-200000J0D01*
G01*
X110735000Y-78707000D01*
G75*
G02*
X110535000Y-78507000I0J200000D01*
G01*
G37*
%TD.AperFunction*%
%TD*%
%TO.P,R7,2*%
%TO.N,Net-(J5-Pad1)*%
%TA.AperFunction,SMDPad,CuDef*%
G36*
G01*
X107970000Y-87609000D02*
X107970000Y-88159000D01*
G75*
G02*
X107770000Y-88359000I-200000J0D01*
G01*
X107370000Y-88359000D01*
G75*
G02*
X107170000Y-88159000I0J200000D01*
G01*
X107170000Y-87609000D01*
G75*
G02*
X107370000Y-87409000I200000J0D01*
G01*
X107770000Y-87409000D01*
G75*
G02*
X107970000Y-87609000I0J-200000D01*
G01*
G37*
%TD.AperFunction*%
%TO.P,R7,1*%
%TO.N,+5V*%
%TA.AperFunction,SMDPad,CuDef*%
G36*
G01*
X109620000Y-87609000D02*
X109620000Y-88159000D01*
G75*
G02*
X109420000Y-88359000I-200000J0D01*
G01*
X109020000Y-88359000D01*
G75*
G02*
X108820000Y-88159000I0J200000D01*
G01*
X108820000Y-87609000D01*
G75*
G02*
X109020000Y-87409000I200000J0D01*
G01*
X109420000Y-87409000D01*
G75*
G02*
X109620000Y-87609000I0J-200000D01*
G01*
G37*
%TD.AperFunction*%
%TD*%
%TO.P,R6,2*%
%TO.N,Net-(J5-Pad2)*%
%TA.AperFunction,SMDPad,CuDef*%
G36*
G01*
X112185000Y-88159000D02*
X112185000Y-87609000D01*
G75*
G02*
X112385000Y-87409000I200000J0D01*
G01*
X112785000Y-87409000D01*
G75*
G02*
X112985000Y-87609000I0J-200000D01*
G01*
X112985000Y-88159000D01*
G75*
G02*
X112785000Y-88359000I-200000J0D01*
G01*
X112385000Y-88359000D01*
G75*
G02*
X112185000Y-88159000I0J200000D01*
G01*
G37*
%TD.AperFunction*%
%TO.P,R6,1*%
%TO.N,+5V*%
%TA.AperFunction,SMDPad,CuDef*%
G36*
G01*
X110535000Y-88159000D02*
X110535000Y-87609000D01*
G75*
G02*
X110735000Y-87409000I200000J0D01*
G01*
X111135000Y-87409000D01*
G75*
G02*
X111335000Y-87609000I0J-200000D01*
G01*
X111335000Y-88159000D01*
G75*
G02*
X111135000Y-88359000I-200000J0D01*
G01*
X110735000Y-88359000D01*
G75*
G02*
X110535000Y-88159000I0J200000D01*
G01*
G37*
%TD.AperFunction*%
%TD*%
%TO.P,R5,2*%
%TO.N,Net-(J4-Pad1)*%
%TA.AperFunction,SMDPad,CuDef*%
G36*
G01*
X107970000Y-97261000D02*
X107970000Y-97811000D01*
G75*
G02*
X107770000Y-98011000I-200000J0D01*
G01*
X107370000Y-98011000D01*
G75*
G02*
X107170000Y-97811000I0J200000D01*
G01*
X107170000Y-97261000D01*
G75*
G02*
X107370000Y-97061000I200000J0D01*
G01*
X107770000Y-97061000D01*
G75*
G02*
X107970000Y-97261000I0J-200000D01*
G01*
G37*
%TD.AperFunction*%
%TO.P,R5,1*%
%TO.N,+5V*%
%TA.AperFunction,SMDPad,CuDef*%
G36*
G01*
X109620000Y-97261000D02*
X109620000Y-97811000D01*
G75*
G02*
X109420000Y-98011000I-200000J0D01*
G01*
X109020000Y-98011000D01*
G75*
G02*
X108820000Y-97811000I0J200000D01*
G01*
X108820000Y-97261000D01*
G75*
G02*
X109020000Y-97061000I200000J0D01*
G01*
X109420000Y-97061000D01*
G75*
G02*
X109620000Y-97261000I0J-200000D01*
G01*
G37*
%TD.AperFunction*%
%TD*%
%TO.P,R4,2*%
%TO.N,Net-(J4-Pad2)*%
%TA.AperFunction,SMDPad,CuDef*%
G36*
G01*
X111994000Y-97811000D02*
X111994000Y-97261000D01*
G75*
G02*
X112194000Y-97061000I200000J0D01*
G01*
X112594000Y-97061000D01*
G75*
G02*
X112794000Y-97261000I0J-200000D01*
G01*
X112794000Y-97811000D01*
G75*
G02*
X112594000Y-98011000I-200000J0D01*
G01*
X112194000Y-98011000D01*
G75*
G02*
X111994000Y-97811000I0J200000D01*
G01*
G37*
%TD.AperFunction*%
%TO.P,R4,1*%
%TO.N,+5V*%
%TA.AperFunction,SMDPad,CuDef*%
G36*
G01*
X110344000Y-97811000D02*
X110344000Y-97261000D01*
G75*
G02*
X110544000Y-97061000I200000J0D01*
G01*
X110944000Y-97061000D01*
G75*
G02*
X111144000Y-97261000I0J-200000D01*
G01*
X111144000Y-97811000D01*
G75*
G02*
X110944000Y-98011000I-200000J0D01*
G01*
X110544000Y-98011000D01*
G75*
G02*
X110344000Y-97811000I0J200000D01*
G01*
G37*
%TD.AperFunction*%
%TD*%
%TO.P,R3,2*%
%TO.N,SDA*%
%TA.AperFunction,SMDPad,CuDef*%
G36*
G01*
X95017000Y-75076000D02*
X94467000Y-75076000D01*
G75*
G02*
X94267000Y-74876000I0J200000D01*
G01*
X94267000Y-74476000D01*
G75*
G02*
X94467000Y-74276000I200000J0D01*
G01*
X95017000Y-74276000D01*
G75*
G02*
X95217000Y-74476000I0J-200000D01*
G01*
X95217000Y-74876000D01*
G75*
G02*
X95017000Y-75076000I-200000J0D01*
G01*
G37*
%TD.AperFunction*%
%TO.P,R3,1*%
%TO.N,+5V*%
%TA.AperFunction,SMDPad,CuDef*%
G36*
G01*
X95017000Y-76726000D02*
X94467000Y-76726000D01*
G75*
G02*
X94267000Y-76526000I0J200000D01*
G01*
X94267000Y-76126000D01*
G75*
G02*
X94467000Y-75926000I200000J0D01*
G01*
X95017000Y-75926000D01*
G75*
G02*
X95217000Y-76126000I0J-200000D01*
G01*
X95217000Y-76526000D01*
G75*
G02*
X95017000Y-76726000I-200000J0D01*
G01*
G37*
%TD.AperFunction*%
%TD*%
%TO.P,R2,2*%
%TO.N,SCL*%
%TA.AperFunction,SMDPad,CuDef*%
G36*
G01*
X96922000Y-75076000D02*
X96372000Y-75076000D01*
G75*
G02*
X96172000Y-74876000I0J200000D01*
G01*
X96172000Y-74476000D01*
G75*
G02*
X96372000Y-74276000I200000J0D01*
G01*
X96922000Y-74276000D01*
G75*
G02*
X97122000Y-74476000I0J-200000D01*
G01*
X97122000Y-74876000D01*
G75*
G02*
X96922000Y-75076000I-200000J0D01*
G01*
G37*
%TD.AperFunction*%
%TO.P,R2,1*%
%TO.N,+5V*%
%TA.AperFunction,SMDPad,CuDef*%
G36*
G01*
X96922000Y-76726000D02*
X96372000Y-76726000D01*
G75*
G02*
X96172000Y-76526000I0J200000D01*
G01*
X96172000Y-76126000D01*
G75*
G02*
X96372000Y-75926000I200000J0D01*
G01*
X96922000Y-75926000D01*
G75*
G02*
X97122000Y-76126000I0J-200000D01*
G01*
X97122000Y-76526000D01*
G75*
G02*
X96922000Y-76726000I-200000J0D01*
G01*
G37*
%TD.AperFunction*%
%TD*%
%TO.P,R1,2*%
%TO.N,Net-(R1-Pad2)*%
%TA.AperFunction,SMDPad,CuDef*%
G36*
G01*
X98827000Y-75076000D02*
X98277000Y-75076000D01*
G75*
G02*
X98077000Y-74876000I0J200000D01*
G01*
X98077000Y-74476000D01*
G75*
G02*
X98277000Y-74276000I200000J0D01*
G01*
X98827000Y-74276000D01*
G75*
G02*
X99027000Y-74476000I0J-200000D01*
G01*
X99027000Y-74876000D01*
G75*
G02*
X98827000Y-75076000I-200000J0D01*
G01*
G37*
%TD.AperFunction*%
%TO.P,R1,1*%
%TO.N,+5V*%
%TA.AperFunction,SMDPad,CuDef*%
G36*
G01*
X98827000Y-76726000D02*
X98277000Y-76726000D01*
G75*
G02*
X98077000Y-76526000I0J200000D01*
G01*
X98077000Y-76126000D01*
G75*
G02*
X98277000Y-75926000I200000J0D01*
G01*
X98827000Y-75926000D01*
G75*
G02*
X99027000Y-76126000I0J-200000D01*
G01*
X99027000Y-76526000D01*
G75*
G02*
X98827000Y-76726000I-200000J0D01*
G01*
G37*
%TD.AperFunction*%
%TD*%
D13*
%TO.P,J8,2*%
%TO.N,CAN-*%
X114808000Y-56896000D03*
D14*
%TO.P,J8,1*%
%TO.N,Net-(J8-Pad1)*%
X112268000Y-56896000D03*
%TD*%
D16*
%TO.P,J7,4*%
%TO.N,GND*%
X114180000Y-63500000D03*
%TO.P,J7,3*%
%TO.N,+3V3*%
X111680000Y-63500000D03*
%TO.P,J7,2*%
%TO.N,Net-(J7-Pad2)*%
X109180000Y-63500000D03*
%TO.P,J7,1*%
%TO.N,Net-(J7-Pad1)*%
%TA.AperFunction,ComponentPad*%
G36*
G01*
X105830000Y-64225000D02*
X105830000Y-62775000D01*
G75*
G02*
X106080000Y-62525000I250000J0D01*
G01*
X107280000Y-62525000D01*
G75*
G02*
X107530000Y-62775000I0J-250000D01*
G01*
X107530000Y-64225000D01*
G75*
G02*
X107280000Y-64475000I-250000J0D01*
G01*
X106080000Y-64475000D01*
G75*
G02*
X105830000Y-64225000I0J250000D01*
G01*
G37*
%TD.AperFunction*%
%TD*%
%TO.P,J6,4*%
%TO.N,GND*%
X114180000Y-73152000D03*
%TO.P,J6,3*%
%TO.N,+3V3*%
X111680000Y-73152000D03*
%TO.P,J6,2*%
%TO.N,Net-(J6-Pad2)*%
X109180000Y-73152000D03*
%TO.P,J6,1*%
%TO.N,Net-(J6-Pad1)*%
%TA.AperFunction,ComponentPad*%
G36*
G01*
X105830000Y-73877000D02*
X105830000Y-72427000D01*
G75*
G02*
X106080000Y-72177000I250000J0D01*
G01*
X107280000Y-72177000D01*
G75*
G02*
X107530000Y-72427000I0J-250000D01*
G01*
X107530000Y-73877000D01*
G75*
G02*
X107280000Y-74127000I-250000J0D01*
G01*
X106080000Y-74127000D01*
G75*
G02*
X105830000Y-73877000I0J250000D01*
G01*
G37*
%TD.AperFunction*%
%TD*%
%TO.P,J5,4*%
%TO.N,GND*%
X114180000Y-82804000D03*
%TO.P,J5,3*%
%TO.N,+3V3*%
X111680000Y-82804000D03*
%TO.P,J5,2*%
%TO.N,Net-(J5-Pad2)*%
X109180000Y-82804000D03*
%TO.P,J5,1*%
%TO.N,Net-(J5-Pad1)*%
%TA.AperFunction,ComponentPad*%
G36*
G01*
X105830000Y-83529000D02*
X105830000Y-82079000D01*
G75*
G02*
X106080000Y-81829000I250000J0D01*
G01*
X107280000Y-81829000D01*
G75*
G02*
X107530000Y-82079000I0J-250000D01*
G01*
X107530000Y-83529000D01*
G75*
G02*
X107280000Y-83779000I-250000J0D01*
G01*
X106080000Y-83779000D01*
G75*
G02*
X105830000Y-83529000I0J250000D01*
G01*
G37*
%TD.AperFunction*%
%TD*%
%TO.P,J4,4*%
%TO.N,GND*%
X114180000Y-92456000D03*
%TO.P,J4,3*%
%TO.N,+3V3*%
X111680000Y-92456000D03*
%TO.P,J4,2*%
%TO.N,Net-(J4-Pad2)*%
X109180000Y-92456000D03*
%TO.P,J4,1*%
%TO.N,Net-(J4-Pad1)*%
%TA.AperFunction,ComponentPad*%
G36*
G01*
X105830000Y-93181000D02*
X105830000Y-91731000D01*
G75*
G02*
X106080000Y-91481000I250000J0D01*
G01*
X107280000Y-91481000D01*
G75*
G02*
X107530000Y-91731000I0J-250000D01*
G01*
X107530000Y-93181000D01*
G75*
G02*
X107280000Y-93431000I-250000J0D01*
G01*
X106080000Y-93431000D01*
G75*
G02*
X105830000Y-93181000I0J250000D01*
G01*
G37*
%TD.AperFunction*%
%TD*%
%TO.P,J1,4*%
%TO.N,CAN-*%
X114180000Y-50800000D03*
%TO.P,J1,3*%
%TO.N,CAN+*%
X111680000Y-50800000D03*
%TO.P,J1,2*%
%TO.N,+5V*%
X109180000Y-50800000D03*
%TO.P,J1,1*%
%TO.N,GND*%
%TA.AperFunction,ComponentPad*%
G36*
G01*
X105830000Y-51525000D02*
X105830000Y-50075000D01*
G75*
G02*
X106080000Y-49825000I250000J0D01*
G01*
X107280000Y-49825000D01*
G75*
G02*
X107530000Y-50075000I0J-250000D01*
G01*
X107530000Y-51525000D01*
G75*
G02*
X107280000Y-51775000I-250000J0D01*
G01*
X106080000Y-51775000D01*
G75*
G02*
X105830000Y-51525000I0J250000D01*
G01*
G37*
%TD.AperFunction*%
%TD*%
%TO.P,C4,2*%
%TO.N,GND*%
%TA.AperFunction,SMDPad,CuDef*%
G36*
G01*
X97278000Y-42220000D02*
X96778000Y-42220000D01*
G75*
G02*
X96553000Y-41995000I0J225000D01*
G01*
X96553000Y-41545000D01*
G75*
G02*
X96778000Y-41320000I225000J0D01*
G01*
X97278000Y-41320000D01*
G75*
G02*
X97503000Y-41545000I0J-225000D01*
G01*
X97503000Y-41995000D01*
G75*
G02*
X97278000Y-42220000I-225000J0D01*
G01*
G37*
%TD.AperFunction*%
%TO.P,C4,1*%
%TO.N,+5V*%
%TA.AperFunction,SMDPad,CuDef*%
G36*
G01*
X97278000Y-43770000D02*
X96778000Y-43770000D01*
G75*
G02*
X96553000Y-43545000I0J225000D01*
G01*
X96553000Y-43095000D01*
G75*
G02*
X96778000Y-42870000I225000J0D01*
G01*
X97278000Y-42870000D01*
G75*
G02*
X97503000Y-43095000I0J-225000D01*
G01*
X97503000Y-43545000D01*
G75*
G02*
X97278000Y-43770000I-225000J0D01*
G01*
G37*
%TD.AperFunction*%
%TD*%
%TO.P,C3,2*%
%TO.N,GND*%
%TA.AperFunction,SMDPad,CuDef*%
G36*
G01*
X85086000Y-42080000D02*
X84586000Y-42080000D01*
G75*
G02*
X84361000Y-41855000I0J225000D01*
G01*
X84361000Y-41405000D01*
G75*
G02*
X84586000Y-41180000I225000J0D01*
G01*
X85086000Y-41180000D01*
G75*
G02*
X85311000Y-41405000I0J-225000D01*
G01*
X85311000Y-41855000D01*
G75*
G02*
X85086000Y-42080000I-225000J0D01*
G01*
G37*
%TD.AperFunction*%
%TO.P,C3,1*%
%TO.N,Net-(C3-Pad1)*%
%TA.AperFunction,SMDPad,CuDef*%
G36*
G01*
X85086000Y-43630000D02*
X84586000Y-43630000D01*
G75*
G02*
X84361000Y-43405000I0J225000D01*
G01*
X84361000Y-42955000D01*
G75*
G02*
X84586000Y-42730000I225000J0D01*
G01*
X85086000Y-42730000D01*
G75*
G02*
X85311000Y-42955000I0J-225000D01*
G01*
X85311000Y-43405000D01*
G75*
G02*
X85086000Y-43630000I-225000J0D01*
G01*
G37*
%TD.AperFunction*%
%TD*%
%TO.P,C1,2*%
%TO.N,+5V*%
%TA.AperFunction,SMDPad,CuDef*%
G36*
G01*
X93087000Y-75126000D02*
X92587000Y-75126000D01*
G75*
G02*
X92362000Y-74901000I0J225000D01*
G01*
X92362000Y-74451000D01*
G75*
G02*
X92587000Y-74226000I225000J0D01*
G01*
X93087000Y-74226000D01*
G75*
G02*
X93312000Y-74451000I0J-225000D01*
G01*
X93312000Y-74901000D01*
G75*
G02*
X93087000Y-75126000I-225000J0D01*
G01*
G37*
%TD.AperFunction*%
%TO.P,C1,1*%
%TO.N,GND*%
%TA.AperFunction,SMDPad,CuDef*%
G36*
G01*
X93087000Y-76676000D02*
X92587000Y-76676000D01*
G75*
G02*
X92362000Y-76451000I0J225000D01*
G01*
X92362000Y-76001000D01*
G75*
G02*
X92587000Y-75776000I225000J0D01*
G01*
X93087000Y-75776000D01*
G75*
G02*
X93312000Y-76001000I0J-225000D01*
G01*
X93312000Y-76451000D01*
G75*
G02*
X93087000Y-76676000I-225000J0D01*
G01*
G37*
%TD.AperFunction*%
%TD*%
D17*
%TO.N,CLK_CAN*%
X97262008Y-47937439D03*
%TO.N,MISO_CAN*%
X97179668Y-46736000D03*
%TO.N,MOSI_CAN*%
X100330000Y-47355003D03*
%TO.N,GND*%
X103124000Y-44704000D03*
X91694000Y-55372000D03*
X90380505Y-49542000D03*
X94488000Y-70866000D03*
X99060000Y-73406000D03*
X91948000Y-76200000D03*
X91497518Y-70560948D03*
X101854000Y-52070000D03*
X97536000Y-65532000D03*
X98806000Y-65024000D03*
X98044000Y-41656000D03*
X82804000Y-48514000D03*
X82804000Y-47244000D03*
X82804000Y-45974000D03*
X82804000Y-44704000D03*
X82804000Y-43434000D03*
X82804000Y-42164000D03*
X82804000Y-40894000D03*
X84074000Y-48514000D03*
X85344000Y-48514000D03*
X90678000Y-44704000D03*
X90678000Y-45974000D03*
X90678000Y-43434000D03*
X90678000Y-42164000D03*
X90678000Y-40894000D03*
X84074000Y-40894000D03*
X85598000Y-40894000D03*
X87884000Y-40894000D03*
X89154000Y-40894000D03*
%TO.N,+5V*%
X91806677Y-57280146D03*
X93218000Y-73660000D03*
X95250000Y-77216000D03*
X97282000Y-77216000D03*
X99060000Y-77216000D03*
%TO.N,D6*%
X100330000Y-46355000D03*
%TO.N,D2*%
X100330000Y-48895000D03*
%TO.N,CAN+*%
X110490000Y-54610000D03*
X108204000Y-46736000D03*
%TO.N,CAN-*%
X109242331Y-46713669D03*
%TD*%
D18*
%TO.N,CLK_CAN*%
X98051569Y-48727000D02*
X97262008Y-47937439D01*
X98874500Y-48727000D02*
X98051569Y-48727000D01*
X88392000Y-95920000D02*
X85312000Y-99000000D01*
X88392000Y-90678000D02*
X88392000Y-95920000D01*
%TO.N,MISO_CAN*%
X97220668Y-46777000D02*
X97179668Y-46736000D01*
X98874500Y-46777000D02*
X97220668Y-46777000D01*
X73152000Y-91948000D02*
X78232000Y-97028000D01*
X73152000Y-90678000D02*
X73152000Y-91948000D01*
X78260000Y-97028000D02*
X80232000Y-99000000D01*
X78232000Y-97028000D02*
X78260000Y-97028000D01*
%TO.N,MOSI_CAN*%
X100258003Y-47427000D02*
X100330000Y-47355003D01*
X98874500Y-47427000D02*
X100258003Y-47427000D01*
D19*
X82772000Y-97758000D02*
X73152000Y-88138000D01*
X82772000Y-99000000D02*
X82772000Y-97758000D01*
D18*
%TO.N,GND*%
X103124000Y-44704000D02*
X103124000Y-43180000D01*
X91821000Y-55245000D02*
X91694000Y-55372000D01*
X93525000Y-55245000D02*
X91821000Y-55245000D01*
X91515505Y-50677000D02*
X90380505Y-49542000D01*
X93149500Y-50677000D02*
X91515505Y-50677000D01*
X94466000Y-70844000D02*
X94488000Y-70866000D01*
X93137500Y-70844000D02*
X94466000Y-70844000D01*
X91780570Y-70844000D02*
X91497518Y-70560948D01*
X93137500Y-70844000D02*
X91780570Y-70844000D01*
X98862500Y-72144000D02*
X98862500Y-72794000D01*
X98862500Y-73208500D02*
X99060000Y-73406000D01*
X98862500Y-72794000D02*
X98862500Y-73208500D01*
D20*
X91974000Y-76226000D02*
X91948000Y-76200000D01*
X92837000Y-76226000D02*
X91974000Y-76226000D01*
X101791000Y-52007000D02*
X101854000Y-52070000D01*
X101092000Y-52007000D02*
X101791000Y-52007000D01*
D18*
X97648000Y-65644000D02*
X97536000Y-65532000D01*
X98862500Y-65644000D02*
X97648000Y-65644000D01*
X98862500Y-65080500D02*
X98806000Y-65024000D01*
X98862500Y-65644000D02*
X98862500Y-65080500D01*
X97930000Y-41770000D02*
X98044000Y-41656000D01*
X97028000Y-41770000D02*
X97930000Y-41770000D01*
D20*
X84100000Y-40894000D02*
X84836000Y-41630000D01*
X84074000Y-40894000D02*
X84100000Y-40894000D01*
X84862000Y-41630000D02*
X85598000Y-40894000D01*
X84836000Y-41630000D02*
X84862000Y-41630000D01*
X87884000Y-40942000D02*
X88572000Y-41630000D01*
X87884000Y-40894000D02*
X87884000Y-40942000D01*
X88572000Y-41476000D02*
X89154000Y-40894000D01*
X88572000Y-41630000D02*
X88572000Y-41476000D01*
D18*
%TO.N,+5V*%
X92571823Y-56515000D02*
X91806677Y-57280146D01*
X93525000Y-56515000D02*
X92571823Y-56515000D01*
X93137500Y-73579500D02*
X93218000Y-73660000D01*
X93137500Y-72794000D02*
X93137500Y-73579500D01*
X93218000Y-74295000D02*
X92837000Y-74676000D01*
X93218000Y-73660000D02*
X93218000Y-74295000D01*
X96647000Y-76581000D02*
X97282000Y-77216000D01*
X96647000Y-76326000D02*
X96647000Y-76581000D01*
D20*
X110935000Y-78232000D02*
X109220000Y-78232000D01*
X109220000Y-87884000D02*
X110935000Y-87884000D01*
X109220000Y-68580000D02*
X110935000Y-68580000D01*
X111411010Y-98711010D02*
X110236000Y-97536000D01*
X117856000Y-93821808D02*
X112966798Y-98711010D01*
X116078000Y-48514000D02*
X117856000Y-50292000D01*
X109180000Y-50332000D02*
X110998000Y-48514000D01*
X112966798Y-98711010D02*
X111411010Y-98711010D01*
X110998000Y-48514000D02*
X116078000Y-48514000D01*
X109180000Y-50800000D02*
X109180000Y-50332000D01*
X110236000Y-97536000D02*
X110744000Y-97536000D01*
X109220000Y-97536000D02*
X110236000Y-97536000D01*
X110998000Y-70358000D02*
X117856000Y-70358000D01*
X117856000Y-50292000D02*
X117856000Y-70358000D01*
X117696990Y-79407010D02*
X117856000Y-79248000D01*
X110395010Y-79407010D02*
X117696990Y-79407010D01*
X109220000Y-78232000D02*
X110395010Y-79407010D01*
X117856000Y-70358000D02*
X117856000Y-79248000D01*
X110935000Y-78867020D02*
X110395010Y-79407010D01*
X110935000Y-78232000D02*
X110935000Y-78867020D01*
X109220000Y-68580000D02*
X110998000Y-70358000D01*
X110935000Y-70295000D02*
X110998000Y-70358000D01*
X110935000Y-68580000D02*
X110935000Y-70295000D01*
X117696990Y-89059010D02*
X117856000Y-88900000D01*
X109220000Y-87884000D02*
X110395010Y-89059010D01*
X117856000Y-88900000D02*
X117856000Y-93821808D01*
X117856000Y-79248000D02*
X117856000Y-88900000D01*
X110935000Y-88837000D02*
X111157010Y-89059010D01*
X110935000Y-87884000D02*
X110935000Y-88837000D01*
X111157010Y-89059010D02*
X117696990Y-89059010D01*
X110395010Y-89059010D02*
X111157010Y-89059010D01*
X109220000Y-97536000D02*
X110395010Y-98711010D01*
X100965000Y-93980000D02*
X100965000Y-96520000D01*
X100965000Y-96520000D02*
X100965000Y-99060000D01*
X100965000Y-99060000D02*
X100965000Y-101600000D01*
X112108990Y-98711010D02*
X100678990Y-98711010D01*
X101313990Y-98711010D02*
X100965000Y-99060000D01*
X110395010Y-98711010D02*
X112108990Y-98711010D01*
X112108990Y-98711010D02*
X112966798Y-98711010D01*
X109180000Y-50125000D02*
X106680000Y-47625000D01*
X109180000Y-50800000D02*
X109180000Y-50125000D01*
X101091990Y-44576990D02*
X98874500Y-44576990D01*
X104140000Y-47625000D02*
X101091990Y-44576990D01*
X97617510Y-43320000D02*
X98874500Y-44576990D01*
X97028000Y-43320000D02*
X97617510Y-43320000D01*
X94802094Y-41720000D02*
X94488000Y-41720000D01*
X96402094Y-43320000D02*
X94802094Y-41720000D01*
X97028000Y-43320000D02*
X96402094Y-43320000D01*
D18*
X105664000Y-47244000D02*
X106045000Y-47625000D01*
X105664000Y-43180000D02*
X105664000Y-47244000D01*
D20*
X106045000Y-47625000D02*
X104140000Y-47625000D01*
X106680000Y-47625000D02*
X106045000Y-47625000D01*
X94742000Y-76326000D02*
X98552000Y-76326000D01*
X95250000Y-77216000D02*
X99060000Y-77216000D01*
X94742000Y-76708000D02*
X95250000Y-77216000D01*
X94742000Y-76326000D02*
X94742000Y-76708000D01*
X99060000Y-76834000D02*
X98552000Y-76326000D01*
X99060000Y-77216000D02*
X99060000Y-76834000D01*
D18*
%TO.N,D6*%
X100102000Y-46127000D02*
X100330000Y-46355000D01*
X98874500Y-46127000D02*
X100102000Y-46127000D01*
%TO.N,SCL*%
X93918534Y-71494000D02*
X93137500Y-71494000D01*
X96647000Y-74222466D02*
X93918534Y-71494000D01*
X96647000Y-74676000D02*
X96647000Y-74222466D01*
D19*
X93137500Y-71494000D02*
X92400000Y-71494000D01*
D18*
X88392000Y-70124466D02*
X88392000Y-70358000D01*
X93137500Y-71494000D02*
X92356466Y-71494000D01*
X89528000Y-71494000D02*
X93137500Y-71494000D01*
X88392000Y-70358000D02*
X89528000Y-71494000D01*
%TO.N,SDA*%
X94742000Y-74676000D02*
X94987010Y-74430990D01*
X93861414Y-72144000D02*
X93137500Y-72144000D01*
X94742000Y-73024586D02*
X93861414Y-72144000D01*
X94742000Y-74676000D02*
X94742000Y-73024586D01*
D19*
X92413590Y-72144000D02*
X93137500Y-72144000D01*
D18*
X92413586Y-72144000D02*
X93137500Y-72144000D01*
X89146000Y-72144000D02*
X93137500Y-72144000D01*
X88392000Y-72898000D02*
X89146000Y-72144000D01*
%TO.N,D2*%
X99848000Y-49377000D02*
X100330000Y-48895000D01*
X98874500Y-49377000D02*
X99848000Y-49377000D01*
%TO.N,Net-(A1-Pad2)*%
X73152000Y-57348002D02*
X73152000Y-57658000D01*
X78740000Y-51760002D02*
X73152000Y-57348002D01*
X78740000Y-49784000D02*
X78740000Y-51760002D01*
%TO.N,Net-(A1-Pad1)*%
X73152000Y-52832000D02*
X76200000Y-49784000D01*
X73152000Y-55118000D02*
X73152000Y-52832000D01*
%TO.N,Net-(J8-Pad1)*%
X111760000Y-57404000D02*
X112268000Y-56896000D01*
X109474000Y-57404000D02*
X111760000Y-57404000D01*
%TO.N,Net-(R1-Pad2)*%
X98552000Y-74676000D02*
X98536990Y-74660990D01*
X98552000Y-74676000D02*
X98552000Y-74422000D01*
X98125000Y-71494000D02*
X98862500Y-71494000D01*
X97774990Y-71844010D02*
X98125000Y-71494000D01*
X97774990Y-73644990D02*
X97774990Y-71844010D01*
X98552000Y-74422000D02*
X97774990Y-73644990D01*
%TO.N,Net-(R12-Pad2)*%
X97357000Y-45477000D02*
X98874500Y-45477000D01*
X95250000Y-43370000D02*
X97357000Y-45477000D01*
X94488000Y-43370000D02*
X95250000Y-43370000D01*
D19*
%TO.N,Net-(C3-Pad1)*%
X84836000Y-45800000D02*
X84872000Y-45836000D01*
X84836000Y-43180000D02*
X84836000Y-45800000D01*
D18*
X93149500Y-50027000D02*
X92191000Y-50027000D01*
X92191000Y-50027000D02*
X90932000Y-48768000D01*
X87804000Y-48768000D02*
X84872000Y-45836000D01*
X90932000Y-48768000D02*
X87804000Y-48768000D01*
D19*
%TO.N,Net-(C2-Pad1)*%
X88572000Y-43180000D02*
X88572000Y-45836000D01*
X92460942Y-49377000D02*
X93149500Y-49377000D01*
X88572000Y-45836000D02*
X87671942Y-45836000D01*
D18*
X92425586Y-49377000D02*
X93149500Y-49377000D01*
X88884586Y-45836000D02*
X92425586Y-49377000D01*
X88572000Y-45836000D02*
X88884586Y-45836000D01*
%TO.N,Net-(U2-Pad2)*%
X92225606Y-45477000D02*
X93149500Y-45477000D01*
X92061990Y-44540596D02*
X92061990Y-45313384D01*
X92325596Y-44276990D02*
X92061990Y-44540596D01*
X94030524Y-44276990D02*
X92325596Y-44276990D01*
X92061990Y-45313384D02*
X92225606Y-45477000D01*
X93525000Y-57785000D02*
X94500000Y-57785000D01*
X96081500Y-46327966D02*
X96081500Y-56203500D01*
X94030524Y-44276990D02*
X96081500Y-46327966D01*
X94500000Y-57785000D02*
X96081500Y-56203500D01*
%TO.N,Net-(U2-Pad1)*%
X93525000Y-53975000D02*
X94615000Y-53975000D01*
X93873414Y-44827000D02*
X93149500Y-44827000D01*
X94615000Y-45568586D02*
X93873414Y-44827000D01*
X94615000Y-53975000D02*
X94615000Y-45568586D01*
D19*
%TO.N,Net-(R13-Pad1)*%
X100774000Y-53975000D02*
X101092000Y-53657000D01*
X98475000Y-53975000D02*
X100774000Y-53975000D01*
D18*
%TO.N,CAN+*%
X111956755Y-51275010D02*
X111483245Y-51275010D01*
X112268000Y-50963765D02*
X111956755Y-51275010D01*
X111483245Y-51275010D02*
X111344118Y-51135883D01*
D21*
X111680000Y-50675000D02*
X111680000Y-50800000D01*
D19*
X111680000Y-50800000D02*
X111760000Y-50800000D01*
D21*
X98885000Y-55655000D02*
X105824800Y-55655000D01*
X98475000Y-55245000D02*
X98885000Y-55655000D01*
X105824800Y-55655000D02*
X108872800Y-52607000D01*
X108872800Y-52607000D02*
X111172253Y-52607000D01*
X111172253Y-52607000D02*
X111643862Y-52135391D01*
D19*
X111643862Y-50836138D02*
X111680000Y-50800000D01*
X111643862Y-52135391D02*
X111643862Y-50836138D01*
X109474000Y-55626000D02*
X110490000Y-54610000D01*
X109474000Y-55754000D02*
X109474000Y-55626000D01*
D18*
X108204000Y-45720000D02*
X108204000Y-43180000D01*
X108204000Y-45720000D02*
X108204000Y-46736000D01*
D21*
%TO.N,CAN-*%
X114180000Y-50675000D02*
X114180000Y-50800000D01*
D19*
X114180000Y-50800000D02*
X114180000Y-50920000D01*
D18*
X114300000Y-50920000D02*
X114180000Y-50800000D01*
X114808000Y-51428000D02*
X114180000Y-50800000D01*
X114808000Y-56896000D02*
X114808000Y-51428000D01*
D21*
X98885000Y-56105000D02*
X106011200Y-56105000D01*
X98475000Y-56515000D02*
X98885000Y-56105000D01*
X106011200Y-56105000D02*
X109059200Y-53057000D01*
X109059200Y-53057000D02*
X111358653Y-53057000D01*
X111358653Y-53057000D02*
X111962062Y-52453591D01*
D19*
X112526409Y-52453591D02*
X114180000Y-50800000D01*
X111962062Y-52453591D02*
X112526409Y-52453591D01*
D18*
X109242331Y-44681669D02*
X110744000Y-43180000D01*
X109242331Y-45697669D02*
X109242331Y-44681669D01*
X109242331Y-45697669D02*
X109242331Y-46713669D01*
%TO.N,Net-(J4-Pad2)*%
X109180000Y-92456000D02*
X108853546Y-92456000D01*
X109180000Y-94322000D02*
X112394000Y-97536000D01*
X109180000Y-92456000D02*
X109180000Y-94322000D01*
X99643534Y-70194000D02*
X98862500Y-70194000D01*
X100450020Y-83686020D02*
X100450020Y-71000486D01*
X109180000Y-92416000D02*
X100450020Y-83686020D01*
X100450020Y-71000486D02*
X99643534Y-70194000D01*
X109180000Y-92456000D02*
X109180000Y-92416000D01*
%TO.N,Net-(J4-Pad1)*%
X106680000Y-96646000D02*
X107570000Y-97536000D01*
X106680000Y-92456000D02*
X106680000Y-96646000D01*
X99586414Y-70844000D02*
X98862500Y-70844000D01*
X99950010Y-71207596D02*
X99586414Y-70844000D01*
X99950010Y-85726010D02*
X99950010Y-71207596D01*
X106680000Y-92456000D02*
X99950010Y-85726010D01*
%TO.N,Net-(J5-Pad2)*%
X109180000Y-82804000D02*
X109180000Y-82764000D01*
X109180000Y-84479000D02*
X112585000Y-87884000D01*
X109180000Y-82804000D02*
X109180000Y-84479000D01*
X101450040Y-70586266D02*
X99757774Y-68894000D01*
X101450040Y-75034040D02*
X101450040Y-70586266D01*
X99757774Y-68894000D02*
X98862500Y-68894000D01*
X104100000Y-77684000D02*
X101450040Y-75034040D01*
X104100000Y-77724000D02*
X104100000Y-77684000D01*
X109180000Y-82804000D02*
X104100000Y-77724000D01*
%TO.N,Net-(J5-Pad1)*%
X106680000Y-82804000D02*
X106639000Y-82804000D01*
X106680000Y-86994000D02*
X107570000Y-87884000D01*
X106680000Y-82804000D02*
X106680000Y-86994000D01*
X99700654Y-69544000D02*
X98862500Y-69544000D01*
X100950030Y-70793376D02*
X99700654Y-69544000D01*
X100950030Y-77074030D02*
X100950030Y-70793376D01*
X106680000Y-82804000D02*
X100950030Y-77074030D01*
%TO.N,Net-(J6-Pad2)*%
X109180000Y-74827000D02*
X112585000Y-78232000D01*
X109180000Y-73152000D02*
X109180000Y-74827000D01*
X103622000Y-67594000D02*
X109180000Y-73152000D01*
X98862500Y-67594000D02*
X103622000Y-67594000D01*
%TO.N,Net-(J6-Pad1)*%
X106680000Y-77342000D02*
X107570000Y-78232000D01*
X106680000Y-73152000D02*
X106680000Y-77342000D01*
X101772000Y-68244000D02*
X106680000Y-73152000D01*
X98862500Y-68244000D02*
X101772000Y-68244000D01*
%TO.N,Net-(J7-Pad2)*%
X109180000Y-65175000D02*
X112585000Y-68580000D01*
X109180000Y-63500000D02*
X109180000Y-65175000D01*
X99586414Y-66294000D02*
X98862500Y-66294000D01*
X103705424Y-62174990D02*
X99586414Y-66294000D01*
X107854990Y-62174990D02*
X103705424Y-62174990D01*
X109180000Y-63500000D02*
X107854990Y-62174990D01*
%TO.N,Net-(J7-Pad1)*%
X106680000Y-67690000D02*
X107570000Y-68580000D01*
X106680000Y-63500000D02*
X106680000Y-67690000D01*
X98862500Y-66944000D02*
X99680000Y-66944000D01*
X103124000Y-63500000D02*
X106680000Y-63500000D01*
X99680000Y-66944000D02*
X103124000Y-63500000D01*
%TO.N,A3*%
X93345000Y-80391000D02*
X93345000Y-93980000D01*
X88392000Y-75438000D02*
X93345000Y-80391000D01*
%TO.N,A2*%
X92144999Y-95319999D02*
X93345000Y-96520000D01*
X92144999Y-81730999D02*
X92144999Y-95319999D01*
X88392000Y-77978000D02*
X92144999Y-81730999D01*
%TO.N,A1*%
X88392000Y-80518000D02*
X90932000Y-83058000D01*
X90932000Y-96647000D02*
X93345000Y-99060000D01*
X90932000Y-83058000D02*
X90932000Y-96647000D01*
%TO.N,A0*%
X89542001Y-97797001D02*
X93345000Y-101600000D01*
X89542001Y-84208001D02*
X89542001Y-97797001D01*
X88392000Y-83058000D02*
X89542001Y-84208001D01*
%TD*%
M02*
