M48
METRIC
T1C0.400
T2C0.950
T3C1.000
%
G90
G05
T1
X82.804Y-40.894
X82.804Y-42.164
X82.804Y-43.434
X82.804Y-44.704
X82.804Y-45.974
X82.804Y-47.244
X82.804Y-48.514
X84.074Y-40.894
X84.074Y-48.514
X85.344Y-48.514
X85.598Y-40.894
X87.884Y-40.894
X89.154Y-40.894
X90.381Y-49.542
X90.678Y-40.894
X90.678Y-42.164
X90.678Y-43.434
X90.678Y-44.704
X90.678Y-45.974
X91.498Y-70.561
X91.694Y-55.372
X91.807Y-57.28
X91.948Y-76.2
X93.218Y-73.66
X94.488Y-70.866
X95.25Y-77.216
X97.18Y-46.736
X97.262Y-47.937
X97.282Y-77.216
X97.536Y-65.532
X98.044Y-41.656
X98.806Y-65.024
X99.06Y-73.406
X99.06Y-77.216
X100.33Y-46.355
X100.33Y-47.355
X100.33Y-48.895
X101.854Y-52.07
X103.124Y-44.704
X108.204Y-46.736
X109.242Y-46.714
X110.49Y-54.61
T2
X106.68Y-50.8
X106.68Y-63.5
X106.68Y-73.152
X106.68Y-82.804
X106.68Y-92.456
X109.18Y-50.8
X109.18Y-63.5
X109.18Y-73.152
X109.18Y-82.804
X109.18Y-92.456
X111.68Y-50.8
X111.68Y-63.5
X111.68Y-73.152
X111.68Y-82.804
X111.68Y-92.456
X114.18Y-50.8
X114.18Y-63.5
X114.18Y-73.152
X114.18Y-82.804
X114.18Y-92.456
T3
X73.152Y-55.118
X73.152Y-57.658
X73.152Y-60.198
X73.152Y-62.738
X73.152Y-65.278
X73.152Y-67.818
X73.152Y-70.358
X73.152Y-72.898
X73.152Y-75.438
X73.152Y-77.978
X73.152Y-80.518
X73.152Y-83.058
X73.152Y-85.598
X73.152Y-88.138
X73.152Y-90.678
X88.392Y-55.118
X88.392Y-57.658
X88.392Y-60.198
X88.392Y-62.738
X88.392Y-65.278
X88.392Y-67.818
X88.392Y-70.358
X88.392Y-72.898
X88.392Y-75.438
X88.392Y-77.978
X88.392Y-80.518
X88.392Y-83.058
X88.392Y-85.598
X88.392Y-88.138
X88.392Y-90.678
X93.345Y-93.98
X93.345Y-96.52
X93.345Y-99.06
X93.345Y-101.6
X97.155Y-93.98
X97.155Y-96.52
X97.155Y-99.06
X97.155Y-101.6
X100.965Y-93.98
X100.965Y-96.52
X100.965Y-99.06
X100.965Y-101.6
X112.268Y-56.896
X114.808Y-56.896
T0
M30
