%TF.GenerationSoftware,KiCad,Pcbnew,(5.1.9)-1*%
%TF.CreationDate,2021-07-30T23:28:39+09:30*%
%TF.ProjectId,tyre_temp_sense,74797265-5f74-4656-9d70-5f73656e7365,rev?*%
%TF.SameCoordinates,Original*%
%TF.FileFunction,Soldermask,Top*%
%TF.FilePolarity,Negative*%
%FSLAX46Y46*%
G04 Gerber Fmt 4.6, Leading zero omitted, Abs format (unit mm)*
G04 Created by KiCad (PCBNEW (5.1.9)-1) date 2021-07-30 23:28:39*
%MOMM*%
%LPD*%
G01*
G04 APERTURE LIST*
%ADD10O,1.600000X1.600000*%
%ADD11R,1.600000X1.600000*%
%ADD12C,1.500000*%
%ADD13O,1.700000X1.700000*%
%ADD14R,1.700000X1.700000*%
%ADD15C,3.200000*%
%ADD16R,2.000000X2.400000*%
%ADD17O,1.700000X1.950000*%
G04 APERTURE END LIST*
D10*
%TO.C,A1*%
X88392000Y-90678000D03*
X73152000Y-90678000D03*
X88392000Y-55118000D03*
X73152000Y-88138000D03*
X88392000Y-57658000D03*
X73152000Y-85598000D03*
X88392000Y-60198000D03*
X73152000Y-83058000D03*
X88392000Y-62738000D03*
X73152000Y-80518000D03*
X88392000Y-65278000D03*
X73152000Y-77978000D03*
X88392000Y-67818000D03*
X73152000Y-75438000D03*
X88392000Y-70358000D03*
X73152000Y-72898000D03*
X88392000Y-72898000D03*
X73152000Y-70358000D03*
X88392000Y-75438000D03*
X73152000Y-67818000D03*
X88392000Y-77978000D03*
X73152000Y-65278000D03*
X88392000Y-80518000D03*
X73152000Y-62738000D03*
X88392000Y-83058000D03*
X73152000Y-60198000D03*
X88392000Y-85598000D03*
X73152000Y-57658000D03*
X88392000Y-88138000D03*
D11*
X73152000Y-55118000D03*
%TD*%
D12*
%TO.C,TP6*%
X80232000Y-99000000D03*
%TD*%
%TO.C,TP3*%
X108204000Y-43180000D03*
%TD*%
%TO.C,TP4*%
X105664000Y-43180000D03*
%TD*%
%TO.C,TP1*%
X110744000Y-43180000D03*
%TD*%
D13*
%TO.C,J9*%
X97155000Y-101600000D03*
X97155000Y-99060000D03*
X97155000Y-96520000D03*
D14*
X97155000Y-93980000D03*
%TD*%
D13*
%TO.C,J3*%
X93345000Y-101600000D03*
X93345000Y-99060000D03*
X93345000Y-96520000D03*
D14*
X93345000Y-93980000D03*
%TD*%
D13*
%TO.C,J2*%
X100965000Y-101600000D03*
X100965000Y-99060000D03*
X100965000Y-96520000D03*
D14*
X100965000Y-93980000D03*
%TD*%
D15*
%TO.C,REF\u002A\u002A*%
X116000000Y-101000000D03*
%TD*%
%TO.C,REF\u002A\u002A*%
X116000000Y-44000000D03*
%TD*%
%TO.C,REF\u002A\u002A*%
X74000000Y-44000000D03*
%TD*%
%TO.C,REF\u002A\u002A*%
X74000000Y-101000000D03*
%TD*%
D16*
%TO.C,Y1*%
X88572000Y-45836000D03*
X84872000Y-45836000D03*
%TD*%
%TO.C,C2*%
G36*
G01*
X88822000Y-42080000D02*
X88322000Y-42080000D01*
G75*
G02*
X88097000Y-41855000I0J225000D01*
G01*
X88097000Y-41405000D01*
G75*
G02*
X88322000Y-41180000I225000J0D01*
G01*
X88822000Y-41180000D01*
G75*
G02*
X89047000Y-41405000I0J-225000D01*
G01*
X89047000Y-41855000D01*
G75*
G02*
X88822000Y-42080000I-225000J0D01*
G01*
G37*
G36*
G01*
X88822000Y-43630000D02*
X88322000Y-43630000D01*
G75*
G02*
X88097000Y-43405000I0J225000D01*
G01*
X88097000Y-42955000D01*
G75*
G02*
X88322000Y-42730000I225000J0D01*
G01*
X88822000Y-42730000D01*
G75*
G02*
X89047000Y-42955000I0J-225000D01*
G01*
X89047000Y-43405000D01*
G75*
G02*
X88822000Y-43630000I-225000J0D01*
G01*
G37*
%TD*%
%TO.C,U3*%
G36*
G01*
X97500000Y-54125000D02*
X97500000Y-53825000D01*
G75*
G02*
X97650000Y-53675000I150000J0D01*
G01*
X99300000Y-53675000D01*
G75*
G02*
X99450000Y-53825000I0J-150000D01*
G01*
X99450000Y-54125000D01*
G75*
G02*
X99300000Y-54275000I-150000J0D01*
G01*
X97650000Y-54275000D01*
G75*
G02*
X97500000Y-54125000I0J150000D01*
G01*
G37*
G36*
G01*
X97500000Y-55395000D02*
X97500000Y-55095000D01*
G75*
G02*
X97650000Y-54945000I150000J0D01*
G01*
X99300000Y-54945000D01*
G75*
G02*
X99450000Y-55095000I0J-150000D01*
G01*
X99450000Y-55395000D01*
G75*
G02*
X99300000Y-55545000I-150000J0D01*
G01*
X97650000Y-55545000D01*
G75*
G02*
X97500000Y-55395000I0J150000D01*
G01*
G37*
G36*
G01*
X97500000Y-56665000D02*
X97500000Y-56365000D01*
G75*
G02*
X97650000Y-56215000I150000J0D01*
G01*
X99300000Y-56215000D01*
G75*
G02*
X99450000Y-56365000I0J-150000D01*
G01*
X99450000Y-56665000D01*
G75*
G02*
X99300000Y-56815000I-150000J0D01*
G01*
X97650000Y-56815000D01*
G75*
G02*
X97500000Y-56665000I0J150000D01*
G01*
G37*
G36*
G01*
X97500000Y-57935000D02*
X97500000Y-57635000D01*
G75*
G02*
X97650000Y-57485000I150000J0D01*
G01*
X99300000Y-57485000D01*
G75*
G02*
X99450000Y-57635000I0J-150000D01*
G01*
X99450000Y-57935000D01*
G75*
G02*
X99300000Y-58085000I-150000J0D01*
G01*
X97650000Y-58085000D01*
G75*
G02*
X97500000Y-57935000I0J150000D01*
G01*
G37*
G36*
G01*
X92550000Y-57935000D02*
X92550000Y-57635000D01*
G75*
G02*
X92700000Y-57485000I150000J0D01*
G01*
X94350000Y-57485000D01*
G75*
G02*
X94500000Y-57635000I0J-150000D01*
G01*
X94500000Y-57935000D01*
G75*
G02*
X94350000Y-58085000I-150000J0D01*
G01*
X92700000Y-58085000D01*
G75*
G02*
X92550000Y-57935000I0J150000D01*
G01*
G37*
G36*
G01*
X92550000Y-56665000D02*
X92550000Y-56365000D01*
G75*
G02*
X92700000Y-56215000I150000J0D01*
G01*
X94350000Y-56215000D01*
G75*
G02*
X94500000Y-56365000I0J-150000D01*
G01*
X94500000Y-56665000D01*
G75*
G02*
X94350000Y-56815000I-150000J0D01*
G01*
X92700000Y-56815000D01*
G75*
G02*
X92550000Y-56665000I0J150000D01*
G01*
G37*
G36*
G01*
X92550000Y-55395000D02*
X92550000Y-55095000D01*
G75*
G02*
X92700000Y-54945000I150000J0D01*
G01*
X94350000Y-54945000D01*
G75*
G02*
X94500000Y-55095000I0J-150000D01*
G01*
X94500000Y-55395000D01*
G75*
G02*
X94350000Y-55545000I-150000J0D01*
G01*
X92700000Y-55545000D01*
G75*
G02*
X92550000Y-55395000I0J150000D01*
G01*
G37*
G36*
G01*
X92550000Y-54125000D02*
X92550000Y-53825000D01*
G75*
G02*
X92700000Y-53675000I150000J0D01*
G01*
X94350000Y-53675000D01*
G75*
G02*
X94500000Y-53825000I0J-150000D01*
G01*
X94500000Y-54125000D01*
G75*
G02*
X94350000Y-54275000I-150000J0D01*
G01*
X92700000Y-54275000D01*
G75*
G02*
X92550000Y-54125000I0J150000D01*
G01*
G37*
%TD*%
%TO.C,U2*%
G36*
G01*
X92412000Y-44927000D02*
X92412000Y-44727000D01*
G75*
G02*
X92512000Y-44627000I100000J0D01*
G01*
X93787000Y-44627000D01*
G75*
G02*
X93887000Y-44727000I0J-100000D01*
G01*
X93887000Y-44927000D01*
G75*
G02*
X93787000Y-45027000I-100000J0D01*
G01*
X92512000Y-45027000D01*
G75*
G02*
X92412000Y-44927000I0J100000D01*
G01*
G37*
G36*
G01*
X92412000Y-45577000D02*
X92412000Y-45377000D01*
G75*
G02*
X92512000Y-45277000I100000J0D01*
G01*
X93787000Y-45277000D01*
G75*
G02*
X93887000Y-45377000I0J-100000D01*
G01*
X93887000Y-45577000D01*
G75*
G02*
X93787000Y-45677000I-100000J0D01*
G01*
X92512000Y-45677000D01*
G75*
G02*
X92412000Y-45577000I0J100000D01*
G01*
G37*
G36*
G01*
X92412000Y-46227000D02*
X92412000Y-46027000D01*
G75*
G02*
X92512000Y-45927000I100000J0D01*
G01*
X93787000Y-45927000D01*
G75*
G02*
X93887000Y-46027000I0J-100000D01*
G01*
X93887000Y-46227000D01*
G75*
G02*
X93787000Y-46327000I-100000J0D01*
G01*
X92512000Y-46327000D01*
G75*
G02*
X92412000Y-46227000I0J100000D01*
G01*
G37*
G36*
G01*
X92412000Y-46877000D02*
X92412000Y-46677000D01*
G75*
G02*
X92512000Y-46577000I100000J0D01*
G01*
X93787000Y-46577000D01*
G75*
G02*
X93887000Y-46677000I0J-100000D01*
G01*
X93887000Y-46877000D01*
G75*
G02*
X93787000Y-46977000I-100000J0D01*
G01*
X92512000Y-46977000D01*
G75*
G02*
X92412000Y-46877000I0J100000D01*
G01*
G37*
G36*
G01*
X92412000Y-47527000D02*
X92412000Y-47327000D01*
G75*
G02*
X92512000Y-47227000I100000J0D01*
G01*
X93787000Y-47227000D01*
G75*
G02*
X93887000Y-47327000I0J-100000D01*
G01*
X93887000Y-47527000D01*
G75*
G02*
X93787000Y-47627000I-100000J0D01*
G01*
X92512000Y-47627000D01*
G75*
G02*
X92412000Y-47527000I0J100000D01*
G01*
G37*
G36*
G01*
X92412000Y-48177000D02*
X92412000Y-47977000D01*
G75*
G02*
X92512000Y-47877000I100000J0D01*
G01*
X93787000Y-47877000D01*
G75*
G02*
X93887000Y-47977000I0J-100000D01*
G01*
X93887000Y-48177000D01*
G75*
G02*
X93787000Y-48277000I-100000J0D01*
G01*
X92512000Y-48277000D01*
G75*
G02*
X92412000Y-48177000I0J100000D01*
G01*
G37*
G36*
G01*
X92412000Y-48827000D02*
X92412000Y-48627000D01*
G75*
G02*
X92512000Y-48527000I100000J0D01*
G01*
X93787000Y-48527000D01*
G75*
G02*
X93887000Y-48627000I0J-100000D01*
G01*
X93887000Y-48827000D01*
G75*
G02*
X93787000Y-48927000I-100000J0D01*
G01*
X92512000Y-48927000D01*
G75*
G02*
X92412000Y-48827000I0J100000D01*
G01*
G37*
G36*
G01*
X92412000Y-49477000D02*
X92412000Y-49277000D01*
G75*
G02*
X92512000Y-49177000I100000J0D01*
G01*
X93787000Y-49177000D01*
G75*
G02*
X93887000Y-49277000I0J-100000D01*
G01*
X93887000Y-49477000D01*
G75*
G02*
X93787000Y-49577000I-100000J0D01*
G01*
X92512000Y-49577000D01*
G75*
G02*
X92412000Y-49477000I0J100000D01*
G01*
G37*
G36*
G01*
X92412000Y-50127000D02*
X92412000Y-49927000D01*
G75*
G02*
X92512000Y-49827000I100000J0D01*
G01*
X93787000Y-49827000D01*
G75*
G02*
X93887000Y-49927000I0J-100000D01*
G01*
X93887000Y-50127000D01*
G75*
G02*
X93787000Y-50227000I-100000J0D01*
G01*
X92512000Y-50227000D01*
G75*
G02*
X92412000Y-50127000I0J100000D01*
G01*
G37*
G36*
G01*
X92412000Y-50777000D02*
X92412000Y-50577000D01*
G75*
G02*
X92512000Y-50477000I100000J0D01*
G01*
X93787000Y-50477000D01*
G75*
G02*
X93887000Y-50577000I0J-100000D01*
G01*
X93887000Y-50777000D01*
G75*
G02*
X93787000Y-50877000I-100000J0D01*
G01*
X92512000Y-50877000D01*
G75*
G02*
X92412000Y-50777000I0J100000D01*
G01*
G37*
G36*
G01*
X98137000Y-50777000D02*
X98137000Y-50577000D01*
G75*
G02*
X98237000Y-50477000I100000J0D01*
G01*
X99512000Y-50477000D01*
G75*
G02*
X99612000Y-50577000I0J-100000D01*
G01*
X99612000Y-50777000D01*
G75*
G02*
X99512000Y-50877000I-100000J0D01*
G01*
X98237000Y-50877000D01*
G75*
G02*
X98137000Y-50777000I0J100000D01*
G01*
G37*
G36*
G01*
X98137000Y-50127000D02*
X98137000Y-49927000D01*
G75*
G02*
X98237000Y-49827000I100000J0D01*
G01*
X99512000Y-49827000D01*
G75*
G02*
X99612000Y-49927000I0J-100000D01*
G01*
X99612000Y-50127000D01*
G75*
G02*
X99512000Y-50227000I-100000J0D01*
G01*
X98237000Y-50227000D01*
G75*
G02*
X98137000Y-50127000I0J100000D01*
G01*
G37*
G36*
G01*
X98137000Y-49477000D02*
X98137000Y-49277000D01*
G75*
G02*
X98237000Y-49177000I100000J0D01*
G01*
X99512000Y-49177000D01*
G75*
G02*
X99612000Y-49277000I0J-100000D01*
G01*
X99612000Y-49477000D01*
G75*
G02*
X99512000Y-49577000I-100000J0D01*
G01*
X98237000Y-49577000D01*
G75*
G02*
X98137000Y-49477000I0J100000D01*
G01*
G37*
G36*
G01*
X98137000Y-48827000D02*
X98137000Y-48627000D01*
G75*
G02*
X98237000Y-48527000I100000J0D01*
G01*
X99512000Y-48527000D01*
G75*
G02*
X99612000Y-48627000I0J-100000D01*
G01*
X99612000Y-48827000D01*
G75*
G02*
X99512000Y-48927000I-100000J0D01*
G01*
X98237000Y-48927000D01*
G75*
G02*
X98137000Y-48827000I0J100000D01*
G01*
G37*
G36*
G01*
X98137000Y-48177000D02*
X98137000Y-47977000D01*
G75*
G02*
X98237000Y-47877000I100000J0D01*
G01*
X99512000Y-47877000D01*
G75*
G02*
X99612000Y-47977000I0J-100000D01*
G01*
X99612000Y-48177000D01*
G75*
G02*
X99512000Y-48277000I-100000J0D01*
G01*
X98237000Y-48277000D01*
G75*
G02*
X98137000Y-48177000I0J100000D01*
G01*
G37*
G36*
G01*
X98137000Y-47527000D02*
X98137000Y-47327000D01*
G75*
G02*
X98237000Y-47227000I100000J0D01*
G01*
X99512000Y-47227000D01*
G75*
G02*
X99612000Y-47327000I0J-100000D01*
G01*
X99612000Y-47527000D01*
G75*
G02*
X99512000Y-47627000I-100000J0D01*
G01*
X98237000Y-47627000D01*
G75*
G02*
X98137000Y-47527000I0J100000D01*
G01*
G37*
G36*
G01*
X98137000Y-46877000D02*
X98137000Y-46677000D01*
G75*
G02*
X98237000Y-46577000I100000J0D01*
G01*
X99512000Y-46577000D01*
G75*
G02*
X99612000Y-46677000I0J-100000D01*
G01*
X99612000Y-46877000D01*
G75*
G02*
X99512000Y-46977000I-100000J0D01*
G01*
X98237000Y-46977000D01*
G75*
G02*
X98137000Y-46877000I0J100000D01*
G01*
G37*
G36*
G01*
X98137000Y-46227000D02*
X98137000Y-46027000D01*
G75*
G02*
X98237000Y-45927000I100000J0D01*
G01*
X99512000Y-45927000D01*
G75*
G02*
X99612000Y-46027000I0J-100000D01*
G01*
X99612000Y-46227000D01*
G75*
G02*
X99512000Y-46327000I-100000J0D01*
G01*
X98237000Y-46327000D01*
G75*
G02*
X98137000Y-46227000I0J100000D01*
G01*
G37*
G36*
G01*
X98137000Y-45577000D02*
X98137000Y-45377000D01*
G75*
G02*
X98237000Y-45277000I100000J0D01*
G01*
X99512000Y-45277000D01*
G75*
G02*
X99612000Y-45377000I0J-100000D01*
G01*
X99612000Y-45577000D01*
G75*
G02*
X99512000Y-45677000I-100000J0D01*
G01*
X98237000Y-45677000D01*
G75*
G02*
X98137000Y-45577000I0J100000D01*
G01*
G37*
G36*
G01*
X98137000Y-44927000D02*
X98137000Y-44727000D01*
G75*
G02*
X98237000Y-44627000I100000J0D01*
G01*
X99512000Y-44627000D01*
G75*
G02*
X99612000Y-44727000I0J-100000D01*
G01*
X99612000Y-44927000D01*
G75*
G02*
X99512000Y-45027000I-100000J0D01*
G01*
X98237000Y-45027000D01*
G75*
G02*
X98137000Y-44927000I0J100000D01*
G01*
G37*
%TD*%
%TO.C,U1*%
G36*
G01*
X93875000Y-72694000D02*
X93875000Y-72894000D01*
G75*
G02*
X93775000Y-72994000I-100000J0D01*
G01*
X92500000Y-72994000D01*
G75*
G02*
X92400000Y-72894000I0J100000D01*
G01*
X92400000Y-72694000D01*
G75*
G02*
X92500000Y-72594000I100000J0D01*
G01*
X93775000Y-72594000D01*
G75*
G02*
X93875000Y-72694000I0J-100000D01*
G01*
G37*
G36*
G01*
X93875000Y-72044000D02*
X93875000Y-72244000D01*
G75*
G02*
X93775000Y-72344000I-100000J0D01*
G01*
X92500000Y-72344000D01*
G75*
G02*
X92400000Y-72244000I0J100000D01*
G01*
X92400000Y-72044000D01*
G75*
G02*
X92500000Y-71944000I100000J0D01*
G01*
X93775000Y-71944000D01*
G75*
G02*
X93875000Y-72044000I0J-100000D01*
G01*
G37*
G36*
G01*
X93875000Y-71394000D02*
X93875000Y-71594000D01*
G75*
G02*
X93775000Y-71694000I-100000J0D01*
G01*
X92500000Y-71694000D01*
G75*
G02*
X92400000Y-71594000I0J100000D01*
G01*
X92400000Y-71394000D01*
G75*
G02*
X92500000Y-71294000I100000J0D01*
G01*
X93775000Y-71294000D01*
G75*
G02*
X93875000Y-71394000I0J-100000D01*
G01*
G37*
G36*
G01*
X93875000Y-70744000D02*
X93875000Y-70944000D01*
G75*
G02*
X93775000Y-71044000I-100000J0D01*
G01*
X92500000Y-71044000D01*
G75*
G02*
X92400000Y-70944000I0J100000D01*
G01*
X92400000Y-70744000D01*
G75*
G02*
X92500000Y-70644000I100000J0D01*
G01*
X93775000Y-70644000D01*
G75*
G02*
X93875000Y-70744000I0J-100000D01*
G01*
G37*
G36*
G01*
X93875000Y-70094000D02*
X93875000Y-70294000D01*
G75*
G02*
X93775000Y-70394000I-100000J0D01*
G01*
X92500000Y-70394000D01*
G75*
G02*
X92400000Y-70294000I0J100000D01*
G01*
X92400000Y-70094000D01*
G75*
G02*
X92500000Y-69994000I100000J0D01*
G01*
X93775000Y-69994000D01*
G75*
G02*
X93875000Y-70094000I0J-100000D01*
G01*
G37*
G36*
G01*
X93875000Y-69444000D02*
X93875000Y-69644000D01*
G75*
G02*
X93775000Y-69744000I-100000J0D01*
G01*
X92500000Y-69744000D01*
G75*
G02*
X92400000Y-69644000I0J100000D01*
G01*
X92400000Y-69444000D01*
G75*
G02*
X92500000Y-69344000I100000J0D01*
G01*
X93775000Y-69344000D01*
G75*
G02*
X93875000Y-69444000I0J-100000D01*
G01*
G37*
G36*
G01*
X93875000Y-68794000D02*
X93875000Y-68994000D01*
G75*
G02*
X93775000Y-69094000I-100000J0D01*
G01*
X92500000Y-69094000D01*
G75*
G02*
X92400000Y-68994000I0J100000D01*
G01*
X92400000Y-68794000D01*
G75*
G02*
X92500000Y-68694000I100000J0D01*
G01*
X93775000Y-68694000D01*
G75*
G02*
X93875000Y-68794000I0J-100000D01*
G01*
G37*
G36*
G01*
X93875000Y-68144000D02*
X93875000Y-68344000D01*
G75*
G02*
X93775000Y-68444000I-100000J0D01*
G01*
X92500000Y-68444000D01*
G75*
G02*
X92400000Y-68344000I0J100000D01*
G01*
X92400000Y-68144000D01*
G75*
G02*
X92500000Y-68044000I100000J0D01*
G01*
X93775000Y-68044000D01*
G75*
G02*
X93875000Y-68144000I0J-100000D01*
G01*
G37*
G36*
G01*
X93875000Y-67494000D02*
X93875000Y-67694000D01*
G75*
G02*
X93775000Y-67794000I-100000J0D01*
G01*
X92500000Y-67794000D01*
G75*
G02*
X92400000Y-67694000I0J100000D01*
G01*
X92400000Y-67494000D01*
G75*
G02*
X92500000Y-67394000I100000J0D01*
G01*
X93775000Y-67394000D01*
G75*
G02*
X93875000Y-67494000I0J-100000D01*
G01*
G37*
G36*
G01*
X93875000Y-66844000D02*
X93875000Y-67044000D01*
G75*
G02*
X93775000Y-67144000I-100000J0D01*
G01*
X92500000Y-67144000D01*
G75*
G02*
X92400000Y-67044000I0J100000D01*
G01*
X92400000Y-66844000D01*
G75*
G02*
X92500000Y-66744000I100000J0D01*
G01*
X93775000Y-66744000D01*
G75*
G02*
X93875000Y-66844000I0J-100000D01*
G01*
G37*
G36*
G01*
X93875000Y-66194000D02*
X93875000Y-66394000D01*
G75*
G02*
X93775000Y-66494000I-100000J0D01*
G01*
X92500000Y-66494000D01*
G75*
G02*
X92400000Y-66394000I0J100000D01*
G01*
X92400000Y-66194000D01*
G75*
G02*
X92500000Y-66094000I100000J0D01*
G01*
X93775000Y-66094000D01*
G75*
G02*
X93875000Y-66194000I0J-100000D01*
G01*
G37*
G36*
G01*
X93875000Y-65544000D02*
X93875000Y-65744000D01*
G75*
G02*
X93775000Y-65844000I-100000J0D01*
G01*
X92500000Y-65844000D01*
G75*
G02*
X92400000Y-65744000I0J100000D01*
G01*
X92400000Y-65544000D01*
G75*
G02*
X92500000Y-65444000I100000J0D01*
G01*
X93775000Y-65444000D01*
G75*
G02*
X93875000Y-65544000I0J-100000D01*
G01*
G37*
G36*
G01*
X99600000Y-65544000D02*
X99600000Y-65744000D01*
G75*
G02*
X99500000Y-65844000I-100000J0D01*
G01*
X98225000Y-65844000D01*
G75*
G02*
X98125000Y-65744000I0J100000D01*
G01*
X98125000Y-65544000D01*
G75*
G02*
X98225000Y-65444000I100000J0D01*
G01*
X99500000Y-65444000D01*
G75*
G02*
X99600000Y-65544000I0J-100000D01*
G01*
G37*
G36*
G01*
X99600000Y-66194000D02*
X99600000Y-66394000D01*
G75*
G02*
X99500000Y-66494000I-100000J0D01*
G01*
X98225000Y-66494000D01*
G75*
G02*
X98125000Y-66394000I0J100000D01*
G01*
X98125000Y-66194000D01*
G75*
G02*
X98225000Y-66094000I100000J0D01*
G01*
X99500000Y-66094000D01*
G75*
G02*
X99600000Y-66194000I0J-100000D01*
G01*
G37*
G36*
G01*
X99600000Y-66844000D02*
X99600000Y-67044000D01*
G75*
G02*
X99500000Y-67144000I-100000J0D01*
G01*
X98225000Y-67144000D01*
G75*
G02*
X98125000Y-67044000I0J100000D01*
G01*
X98125000Y-66844000D01*
G75*
G02*
X98225000Y-66744000I100000J0D01*
G01*
X99500000Y-66744000D01*
G75*
G02*
X99600000Y-66844000I0J-100000D01*
G01*
G37*
G36*
G01*
X99600000Y-67494000D02*
X99600000Y-67694000D01*
G75*
G02*
X99500000Y-67794000I-100000J0D01*
G01*
X98225000Y-67794000D01*
G75*
G02*
X98125000Y-67694000I0J100000D01*
G01*
X98125000Y-67494000D01*
G75*
G02*
X98225000Y-67394000I100000J0D01*
G01*
X99500000Y-67394000D01*
G75*
G02*
X99600000Y-67494000I0J-100000D01*
G01*
G37*
G36*
G01*
X99600000Y-68144000D02*
X99600000Y-68344000D01*
G75*
G02*
X99500000Y-68444000I-100000J0D01*
G01*
X98225000Y-68444000D01*
G75*
G02*
X98125000Y-68344000I0J100000D01*
G01*
X98125000Y-68144000D01*
G75*
G02*
X98225000Y-68044000I100000J0D01*
G01*
X99500000Y-68044000D01*
G75*
G02*
X99600000Y-68144000I0J-100000D01*
G01*
G37*
G36*
G01*
X99600000Y-68794000D02*
X99600000Y-68994000D01*
G75*
G02*
X99500000Y-69094000I-100000J0D01*
G01*
X98225000Y-69094000D01*
G75*
G02*
X98125000Y-68994000I0J100000D01*
G01*
X98125000Y-68794000D01*
G75*
G02*
X98225000Y-68694000I100000J0D01*
G01*
X99500000Y-68694000D01*
G75*
G02*
X99600000Y-68794000I0J-100000D01*
G01*
G37*
G36*
G01*
X99600000Y-69444000D02*
X99600000Y-69644000D01*
G75*
G02*
X99500000Y-69744000I-100000J0D01*
G01*
X98225000Y-69744000D01*
G75*
G02*
X98125000Y-69644000I0J100000D01*
G01*
X98125000Y-69444000D01*
G75*
G02*
X98225000Y-69344000I100000J0D01*
G01*
X99500000Y-69344000D01*
G75*
G02*
X99600000Y-69444000I0J-100000D01*
G01*
G37*
G36*
G01*
X99600000Y-70094000D02*
X99600000Y-70294000D01*
G75*
G02*
X99500000Y-70394000I-100000J0D01*
G01*
X98225000Y-70394000D01*
G75*
G02*
X98125000Y-70294000I0J100000D01*
G01*
X98125000Y-70094000D01*
G75*
G02*
X98225000Y-69994000I100000J0D01*
G01*
X99500000Y-69994000D01*
G75*
G02*
X99600000Y-70094000I0J-100000D01*
G01*
G37*
G36*
G01*
X99600000Y-70744000D02*
X99600000Y-70944000D01*
G75*
G02*
X99500000Y-71044000I-100000J0D01*
G01*
X98225000Y-71044000D01*
G75*
G02*
X98125000Y-70944000I0J100000D01*
G01*
X98125000Y-70744000D01*
G75*
G02*
X98225000Y-70644000I100000J0D01*
G01*
X99500000Y-70644000D01*
G75*
G02*
X99600000Y-70744000I0J-100000D01*
G01*
G37*
G36*
G01*
X99600000Y-71394000D02*
X99600000Y-71594000D01*
G75*
G02*
X99500000Y-71694000I-100000J0D01*
G01*
X98225000Y-71694000D01*
G75*
G02*
X98125000Y-71594000I0J100000D01*
G01*
X98125000Y-71394000D01*
G75*
G02*
X98225000Y-71294000I100000J0D01*
G01*
X99500000Y-71294000D01*
G75*
G02*
X99600000Y-71394000I0J-100000D01*
G01*
G37*
G36*
G01*
X99600000Y-72044000D02*
X99600000Y-72244000D01*
G75*
G02*
X99500000Y-72344000I-100000J0D01*
G01*
X98225000Y-72344000D01*
G75*
G02*
X98125000Y-72244000I0J100000D01*
G01*
X98125000Y-72044000D01*
G75*
G02*
X98225000Y-71944000I100000J0D01*
G01*
X99500000Y-71944000D01*
G75*
G02*
X99600000Y-72044000I0J-100000D01*
G01*
G37*
G36*
G01*
X99600000Y-72694000D02*
X99600000Y-72894000D01*
G75*
G02*
X99500000Y-72994000I-100000J0D01*
G01*
X98225000Y-72994000D01*
G75*
G02*
X98125000Y-72894000I0J100000D01*
G01*
X98125000Y-72694000D01*
G75*
G02*
X98225000Y-72594000I100000J0D01*
G01*
X99500000Y-72594000D01*
G75*
G02*
X99600000Y-72694000I0J-100000D01*
G01*
G37*
%TD*%
D12*
%TO.C,TP9*%
X76200000Y-49784000D03*
%TD*%
%TO.C,TP8*%
X78740000Y-49784000D03*
%TD*%
%TO.C,TP7*%
X85312000Y-99000000D03*
%TD*%
%TO.C,TP5*%
X82772000Y-99000000D03*
%TD*%
%TO.C,TP2*%
X103124000Y-43180000D03*
%TD*%
%TO.C,R14*%
G36*
G01*
X109749000Y-56154000D02*
X109199000Y-56154000D01*
G75*
G02*
X108999000Y-55954000I0J200000D01*
G01*
X108999000Y-55554000D01*
G75*
G02*
X109199000Y-55354000I200000J0D01*
G01*
X109749000Y-55354000D01*
G75*
G02*
X109949000Y-55554000I0J-200000D01*
G01*
X109949000Y-55954000D01*
G75*
G02*
X109749000Y-56154000I-200000J0D01*
G01*
G37*
G36*
G01*
X109749000Y-57804000D02*
X109199000Y-57804000D01*
G75*
G02*
X108999000Y-57604000I0J200000D01*
G01*
X108999000Y-57204000D01*
G75*
G02*
X109199000Y-57004000I200000J0D01*
G01*
X109749000Y-57004000D01*
G75*
G02*
X109949000Y-57204000I0J-200000D01*
G01*
X109949000Y-57604000D01*
G75*
G02*
X109749000Y-57804000I-200000J0D01*
G01*
G37*
%TD*%
%TO.C,R13*%
G36*
G01*
X101367000Y-52407000D02*
X100817000Y-52407000D01*
G75*
G02*
X100617000Y-52207000I0J200000D01*
G01*
X100617000Y-51807000D01*
G75*
G02*
X100817000Y-51607000I200000J0D01*
G01*
X101367000Y-51607000D01*
G75*
G02*
X101567000Y-51807000I0J-200000D01*
G01*
X101567000Y-52207000D01*
G75*
G02*
X101367000Y-52407000I-200000J0D01*
G01*
G37*
G36*
G01*
X101367000Y-54057000D02*
X100817000Y-54057000D01*
G75*
G02*
X100617000Y-53857000I0J200000D01*
G01*
X100617000Y-53457000D01*
G75*
G02*
X100817000Y-53257000I200000J0D01*
G01*
X101367000Y-53257000D01*
G75*
G02*
X101567000Y-53457000I0J-200000D01*
G01*
X101567000Y-53857000D01*
G75*
G02*
X101367000Y-54057000I-200000J0D01*
G01*
G37*
%TD*%
%TO.C,R12*%
G36*
G01*
X94213000Y-42970000D02*
X94763000Y-42970000D01*
G75*
G02*
X94963000Y-43170000I0J-200000D01*
G01*
X94963000Y-43570000D01*
G75*
G02*
X94763000Y-43770000I-200000J0D01*
G01*
X94213000Y-43770000D01*
G75*
G02*
X94013000Y-43570000I0J200000D01*
G01*
X94013000Y-43170000D01*
G75*
G02*
X94213000Y-42970000I200000J0D01*
G01*
G37*
G36*
G01*
X94213000Y-41320000D02*
X94763000Y-41320000D01*
G75*
G02*
X94963000Y-41520000I0J-200000D01*
G01*
X94963000Y-41920000D01*
G75*
G02*
X94763000Y-42120000I-200000J0D01*
G01*
X94213000Y-42120000D01*
G75*
G02*
X94013000Y-41920000I0J200000D01*
G01*
X94013000Y-41520000D01*
G75*
G02*
X94213000Y-41320000I200000J0D01*
G01*
G37*
%TD*%
%TO.C,R11*%
G36*
G01*
X107970000Y-68305000D02*
X107970000Y-68855000D01*
G75*
G02*
X107770000Y-69055000I-200000J0D01*
G01*
X107370000Y-69055000D01*
G75*
G02*
X107170000Y-68855000I0J200000D01*
G01*
X107170000Y-68305000D01*
G75*
G02*
X107370000Y-68105000I200000J0D01*
G01*
X107770000Y-68105000D01*
G75*
G02*
X107970000Y-68305000I0J-200000D01*
G01*
G37*
G36*
G01*
X109620000Y-68305000D02*
X109620000Y-68855000D01*
G75*
G02*
X109420000Y-69055000I-200000J0D01*
G01*
X109020000Y-69055000D01*
G75*
G02*
X108820000Y-68855000I0J200000D01*
G01*
X108820000Y-68305000D01*
G75*
G02*
X109020000Y-68105000I200000J0D01*
G01*
X109420000Y-68105000D01*
G75*
G02*
X109620000Y-68305000I0J-200000D01*
G01*
G37*
%TD*%
%TO.C,R10*%
G36*
G01*
X112185000Y-68855000D02*
X112185000Y-68305000D01*
G75*
G02*
X112385000Y-68105000I200000J0D01*
G01*
X112785000Y-68105000D01*
G75*
G02*
X112985000Y-68305000I0J-200000D01*
G01*
X112985000Y-68855000D01*
G75*
G02*
X112785000Y-69055000I-200000J0D01*
G01*
X112385000Y-69055000D01*
G75*
G02*
X112185000Y-68855000I0J200000D01*
G01*
G37*
G36*
G01*
X110535000Y-68855000D02*
X110535000Y-68305000D01*
G75*
G02*
X110735000Y-68105000I200000J0D01*
G01*
X111135000Y-68105000D01*
G75*
G02*
X111335000Y-68305000I0J-200000D01*
G01*
X111335000Y-68855000D01*
G75*
G02*
X111135000Y-69055000I-200000J0D01*
G01*
X110735000Y-69055000D01*
G75*
G02*
X110535000Y-68855000I0J200000D01*
G01*
G37*
%TD*%
%TO.C,R9*%
G36*
G01*
X107970000Y-77957000D02*
X107970000Y-78507000D01*
G75*
G02*
X107770000Y-78707000I-200000J0D01*
G01*
X107370000Y-78707000D01*
G75*
G02*
X107170000Y-78507000I0J200000D01*
G01*
X107170000Y-77957000D01*
G75*
G02*
X107370000Y-77757000I200000J0D01*
G01*
X107770000Y-77757000D01*
G75*
G02*
X107970000Y-77957000I0J-200000D01*
G01*
G37*
G36*
G01*
X109620000Y-77957000D02*
X109620000Y-78507000D01*
G75*
G02*
X109420000Y-78707000I-200000J0D01*
G01*
X109020000Y-78707000D01*
G75*
G02*
X108820000Y-78507000I0J200000D01*
G01*
X108820000Y-77957000D01*
G75*
G02*
X109020000Y-77757000I200000J0D01*
G01*
X109420000Y-77757000D01*
G75*
G02*
X109620000Y-77957000I0J-200000D01*
G01*
G37*
%TD*%
%TO.C,R8*%
G36*
G01*
X112185000Y-78507000D02*
X112185000Y-77957000D01*
G75*
G02*
X112385000Y-77757000I200000J0D01*
G01*
X112785000Y-77757000D01*
G75*
G02*
X112985000Y-77957000I0J-200000D01*
G01*
X112985000Y-78507000D01*
G75*
G02*
X112785000Y-78707000I-200000J0D01*
G01*
X112385000Y-78707000D01*
G75*
G02*
X112185000Y-78507000I0J200000D01*
G01*
G37*
G36*
G01*
X110535000Y-78507000D02*
X110535000Y-77957000D01*
G75*
G02*
X110735000Y-77757000I200000J0D01*
G01*
X111135000Y-77757000D01*
G75*
G02*
X111335000Y-77957000I0J-200000D01*
G01*
X111335000Y-78507000D01*
G75*
G02*
X111135000Y-78707000I-200000J0D01*
G01*
X110735000Y-78707000D01*
G75*
G02*
X110535000Y-78507000I0J200000D01*
G01*
G37*
%TD*%
%TO.C,R7*%
G36*
G01*
X107970000Y-87609000D02*
X107970000Y-88159000D01*
G75*
G02*
X107770000Y-88359000I-200000J0D01*
G01*
X107370000Y-88359000D01*
G75*
G02*
X107170000Y-88159000I0J200000D01*
G01*
X107170000Y-87609000D01*
G75*
G02*
X107370000Y-87409000I200000J0D01*
G01*
X107770000Y-87409000D01*
G75*
G02*
X107970000Y-87609000I0J-200000D01*
G01*
G37*
G36*
G01*
X109620000Y-87609000D02*
X109620000Y-88159000D01*
G75*
G02*
X109420000Y-88359000I-200000J0D01*
G01*
X109020000Y-88359000D01*
G75*
G02*
X108820000Y-88159000I0J200000D01*
G01*
X108820000Y-87609000D01*
G75*
G02*
X109020000Y-87409000I200000J0D01*
G01*
X109420000Y-87409000D01*
G75*
G02*
X109620000Y-87609000I0J-200000D01*
G01*
G37*
%TD*%
%TO.C,R6*%
G36*
G01*
X112185000Y-88159000D02*
X112185000Y-87609000D01*
G75*
G02*
X112385000Y-87409000I200000J0D01*
G01*
X112785000Y-87409000D01*
G75*
G02*
X112985000Y-87609000I0J-200000D01*
G01*
X112985000Y-88159000D01*
G75*
G02*
X112785000Y-88359000I-200000J0D01*
G01*
X112385000Y-88359000D01*
G75*
G02*
X112185000Y-88159000I0J200000D01*
G01*
G37*
G36*
G01*
X110535000Y-88159000D02*
X110535000Y-87609000D01*
G75*
G02*
X110735000Y-87409000I200000J0D01*
G01*
X111135000Y-87409000D01*
G75*
G02*
X111335000Y-87609000I0J-200000D01*
G01*
X111335000Y-88159000D01*
G75*
G02*
X111135000Y-88359000I-200000J0D01*
G01*
X110735000Y-88359000D01*
G75*
G02*
X110535000Y-88159000I0J200000D01*
G01*
G37*
%TD*%
%TO.C,R5*%
G36*
G01*
X107970000Y-97261000D02*
X107970000Y-97811000D01*
G75*
G02*
X107770000Y-98011000I-200000J0D01*
G01*
X107370000Y-98011000D01*
G75*
G02*
X107170000Y-97811000I0J200000D01*
G01*
X107170000Y-97261000D01*
G75*
G02*
X107370000Y-97061000I200000J0D01*
G01*
X107770000Y-97061000D01*
G75*
G02*
X107970000Y-97261000I0J-200000D01*
G01*
G37*
G36*
G01*
X109620000Y-97261000D02*
X109620000Y-97811000D01*
G75*
G02*
X109420000Y-98011000I-200000J0D01*
G01*
X109020000Y-98011000D01*
G75*
G02*
X108820000Y-97811000I0J200000D01*
G01*
X108820000Y-97261000D01*
G75*
G02*
X109020000Y-97061000I200000J0D01*
G01*
X109420000Y-97061000D01*
G75*
G02*
X109620000Y-97261000I0J-200000D01*
G01*
G37*
%TD*%
%TO.C,R4*%
G36*
G01*
X111994000Y-97811000D02*
X111994000Y-97261000D01*
G75*
G02*
X112194000Y-97061000I200000J0D01*
G01*
X112594000Y-97061000D01*
G75*
G02*
X112794000Y-97261000I0J-200000D01*
G01*
X112794000Y-97811000D01*
G75*
G02*
X112594000Y-98011000I-200000J0D01*
G01*
X112194000Y-98011000D01*
G75*
G02*
X111994000Y-97811000I0J200000D01*
G01*
G37*
G36*
G01*
X110344000Y-97811000D02*
X110344000Y-97261000D01*
G75*
G02*
X110544000Y-97061000I200000J0D01*
G01*
X110944000Y-97061000D01*
G75*
G02*
X111144000Y-97261000I0J-200000D01*
G01*
X111144000Y-97811000D01*
G75*
G02*
X110944000Y-98011000I-200000J0D01*
G01*
X110544000Y-98011000D01*
G75*
G02*
X110344000Y-97811000I0J200000D01*
G01*
G37*
%TD*%
%TO.C,R3*%
G36*
G01*
X95017000Y-75076000D02*
X94467000Y-75076000D01*
G75*
G02*
X94267000Y-74876000I0J200000D01*
G01*
X94267000Y-74476000D01*
G75*
G02*
X94467000Y-74276000I200000J0D01*
G01*
X95017000Y-74276000D01*
G75*
G02*
X95217000Y-74476000I0J-200000D01*
G01*
X95217000Y-74876000D01*
G75*
G02*
X95017000Y-75076000I-200000J0D01*
G01*
G37*
G36*
G01*
X95017000Y-76726000D02*
X94467000Y-76726000D01*
G75*
G02*
X94267000Y-76526000I0J200000D01*
G01*
X94267000Y-76126000D01*
G75*
G02*
X94467000Y-75926000I200000J0D01*
G01*
X95017000Y-75926000D01*
G75*
G02*
X95217000Y-76126000I0J-200000D01*
G01*
X95217000Y-76526000D01*
G75*
G02*
X95017000Y-76726000I-200000J0D01*
G01*
G37*
%TD*%
%TO.C,R2*%
G36*
G01*
X96922000Y-75076000D02*
X96372000Y-75076000D01*
G75*
G02*
X96172000Y-74876000I0J200000D01*
G01*
X96172000Y-74476000D01*
G75*
G02*
X96372000Y-74276000I200000J0D01*
G01*
X96922000Y-74276000D01*
G75*
G02*
X97122000Y-74476000I0J-200000D01*
G01*
X97122000Y-74876000D01*
G75*
G02*
X96922000Y-75076000I-200000J0D01*
G01*
G37*
G36*
G01*
X96922000Y-76726000D02*
X96372000Y-76726000D01*
G75*
G02*
X96172000Y-76526000I0J200000D01*
G01*
X96172000Y-76126000D01*
G75*
G02*
X96372000Y-75926000I200000J0D01*
G01*
X96922000Y-75926000D01*
G75*
G02*
X97122000Y-76126000I0J-200000D01*
G01*
X97122000Y-76526000D01*
G75*
G02*
X96922000Y-76726000I-200000J0D01*
G01*
G37*
%TD*%
%TO.C,R1*%
G36*
G01*
X98827000Y-75076000D02*
X98277000Y-75076000D01*
G75*
G02*
X98077000Y-74876000I0J200000D01*
G01*
X98077000Y-74476000D01*
G75*
G02*
X98277000Y-74276000I200000J0D01*
G01*
X98827000Y-74276000D01*
G75*
G02*
X99027000Y-74476000I0J-200000D01*
G01*
X99027000Y-74876000D01*
G75*
G02*
X98827000Y-75076000I-200000J0D01*
G01*
G37*
G36*
G01*
X98827000Y-76726000D02*
X98277000Y-76726000D01*
G75*
G02*
X98077000Y-76526000I0J200000D01*
G01*
X98077000Y-76126000D01*
G75*
G02*
X98277000Y-75926000I200000J0D01*
G01*
X98827000Y-75926000D01*
G75*
G02*
X99027000Y-76126000I0J-200000D01*
G01*
X99027000Y-76526000D01*
G75*
G02*
X98827000Y-76726000I-200000J0D01*
G01*
G37*
%TD*%
D13*
%TO.C,J8*%
X114808000Y-56896000D03*
D14*
X112268000Y-56896000D03*
%TD*%
D17*
%TO.C,J7*%
X114180000Y-63500000D03*
X111680000Y-63500000D03*
X109180000Y-63500000D03*
G36*
G01*
X105830000Y-64225000D02*
X105830000Y-62775000D01*
G75*
G02*
X106080000Y-62525000I250000J0D01*
G01*
X107280000Y-62525000D01*
G75*
G02*
X107530000Y-62775000I0J-250000D01*
G01*
X107530000Y-64225000D01*
G75*
G02*
X107280000Y-64475000I-250000J0D01*
G01*
X106080000Y-64475000D01*
G75*
G02*
X105830000Y-64225000I0J250000D01*
G01*
G37*
%TD*%
%TO.C,J6*%
X114180000Y-73152000D03*
X111680000Y-73152000D03*
X109180000Y-73152000D03*
G36*
G01*
X105830000Y-73877000D02*
X105830000Y-72427000D01*
G75*
G02*
X106080000Y-72177000I250000J0D01*
G01*
X107280000Y-72177000D01*
G75*
G02*
X107530000Y-72427000I0J-250000D01*
G01*
X107530000Y-73877000D01*
G75*
G02*
X107280000Y-74127000I-250000J0D01*
G01*
X106080000Y-74127000D01*
G75*
G02*
X105830000Y-73877000I0J250000D01*
G01*
G37*
%TD*%
%TO.C,J5*%
X114180000Y-82804000D03*
X111680000Y-82804000D03*
X109180000Y-82804000D03*
G36*
G01*
X105830000Y-83529000D02*
X105830000Y-82079000D01*
G75*
G02*
X106080000Y-81829000I250000J0D01*
G01*
X107280000Y-81829000D01*
G75*
G02*
X107530000Y-82079000I0J-250000D01*
G01*
X107530000Y-83529000D01*
G75*
G02*
X107280000Y-83779000I-250000J0D01*
G01*
X106080000Y-83779000D01*
G75*
G02*
X105830000Y-83529000I0J250000D01*
G01*
G37*
%TD*%
%TO.C,J4*%
X114180000Y-92456000D03*
X111680000Y-92456000D03*
X109180000Y-92456000D03*
G36*
G01*
X105830000Y-93181000D02*
X105830000Y-91731000D01*
G75*
G02*
X106080000Y-91481000I250000J0D01*
G01*
X107280000Y-91481000D01*
G75*
G02*
X107530000Y-91731000I0J-250000D01*
G01*
X107530000Y-93181000D01*
G75*
G02*
X107280000Y-93431000I-250000J0D01*
G01*
X106080000Y-93431000D01*
G75*
G02*
X105830000Y-93181000I0J250000D01*
G01*
G37*
%TD*%
%TO.C,J1*%
X114180000Y-50800000D03*
X111680000Y-50800000D03*
X109180000Y-50800000D03*
G36*
G01*
X105830000Y-51525000D02*
X105830000Y-50075000D01*
G75*
G02*
X106080000Y-49825000I250000J0D01*
G01*
X107280000Y-49825000D01*
G75*
G02*
X107530000Y-50075000I0J-250000D01*
G01*
X107530000Y-51525000D01*
G75*
G02*
X107280000Y-51775000I-250000J0D01*
G01*
X106080000Y-51775000D01*
G75*
G02*
X105830000Y-51525000I0J250000D01*
G01*
G37*
%TD*%
%TO.C,C4*%
G36*
G01*
X97278000Y-42220000D02*
X96778000Y-42220000D01*
G75*
G02*
X96553000Y-41995000I0J225000D01*
G01*
X96553000Y-41545000D01*
G75*
G02*
X96778000Y-41320000I225000J0D01*
G01*
X97278000Y-41320000D01*
G75*
G02*
X97503000Y-41545000I0J-225000D01*
G01*
X97503000Y-41995000D01*
G75*
G02*
X97278000Y-42220000I-225000J0D01*
G01*
G37*
G36*
G01*
X97278000Y-43770000D02*
X96778000Y-43770000D01*
G75*
G02*
X96553000Y-43545000I0J225000D01*
G01*
X96553000Y-43095000D01*
G75*
G02*
X96778000Y-42870000I225000J0D01*
G01*
X97278000Y-42870000D01*
G75*
G02*
X97503000Y-43095000I0J-225000D01*
G01*
X97503000Y-43545000D01*
G75*
G02*
X97278000Y-43770000I-225000J0D01*
G01*
G37*
%TD*%
%TO.C,C3*%
G36*
G01*
X85086000Y-42080000D02*
X84586000Y-42080000D01*
G75*
G02*
X84361000Y-41855000I0J225000D01*
G01*
X84361000Y-41405000D01*
G75*
G02*
X84586000Y-41180000I225000J0D01*
G01*
X85086000Y-41180000D01*
G75*
G02*
X85311000Y-41405000I0J-225000D01*
G01*
X85311000Y-41855000D01*
G75*
G02*
X85086000Y-42080000I-225000J0D01*
G01*
G37*
G36*
G01*
X85086000Y-43630000D02*
X84586000Y-43630000D01*
G75*
G02*
X84361000Y-43405000I0J225000D01*
G01*
X84361000Y-42955000D01*
G75*
G02*
X84586000Y-42730000I225000J0D01*
G01*
X85086000Y-42730000D01*
G75*
G02*
X85311000Y-42955000I0J-225000D01*
G01*
X85311000Y-43405000D01*
G75*
G02*
X85086000Y-43630000I-225000J0D01*
G01*
G37*
%TD*%
%TO.C,C1*%
G36*
G01*
X93087000Y-75126000D02*
X92587000Y-75126000D01*
G75*
G02*
X92362000Y-74901000I0J225000D01*
G01*
X92362000Y-74451000D01*
G75*
G02*
X92587000Y-74226000I225000J0D01*
G01*
X93087000Y-74226000D01*
G75*
G02*
X93312000Y-74451000I0J-225000D01*
G01*
X93312000Y-74901000D01*
G75*
G02*
X93087000Y-75126000I-225000J0D01*
G01*
G37*
G36*
G01*
X93087000Y-76676000D02*
X92587000Y-76676000D01*
G75*
G02*
X92362000Y-76451000I0J225000D01*
G01*
X92362000Y-76001000D01*
G75*
G02*
X92587000Y-75776000I225000J0D01*
G01*
X93087000Y-75776000D01*
G75*
G02*
X93312000Y-76001000I0J-225000D01*
G01*
X93312000Y-76451000D01*
G75*
G02*
X93087000Y-76676000I-225000J0D01*
G01*
G37*
%TD*%
M02*
